G04 #@! TF.GenerationSoftware,KiCad,Pcbnew,(5.1.10)-1*
G04 #@! TF.CreationDate,2021-07-03T22:49:25-04:00*
G04 #@! TF.ProjectId,Sorting Hat,536f7274-696e-4672-9048-61742e6b6963,rev?*
G04 #@! TF.SameCoordinates,Original*
G04 #@! TF.FileFunction,Paste,Bot*
G04 #@! TF.FilePolarity,Positive*
%FSLAX46Y46*%
G04 Gerber Fmt 4.6, Leading zero omitted, Abs format (unit mm)*
G04 Created by KiCad (PCBNEW (5.1.10)-1) date 2021-07-03 22:49:25*
%MOMM*%
%LPD*%
G01*
G04 APERTURE LIST*
%ADD10R,0.800000X0.900000*%
%ADD11R,1.500000X1.100000*%
%ADD12R,2.790000X5.080000*%
%ADD13C,17.780000*%
%ADD14R,0.900000X0.800000*%
G04 APERTURE END LIST*
D10*
G04 #@! TO.C,Q1*
X143576000Y-75200000D03*
X145476000Y-75200000D03*
X144526000Y-77200000D03*
G04 #@! TD*
D11*
G04 #@! TO.C,SW1*
X149473999Y-66675000D03*
X158374001Y-66675000D03*
G04 #@! TD*
D12*
G04 #@! TO.C,BT1*
X139510000Y-106045000D03*
X161480000Y-106045000D03*
D13*
X150495000Y-106045000D03*
G04 #@! TD*
G04 #@! TO.C,C1*
G36*
G01*
X144474000Y-70797000D02*
X144474000Y-69697000D01*
G75*
G02*
X144724000Y-69447000I250000J0D01*
G01*
X146824000Y-69447000D01*
G75*
G02*
X147074000Y-69697000I0J-250000D01*
G01*
X147074000Y-70797000D01*
G75*
G02*
X146824000Y-71047000I-250000J0D01*
G01*
X144724000Y-71047000D01*
G75*
G02*
X144474000Y-70797000I0J250000D01*
G01*
G37*
G36*
G01*
X148074000Y-70797000D02*
X148074000Y-69697000D01*
G75*
G02*
X148324000Y-69447000I250000J0D01*
G01*
X150424000Y-69447000D01*
G75*
G02*
X150674000Y-69697000I0J-250000D01*
G01*
X150674000Y-70797000D01*
G75*
G02*
X150424000Y-71047000I-250000J0D01*
G01*
X148324000Y-71047000D01*
G75*
G02*
X148074000Y-70797000I0J250000D01*
G01*
G37*
G04 #@! TD*
G04 #@! TO.C,C2*
G36*
G01*
X150122000Y-75015000D02*
X150122000Y-76115000D01*
G75*
G02*
X149872000Y-76365000I-250000J0D01*
G01*
X147772000Y-76365000D01*
G75*
G02*
X147522000Y-76115000I0J250000D01*
G01*
X147522000Y-75015000D01*
G75*
G02*
X147772000Y-74765000I250000J0D01*
G01*
X149872000Y-74765000D01*
G75*
G02*
X150122000Y-75015000I0J-250000D01*
G01*
G37*
G36*
G01*
X153722000Y-75015000D02*
X153722000Y-76115000D01*
G75*
G02*
X153472000Y-76365000I-250000J0D01*
G01*
X151372000Y-76365000D01*
G75*
G02*
X151122000Y-76115000I0J250000D01*
G01*
X151122000Y-75015000D01*
G75*
G02*
X151372000Y-74765000I250000J0D01*
G01*
X153472000Y-74765000D01*
G75*
G02*
X153722000Y-75015000I0J-250000D01*
G01*
G37*
G04 #@! TD*
G04 #@! TO.C,D1*
G36*
G01*
X146926911Y-87389555D02*
X145969355Y-88193040D01*
G75*
G02*
X145617147Y-88162226I-160697J191511D01*
G01*
X145022569Y-87453635D01*
G75*
G02*
X145053383Y-87101427I191511J160697D01*
G01*
X146010939Y-86297942D01*
G75*
G02*
X146363147Y-86328756I160697J-191511D01*
G01*
X146957725Y-87037347D01*
G75*
G02*
X146926911Y-87389555I-191511J-160697D01*
G01*
G37*
G36*
G01*
X145014617Y-85110573D02*
X144057061Y-85914058D01*
G75*
G02*
X143704853Y-85883244I-160697J191511D01*
G01*
X143110275Y-85174653D01*
G75*
G02*
X143141089Y-84822445I191511J160697D01*
G01*
X144098645Y-84018960D01*
G75*
G02*
X144450853Y-84049774I160697J-191511D01*
G01*
X145045431Y-84758365D01*
G75*
G02*
X145014617Y-85110573I-191511J-160697D01*
G01*
G37*
G04 #@! TD*
G04 #@! TO.C,D2*
G36*
G01*
X156697076Y-88932741D02*
X155944808Y-87934446D01*
G75*
G02*
X155994013Y-87584333I199659J150454D01*
G01*
X156732751Y-87027654D01*
G75*
G02*
X157082864Y-87076859I150454J-199659D01*
G01*
X157835132Y-88075154D01*
G75*
G02*
X157785927Y-88425267I-199659J-150454D01*
G01*
X157047189Y-88981946D01*
G75*
G02*
X156697076Y-88932741I-150454J199659D01*
G01*
G37*
G36*
G01*
X154321136Y-90723141D02*
X153568868Y-89724846D01*
G75*
G02*
X153618073Y-89374733I199659J150454D01*
G01*
X154356811Y-88818054D01*
G75*
G02*
X154706924Y-88867259I150454J-199659D01*
G01*
X155459192Y-89865554D01*
G75*
G02*
X155409987Y-90215667I-199659J-150454D01*
G01*
X154671249Y-90772346D01*
G75*
G02*
X154321136Y-90723141I-150454J199659D01*
G01*
G37*
G04 #@! TD*
D14*
G04 #@! TO.C,Q2*
X152146000Y-72197000D03*
X152146000Y-70297000D03*
X154146000Y-71247000D03*
G04 #@! TD*
G04 #@! TO.C,R1*
G36*
G01*
X150505000Y-78826000D02*
X151755000Y-78826000D01*
G75*
G02*
X152005000Y-79076000I0J-250000D01*
G01*
X152005000Y-80001000D01*
G75*
G02*
X151755000Y-80251000I-250000J0D01*
G01*
X150505000Y-80251000D01*
G75*
G02*
X150255000Y-80001000I0J250000D01*
G01*
X150255000Y-79076000D01*
G75*
G02*
X150505000Y-78826000I250000J0D01*
G01*
G37*
G36*
G01*
X150505000Y-81801000D02*
X151755000Y-81801000D01*
G75*
G02*
X152005000Y-82051000I0J-250000D01*
G01*
X152005000Y-82976000D01*
G75*
G02*
X151755000Y-83226000I-250000J0D01*
G01*
X150505000Y-83226000D01*
G75*
G02*
X150255000Y-82976000I0J250000D01*
G01*
X150255000Y-82051000D01*
G75*
G02*
X150505000Y-81801000I250000J0D01*
G01*
G37*
G04 #@! TD*
G04 #@! TO.C,R2*
G36*
G01*
X153045000Y-81801000D02*
X154295000Y-81801000D01*
G75*
G02*
X154545000Y-82051000I0J-250000D01*
G01*
X154545000Y-82976000D01*
G75*
G02*
X154295000Y-83226000I-250000J0D01*
G01*
X153045000Y-83226000D01*
G75*
G02*
X152795000Y-82976000I0J250000D01*
G01*
X152795000Y-82051000D01*
G75*
G02*
X153045000Y-81801000I250000J0D01*
G01*
G37*
G36*
G01*
X153045000Y-78826000D02*
X154295000Y-78826000D01*
G75*
G02*
X154545000Y-79076000I0J-250000D01*
G01*
X154545000Y-80001000D01*
G75*
G02*
X154295000Y-80251000I-250000J0D01*
G01*
X153045000Y-80251000D01*
G75*
G02*
X152795000Y-80001000I0J250000D01*
G01*
X152795000Y-79076000D01*
G75*
G02*
X153045000Y-78826000I250000J0D01*
G01*
G37*
G04 #@! TD*
G04 #@! TO.C,R3*
G36*
G01*
X147965000Y-78826000D02*
X149215000Y-78826000D01*
G75*
G02*
X149465000Y-79076000I0J-250000D01*
G01*
X149465000Y-80001000D01*
G75*
G02*
X149215000Y-80251000I-250000J0D01*
G01*
X147965000Y-80251000D01*
G75*
G02*
X147715000Y-80001000I0J250000D01*
G01*
X147715000Y-79076000D01*
G75*
G02*
X147965000Y-78826000I250000J0D01*
G01*
G37*
G36*
G01*
X147965000Y-81801000D02*
X149215000Y-81801000D01*
G75*
G02*
X149465000Y-82051000I0J-250000D01*
G01*
X149465000Y-82976000D01*
G75*
G02*
X149215000Y-83226000I-250000J0D01*
G01*
X147965000Y-83226000D01*
G75*
G02*
X147715000Y-82976000I0J250000D01*
G01*
X147715000Y-82051000D01*
G75*
G02*
X147965000Y-81801000I250000J0D01*
G01*
G37*
G04 #@! TD*
G04 #@! TO.C,R4*
G36*
G01*
X155585000Y-81801000D02*
X156835000Y-81801000D01*
G75*
G02*
X157085000Y-82051000I0J-250000D01*
G01*
X157085000Y-82976000D01*
G75*
G02*
X156835000Y-83226000I-250000J0D01*
G01*
X155585000Y-83226000D01*
G75*
G02*
X155335000Y-82976000I0J250000D01*
G01*
X155335000Y-82051000D01*
G75*
G02*
X155585000Y-81801000I250000J0D01*
G01*
G37*
G36*
G01*
X155585000Y-78826000D02*
X156835000Y-78826000D01*
G75*
G02*
X157085000Y-79076000I0J-250000D01*
G01*
X157085000Y-80001000D01*
G75*
G02*
X156835000Y-80251000I-250000J0D01*
G01*
X155585000Y-80251000D01*
G75*
G02*
X155335000Y-80001000I0J250000D01*
G01*
X155335000Y-79076000D01*
G75*
G02*
X155585000Y-78826000I250000J0D01*
G01*
G37*
G04 #@! TD*
M02*
