G04 #@! TF.GenerationSoftware,KiCad,Pcbnew,(5.1.10)-1*
G04 #@! TF.CreationDate,2021-07-03T22:49:25-04:00*
G04 #@! TF.ProjectId,Sorting Hat,536f7274-696e-4672-9048-61742e6b6963,rev?*
G04 #@! TF.SameCoordinates,Original*
G04 #@! TF.FileFunction,Legend,Top*
G04 #@! TF.FilePolarity,Positive*
%FSLAX46Y46*%
G04 Gerber Fmt 4.6, Leading zero omitted, Abs format (unit mm)*
G04 Created by KiCad (PCBNEW (5.1.10)-1) date 2021-07-03 22:49:25*
%MOMM*%
%LPD*%
G01*
G04 APERTURE LIST*
%ADD10C,0.010000*%
G04 APERTURE END LIST*
D10*
G04 #@! TO.C,G\u002A\u002A\u002A*
G36*
X155271124Y-59471233D02*
G01*
X155385373Y-59487820D01*
X155574458Y-59533524D01*
X155745532Y-59592185D01*
X155905473Y-59667940D01*
X156061158Y-59764921D01*
X156219464Y-59887263D01*
X156387269Y-60039102D01*
X156516916Y-60168072D01*
X156688770Y-60340840D01*
X156843131Y-60487777D01*
X156988740Y-60616273D01*
X157134340Y-60733723D01*
X157288671Y-60847518D01*
X157455266Y-60961587D01*
X157724868Y-61130958D01*
X158005596Y-61286998D01*
X158301230Y-61431080D01*
X158615554Y-61564575D01*
X158952350Y-61688857D01*
X159315401Y-61805299D01*
X159708490Y-61915272D01*
X160135399Y-62020150D01*
X160599911Y-62121305D01*
X160716324Y-62144963D01*
X161613935Y-62338890D01*
X162484696Y-62555678D01*
X163336777Y-62797902D01*
X164178347Y-63068139D01*
X165017572Y-63368963D01*
X165862622Y-63702950D01*
X166452246Y-63953591D01*
X166766720Y-64093291D01*
X167046673Y-64223023D01*
X167297826Y-64345962D01*
X167525900Y-64465282D01*
X167736616Y-64584156D01*
X167935695Y-64705757D01*
X168128858Y-64833261D01*
X168321827Y-64969840D01*
X168433750Y-65052835D01*
X168636378Y-65211212D01*
X168834327Y-65377096D01*
X169022402Y-65545503D01*
X169195408Y-65711450D01*
X169348153Y-65869952D01*
X169475442Y-66016027D01*
X169572081Y-66144689D01*
X169572849Y-66145833D01*
X169689584Y-66344967D01*
X169765352Y-66533479D01*
X169800133Y-66711452D01*
X169793904Y-66878967D01*
X169746641Y-67036108D01*
X169658324Y-67182956D01*
X169528929Y-67319594D01*
X169358433Y-67446105D01*
X169193933Y-67539314D01*
X168928928Y-67661175D01*
X168627846Y-67776967D01*
X168296718Y-67884994D01*
X167941571Y-67983559D01*
X167568438Y-68070968D01*
X167183347Y-68145523D01*
X166856833Y-68196725D01*
X166729800Y-68213964D01*
X166604244Y-68229776D01*
X166477433Y-68244300D01*
X166346635Y-68257672D01*
X166209117Y-68270029D01*
X166062147Y-68281510D01*
X165902994Y-68292253D01*
X165728924Y-68302394D01*
X165537206Y-68312072D01*
X165325108Y-68321424D01*
X165089896Y-68330587D01*
X164828840Y-68339700D01*
X164539207Y-68348899D01*
X164218264Y-68358323D01*
X163863280Y-68368109D01*
X163471523Y-68378395D01*
X163040259Y-68389318D01*
X163025666Y-68389682D01*
X162597409Y-68400490D01*
X162184220Y-68411156D01*
X161788145Y-68421618D01*
X161411229Y-68431815D01*
X161055517Y-68441685D01*
X160723055Y-68451166D01*
X160415888Y-68460198D01*
X160136061Y-68468719D01*
X159885621Y-68476666D01*
X159666611Y-68483980D01*
X159481079Y-68490597D01*
X159331068Y-68496457D01*
X159218624Y-68501498D01*
X159145793Y-68505659D01*
X159131000Y-68506811D01*
X158951390Y-68532631D01*
X158808532Y-68576738D01*
X158700011Y-68641349D01*
X158623413Y-68728684D01*
X158576325Y-68840960D01*
X158556332Y-68980395D01*
X158555287Y-69035825D01*
X158556813Y-69110160D01*
X158560949Y-69181374D01*
X158568757Y-69255281D01*
X158581301Y-69337695D01*
X158599642Y-69434428D01*
X158624844Y-69551296D01*
X158657968Y-69694110D01*
X158700077Y-69868684D01*
X158729234Y-69987583D01*
X158789773Y-70241234D01*
X158837515Y-70459491D01*
X158873192Y-70647074D01*
X158897539Y-70808700D01*
X158911287Y-70949090D01*
X158915170Y-71072961D01*
X158911739Y-71162333D01*
X158872204Y-71429770D01*
X158793635Y-71684159D01*
X158677735Y-71921741D01*
X158526207Y-72138755D01*
X158412573Y-72263865D01*
X158315606Y-72352118D01*
X158193790Y-72447774D01*
X158044739Y-72552373D01*
X157866068Y-72667456D01*
X157655392Y-72794564D01*
X157410326Y-72935238D01*
X157151916Y-73078250D01*
X156955377Y-73186451D01*
X156791629Y-73279078D01*
X156655570Y-73359431D01*
X156542098Y-73430811D01*
X156446112Y-73496519D01*
X156362509Y-73559856D01*
X156286188Y-73624121D01*
X156232770Y-73672925D01*
X156133701Y-73772096D01*
X156061318Y-73860024D01*
X156006542Y-73948116D01*
X155993495Y-73973609D01*
X155962147Y-74040082D01*
X155942104Y-74094483D01*
X155930939Y-74149809D01*
X155926225Y-74219059D01*
X155925535Y-74315228D01*
X155925654Y-74336962D01*
X155927725Y-74423483D01*
X155934086Y-74502251D01*
X155946705Y-74578688D01*
X155967549Y-74658218D01*
X155998586Y-74746263D01*
X156041783Y-74848246D01*
X156099109Y-74969590D01*
X156172531Y-75115718D01*
X156264017Y-75292053D01*
X156290602Y-75342750D01*
X156465161Y-75680346D01*
X156642917Y-76034650D01*
X156825091Y-76408321D01*
X157012907Y-76804022D01*
X157207584Y-77224413D01*
X157410346Y-77672156D01*
X157622415Y-78149913D01*
X157845011Y-78660344D01*
X158079357Y-79206112D01*
X158263290Y-79639583D01*
X158421455Y-80014049D01*
X158564127Y-80351750D01*
X158692288Y-80654917D01*
X158806921Y-80925779D01*
X158909009Y-81166567D01*
X158999535Y-81379511D01*
X159079482Y-81566841D01*
X159149834Y-81730788D01*
X159211572Y-81873581D01*
X159265681Y-81997452D01*
X159313143Y-82104629D01*
X159354940Y-82197345D01*
X159392057Y-82277828D01*
X159425475Y-82348309D01*
X159456179Y-82411018D01*
X159485151Y-82468186D01*
X159513373Y-82522043D01*
X159541830Y-82574819D01*
X159571504Y-82628744D01*
X159603377Y-82686048D01*
X159616034Y-82708750D01*
X159869005Y-83131025D01*
X160154541Y-83551197D01*
X160464003Y-83957447D01*
X160788753Y-84337956D01*
X160876996Y-84433745D01*
X160963951Y-84528804D01*
X161047800Y-84624492D01*
X161120741Y-84711630D01*
X161174970Y-84781038D01*
X161189018Y-84800811D01*
X161333095Y-85047474D01*
X161442631Y-85309743D01*
X161516038Y-85581477D01*
X161551723Y-85856534D01*
X161548097Y-86128770D01*
X161543841Y-86170960D01*
X161521940Y-86330963D01*
X161492899Y-86473210D01*
X161452472Y-86614163D01*
X161396413Y-86770283D01*
X161375522Y-86823518D01*
X161228190Y-87247253D01*
X161122654Y-87673369D01*
X161058988Y-88100849D01*
X161037265Y-88528673D01*
X161057559Y-88955822D01*
X161119943Y-89381276D01*
X161173534Y-89619371D01*
X161214948Y-89774878D01*
X161268882Y-89964941D01*
X161333695Y-90184223D01*
X161407744Y-90427388D01*
X161489390Y-90689096D01*
X161576989Y-90964011D01*
X161668899Y-91246796D01*
X161743352Y-91471874D01*
X162166701Y-92677412D01*
X162626795Y-93864312D01*
X163124325Y-95034018D01*
X163659980Y-96187973D01*
X164234452Y-97327623D01*
X164848431Y-98454410D01*
X165502607Y-99569779D01*
X165989056Y-100351166D01*
X166297869Y-100833193D01*
X166588128Y-101281346D01*
X166861920Y-101698712D01*
X167121332Y-102088377D01*
X167368451Y-102453427D01*
X167605366Y-102796949D01*
X167834162Y-103122029D01*
X168056926Y-103431754D01*
X168250696Y-103695500D01*
X168380401Y-103872003D01*
X168487962Y-104022844D01*
X168577936Y-104155214D01*
X168654881Y-104276301D01*
X168723354Y-104393293D01*
X168787914Y-104513380D01*
X168853118Y-104643751D01*
X168857222Y-104652206D01*
X168990307Y-104954658D01*
X169099959Y-105267129D01*
X169190235Y-105601870D01*
X169226257Y-105766138D01*
X169299224Y-106083855D01*
X169380060Y-106361774D01*
X169469979Y-106601903D01*
X169570195Y-106806249D01*
X169681921Y-106976823D01*
X169806372Y-107115632D01*
X169944760Y-107224684D01*
X170098300Y-107305988D01*
X170174040Y-107334519D01*
X170319115Y-107370099D01*
X170475484Y-107382075D01*
X170649336Y-107370137D01*
X170846863Y-107333974D01*
X171007869Y-107292577D01*
X171492500Y-107146356D01*
X171976865Y-106980720D01*
X172469494Y-106792497D01*
X172978919Y-106578516D01*
X173231268Y-106466017D01*
X173964495Y-106147897D01*
X174685816Y-105864811D01*
X175402900Y-105614258D01*
X176123420Y-105393737D01*
X176855043Y-105200747D01*
X177605441Y-105032788D01*
X177662416Y-105021186D01*
X178106433Y-104935392D01*
X178534038Y-104861440D01*
X178952473Y-104798602D01*
X179368978Y-104746146D01*
X179790794Y-104703344D01*
X180225162Y-104669466D01*
X180679323Y-104643780D01*
X181160518Y-104625558D01*
X181675989Y-104614069D01*
X181705250Y-104613622D01*
X181990959Y-104610143D01*
X182239263Y-104609164D01*
X182455040Y-104611133D01*
X182643169Y-104616500D01*
X182808527Y-104625712D01*
X182955993Y-104639219D01*
X183090445Y-104657470D01*
X183216762Y-104680912D01*
X183339821Y-104709996D01*
X183464502Y-104745169D01*
X183595682Y-104786880D01*
X183598345Y-104787764D01*
X183949221Y-104926256D01*
X184284540Y-105102032D01*
X184601697Y-105312073D01*
X184898089Y-105553362D01*
X185171109Y-105822878D01*
X185418154Y-106117604D01*
X185636620Y-106434519D01*
X185823901Y-106770607D01*
X185977393Y-107122847D01*
X186094491Y-107488221D01*
X186153176Y-107748916D01*
X186176616Y-107916930D01*
X186190614Y-108109885D01*
X186195277Y-108315487D01*
X186190712Y-108521444D01*
X186177025Y-108715464D01*
X186154321Y-108885253D01*
X186142854Y-108943114D01*
X186064281Y-109235283D01*
X185961512Y-109507356D01*
X185831247Y-109764934D01*
X185670182Y-110013617D01*
X185475016Y-110259008D01*
X185242445Y-110506706D01*
X185191592Y-110556589D01*
X184874986Y-110843286D01*
X184540911Y-111105770D01*
X184185202Y-111346524D01*
X183803690Y-111568028D01*
X183392210Y-111772763D01*
X182946594Y-111963211D01*
X182626000Y-112084364D01*
X182558465Y-112108371D01*
X182487310Y-112132953D01*
X182410496Y-112158703D01*
X182325983Y-112186214D01*
X182231730Y-112216080D01*
X182125699Y-112248894D01*
X182005848Y-112285250D01*
X181870138Y-112325741D01*
X181716530Y-112370960D01*
X181542983Y-112421501D01*
X181347457Y-112477958D01*
X181127913Y-112540924D01*
X180882311Y-112610992D01*
X180608610Y-112688757D01*
X180304771Y-112774810D01*
X179968754Y-112869746D01*
X179598520Y-112974159D01*
X179192027Y-113088642D01*
X178747237Y-113213787D01*
X178646899Y-113242006D01*
X178239309Y-113356660D01*
X177798297Y-113480781D01*
X177330500Y-113612496D01*
X176842558Y-113749934D01*
X176341107Y-113891225D01*
X175832786Y-114034496D01*
X175324234Y-114177876D01*
X174822087Y-114319495D01*
X174332984Y-114457480D01*
X173863563Y-114589962D01*
X173420462Y-114715067D01*
X173010319Y-114830926D01*
X172942482Y-114850095D01*
X172525641Y-114967862D01*
X172147288Y-115074665D01*
X171805188Y-115171105D01*
X171497105Y-115257781D01*
X171220804Y-115335294D01*
X170974049Y-115404244D01*
X170754606Y-115465229D01*
X170560238Y-115518851D01*
X170388710Y-115565708D01*
X170237786Y-115606402D01*
X170105232Y-115641531D01*
X169988812Y-115671695D01*
X169886290Y-115697495D01*
X169795431Y-115719531D01*
X169714000Y-115738401D01*
X169639761Y-115754706D01*
X169570479Y-115769047D01*
X169503918Y-115782022D01*
X169437842Y-115794231D01*
X169396833Y-115801557D01*
X169254006Y-115826546D01*
X169122669Y-115848679D01*
X168999300Y-115868157D01*
X168880380Y-115885182D01*
X168762390Y-115899956D01*
X168641811Y-115912679D01*
X168515122Y-115923554D01*
X168378804Y-115932783D01*
X168229338Y-115940566D01*
X168063204Y-115947106D01*
X167876882Y-115952603D01*
X167666853Y-115957261D01*
X167429598Y-115961280D01*
X167161596Y-115964861D01*
X166859328Y-115968207D01*
X166519276Y-115971519D01*
X166412333Y-115972509D01*
X166127050Y-115975362D01*
X165846345Y-115978615D01*
X165574172Y-115982197D01*
X165314480Y-115986036D01*
X165071223Y-115990060D01*
X164848352Y-115994199D01*
X164649819Y-115998380D01*
X164479576Y-116002532D01*
X164341573Y-116006585D01*
X164239764Y-116010465D01*
X164200416Y-116012513D01*
X163562405Y-116055092D01*
X162946292Y-116104181D01*
X162347099Y-116160592D01*
X161759849Y-116225141D01*
X161179566Y-116298639D01*
X160601273Y-116381902D01*
X160019993Y-116475743D01*
X159430748Y-116580974D01*
X158828563Y-116698411D01*
X158208459Y-116828866D01*
X157565461Y-116973154D01*
X156894590Y-117132088D01*
X156190871Y-117306481D01*
X156019500Y-117349971D01*
X155675219Y-117438455D01*
X155334630Y-117527568D01*
X154995431Y-117618014D01*
X154655323Y-117710494D01*
X154312007Y-117805711D01*
X153963183Y-117904367D01*
X153606552Y-118007165D01*
X153239814Y-118114807D01*
X152860669Y-118227996D01*
X152466818Y-118347433D01*
X152055961Y-118473822D01*
X151625799Y-118607865D01*
X151174032Y-118750263D01*
X150698361Y-118901720D01*
X150196485Y-119062938D01*
X149666106Y-119234620D01*
X149104924Y-119417467D01*
X148510639Y-119612182D01*
X147880952Y-119819468D01*
X147224750Y-120036323D01*
X146849070Y-120160531D01*
X146509448Y-120272469D01*
X146201840Y-120373428D01*
X145922202Y-120464703D01*
X145666489Y-120547584D01*
X145430657Y-120623365D01*
X145210663Y-120693338D01*
X145002462Y-120758796D01*
X144802009Y-120821031D01*
X144605262Y-120881336D01*
X144408176Y-120941003D01*
X144206706Y-121001324D01*
X144187333Y-121007094D01*
X142601452Y-121458759D01*
X141000055Y-121874448D01*
X139387476Y-122253233D01*
X137768049Y-122594188D01*
X136146109Y-122896387D01*
X134525989Y-123158903D01*
X133339416Y-123325940D01*
X132633700Y-123416441D01*
X131963414Y-123497253D01*
X131322899Y-123568878D01*
X130706497Y-123631818D01*
X130108550Y-123686574D01*
X129523398Y-123733646D01*
X128945383Y-123773536D01*
X128368846Y-123806746D01*
X127788128Y-123833775D01*
X127465666Y-123846162D01*
X127378626Y-123848491D01*
X127254714Y-123850670D01*
X127097634Y-123852695D01*
X126911087Y-123854560D01*
X126698778Y-123856258D01*
X126464407Y-123857785D01*
X126211678Y-123859134D01*
X125944295Y-123860300D01*
X125665958Y-123861277D01*
X125380371Y-123862060D01*
X125091237Y-123862643D01*
X124802258Y-123863021D01*
X124517137Y-123863187D01*
X124239577Y-123863137D01*
X123973280Y-123862864D01*
X123721949Y-123862363D01*
X123489286Y-123861628D01*
X123278995Y-123860653D01*
X123094778Y-123859434D01*
X122940337Y-123857963D01*
X122819375Y-123856237D01*
X122735596Y-123854248D01*
X122713750Y-123853398D01*
X122020776Y-123817318D01*
X121363309Y-123775129D01*
X120734859Y-123726045D01*
X120128935Y-123669282D01*
X119539046Y-123604057D01*
X118958704Y-123529585D01*
X118381417Y-123445082D01*
X117800695Y-123349764D01*
X117210047Y-123242846D01*
X116602985Y-123123544D01*
X116501333Y-123102726D01*
X115829844Y-122957493D01*
X115198059Y-122806193D01*
X114603661Y-122647888D01*
X114044333Y-122481643D01*
X113517757Y-122306518D01*
X113021615Y-122121577D01*
X112553591Y-121925883D01*
X112111368Y-121718498D01*
X111692627Y-121498485D01*
X111295052Y-121264906D01*
X110916325Y-121016825D01*
X110554130Y-120753303D01*
X110405333Y-120636959D01*
X110230133Y-120491309D01*
X110053455Y-120333782D01*
X109881121Y-120170282D01*
X109718949Y-120006711D01*
X109572761Y-119848974D01*
X109448377Y-119702973D01*
X109351617Y-119574611D01*
X109337912Y-119554331D01*
X109198060Y-119314985D01*
X109096556Y-119075692D01*
X109033400Y-118833980D01*
X109015589Y-118656951D01*
X109380150Y-118656951D01*
X109394866Y-118818110D01*
X109418336Y-118923652D01*
X109488096Y-119109335D01*
X109585850Y-119294139D01*
X109714346Y-119482022D01*
X109876333Y-119676940D01*
X110074561Y-119882848D01*
X110106315Y-119913696D01*
X110486882Y-120256662D01*
X110894870Y-120577581D01*
X111333465Y-120878638D01*
X111805851Y-121162018D01*
X112315212Y-121429904D01*
X112320916Y-121432716D01*
X112668723Y-121597471D01*
X113023533Y-121752095D01*
X113389439Y-121897899D01*
X113770529Y-122036192D01*
X114170895Y-122168283D01*
X114594626Y-122295482D01*
X115045812Y-122419099D01*
X115528545Y-122540442D01*
X116046914Y-122660821D01*
X116395500Y-122737156D01*
X117575565Y-122969578D01*
X118766937Y-123163173D01*
X119971385Y-123318161D01*
X121190680Y-123434761D01*
X122426593Y-123513192D01*
X122777250Y-123528397D01*
X122883171Y-123531487D01*
X123027145Y-123534088D01*
X123205240Y-123536217D01*
X123413524Y-123537888D01*
X123648066Y-123539117D01*
X123904934Y-123539917D01*
X124180198Y-123540305D01*
X124469924Y-123540296D01*
X124770182Y-123539905D01*
X125077040Y-123539146D01*
X125386566Y-123538035D01*
X125694830Y-123536587D01*
X125997898Y-123534817D01*
X126291841Y-123532740D01*
X126572726Y-123530371D01*
X126836622Y-123527725D01*
X127079597Y-123524817D01*
X127297719Y-123521663D01*
X127487057Y-123518278D01*
X127643680Y-123514676D01*
X127763656Y-123510872D01*
X127804333Y-123509114D01*
X128344775Y-123481193D01*
X128860042Y-123451025D01*
X129357001Y-123417971D01*
X129842521Y-123381394D01*
X130323467Y-123340656D01*
X130806707Y-123295121D01*
X131299108Y-123244150D01*
X131807538Y-123187106D01*
X132338864Y-123123352D01*
X132899952Y-123052249D01*
X133318250Y-122997210D01*
X134935813Y-122761351D01*
X136557999Y-122484782D01*
X138181173Y-122168313D01*
X139801699Y-121812755D01*
X141415940Y-121418916D01*
X143020260Y-120987607D01*
X144611024Y-120519639D01*
X145044583Y-120384956D01*
X145178400Y-120342550D01*
X145347525Y-120288377D01*
X145547092Y-120224021D01*
X145772235Y-120151067D01*
X146018090Y-120071100D01*
X146279791Y-119985706D01*
X146552474Y-119896471D01*
X146831273Y-119804978D01*
X147111323Y-119712814D01*
X147387759Y-119621563D01*
X147404666Y-119615972D01*
X148074081Y-119395034D01*
X148705947Y-119187440D01*
X149302647Y-118992469D01*
X149866559Y-118809398D01*
X150400065Y-118637508D01*
X150905546Y-118476078D01*
X151385383Y-118324386D01*
X151841955Y-118181711D01*
X152277644Y-118047333D01*
X152694830Y-117920530D01*
X153095894Y-117800582D01*
X153483216Y-117686768D01*
X153859178Y-117578366D01*
X154226160Y-117474656D01*
X154586543Y-117374917D01*
X154942707Y-117278427D01*
X155297033Y-117184466D01*
X155651901Y-117092313D01*
X156009693Y-117001246D01*
X156178250Y-116958938D01*
X156869086Y-116789315D01*
X157525652Y-116634637D01*
X158152969Y-116494093D01*
X158756059Y-116366873D01*
X159339945Y-116252167D01*
X159909648Y-116149165D01*
X160470190Y-116057058D01*
X161026594Y-115975034D01*
X161583880Y-115902284D01*
X162147072Y-115837997D01*
X162721191Y-115781364D01*
X163311258Y-115731575D01*
X163922297Y-115687820D01*
X164147500Y-115673443D01*
X164225886Y-115669729D01*
X164342679Y-115665802D01*
X164493955Y-115661733D01*
X164675789Y-115657594D01*
X164884255Y-115653454D01*
X165115429Y-115649384D01*
X165365386Y-115645456D01*
X165630200Y-115641741D01*
X165905948Y-115638309D01*
X166188703Y-115635231D01*
X166348833Y-115633687D01*
X166693268Y-115630437D01*
X166998830Y-115627280D01*
X167268979Y-115624043D01*
X167507174Y-115620554D01*
X167716874Y-115616641D01*
X167901538Y-115612133D01*
X168064627Y-115606856D01*
X168209599Y-115600639D01*
X168339915Y-115593311D01*
X168459033Y-115584698D01*
X168570413Y-115574630D01*
X168677515Y-115562933D01*
X168783797Y-115549436D01*
X168892720Y-115533967D01*
X169007743Y-115516353D01*
X169132324Y-115496424D01*
X169142642Y-115494751D01*
X169286036Y-115470320D01*
X169443459Y-115441590D01*
X169597148Y-115411909D01*
X169729339Y-115384626D01*
X169745892Y-115381019D01*
X169791534Y-115369718D01*
X169875999Y-115347423D01*
X169997377Y-115314667D01*
X170153755Y-115271984D01*
X170343222Y-115219905D01*
X170563869Y-115158964D01*
X170813783Y-115089693D01*
X171091053Y-115012626D01*
X171393769Y-114928294D01*
X171720020Y-114837231D01*
X172067894Y-114739970D01*
X172435480Y-114637043D01*
X172820868Y-114528983D01*
X173222146Y-114416323D01*
X173637403Y-114299596D01*
X174064729Y-114179334D01*
X174502211Y-114056071D01*
X174836666Y-113961740D01*
X175486083Y-113778504D01*
X176096095Y-113606390D01*
X176668037Y-113445011D01*
X177203243Y-113293977D01*
X177703047Y-113152902D01*
X178168783Y-113021396D01*
X178601786Y-112899072D01*
X179003389Y-112785541D01*
X179374926Y-112680415D01*
X179717731Y-112583306D01*
X180033139Y-112493825D01*
X180322484Y-112411585D01*
X180587099Y-112336197D01*
X180828320Y-112267272D01*
X181047479Y-112204423D01*
X181245911Y-112147261D01*
X181424950Y-112095399D01*
X181585931Y-112048447D01*
X181730186Y-112006018D01*
X181859051Y-111967723D01*
X181973860Y-111933175D01*
X182075945Y-111901984D01*
X182166643Y-111873763D01*
X182247286Y-111848123D01*
X182319209Y-111824677D01*
X182383746Y-111803036D01*
X182442230Y-111782811D01*
X182495997Y-111763615D01*
X182546380Y-111745059D01*
X182594713Y-111726755D01*
X182642330Y-111708315D01*
X182690566Y-111689350D01*
X182740754Y-111669473D01*
X182794229Y-111648295D01*
X182816500Y-111639506D01*
X183169342Y-111489646D01*
X183515242Y-111321753D01*
X183848407Y-111139400D01*
X184163044Y-110946163D01*
X184453360Y-110745615D01*
X184713561Y-110541331D01*
X184937856Y-110336885D01*
X184954333Y-110320369D01*
X185195796Y-110049121D01*
X185402347Y-109757218D01*
X185566291Y-109463416D01*
X185654891Y-109272629D01*
X185722233Y-109096403D01*
X185770330Y-108924632D01*
X185801199Y-108747212D01*
X185816854Y-108554039D01*
X185819311Y-108335008D01*
X185816149Y-108210591D01*
X185793945Y-107910205D01*
X185747515Y-107628614D01*
X185674501Y-107359819D01*
X185572546Y-107097824D01*
X185439295Y-106836630D01*
X185272391Y-106570240D01*
X185069476Y-106292657D01*
X185055420Y-106274641D01*
X184812055Y-105997757D01*
X184539271Y-105749742D01*
X184240480Y-105532736D01*
X183919094Y-105348880D01*
X183578523Y-105200316D01*
X183222178Y-105089183D01*
X183132756Y-105067887D01*
X183082906Y-105056955D01*
X183036551Y-105047768D01*
X182989623Y-105040176D01*
X182938056Y-105034031D01*
X182877783Y-105029183D01*
X182804736Y-105025484D01*
X182714850Y-105022784D01*
X182604057Y-105020936D01*
X182468290Y-105019789D01*
X182303482Y-105019195D01*
X182105567Y-105019006D01*
X181870477Y-105019072D01*
X181800500Y-105019114D01*
X181515845Y-105019877D01*
X181252949Y-105021751D01*
X181015224Y-105024674D01*
X180806085Y-105028582D01*
X180628947Y-105033409D01*
X180487224Y-105039092D01*
X180384330Y-105045568D01*
X180382333Y-105045735D01*
X179512901Y-105133665D01*
X178672699Y-105248605D01*
X177857486Y-105391643D01*
X177063022Y-105563870D01*
X176285064Y-105766376D01*
X175519371Y-106000250D01*
X174761704Y-106266582D01*
X174007821Y-106566462D01*
X173366872Y-106848531D01*
X173070737Y-106980924D01*
X172769611Y-107108759D01*
X172468071Y-107230442D01*
X172170692Y-107344382D01*
X171882048Y-107448986D01*
X171606717Y-107542661D01*
X171349272Y-107623815D01*
X171114289Y-107690856D01*
X170906344Y-107742190D01*
X170730012Y-107776226D01*
X170681725Y-107783113D01*
X170443164Y-107793369D01*
X170209625Y-107764394D01*
X169986087Y-107698314D01*
X169777526Y-107597258D01*
X169588920Y-107463351D01*
X169425246Y-107298722D01*
X169364664Y-107220268D01*
X169268271Y-107064566D01*
X169174510Y-106873466D01*
X169086024Y-106653901D01*
X169005460Y-106412808D01*
X168935462Y-106157120D01*
X168900282Y-106002666D01*
X168856681Y-105801785D01*
X168817322Y-105634659D01*
X168780062Y-105493194D01*
X168742761Y-105369294D01*
X168703277Y-105254867D01*
X168700256Y-105246679D01*
X168637295Y-105084856D01*
X168571537Y-104934136D01*
X168499232Y-104788034D01*
X168416629Y-104640068D01*
X168319979Y-104483754D01*
X168205531Y-104312609D01*
X168069536Y-104120148D01*
X167968318Y-103981242D01*
X167671324Y-103571277D01*
X167360231Y-103130470D01*
X167039197Y-102665202D01*
X166712378Y-102181851D01*
X166383932Y-101686794D01*
X166058017Y-101186410D01*
X165738790Y-100687079D01*
X165430407Y-100195177D01*
X165137027Y-99717084D01*
X164862807Y-99259177D01*
X164629701Y-98858916D01*
X164010479Y-97736972D01*
X163428012Y-96594959D01*
X162882095Y-95432398D01*
X162372525Y-94248808D01*
X161899099Y-93043709D01*
X161461613Y-91816621D01*
X161059864Y-90567064D01*
X160922444Y-90106500D01*
X160806538Y-89655979D01*
X160727864Y-89221765D01*
X160686574Y-88799739D01*
X160682821Y-88385780D01*
X160716757Y-87975770D01*
X160788535Y-87565589D01*
X160898306Y-87151117D01*
X161046224Y-86728235D01*
X161047564Y-86724800D01*
X161117279Y-86531335D01*
X161164831Y-86360681D01*
X161192441Y-86201043D01*
X161202326Y-86040626D01*
X161199637Y-85916470D01*
X161184524Y-85747723D01*
X161155575Y-85599050D01*
X161130903Y-85513333D01*
X161083949Y-85377951D01*
X161032881Y-85258156D01*
X160972806Y-85146365D01*
X160898828Y-85035000D01*
X160806055Y-84916480D01*
X160689592Y-84783224D01*
X160590402Y-84676109D01*
X160223662Y-84259220D01*
X159877316Y-83810974D01*
X159557234Y-83339779D01*
X159269285Y-82854041D01*
X159119469Y-82569278D01*
X159089020Y-82507379D01*
X159054771Y-82435314D01*
X159015716Y-82350760D01*
X158970848Y-82251388D01*
X158919163Y-82134873D01*
X158859655Y-81998888D01*
X158791318Y-81841106D01*
X158713146Y-81659202D01*
X158624133Y-81450849D01*
X158523275Y-81213721D01*
X158409564Y-80945491D01*
X158281996Y-80643833D01*
X158139564Y-80306421D01*
X158074208Y-80151444D01*
X157895994Y-79729538D01*
X157732006Y-79343132D01*
X157580556Y-78988497D01*
X157439956Y-78661904D01*
X157308518Y-78359623D01*
X157184557Y-78077926D01*
X157066383Y-77813084D01*
X156952310Y-77561366D01*
X156840650Y-77319045D01*
X156729715Y-77082391D01*
X156617819Y-76847676D01*
X156503275Y-76611170D01*
X156384393Y-76369143D01*
X156259488Y-76117868D01*
X156152072Y-75903666D01*
X156056616Y-75712974D01*
X155965544Y-75529183D01*
X155880956Y-75356655D01*
X155804948Y-75199753D01*
X155739617Y-75062839D01*
X155687063Y-74950277D01*
X155649381Y-74866428D01*
X155628670Y-74815656D01*
X155627954Y-74813583D01*
X155565359Y-74573445D01*
X155543736Y-74343320D01*
X155563130Y-74123104D01*
X155623588Y-73912695D01*
X155725154Y-73711989D01*
X155867874Y-73520883D01*
X156051794Y-73339274D01*
X156276960Y-73167060D01*
X156389916Y-73093737D01*
X156457992Y-73052977D01*
X156555422Y-72996520D01*
X156674337Y-72928831D01*
X156806866Y-72854373D01*
X156945139Y-72777610D01*
X157014333Y-72739560D01*
X157294646Y-72582313D01*
X157542330Y-72435770D01*
X157756044Y-72300818D01*
X157934444Y-72178340D01*
X158076187Y-72069225D01*
X158179930Y-71974357D01*
X158189321Y-71964447D01*
X158334087Y-71779907D01*
X158442497Y-71575656D01*
X158515494Y-71349578D01*
X158547944Y-71161213D01*
X158551924Y-71078443D01*
X158546563Y-70974906D01*
X158531326Y-70847463D01*
X158505677Y-70692975D01*
X158469080Y-70508301D01*
X158420998Y-70290302D01*
X158360896Y-70035839D01*
X158343993Y-69966416D01*
X158289048Y-69737117D01*
X158245736Y-69543057D01*
X158213731Y-69378869D01*
X158192705Y-69239184D01*
X158182333Y-69118633D01*
X158182287Y-69011848D01*
X158192241Y-68913459D01*
X158211869Y-68818098D01*
X158240845Y-68720397D01*
X158264172Y-68654083D01*
X158334666Y-68521188D01*
X158441192Y-68400575D01*
X158578245Y-68296345D01*
X158740321Y-68212598D01*
X158921917Y-68153435D01*
X158942626Y-68148653D01*
X159014272Y-68137529D01*
X159122812Y-68127192D01*
X159262807Y-68118009D01*
X159428819Y-68110345D01*
X159586083Y-68105306D01*
X159748967Y-68100915D01*
X159941938Y-68095511D01*
X160152775Y-68089448D01*
X160369252Y-68083081D01*
X160579148Y-68076766D01*
X160739666Y-68071816D01*
X160881500Y-68067547D01*
X161059424Y-68062458D01*
X161267203Y-68056714D01*
X161498605Y-68050481D01*
X161747398Y-68043922D01*
X162007347Y-68037203D01*
X162272221Y-68030488D01*
X162535787Y-68023942D01*
X162729333Y-68019230D01*
X163182109Y-68008218D01*
X163595065Y-67997927D01*
X163970702Y-67988226D01*
X164311527Y-67978985D01*
X164620041Y-67970073D01*
X164898748Y-67961360D01*
X165150153Y-67952716D01*
X165376759Y-67944009D01*
X165581070Y-67935109D01*
X165765588Y-67925886D01*
X165932819Y-67916209D01*
X166085265Y-67905948D01*
X166225431Y-67894972D01*
X166355819Y-67883151D01*
X166478935Y-67870354D01*
X166597280Y-67856451D01*
X166713360Y-67841310D01*
X166829677Y-67824802D01*
X166948735Y-67806797D01*
X167020579Y-67795529D01*
X167323608Y-67742463D01*
X167621534Y-67680599D01*
X167910185Y-67611309D01*
X168185390Y-67535964D01*
X168442978Y-67455936D01*
X168678777Y-67372597D01*
X168888616Y-67287318D01*
X169068323Y-67201471D01*
X169213729Y-67116428D01*
X169311131Y-67042327D01*
X169393833Y-66950341D01*
X169439047Y-66853824D01*
X169447357Y-66747784D01*
X169419353Y-66627224D01*
X169372591Y-66519724D01*
X169297718Y-66395294D01*
X169190770Y-66253026D01*
X169055777Y-66097181D01*
X168896772Y-65932019D01*
X168717786Y-65761802D01*
X168522850Y-65590790D01*
X168391416Y-65482760D01*
X168124059Y-65277914D01*
X167851652Y-65088616D01*
X167567012Y-64910637D01*
X167262958Y-64739751D01*
X166932307Y-64571730D01*
X166567876Y-64402346D01*
X166518166Y-64380237D01*
X165745872Y-64049568D01*
X164991051Y-63749762D01*
X164245343Y-63478141D01*
X163500387Y-63232032D01*
X162747823Y-63008759D01*
X161979292Y-62805646D01*
X161186431Y-62620018D01*
X160686750Y-62514122D01*
X160452366Y-62466005D01*
X160252853Y-62424271D01*
X160081510Y-62387318D01*
X159931635Y-62353547D01*
X159796525Y-62321357D01*
X159669478Y-62289148D01*
X159543792Y-62255320D01*
X159412765Y-62218271D01*
X159269695Y-62176401D01*
X159258000Y-62172935D01*
X158869244Y-62049645D01*
X158512558Y-61919215D01*
X158177797Y-61777651D01*
X157854815Y-61620958D01*
X157850416Y-61618683D01*
X157463673Y-61403014D01*
X157108568Y-61171272D01*
X156776060Y-60916624D01*
X156457108Y-60632241D01*
X156196535Y-60369086D01*
X156001788Y-60183210D01*
X155803749Y-60037803D01*
X155597978Y-59931019D01*
X155380035Y-59861009D01*
X155145480Y-59825924D01*
X154889873Y-59823918D01*
X154887083Y-59824065D01*
X154768677Y-59832806D01*
X154643994Y-59845997D01*
X154532248Y-59861454D01*
X154484916Y-59869801D01*
X154434081Y-59879210D01*
X154345627Y-59894887D01*
X154223690Y-59916125D01*
X154072407Y-59942216D01*
X153895913Y-59972451D01*
X153698344Y-60006122D01*
X153483836Y-60042521D01*
X153256525Y-60080939D01*
X153020546Y-60120669D01*
X152992666Y-60125353D01*
X152551722Y-60200111D01*
X152147880Y-60270156D01*
X151776296Y-60336486D01*
X151432124Y-60400099D01*
X151110522Y-60461991D01*
X150806643Y-60523161D01*
X150515644Y-60584605D01*
X150232680Y-60647321D01*
X149952907Y-60712307D01*
X149671481Y-60780560D01*
X149383556Y-60853077D01*
X149098000Y-60927247D01*
X148816366Y-61002756D01*
X148530654Y-61082015D01*
X148245205Y-61163663D01*
X147964361Y-61246337D01*
X147692463Y-61328676D01*
X147433854Y-61409317D01*
X147192874Y-61486900D01*
X146973866Y-61560061D01*
X146781171Y-61627439D01*
X146619131Y-61687671D01*
X146492088Y-61739397D01*
X146452875Y-61757011D01*
X146141818Y-61924666D01*
X145846589Y-62128850D01*
X145571405Y-62365383D01*
X145320486Y-62630082D01*
X145098048Y-62918767D01*
X144908311Y-63227257D01*
X144844434Y-63351323D01*
X144775904Y-63504503D01*
X144699408Y-63699245D01*
X144614950Y-63935535D01*
X144522535Y-64213361D01*
X144422165Y-64532707D01*
X144313846Y-64893561D01*
X144197582Y-65295909D01*
X144073376Y-65739736D01*
X143941232Y-66225030D01*
X143801155Y-66751776D01*
X143653150Y-67319960D01*
X143563331Y-67669833D01*
X143460792Y-68066883D01*
X143364935Y-68428547D01*
X143274030Y-68760931D01*
X143186346Y-69070138D01*
X143100151Y-69362272D01*
X143013715Y-69643436D01*
X142925306Y-69919735D01*
X142925272Y-69919840D01*
X142850567Y-70145758D01*
X142774728Y-70369215D01*
X142699741Y-70584725D01*
X142627590Y-70786801D01*
X142560260Y-70969954D01*
X142499734Y-71128699D01*
X142447997Y-71257548D01*
X142409961Y-71344765D01*
X142275892Y-71592180D01*
X142118167Y-71810807D01*
X141939849Y-71996923D01*
X141757553Y-72138006D01*
X141645436Y-72206586D01*
X141536113Y-72261006D01*
X141418386Y-72305482D01*
X141281057Y-72344232D01*
X141112931Y-72381471D01*
X141108815Y-72382302D01*
X140945097Y-72416232D01*
X140813753Y-72445974D01*
X140705382Y-72474198D01*
X140610584Y-72503571D01*
X140519958Y-72536764D01*
X140424103Y-72576444D01*
X140422443Y-72577160D01*
X140153715Y-72714674D01*
X139902568Y-72887947D01*
X139668172Y-73097836D01*
X139449698Y-73345196D01*
X139246315Y-73630884D01*
X139057195Y-73955755D01*
X139023902Y-74019833D01*
X138826419Y-74428081D01*
X138632000Y-74871882D01*
X138442981Y-75344463D01*
X138261696Y-75839050D01*
X138090481Y-76348869D01*
X137931670Y-76867147D01*
X137787600Y-77387110D01*
X137660605Y-77901984D01*
X137614252Y-78108942D01*
X137469641Y-78686510D01*
X137291869Y-79238268D01*
X137080151Y-79765540D01*
X136833701Y-80269648D01*
X136551734Y-80751915D01*
X136233462Y-81213664D01*
X135878101Y-81656218D01*
X135484864Y-82080900D01*
X135052965Y-82489033D01*
X134967649Y-82563794D01*
X134830651Y-82683777D01*
X134719280Y-82784925D01*
X134626057Y-82874786D01*
X134543502Y-82960906D01*
X134464137Y-83050836D01*
X134380481Y-83152121D01*
X134362568Y-83174416D01*
X134135686Y-83490255D01*
X133941061Y-83828789D01*
X133780035Y-84185469D01*
X133653948Y-84555750D01*
X133564141Y-84935085D01*
X133511955Y-85318926D01*
X133498731Y-85702728D01*
X133519835Y-86031916D01*
X133537971Y-86167449D01*
X133565709Y-86338356D01*
X133601988Y-86539041D01*
X133645748Y-86763911D01*
X133695928Y-87007370D01*
X133751466Y-87263824D01*
X133764668Y-87323083D01*
X133782117Y-87400295D01*
X133800724Y-87481041D01*
X133821167Y-87568029D01*
X133844122Y-87663965D01*
X133870269Y-87771557D01*
X133900284Y-87893511D01*
X133934847Y-88032534D01*
X133974634Y-88191334D01*
X134020323Y-88372616D01*
X134072593Y-88579089D01*
X134132121Y-88813460D01*
X134199586Y-89078435D01*
X134275664Y-89376721D01*
X134361034Y-89711025D01*
X134440466Y-90021833D01*
X134521479Y-90351377D01*
X134588443Y-90652963D01*
X134643549Y-90937726D01*
X134688987Y-91216803D01*
X134719416Y-91440000D01*
X134734446Y-91593217D01*
X134745646Y-91776840D01*
X134753021Y-91981703D01*
X134756576Y-92198636D01*
X134756315Y-92418474D01*
X134752241Y-92632049D01*
X134744359Y-92830195D01*
X134732674Y-93003743D01*
X134718633Y-93133333D01*
X134654719Y-93529851D01*
X134574935Y-93900782D01*
X134475811Y-94257824D01*
X134353876Y-94612676D01*
X134205660Y-94977038D01*
X134106403Y-95197083D01*
X133986484Y-95465521D01*
X133886780Y-95715132D01*
X133805100Y-95954764D01*
X133739255Y-96193266D01*
X133687056Y-96439484D01*
X133646312Y-96702267D01*
X133614835Y-96990463D01*
X133593131Y-97271050D01*
X133567178Y-97606933D01*
X133535039Y-97910716D01*
X133495113Y-98192383D01*
X133445795Y-98461916D01*
X133385483Y-98729300D01*
X133317806Y-98985916D01*
X133145044Y-99528821D01*
X132936692Y-100050238D01*
X132691952Y-100551570D01*
X132410029Y-101034219D01*
X132090125Y-101499588D01*
X131731444Y-101949080D01*
X131465732Y-102245583D01*
X131211370Y-102531699D01*
X130992804Y-102810558D01*
X130805880Y-103088889D01*
X130646439Y-103373426D01*
X130510324Y-103670900D01*
X130397677Y-103975086D01*
X130338409Y-104159339D01*
X130291202Y-104323334D01*
X130254600Y-104476267D01*
X130227147Y-104627336D01*
X130207388Y-104785736D01*
X130193867Y-104960665D01*
X130185128Y-105161320D01*
X130180603Y-105346500D01*
X130178135Y-105706896D01*
X130185403Y-106038710D01*
X130203113Y-106354715D01*
X130231968Y-106667689D01*
X130270333Y-106973746D01*
X130288240Y-107097503D01*
X130312191Y-107256447D01*
X130341134Y-107444025D01*
X130374019Y-107653691D01*
X130409796Y-107878893D01*
X130447415Y-108113082D01*
X130485825Y-108349709D01*
X130523976Y-108582224D01*
X130560817Y-108804077D01*
X130595299Y-109008720D01*
X130616972Y-109135333D01*
X130666303Y-109446574D01*
X130708641Y-109765348D01*
X130743766Y-110086622D01*
X130771453Y-110405366D01*
X130791481Y-110716548D01*
X130803627Y-111015137D01*
X130807668Y-111296100D01*
X130803383Y-111554408D01*
X130790549Y-111785029D01*
X130768943Y-111982931D01*
X130748093Y-112101115D01*
X130650239Y-112460184D01*
X130515483Y-112800420D01*
X130345500Y-113119641D01*
X130141968Y-113415667D01*
X129906563Y-113686316D01*
X129640965Y-113929407D01*
X129346848Y-114142759D01*
X129046636Y-114313863D01*
X128882386Y-114390549D01*
X128714999Y-114456094D01*
X128537808Y-114512188D01*
X128344145Y-114560520D01*
X128127340Y-114602780D01*
X127880728Y-114640657D01*
X127635000Y-114671561D01*
X127530262Y-114682573D01*
X127427055Y-114690727D01*
X127317972Y-114696212D01*
X127195608Y-114699216D01*
X127052560Y-114699928D01*
X126881422Y-114698537D01*
X126693083Y-114695568D01*
X126476481Y-114690413D01*
X126266839Y-114682667D01*
X126060645Y-114671855D01*
X125854383Y-114657496D01*
X125644541Y-114639114D01*
X125427604Y-114616231D01*
X125200060Y-114588368D01*
X124958393Y-114555049D01*
X124699091Y-114515795D01*
X124418639Y-114470127D01*
X124113524Y-114417570D01*
X123780233Y-114357643D01*
X123415250Y-114289871D01*
X123015063Y-114213774D01*
X122692583Y-114151509D01*
X122300847Y-114076030D01*
X121946040Y-114008959D01*
X121623739Y-113949638D01*
X121329523Y-113897403D01*
X121058970Y-113851596D01*
X120807658Y-113811554D01*
X120571165Y-113776617D01*
X120345069Y-113746125D01*
X120124949Y-113719416D01*
X119906382Y-113695830D01*
X119684946Y-113674706D01*
X119456221Y-113655382D01*
X119284750Y-113642229D01*
X119146809Y-113634163D01*
X118976773Y-113627632D01*
X118781853Y-113622639D01*
X118569260Y-113619189D01*
X118346206Y-113617285D01*
X118119902Y-113616931D01*
X117897560Y-113618129D01*
X117686393Y-113620883D01*
X117493611Y-113625197D01*
X117326426Y-113631075D01*
X117192050Y-113638519D01*
X117157500Y-113641203D01*
X116427005Y-113723659D01*
X115710992Y-113845575D01*
X115007833Y-114007262D01*
X114522250Y-114144317D01*
X114065506Y-114294693D01*
X113608422Y-114467289D01*
X113156965Y-114659110D01*
X112717101Y-114867162D01*
X112294799Y-115088450D01*
X111896023Y-115319980D01*
X111526743Y-115558758D01*
X111192924Y-115801789D01*
X111146166Y-115838515D01*
X111017543Y-115946300D01*
X110872345Y-116077455D01*
X110719579Y-116223077D01*
X110568250Y-116374262D01*
X110427365Y-116522105D01*
X110305930Y-116657705D01*
X110250901Y-116723583D01*
X110079259Y-116948378D01*
X109917867Y-117183761D01*
X109770856Y-117422511D01*
X109642354Y-117657406D01*
X109536491Y-117881223D01*
X109457394Y-118086741D01*
X109440093Y-118141750D01*
X109403140Y-118305253D01*
X109383034Y-118481493D01*
X109380150Y-118656951D01*
X109015589Y-118656951D01*
X109008588Y-118587378D01*
X109022120Y-118333413D01*
X109073994Y-118069613D01*
X109164209Y-117793507D01*
X109292761Y-117502622D01*
X109336477Y-117416557D01*
X109571456Y-117009273D01*
X109841487Y-116621424D01*
X110147097Y-116252546D01*
X110488814Y-115902177D01*
X110867168Y-115569856D01*
X111282688Y-115255120D01*
X111735900Y-114957507D01*
X112227335Y-114676555D01*
X112757520Y-114411802D01*
X112790504Y-114396454D01*
X113447350Y-114114126D01*
X114115310Y-113871089D01*
X114796437Y-113666792D01*
X115492781Y-113500684D01*
X116206396Y-113372214D01*
X116939333Y-113280830D01*
X116945833Y-113280193D01*
X117066916Y-113271170D01*
X117224163Y-113263830D01*
X117411442Y-113258148D01*
X117622618Y-113254098D01*
X117851558Y-113251657D01*
X118092127Y-113250800D01*
X118338192Y-113251502D01*
X118583619Y-113253737D01*
X118822274Y-113257482D01*
X119048023Y-113262712D01*
X119254733Y-113269402D01*
X119436269Y-113277526D01*
X119586497Y-113287062D01*
X119634000Y-113291040D01*
X119875138Y-113314044D01*
X120107323Y-113338446D01*
X120335289Y-113364992D01*
X120563766Y-113394424D01*
X120797487Y-113427487D01*
X121041185Y-113464924D01*
X121299591Y-113507479D01*
X121577438Y-113555897D01*
X121879459Y-113610921D01*
X122210384Y-113673294D01*
X122574947Y-113743761D01*
X122819583Y-113791770D01*
X123257996Y-113877296D01*
X123659191Y-113953494D01*
X124027111Y-114020922D01*
X124365701Y-114080140D01*
X124678905Y-114131705D01*
X124970666Y-114176177D01*
X125244928Y-114214115D01*
X125505637Y-114246076D01*
X125756735Y-114272620D01*
X126002167Y-114294306D01*
X126245877Y-114311691D01*
X126491809Y-114325335D01*
X126629583Y-114331452D01*
X126852229Y-114335010D01*
X127095941Y-114329247D01*
X127350879Y-114315057D01*
X127607209Y-114293334D01*
X127855092Y-114264974D01*
X128084692Y-114230871D01*
X128286173Y-114191920D01*
X128361649Y-114173920D01*
X128678856Y-114071129D01*
X128980220Y-113929238D01*
X129264963Y-113748708D01*
X129532312Y-113530001D01*
X129668489Y-113396899D01*
X129861537Y-113176197D01*
X130023732Y-112944006D01*
X130164848Y-112686186D01*
X130176700Y-112661554D01*
X130269242Y-112447473D01*
X130340687Y-112234713D01*
X130392750Y-112014610D01*
X130427150Y-111778504D01*
X130445604Y-111517730D01*
X130450041Y-111282689D01*
X130449473Y-111147458D01*
X130447431Y-111016948D01*
X130443547Y-110888293D01*
X130437451Y-110758627D01*
X130428775Y-110625084D01*
X130417149Y-110484798D01*
X130402204Y-110334903D01*
X130383572Y-110172533D01*
X130360882Y-109994820D01*
X130333767Y-109798901D01*
X130301856Y-109581907D01*
X130264782Y-109340974D01*
X130222174Y-109073235D01*
X130173664Y-108775824D01*
X130118883Y-108445875D01*
X130057461Y-108080521D01*
X129989030Y-107676897D01*
X129975409Y-107596842D01*
X129933901Y-107328974D01*
X129897028Y-107043154D01*
X129865176Y-106745941D01*
X129838729Y-106443896D01*
X129818071Y-106143577D01*
X129803588Y-105851544D01*
X129795664Y-105574357D01*
X129794684Y-105318574D01*
X129801033Y-105090756D01*
X129815095Y-104897461D01*
X129816389Y-104885290D01*
X129885543Y-104444094D01*
X129995372Y-104011051D01*
X130144518Y-103589958D01*
X130331625Y-103184611D01*
X130555336Y-102798804D01*
X130570204Y-102775884D01*
X130652744Y-102652704D01*
X130734489Y-102538398D01*
X130821272Y-102425745D01*
X130918924Y-102307530D01*
X131033276Y-102176532D01*
X131170162Y-102025535D01*
X131220968Y-101970416D01*
X131546932Y-101600210D01*
X131836045Y-101233037D01*
X132092632Y-100862087D01*
X132321015Y-100480552D01*
X132525517Y-100081624D01*
X132710462Y-99658493D01*
X132746410Y-99568000D01*
X132872998Y-99219538D01*
X132978671Y-98872806D01*
X133065093Y-98519784D01*
X133133931Y-98152451D01*
X133186853Y-97762786D01*
X133225523Y-97342769D01*
X133233806Y-97222053D01*
X133260172Y-96886904D01*
X133295395Y-96584178D01*
X133341774Y-96304474D01*
X133401612Y-96038394D01*
X133477208Y-95776536D01*
X133570866Y-95509502D01*
X133684885Y-95227890D01*
X133768400Y-95038333D01*
X133904177Y-94724964D01*
X134017554Y-94432785D01*
X134112449Y-94149827D01*
X134192783Y-93864122D01*
X134262473Y-93563702D01*
X134281275Y-93472000D01*
X134315888Y-93291624D01*
X134343105Y-93130800D01*
X134363746Y-92980189D01*
X134378628Y-92830451D01*
X134388570Y-92672247D01*
X134394390Y-92496236D01*
X134396905Y-92293080D01*
X134397164Y-92149083D01*
X134396838Y-92004036D01*
X134395764Y-91872736D01*
X134393326Y-91751760D01*
X134388910Y-91637686D01*
X134381901Y-91527090D01*
X134371684Y-91416552D01*
X134357644Y-91302647D01*
X134339167Y-91181954D01*
X134315636Y-91051050D01*
X134286438Y-90906513D01*
X134250957Y-90744919D01*
X134208579Y-90562846D01*
X134158688Y-90356872D01*
X134100670Y-90123574D01*
X134033910Y-89859530D01*
X133957792Y-89561317D01*
X133872362Y-89228083D01*
X133752846Y-88758846D01*
X133645163Y-88328687D01*
X133548983Y-87936136D01*
X133463980Y-87579720D01*
X133389825Y-87257969D01*
X133326189Y-86969413D01*
X133272745Y-86712579D01*
X133229165Y-86485997D01*
X133195120Y-86288196D01*
X133170282Y-86117705D01*
X133160752Y-86038042D01*
X133136921Y-85626677D01*
X133154214Y-85215436D01*
X133211540Y-84807570D01*
X133307806Y-84406330D01*
X133441920Y-84014968D01*
X133612789Y-83636734D01*
X133819320Y-83274880D01*
X134060420Y-82932657D01*
X134298529Y-82652255D01*
X134355255Y-82594597D01*
X134436154Y-82517286D01*
X134533014Y-82427930D01*
X134637618Y-82334136D01*
X134715250Y-82266287D01*
X135137056Y-81878948D01*
X135519771Y-81478326D01*
X135865264Y-81061814D01*
X136175407Y-80626809D01*
X136452073Y-80170704D01*
X136697133Y-79690894D01*
X136892765Y-79235240D01*
X136976446Y-79011368D01*
X137052996Y-78781184D01*
X137124918Y-78536075D01*
X137194709Y-78267432D01*
X137264871Y-77966643D01*
X137276888Y-77912273D01*
X137484333Y-77064512D01*
X137733081Y-76222635D01*
X138022212Y-75389468D01*
X138350807Y-74567839D01*
X138409187Y-74432583D01*
X138546654Y-74126605D01*
X138676862Y-73856978D01*
X138802779Y-73618973D01*
X138927371Y-73407861D01*
X139053604Y-73218912D01*
X139184445Y-73047399D01*
X139322861Y-72888591D01*
X139471819Y-72737760D01*
X139473295Y-72736349D01*
X139704097Y-72536106D01*
X139945003Y-72368546D01*
X140202302Y-72230497D01*
X140482282Y-72118789D01*
X140791231Y-72030252D01*
X140938103Y-71997791D01*
X141070720Y-71970389D01*
X141170643Y-71948182D01*
X141246764Y-71928441D01*
X141307975Y-71908440D01*
X141363167Y-71885453D01*
X141421232Y-71856750D01*
X141453593Y-71839685D01*
X141626942Y-71724556D01*
X141789006Y-71571100D01*
X141937102Y-71382442D01*
X142068550Y-71161706D01*
X142112724Y-71071897D01*
X142167076Y-70946620D01*
X142230595Y-70785290D01*
X142301713Y-70592805D01*
X142378864Y-70374062D01*
X142460480Y-70133959D01*
X142544993Y-69877392D01*
X142630835Y-69609259D01*
X142716439Y-69334457D01*
X142800238Y-69057883D01*
X142880663Y-68784434D01*
X142956148Y-68519009D01*
X143025125Y-68266503D01*
X143086025Y-68031815D01*
X143086762Y-68028882D01*
X143220379Y-67501962D01*
X143351274Y-66996008D01*
X143478966Y-66512647D01*
X143602978Y-66053503D01*
X143722829Y-65620200D01*
X143838041Y-65214364D01*
X143948134Y-64837619D01*
X144052629Y-64491589D01*
X144151047Y-64177901D01*
X144242910Y-63898177D01*
X144327736Y-63654043D01*
X144405049Y-63447124D01*
X144474368Y-63279045D01*
X144511157Y-63199096D01*
X144703658Y-62849545D01*
X144929772Y-62524964D01*
X145187638Y-62227223D01*
X145475392Y-61958191D01*
X145791173Y-61719739D01*
X146133119Y-61513737D01*
X146248235Y-61454744D01*
X146364064Y-61402696D01*
X146516880Y-61341777D01*
X146702577Y-61273284D01*
X146917048Y-61198513D01*
X147156185Y-61118762D01*
X147415883Y-61035327D01*
X147692033Y-60949504D01*
X147980531Y-60862591D01*
X148277267Y-60775884D01*
X148578137Y-60690680D01*
X148879033Y-60608275D01*
X149175847Y-60529967D01*
X149182666Y-60528205D01*
X149492035Y-60449511D01*
X149790783Y-60376105D01*
X150084145Y-60306923D01*
X150377359Y-60240899D01*
X150675659Y-60176965D01*
X150984284Y-60114057D01*
X151308469Y-60051107D01*
X151653451Y-59987050D01*
X152024466Y-59920819D01*
X152426750Y-59851349D01*
X152865541Y-59777574D01*
X152886833Y-59774035D01*
X153120058Y-59735159D01*
X153346796Y-59697108D01*
X153562548Y-59660653D01*
X153762816Y-59626568D01*
X153943102Y-59595622D01*
X154098908Y-59568588D01*
X154225735Y-59546236D01*
X154319086Y-59529340D01*
X154368500Y-59519894D01*
X154543194Y-59491226D01*
X154732205Y-59471666D01*
X154924131Y-59461574D01*
X155107571Y-59461310D01*
X155271124Y-59471233D01*
G37*
X155271124Y-59471233D02*
X155385373Y-59487820D01*
X155574458Y-59533524D01*
X155745532Y-59592185D01*
X155905473Y-59667940D01*
X156061158Y-59764921D01*
X156219464Y-59887263D01*
X156387269Y-60039102D01*
X156516916Y-60168072D01*
X156688770Y-60340840D01*
X156843131Y-60487777D01*
X156988740Y-60616273D01*
X157134340Y-60733723D01*
X157288671Y-60847518D01*
X157455266Y-60961587D01*
X157724868Y-61130958D01*
X158005596Y-61286998D01*
X158301230Y-61431080D01*
X158615554Y-61564575D01*
X158952350Y-61688857D01*
X159315401Y-61805299D01*
X159708490Y-61915272D01*
X160135399Y-62020150D01*
X160599911Y-62121305D01*
X160716324Y-62144963D01*
X161613935Y-62338890D01*
X162484696Y-62555678D01*
X163336777Y-62797902D01*
X164178347Y-63068139D01*
X165017572Y-63368963D01*
X165862622Y-63702950D01*
X166452246Y-63953591D01*
X166766720Y-64093291D01*
X167046673Y-64223023D01*
X167297826Y-64345962D01*
X167525900Y-64465282D01*
X167736616Y-64584156D01*
X167935695Y-64705757D01*
X168128858Y-64833261D01*
X168321827Y-64969840D01*
X168433750Y-65052835D01*
X168636378Y-65211212D01*
X168834327Y-65377096D01*
X169022402Y-65545503D01*
X169195408Y-65711450D01*
X169348153Y-65869952D01*
X169475442Y-66016027D01*
X169572081Y-66144689D01*
X169572849Y-66145833D01*
X169689584Y-66344967D01*
X169765352Y-66533479D01*
X169800133Y-66711452D01*
X169793904Y-66878967D01*
X169746641Y-67036108D01*
X169658324Y-67182956D01*
X169528929Y-67319594D01*
X169358433Y-67446105D01*
X169193933Y-67539314D01*
X168928928Y-67661175D01*
X168627846Y-67776967D01*
X168296718Y-67884994D01*
X167941571Y-67983559D01*
X167568438Y-68070968D01*
X167183347Y-68145523D01*
X166856833Y-68196725D01*
X166729800Y-68213964D01*
X166604244Y-68229776D01*
X166477433Y-68244300D01*
X166346635Y-68257672D01*
X166209117Y-68270029D01*
X166062147Y-68281510D01*
X165902994Y-68292253D01*
X165728924Y-68302394D01*
X165537206Y-68312072D01*
X165325108Y-68321424D01*
X165089896Y-68330587D01*
X164828840Y-68339700D01*
X164539207Y-68348899D01*
X164218264Y-68358323D01*
X163863280Y-68368109D01*
X163471523Y-68378395D01*
X163040259Y-68389318D01*
X163025666Y-68389682D01*
X162597409Y-68400490D01*
X162184220Y-68411156D01*
X161788145Y-68421618D01*
X161411229Y-68431815D01*
X161055517Y-68441685D01*
X160723055Y-68451166D01*
X160415888Y-68460198D01*
X160136061Y-68468719D01*
X159885621Y-68476666D01*
X159666611Y-68483980D01*
X159481079Y-68490597D01*
X159331068Y-68496457D01*
X159218624Y-68501498D01*
X159145793Y-68505659D01*
X159131000Y-68506811D01*
X158951390Y-68532631D01*
X158808532Y-68576738D01*
X158700011Y-68641349D01*
X158623413Y-68728684D01*
X158576325Y-68840960D01*
X158556332Y-68980395D01*
X158555287Y-69035825D01*
X158556813Y-69110160D01*
X158560949Y-69181374D01*
X158568757Y-69255281D01*
X158581301Y-69337695D01*
X158599642Y-69434428D01*
X158624844Y-69551296D01*
X158657968Y-69694110D01*
X158700077Y-69868684D01*
X158729234Y-69987583D01*
X158789773Y-70241234D01*
X158837515Y-70459491D01*
X158873192Y-70647074D01*
X158897539Y-70808700D01*
X158911287Y-70949090D01*
X158915170Y-71072961D01*
X158911739Y-71162333D01*
X158872204Y-71429770D01*
X158793635Y-71684159D01*
X158677735Y-71921741D01*
X158526207Y-72138755D01*
X158412573Y-72263865D01*
X158315606Y-72352118D01*
X158193790Y-72447774D01*
X158044739Y-72552373D01*
X157866068Y-72667456D01*
X157655392Y-72794564D01*
X157410326Y-72935238D01*
X157151916Y-73078250D01*
X156955377Y-73186451D01*
X156791629Y-73279078D01*
X156655570Y-73359431D01*
X156542098Y-73430811D01*
X156446112Y-73496519D01*
X156362509Y-73559856D01*
X156286188Y-73624121D01*
X156232770Y-73672925D01*
X156133701Y-73772096D01*
X156061318Y-73860024D01*
X156006542Y-73948116D01*
X155993495Y-73973609D01*
X155962147Y-74040082D01*
X155942104Y-74094483D01*
X155930939Y-74149809D01*
X155926225Y-74219059D01*
X155925535Y-74315228D01*
X155925654Y-74336962D01*
X155927725Y-74423483D01*
X155934086Y-74502251D01*
X155946705Y-74578688D01*
X155967549Y-74658218D01*
X155998586Y-74746263D01*
X156041783Y-74848246D01*
X156099109Y-74969590D01*
X156172531Y-75115718D01*
X156264017Y-75292053D01*
X156290602Y-75342750D01*
X156465161Y-75680346D01*
X156642917Y-76034650D01*
X156825091Y-76408321D01*
X157012907Y-76804022D01*
X157207584Y-77224413D01*
X157410346Y-77672156D01*
X157622415Y-78149913D01*
X157845011Y-78660344D01*
X158079357Y-79206112D01*
X158263290Y-79639583D01*
X158421455Y-80014049D01*
X158564127Y-80351750D01*
X158692288Y-80654917D01*
X158806921Y-80925779D01*
X158909009Y-81166567D01*
X158999535Y-81379511D01*
X159079482Y-81566841D01*
X159149834Y-81730788D01*
X159211572Y-81873581D01*
X159265681Y-81997452D01*
X159313143Y-82104629D01*
X159354940Y-82197345D01*
X159392057Y-82277828D01*
X159425475Y-82348309D01*
X159456179Y-82411018D01*
X159485151Y-82468186D01*
X159513373Y-82522043D01*
X159541830Y-82574819D01*
X159571504Y-82628744D01*
X159603377Y-82686048D01*
X159616034Y-82708750D01*
X159869005Y-83131025D01*
X160154541Y-83551197D01*
X160464003Y-83957447D01*
X160788753Y-84337956D01*
X160876996Y-84433745D01*
X160963951Y-84528804D01*
X161047800Y-84624492D01*
X161120741Y-84711630D01*
X161174970Y-84781038D01*
X161189018Y-84800811D01*
X161333095Y-85047474D01*
X161442631Y-85309743D01*
X161516038Y-85581477D01*
X161551723Y-85856534D01*
X161548097Y-86128770D01*
X161543841Y-86170960D01*
X161521940Y-86330963D01*
X161492899Y-86473210D01*
X161452472Y-86614163D01*
X161396413Y-86770283D01*
X161375522Y-86823518D01*
X161228190Y-87247253D01*
X161122654Y-87673369D01*
X161058988Y-88100849D01*
X161037265Y-88528673D01*
X161057559Y-88955822D01*
X161119943Y-89381276D01*
X161173534Y-89619371D01*
X161214948Y-89774878D01*
X161268882Y-89964941D01*
X161333695Y-90184223D01*
X161407744Y-90427388D01*
X161489390Y-90689096D01*
X161576989Y-90964011D01*
X161668899Y-91246796D01*
X161743352Y-91471874D01*
X162166701Y-92677412D01*
X162626795Y-93864312D01*
X163124325Y-95034018D01*
X163659980Y-96187973D01*
X164234452Y-97327623D01*
X164848431Y-98454410D01*
X165502607Y-99569779D01*
X165989056Y-100351166D01*
X166297869Y-100833193D01*
X166588128Y-101281346D01*
X166861920Y-101698712D01*
X167121332Y-102088377D01*
X167368451Y-102453427D01*
X167605366Y-102796949D01*
X167834162Y-103122029D01*
X168056926Y-103431754D01*
X168250696Y-103695500D01*
X168380401Y-103872003D01*
X168487962Y-104022844D01*
X168577936Y-104155214D01*
X168654881Y-104276301D01*
X168723354Y-104393293D01*
X168787914Y-104513380D01*
X168853118Y-104643751D01*
X168857222Y-104652206D01*
X168990307Y-104954658D01*
X169099959Y-105267129D01*
X169190235Y-105601870D01*
X169226257Y-105766138D01*
X169299224Y-106083855D01*
X169380060Y-106361774D01*
X169469979Y-106601903D01*
X169570195Y-106806249D01*
X169681921Y-106976823D01*
X169806372Y-107115632D01*
X169944760Y-107224684D01*
X170098300Y-107305988D01*
X170174040Y-107334519D01*
X170319115Y-107370099D01*
X170475484Y-107382075D01*
X170649336Y-107370137D01*
X170846863Y-107333974D01*
X171007869Y-107292577D01*
X171492500Y-107146356D01*
X171976865Y-106980720D01*
X172469494Y-106792497D01*
X172978919Y-106578516D01*
X173231268Y-106466017D01*
X173964495Y-106147897D01*
X174685816Y-105864811D01*
X175402900Y-105614258D01*
X176123420Y-105393737D01*
X176855043Y-105200747D01*
X177605441Y-105032788D01*
X177662416Y-105021186D01*
X178106433Y-104935392D01*
X178534038Y-104861440D01*
X178952473Y-104798602D01*
X179368978Y-104746146D01*
X179790794Y-104703344D01*
X180225162Y-104669466D01*
X180679323Y-104643780D01*
X181160518Y-104625558D01*
X181675989Y-104614069D01*
X181705250Y-104613622D01*
X181990959Y-104610143D01*
X182239263Y-104609164D01*
X182455040Y-104611133D01*
X182643169Y-104616500D01*
X182808527Y-104625712D01*
X182955993Y-104639219D01*
X183090445Y-104657470D01*
X183216762Y-104680912D01*
X183339821Y-104709996D01*
X183464502Y-104745169D01*
X183595682Y-104786880D01*
X183598345Y-104787764D01*
X183949221Y-104926256D01*
X184284540Y-105102032D01*
X184601697Y-105312073D01*
X184898089Y-105553362D01*
X185171109Y-105822878D01*
X185418154Y-106117604D01*
X185636620Y-106434519D01*
X185823901Y-106770607D01*
X185977393Y-107122847D01*
X186094491Y-107488221D01*
X186153176Y-107748916D01*
X186176616Y-107916930D01*
X186190614Y-108109885D01*
X186195277Y-108315487D01*
X186190712Y-108521444D01*
X186177025Y-108715464D01*
X186154321Y-108885253D01*
X186142854Y-108943114D01*
X186064281Y-109235283D01*
X185961512Y-109507356D01*
X185831247Y-109764934D01*
X185670182Y-110013617D01*
X185475016Y-110259008D01*
X185242445Y-110506706D01*
X185191592Y-110556589D01*
X184874986Y-110843286D01*
X184540911Y-111105770D01*
X184185202Y-111346524D01*
X183803690Y-111568028D01*
X183392210Y-111772763D01*
X182946594Y-111963211D01*
X182626000Y-112084364D01*
X182558465Y-112108371D01*
X182487310Y-112132953D01*
X182410496Y-112158703D01*
X182325983Y-112186214D01*
X182231730Y-112216080D01*
X182125699Y-112248894D01*
X182005848Y-112285250D01*
X181870138Y-112325741D01*
X181716530Y-112370960D01*
X181542983Y-112421501D01*
X181347457Y-112477958D01*
X181127913Y-112540924D01*
X180882311Y-112610992D01*
X180608610Y-112688757D01*
X180304771Y-112774810D01*
X179968754Y-112869746D01*
X179598520Y-112974159D01*
X179192027Y-113088642D01*
X178747237Y-113213787D01*
X178646899Y-113242006D01*
X178239309Y-113356660D01*
X177798297Y-113480781D01*
X177330500Y-113612496D01*
X176842558Y-113749934D01*
X176341107Y-113891225D01*
X175832786Y-114034496D01*
X175324234Y-114177876D01*
X174822087Y-114319495D01*
X174332984Y-114457480D01*
X173863563Y-114589962D01*
X173420462Y-114715067D01*
X173010319Y-114830926D01*
X172942482Y-114850095D01*
X172525641Y-114967862D01*
X172147288Y-115074665D01*
X171805188Y-115171105D01*
X171497105Y-115257781D01*
X171220804Y-115335294D01*
X170974049Y-115404244D01*
X170754606Y-115465229D01*
X170560238Y-115518851D01*
X170388710Y-115565708D01*
X170237786Y-115606402D01*
X170105232Y-115641531D01*
X169988812Y-115671695D01*
X169886290Y-115697495D01*
X169795431Y-115719531D01*
X169714000Y-115738401D01*
X169639761Y-115754706D01*
X169570479Y-115769047D01*
X169503918Y-115782022D01*
X169437842Y-115794231D01*
X169396833Y-115801557D01*
X169254006Y-115826546D01*
X169122669Y-115848679D01*
X168999300Y-115868157D01*
X168880380Y-115885182D01*
X168762390Y-115899956D01*
X168641811Y-115912679D01*
X168515122Y-115923554D01*
X168378804Y-115932783D01*
X168229338Y-115940566D01*
X168063204Y-115947106D01*
X167876882Y-115952603D01*
X167666853Y-115957261D01*
X167429598Y-115961280D01*
X167161596Y-115964861D01*
X166859328Y-115968207D01*
X166519276Y-115971519D01*
X166412333Y-115972509D01*
X166127050Y-115975362D01*
X165846345Y-115978615D01*
X165574172Y-115982197D01*
X165314480Y-115986036D01*
X165071223Y-115990060D01*
X164848352Y-115994199D01*
X164649819Y-115998380D01*
X164479576Y-116002532D01*
X164341573Y-116006585D01*
X164239764Y-116010465D01*
X164200416Y-116012513D01*
X163562405Y-116055092D01*
X162946292Y-116104181D01*
X162347099Y-116160592D01*
X161759849Y-116225141D01*
X161179566Y-116298639D01*
X160601273Y-116381902D01*
X160019993Y-116475743D01*
X159430748Y-116580974D01*
X158828563Y-116698411D01*
X158208459Y-116828866D01*
X157565461Y-116973154D01*
X156894590Y-117132088D01*
X156190871Y-117306481D01*
X156019500Y-117349971D01*
X155675219Y-117438455D01*
X155334630Y-117527568D01*
X154995431Y-117618014D01*
X154655323Y-117710494D01*
X154312007Y-117805711D01*
X153963183Y-117904367D01*
X153606552Y-118007165D01*
X153239814Y-118114807D01*
X152860669Y-118227996D01*
X152466818Y-118347433D01*
X152055961Y-118473822D01*
X151625799Y-118607865D01*
X151174032Y-118750263D01*
X150698361Y-118901720D01*
X150196485Y-119062938D01*
X149666106Y-119234620D01*
X149104924Y-119417467D01*
X148510639Y-119612182D01*
X147880952Y-119819468D01*
X147224750Y-120036323D01*
X146849070Y-120160531D01*
X146509448Y-120272469D01*
X146201840Y-120373428D01*
X145922202Y-120464703D01*
X145666489Y-120547584D01*
X145430657Y-120623365D01*
X145210663Y-120693338D01*
X145002462Y-120758796D01*
X144802009Y-120821031D01*
X144605262Y-120881336D01*
X144408176Y-120941003D01*
X144206706Y-121001324D01*
X144187333Y-121007094D01*
X142601452Y-121458759D01*
X141000055Y-121874448D01*
X139387476Y-122253233D01*
X137768049Y-122594188D01*
X136146109Y-122896387D01*
X134525989Y-123158903D01*
X133339416Y-123325940D01*
X132633700Y-123416441D01*
X131963414Y-123497253D01*
X131322899Y-123568878D01*
X130706497Y-123631818D01*
X130108550Y-123686574D01*
X129523398Y-123733646D01*
X128945383Y-123773536D01*
X128368846Y-123806746D01*
X127788128Y-123833775D01*
X127465666Y-123846162D01*
X127378626Y-123848491D01*
X127254714Y-123850670D01*
X127097634Y-123852695D01*
X126911087Y-123854560D01*
X126698778Y-123856258D01*
X126464407Y-123857785D01*
X126211678Y-123859134D01*
X125944295Y-123860300D01*
X125665958Y-123861277D01*
X125380371Y-123862060D01*
X125091237Y-123862643D01*
X124802258Y-123863021D01*
X124517137Y-123863187D01*
X124239577Y-123863137D01*
X123973280Y-123862864D01*
X123721949Y-123862363D01*
X123489286Y-123861628D01*
X123278995Y-123860653D01*
X123094778Y-123859434D01*
X122940337Y-123857963D01*
X122819375Y-123856237D01*
X122735596Y-123854248D01*
X122713750Y-123853398D01*
X122020776Y-123817318D01*
X121363309Y-123775129D01*
X120734859Y-123726045D01*
X120128935Y-123669282D01*
X119539046Y-123604057D01*
X118958704Y-123529585D01*
X118381417Y-123445082D01*
X117800695Y-123349764D01*
X117210047Y-123242846D01*
X116602985Y-123123544D01*
X116501333Y-123102726D01*
X115829844Y-122957493D01*
X115198059Y-122806193D01*
X114603661Y-122647888D01*
X114044333Y-122481643D01*
X113517757Y-122306518D01*
X113021615Y-122121577D01*
X112553591Y-121925883D01*
X112111368Y-121718498D01*
X111692627Y-121498485D01*
X111295052Y-121264906D01*
X110916325Y-121016825D01*
X110554130Y-120753303D01*
X110405333Y-120636959D01*
X110230133Y-120491309D01*
X110053455Y-120333782D01*
X109881121Y-120170282D01*
X109718949Y-120006711D01*
X109572761Y-119848974D01*
X109448377Y-119702973D01*
X109351617Y-119574611D01*
X109337912Y-119554331D01*
X109198060Y-119314985D01*
X109096556Y-119075692D01*
X109033400Y-118833980D01*
X109015589Y-118656951D01*
X109380150Y-118656951D01*
X109394866Y-118818110D01*
X109418336Y-118923652D01*
X109488096Y-119109335D01*
X109585850Y-119294139D01*
X109714346Y-119482022D01*
X109876333Y-119676940D01*
X110074561Y-119882848D01*
X110106315Y-119913696D01*
X110486882Y-120256662D01*
X110894870Y-120577581D01*
X111333465Y-120878638D01*
X111805851Y-121162018D01*
X112315212Y-121429904D01*
X112320916Y-121432716D01*
X112668723Y-121597471D01*
X113023533Y-121752095D01*
X113389439Y-121897899D01*
X113770529Y-122036192D01*
X114170895Y-122168283D01*
X114594626Y-122295482D01*
X115045812Y-122419099D01*
X115528545Y-122540442D01*
X116046914Y-122660821D01*
X116395500Y-122737156D01*
X117575565Y-122969578D01*
X118766937Y-123163173D01*
X119971385Y-123318161D01*
X121190680Y-123434761D01*
X122426593Y-123513192D01*
X122777250Y-123528397D01*
X122883171Y-123531487D01*
X123027145Y-123534088D01*
X123205240Y-123536217D01*
X123413524Y-123537888D01*
X123648066Y-123539117D01*
X123904934Y-123539917D01*
X124180198Y-123540305D01*
X124469924Y-123540296D01*
X124770182Y-123539905D01*
X125077040Y-123539146D01*
X125386566Y-123538035D01*
X125694830Y-123536587D01*
X125997898Y-123534817D01*
X126291841Y-123532740D01*
X126572726Y-123530371D01*
X126836622Y-123527725D01*
X127079597Y-123524817D01*
X127297719Y-123521663D01*
X127487057Y-123518278D01*
X127643680Y-123514676D01*
X127763656Y-123510872D01*
X127804333Y-123509114D01*
X128344775Y-123481193D01*
X128860042Y-123451025D01*
X129357001Y-123417971D01*
X129842521Y-123381394D01*
X130323467Y-123340656D01*
X130806707Y-123295121D01*
X131299108Y-123244150D01*
X131807538Y-123187106D01*
X132338864Y-123123352D01*
X132899952Y-123052249D01*
X133318250Y-122997210D01*
X134935813Y-122761351D01*
X136557999Y-122484782D01*
X138181173Y-122168313D01*
X139801699Y-121812755D01*
X141415940Y-121418916D01*
X143020260Y-120987607D01*
X144611024Y-120519639D01*
X145044583Y-120384956D01*
X145178400Y-120342550D01*
X145347525Y-120288377D01*
X145547092Y-120224021D01*
X145772235Y-120151067D01*
X146018090Y-120071100D01*
X146279791Y-119985706D01*
X146552474Y-119896471D01*
X146831273Y-119804978D01*
X147111323Y-119712814D01*
X147387759Y-119621563D01*
X147404666Y-119615972D01*
X148074081Y-119395034D01*
X148705947Y-119187440D01*
X149302647Y-118992469D01*
X149866559Y-118809398D01*
X150400065Y-118637508D01*
X150905546Y-118476078D01*
X151385383Y-118324386D01*
X151841955Y-118181711D01*
X152277644Y-118047333D01*
X152694830Y-117920530D01*
X153095894Y-117800582D01*
X153483216Y-117686768D01*
X153859178Y-117578366D01*
X154226160Y-117474656D01*
X154586543Y-117374917D01*
X154942707Y-117278427D01*
X155297033Y-117184466D01*
X155651901Y-117092313D01*
X156009693Y-117001246D01*
X156178250Y-116958938D01*
X156869086Y-116789315D01*
X157525652Y-116634637D01*
X158152969Y-116494093D01*
X158756059Y-116366873D01*
X159339945Y-116252167D01*
X159909648Y-116149165D01*
X160470190Y-116057058D01*
X161026594Y-115975034D01*
X161583880Y-115902284D01*
X162147072Y-115837997D01*
X162721191Y-115781364D01*
X163311258Y-115731575D01*
X163922297Y-115687820D01*
X164147500Y-115673443D01*
X164225886Y-115669729D01*
X164342679Y-115665802D01*
X164493955Y-115661733D01*
X164675789Y-115657594D01*
X164884255Y-115653454D01*
X165115429Y-115649384D01*
X165365386Y-115645456D01*
X165630200Y-115641741D01*
X165905948Y-115638309D01*
X166188703Y-115635231D01*
X166348833Y-115633687D01*
X166693268Y-115630437D01*
X166998830Y-115627280D01*
X167268979Y-115624043D01*
X167507174Y-115620554D01*
X167716874Y-115616641D01*
X167901538Y-115612133D01*
X168064627Y-115606856D01*
X168209599Y-115600639D01*
X168339915Y-115593311D01*
X168459033Y-115584698D01*
X168570413Y-115574630D01*
X168677515Y-115562933D01*
X168783797Y-115549436D01*
X168892720Y-115533967D01*
X169007743Y-115516353D01*
X169132324Y-115496424D01*
X169142642Y-115494751D01*
X169286036Y-115470320D01*
X169443459Y-115441590D01*
X169597148Y-115411909D01*
X169729339Y-115384626D01*
X169745892Y-115381019D01*
X169791534Y-115369718D01*
X169875999Y-115347423D01*
X169997377Y-115314667D01*
X170153755Y-115271984D01*
X170343222Y-115219905D01*
X170563869Y-115158964D01*
X170813783Y-115089693D01*
X171091053Y-115012626D01*
X171393769Y-114928294D01*
X171720020Y-114837231D01*
X172067894Y-114739970D01*
X172435480Y-114637043D01*
X172820868Y-114528983D01*
X173222146Y-114416323D01*
X173637403Y-114299596D01*
X174064729Y-114179334D01*
X174502211Y-114056071D01*
X174836666Y-113961740D01*
X175486083Y-113778504D01*
X176096095Y-113606390D01*
X176668037Y-113445011D01*
X177203243Y-113293977D01*
X177703047Y-113152902D01*
X178168783Y-113021396D01*
X178601786Y-112899072D01*
X179003389Y-112785541D01*
X179374926Y-112680415D01*
X179717731Y-112583306D01*
X180033139Y-112493825D01*
X180322484Y-112411585D01*
X180587099Y-112336197D01*
X180828320Y-112267272D01*
X181047479Y-112204423D01*
X181245911Y-112147261D01*
X181424950Y-112095399D01*
X181585931Y-112048447D01*
X181730186Y-112006018D01*
X181859051Y-111967723D01*
X181973860Y-111933175D01*
X182075945Y-111901984D01*
X182166643Y-111873763D01*
X182247286Y-111848123D01*
X182319209Y-111824677D01*
X182383746Y-111803036D01*
X182442230Y-111782811D01*
X182495997Y-111763615D01*
X182546380Y-111745059D01*
X182594713Y-111726755D01*
X182642330Y-111708315D01*
X182690566Y-111689350D01*
X182740754Y-111669473D01*
X182794229Y-111648295D01*
X182816500Y-111639506D01*
X183169342Y-111489646D01*
X183515242Y-111321753D01*
X183848407Y-111139400D01*
X184163044Y-110946163D01*
X184453360Y-110745615D01*
X184713561Y-110541331D01*
X184937856Y-110336885D01*
X184954333Y-110320369D01*
X185195796Y-110049121D01*
X185402347Y-109757218D01*
X185566291Y-109463416D01*
X185654891Y-109272629D01*
X185722233Y-109096403D01*
X185770330Y-108924632D01*
X185801199Y-108747212D01*
X185816854Y-108554039D01*
X185819311Y-108335008D01*
X185816149Y-108210591D01*
X185793945Y-107910205D01*
X185747515Y-107628614D01*
X185674501Y-107359819D01*
X185572546Y-107097824D01*
X185439295Y-106836630D01*
X185272391Y-106570240D01*
X185069476Y-106292657D01*
X185055420Y-106274641D01*
X184812055Y-105997757D01*
X184539271Y-105749742D01*
X184240480Y-105532736D01*
X183919094Y-105348880D01*
X183578523Y-105200316D01*
X183222178Y-105089183D01*
X183132756Y-105067887D01*
X183082906Y-105056955D01*
X183036551Y-105047768D01*
X182989623Y-105040176D01*
X182938056Y-105034031D01*
X182877783Y-105029183D01*
X182804736Y-105025484D01*
X182714850Y-105022784D01*
X182604057Y-105020936D01*
X182468290Y-105019789D01*
X182303482Y-105019195D01*
X182105567Y-105019006D01*
X181870477Y-105019072D01*
X181800500Y-105019114D01*
X181515845Y-105019877D01*
X181252949Y-105021751D01*
X181015224Y-105024674D01*
X180806085Y-105028582D01*
X180628947Y-105033409D01*
X180487224Y-105039092D01*
X180384330Y-105045568D01*
X180382333Y-105045735D01*
X179512901Y-105133665D01*
X178672699Y-105248605D01*
X177857486Y-105391643D01*
X177063022Y-105563870D01*
X176285064Y-105766376D01*
X175519371Y-106000250D01*
X174761704Y-106266582D01*
X174007821Y-106566462D01*
X173366872Y-106848531D01*
X173070737Y-106980924D01*
X172769611Y-107108759D01*
X172468071Y-107230442D01*
X172170692Y-107344382D01*
X171882048Y-107448986D01*
X171606717Y-107542661D01*
X171349272Y-107623815D01*
X171114289Y-107690856D01*
X170906344Y-107742190D01*
X170730012Y-107776226D01*
X170681725Y-107783113D01*
X170443164Y-107793369D01*
X170209625Y-107764394D01*
X169986087Y-107698314D01*
X169777526Y-107597258D01*
X169588920Y-107463351D01*
X169425246Y-107298722D01*
X169364664Y-107220268D01*
X169268271Y-107064566D01*
X169174510Y-106873466D01*
X169086024Y-106653901D01*
X169005460Y-106412808D01*
X168935462Y-106157120D01*
X168900282Y-106002666D01*
X168856681Y-105801785D01*
X168817322Y-105634659D01*
X168780062Y-105493194D01*
X168742761Y-105369294D01*
X168703277Y-105254867D01*
X168700256Y-105246679D01*
X168637295Y-105084856D01*
X168571537Y-104934136D01*
X168499232Y-104788034D01*
X168416629Y-104640068D01*
X168319979Y-104483754D01*
X168205531Y-104312609D01*
X168069536Y-104120148D01*
X167968318Y-103981242D01*
X167671324Y-103571277D01*
X167360231Y-103130470D01*
X167039197Y-102665202D01*
X166712378Y-102181851D01*
X166383932Y-101686794D01*
X166058017Y-101186410D01*
X165738790Y-100687079D01*
X165430407Y-100195177D01*
X165137027Y-99717084D01*
X164862807Y-99259177D01*
X164629701Y-98858916D01*
X164010479Y-97736972D01*
X163428012Y-96594959D01*
X162882095Y-95432398D01*
X162372525Y-94248808D01*
X161899099Y-93043709D01*
X161461613Y-91816621D01*
X161059864Y-90567064D01*
X160922444Y-90106500D01*
X160806538Y-89655979D01*
X160727864Y-89221765D01*
X160686574Y-88799739D01*
X160682821Y-88385780D01*
X160716757Y-87975770D01*
X160788535Y-87565589D01*
X160898306Y-87151117D01*
X161046224Y-86728235D01*
X161047564Y-86724800D01*
X161117279Y-86531335D01*
X161164831Y-86360681D01*
X161192441Y-86201043D01*
X161202326Y-86040626D01*
X161199637Y-85916470D01*
X161184524Y-85747723D01*
X161155575Y-85599050D01*
X161130903Y-85513333D01*
X161083949Y-85377951D01*
X161032881Y-85258156D01*
X160972806Y-85146365D01*
X160898828Y-85035000D01*
X160806055Y-84916480D01*
X160689592Y-84783224D01*
X160590402Y-84676109D01*
X160223662Y-84259220D01*
X159877316Y-83810974D01*
X159557234Y-83339779D01*
X159269285Y-82854041D01*
X159119469Y-82569278D01*
X159089020Y-82507379D01*
X159054771Y-82435314D01*
X159015716Y-82350760D01*
X158970848Y-82251388D01*
X158919163Y-82134873D01*
X158859655Y-81998888D01*
X158791318Y-81841106D01*
X158713146Y-81659202D01*
X158624133Y-81450849D01*
X158523275Y-81213721D01*
X158409564Y-80945491D01*
X158281996Y-80643833D01*
X158139564Y-80306421D01*
X158074208Y-80151444D01*
X157895994Y-79729538D01*
X157732006Y-79343132D01*
X157580556Y-78988497D01*
X157439956Y-78661904D01*
X157308518Y-78359623D01*
X157184557Y-78077926D01*
X157066383Y-77813084D01*
X156952310Y-77561366D01*
X156840650Y-77319045D01*
X156729715Y-77082391D01*
X156617819Y-76847676D01*
X156503275Y-76611170D01*
X156384393Y-76369143D01*
X156259488Y-76117868D01*
X156152072Y-75903666D01*
X156056616Y-75712974D01*
X155965544Y-75529183D01*
X155880956Y-75356655D01*
X155804948Y-75199753D01*
X155739617Y-75062839D01*
X155687063Y-74950277D01*
X155649381Y-74866428D01*
X155628670Y-74815656D01*
X155627954Y-74813583D01*
X155565359Y-74573445D01*
X155543736Y-74343320D01*
X155563130Y-74123104D01*
X155623588Y-73912695D01*
X155725154Y-73711989D01*
X155867874Y-73520883D01*
X156051794Y-73339274D01*
X156276960Y-73167060D01*
X156389916Y-73093737D01*
X156457992Y-73052977D01*
X156555422Y-72996520D01*
X156674337Y-72928831D01*
X156806866Y-72854373D01*
X156945139Y-72777610D01*
X157014333Y-72739560D01*
X157294646Y-72582313D01*
X157542330Y-72435770D01*
X157756044Y-72300818D01*
X157934444Y-72178340D01*
X158076187Y-72069225D01*
X158179930Y-71974357D01*
X158189321Y-71964447D01*
X158334087Y-71779907D01*
X158442497Y-71575656D01*
X158515494Y-71349578D01*
X158547944Y-71161213D01*
X158551924Y-71078443D01*
X158546563Y-70974906D01*
X158531326Y-70847463D01*
X158505677Y-70692975D01*
X158469080Y-70508301D01*
X158420998Y-70290302D01*
X158360896Y-70035839D01*
X158343993Y-69966416D01*
X158289048Y-69737117D01*
X158245736Y-69543057D01*
X158213731Y-69378869D01*
X158192705Y-69239184D01*
X158182333Y-69118633D01*
X158182287Y-69011848D01*
X158192241Y-68913459D01*
X158211869Y-68818098D01*
X158240845Y-68720397D01*
X158264172Y-68654083D01*
X158334666Y-68521188D01*
X158441192Y-68400575D01*
X158578245Y-68296345D01*
X158740321Y-68212598D01*
X158921917Y-68153435D01*
X158942626Y-68148653D01*
X159014272Y-68137529D01*
X159122812Y-68127192D01*
X159262807Y-68118009D01*
X159428819Y-68110345D01*
X159586083Y-68105306D01*
X159748967Y-68100915D01*
X159941938Y-68095511D01*
X160152775Y-68089448D01*
X160369252Y-68083081D01*
X160579148Y-68076766D01*
X160739666Y-68071816D01*
X160881500Y-68067547D01*
X161059424Y-68062458D01*
X161267203Y-68056714D01*
X161498605Y-68050481D01*
X161747398Y-68043922D01*
X162007347Y-68037203D01*
X162272221Y-68030488D01*
X162535787Y-68023942D01*
X162729333Y-68019230D01*
X163182109Y-68008218D01*
X163595065Y-67997927D01*
X163970702Y-67988226D01*
X164311527Y-67978985D01*
X164620041Y-67970073D01*
X164898748Y-67961360D01*
X165150153Y-67952716D01*
X165376759Y-67944009D01*
X165581070Y-67935109D01*
X165765588Y-67925886D01*
X165932819Y-67916209D01*
X166085265Y-67905948D01*
X166225431Y-67894972D01*
X166355819Y-67883151D01*
X166478935Y-67870354D01*
X166597280Y-67856451D01*
X166713360Y-67841310D01*
X166829677Y-67824802D01*
X166948735Y-67806797D01*
X167020579Y-67795529D01*
X167323608Y-67742463D01*
X167621534Y-67680599D01*
X167910185Y-67611309D01*
X168185390Y-67535964D01*
X168442978Y-67455936D01*
X168678777Y-67372597D01*
X168888616Y-67287318D01*
X169068323Y-67201471D01*
X169213729Y-67116428D01*
X169311131Y-67042327D01*
X169393833Y-66950341D01*
X169439047Y-66853824D01*
X169447357Y-66747784D01*
X169419353Y-66627224D01*
X169372591Y-66519724D01*
X169297718Y-66395294D01*
X169190770Y-66253026D01*
X169055777Y-66097181D01*
X168896772Y-65932019D01*
X168717786Y-65761802D01*
X168522850Y-65590790D01*
X168391416Y-65482760D01*
X168124059Y-65277914D01*
X167851652Y-65088616D01*
X167567012Y-64910637D01*
X167262958Y-64739751D01*
X166932307Y-64571730D01*
X166567876Y-64402346D01*
X166518166Y-64380237D01*
X165745872Y-64049568D01*
X164991051Y-63749762D01*
X164245343Y-63478141D01*
X163500387Y-63232032D01*
X162747823Y-63008759D01*
X161979292Y-62805646D01*
X161186431Y-62620018D01*
X160686750Y-62514122D01*
X160452366Y-62466005D01*
X160252853Y-62424271D01*
X160081510Y-62387318D01*
X159931635Y-62353547D01*
X159796525Y-62321357D01*
X159669478Y-62289148D01*
X159543792Y-62255320D01*
X159412765Y-62218271D01*
X159269695Y-62176401D01*
X159258000Y-62172935D01*
X158869244Y-62049645D01*
X158512558Y-61919215D01*
X158177797Y-61777651D01*
X157854815Y-61620958D01*
X157850416Y-61618683D01*
X157463673Y-61403014D01*
X157108568Y-61171272D01*
X156776060Y-60916624D01*
X156457108Y-60632241D01*
X156196535Y-60369086D01*
X156001788Y-60183210D01*
X155803749Y-60037803D01*
X155597978Y-59931019D01*
X155380035Y-59861009D01*
X155145480Y-59825924D01*
X154889873Y-59823918D01*
X154887083Y-59824065D01*
X154768677Y-59832806D01*
X154643994Y-59845997D01*
X154532248Y-59861454D01*
X154484916Y-59869801D01*
X154434081Y-59879210D01*
X154345627Y-59894887D01*
X154223690Y-59916125D01*
X154072407Y-59942216D01*
X153895913Y-59972451D01*
X153698344Y-60006122D01*
X153483836Y-60042521D01*
X153256525Y-60080939D01*
X153020546Y-60120669D01*
X152992666Y-60125353D01*
X152551722Y-60200111D01*
X152147880Y-60270156D01*
X151776296Y-60336486D01*
X151432124Y-60400099D01*
X151110522Y-60461991D01*
X150806643Y-60523161D01*
X150515644Y-60584605D01*
X150232680Y-60647321D01*
X149952907Y-60712307D01*
X149671481Y-60780560D01*
X149383556Y-60853077D01*
X149098000Y-60927247D01*
X148816366Y-61002756D01*
X148530654Y-61082015D01*
X148245205Y-61163663D01*
X147964361Y-61246337D01*
X147692463Y-61328676D01*
X147433854Y-61409317D01*
X147192874Y-61486900D01*
X146973866Y-61560061D01*
X146781171Y-61627439D01*
X146619131Y-61687671D01*
X146492088Y-61739397D01*
X146452875Y-61757011D01*
X146141818Y-61924666D01*
X145846589Y-62128850D01*
X145571405Y-62365383D01*
X145320486Y-62630082D01*
X145098048Y-62918767D01*
X144908311Y-63227257D01*
X144844434Y-63351323D01*
X144775904Y-63504503D01*
X144699408Y-63699245D01*
X144614950Y-63935535D01*
X144522535Y-64213361D01*
X144422165Y-64532707D01*
X144313846Y-64893561D01*
X144197582Y-65295909D01*
X144073376Y-65739736D01*
X143941232Y-66225030D01*
X143801155Y-66751776D01*
X143653150Y-67319960D01*
X143563331Y-67669833D01*
X143460792Y-68066883D01*
X143364935Y-68428547D01*
X143274030Y-68760931D01*
X143186346Y-69070138D01*
X143100151Y-69362272D01*
X143013715Y-69643436D01*
X142925306Y-69919735D01*
X142925272Y-69919840D01*
X142850567Y-70145758D01*
X142774728Y-70369215D01*
X142699741Y-70584725D01*
X142627590Y-70786801D01*
X142560260Y-70969954D01*
X142499734Y-71128699D01*
X142447997Y-71257548D01*
X142409961Y-71344765D01*
X142275892Y-71592180D01*
X142118167Y-71810807D01*
X141939849Y-71996923D01*
X141757553Y-72138006D01*
X141645436Y-72206586D01*
X141536113Y-72261006D01*
X141418386Y-72305482D01*
X141281057Y-72344232D01*
X141112931Y-72381471D01*
X141108815Y-72382302D01*
X140945097Y-72416232D01*
X140813753Y-72445974D01*
X140705382Y-72474198D01*
X140610584Y-72503571D01*
X140519958Y-72536764D01*
X140424103Y-72576444D01*
X140422443Y-72577160D01*
X140153715Y-72714674D01*
X139902568Y-72887947D01*
X139668172Y-73097836D01*
X139449698Y-73345196D01*
X139246315Y-73630884D01*
X139057195Y-73955755D01*
X139023902Y-74019833D01*
X138826419Y-74428081D01*
X138632000Y-74871882D01*
X138442981Y-75344463D01*
X138261696Y-75839050D01*
X138090481Y-76348869D01*
X137931670Y-76867147D01*
X137787600Y-77387110D01*
X137660605Y-77901984D01*
X137614252Y-78108942D01*
X137469641Y-78686510D01*
X137291869Y-79238268D01*
X137080151Y-79765540D01*
X136833701Y-80269648D01*
X136551734Y-80751915D01*
X136233462Y-81213664D01*
X135878101Y-81656218D01*
X135484864Y-82080900D01*
X135052965Y-82489033D01*
X134967649Y-82563794D01*
X134830651Y-82683777D01*
X134719280Y-82784925D01*
X134626057Y-82874786D01*
X134543502Y-82960906D01*
X134464137Y-83050836D01*
X134380481Y-83152121D01*
X134362568Y-83174416D01*
X134135686Y-83490255D01*
X133941061Y-83828789D01*
X133780035Y-84185469D01*
X133653948Y-84555750D01*
X133564141Y-84935085D01*
X133511955Y-85318926D01*
X133498731Y-85702728D01*
X133519835Y-86031916D01*
X133537971Y-86167449D01*
X133565709Y-86338356D01*
X133601988Y-86539041D01*
X133645748Y-86763911D01*
X133695928Y-87007370D01*
X133751466Y-87263824D01*
X133764668Y-87323083D01*
X133782117Y-87400295D01*
X133800724Y-87481041D01*
X133821167Y-87568029D01*
X133844122Y-87663965D01*
X133870269Y-87771557D01*
X133900284Y-87893511D01*
X133934847Y-88032534D01*
X133974634Y-88191334D01*
X134020323Y-88372616D01*
X134072593Y-88579089D01*
X134132121Y-88813460D01*
X134199586Y-89078435D01*
X134275664Y-89376721D01*
X134361034Y-89711025D01*
X134440466Y-90021833D01*
X134521479Y-90351377D01*
X134588443Y-90652963D01*
X134643549Y-90937726D01*
X134688987Y-91216803D01*
X134719416Y-91440000D01*
X134734446Y-91593217D01*
X134745646Y-91776840D01*
X134753021Y-91981703D01*
X134756576Y-92198636D01*
X134756315Y-92418474D01*
X134752241Y-92632049D01*
X134744359Y-92830195D01*
X134732674Y-93003743D01*
X134718633Y-93133333D01*
X134654719Y-93529851D01*
X134574935Y-93900782D01*
X134475811Y-94257824D01*
X134353876Y-94612676D01*
X134205660Y-94977038D01*
X134106403Y-95197083D01*
X133986484Y-95465521D01*
X133886780Y-95715132D01*
X133805100Y-95954764D01*
X133739255Y-96193266D01*
X133687056Y-96439484D01*
X133646312Y-96702267D01*
X133614835Y-96990463D01*
X133593131Y-97271050D01*
X133567178Y-97606933D01*
X133535039Y-97910716D01*
X133495113Y-98192383D01*
X133445795Y-98461916D01*
X133385483Y-98729300D01*
X133317806Y-98985916D01*
X133145044Y-99528821D01*
X132936692Y-100050238D01*
X132691952Y-100551570D01*
X132410029Y-101034219D01*
X132090125Y-101499588D01*
X131731444Y-101949080D01*
X131465732Y-102245583D01*
X131211370Y-102531699D01*
X130992804Y-102810558D01*
X130805880Y-103088889D01*
X130646439Y-103373426D01*
X130510324Y-103670900D01*
X130397677Y-103975086D01*
X130338409Y-104159339D01*
X130291202Y-104323334D01*
X130254600Y-104476267D01*
X130227147Y-104627336D01*
X130207388Y-104785736D01*
X130193867Y-104960665D01*
X130185128Y-105161320D01*
X130180603Y-105346500D01*
X130178135Y-105706896D01*
X130185403Y-106038710D01*
X130203113Y-106354715D01*
X130231968Y-106667689D01*
X130270333Y-106973746D01*
X130288240Y-107097503D01*
X130312191Y-107256447D01*
X130341134Y-107444025D01*
X130374019Y-107653691D01*
X130409796Y-107878893D01*
X130447415Y-108113082D01*
X130485825Y-108349709D01*
X130523976Y-108582224D01*
X130560817Y-108804077D01*
X130595299Y-109008720D01*
X130616972Y-109135333D01*
X130666303Y-109446574D01*
X130708641Y-109765348D01*
X130743766Y-110086622D01*
X130771453Y-110405366D01*
X130791481Y-110716548D01*
X130803627Y-111015137D01*
X130807668Y-111296100D01*
X130803383Y-111554408D01*
X130790549Y-111785029D01*
X130768943Y-111982931D01*
X130748093Y-112101115D01*
X130650239Y-112460184D01*
X130515483Y-112800420D01*
X130345500Y-113119641D01*
X130141968Y-113415667D01*
X129906563Y-113686316D01*
X129640965Y-113929407D01*
X129346848Y-114142759D01*
X129046636Y-114313863D01*
X128882386Y-114390549D01*
X128714999Y-114456094D01*
X128537808Y-114512188D01*
X128344145Y-114560520D01*
X128127340Y-114602780D01*
X127880728Y-114640657D01*
X127635000Y-114671561D01*
X127530262Y-114682573D01*
X127427055Y-114690727D01*
X127317972Y-114696212D01*
X127195608Y-114699216D01*
X127052560Y-114699928D01*
X126881422Y-114698537D01*
X126693083Y-114695568D01*
X126476481Y-114690413D01*
X126266839Y-114682667D01*
X126060645Y-114671855D01*
X125854383Y-114657496D01*
X125644541Y-114639114D01*
X125427604Y-114616231D01*
X125200060Y-114588368D01*
X124958393Y-114555049D01*
X124699091Y-114515795D01*
X124418639Y-114470127D01*
X124113524Y-114417570D01*
X123780233Y-114357643D01*
X123415250Y-114289871D01*
X123015063Y-114213774D01*
X122692583Y-114151509D01*
X122300847Y-114076030D01*
X121946040Y-114008959D01*
X121623739Y-113949638D01*
X121329523Y-113897403D01*
X121058970Y-113851596D01*
X120807658Y-113811554D01*
X120571165Y-113776617D01*
X120345069Y-113746125D01*
X120124949Y-113719416D01*
X119906382Y-113695830D01*
X119684946Y-113674706D01*
X119456221Y-113655382D01*
X119284750Y-113642229D01*
X119146809Y-113634163D01*
X118976773Y-113627632D01*
X118781853Y-113622639D01*
X118569260Y-113619189D01*
X118346206Y-113617285D01*
X118119902Y-113616931D01*
X117897560Y-113618129D01*
X117686393Y-113620883D01*
X117493611Y-113625197D01*
X117326426Y-113631075D01*
X117192050Y-113638519D01*
X117157500Y-113641203D01*
X116427005Y-113723659D01*
X115710992Y-113845575D01*
X115007833Y-114007262D01*
X114522250Y-114144317D01*
X114065506Y-114294693D01*
X113608422Y-114467289D01*
X113156965Y-114659110D01*
X112717101Y-114867162D01*
X112294799Y-115088450D01*
X111896023Y-115319980D01*
X111526743Y-115558758D01*
X111192924Y-115801789D01*
X111146166Y-115838515D01*
X111017543Y-115946300D01*
X110872345Y-116077455D01*
X110719579Y-116223077D01*
X110568250Y-116374262D01*
X110427365Y-116522105D01*
X110305930Y-116657705D01*
X110250901Y-116723583D01*
X110079259Y-116948378D01*
X109917867Y-117183761D01*
X109770856Y-117422511D01*
X109642354Y-117657406D01*
X109536491Y-117881223D01*
X109457394Y-118086741D01*
X109440093Y-118141750D01*
X109403140Y-118305253D01*
X109383034Y-118481493D01*
X109380150Y-118656951D01*
X109015589Y-118656951D01*
X109008588Y-118587378D01*
X109022120Y-118333413D01*
X109073994Y-118069613D01*
X109164209Y-117793507D01*
X109292761Y-117502622D01*
X109336477Y-117416557D01*
X109571456Y-117009273D01*
X109841487Y-116621424D01*
X110147097Y-116252546D01*
X110488814Y-115902177D01*
X110867168Y-115569856D01*
X111282688Y-115255120D01*
X111735900Y-114957507D01*
X112227335Y-114676555D01*
X112757520Y-114411802D01*
X112790504Y-114396454D01*
X113447350Y-114114126D01*
X114115310Y-113871089D01*
X114796437Y-113666792D01*
X115492781Y-113500684D01*
X116206396Y-113372214D01*
X116939333Y-113280830D01*
X116945833Y-113280193D01*
X117066916Y-113271170D01*
X117224163Y-113263830D01*
X117411442Y-113258148D01*
X117622618Y-113254098D01*
X117851558Y-113251657D01*
X118092127Y-113250800D01*
X118338192Y-113251502D01*
X118583619Y-113253737D01*
X118822274Y-113257482D01*
X119048023Y-113262712D01*
X119254733Y-113269402D01*
X119436269Y-113277526D01*
X119586497Y-113287062D01*
X119634000Y-113291040D01*
X119875138Y-113314044D01*
X120107323Y-113338446D01*
X120335289Y-113364992D01*
X120563766Y-113394424D01*
X120797487Y-113427487D01*
X121041185Y-113464924D01*
X121299591Y-113507479D01*
X121577438Y-113555897D01*
X121879459Y-113610921D01*
X122210384Y-113673294D01*
X122574947Y-113743761D01*
X122819583Y-113791770D01*
X123257996Y-113877296D01*
X123659191Y-113953494D01*
X124027111Y-114020922D01*
X124365701Y-114080140D01*
X124678905Y-114131705D01*
X124970666Y-114176177D01*
X125244928Y-114214115D01*
X125505637Y-114246076D01*
X125756735Y-114272620D01*
X126002167Y-114294306D01*
X126245877Y-114311691D01*
X126491809Y-114325335D01*
X126629583Y-114331452D01*
X126852229Y-114335010D01*
X127095941Y-114329247D01*
X127350879Y-114315057D01*
X127607209Y-114293334D01*
X127855092Y-114264974D01*
X128084692Y-114230871D01*
X128286173Y-114191920D01*
X128361649Y-114173920D01*
X128678856Y-114071129D01*
X128980220Y-113929238D01*
X129264963Y-113748708D01*
X129532312Y-113530001D01*
X129668489Y-113396899D01*
X129861537Y-113176197D01*
X130023732Y-112944006D01*
X130164848Y-112686186D01*
X130176700Y-112661554D01*
X130269242Y-112447473D01*
X130340687Y-112234713D01*
X130392750Y-112014610D01*
X130427150Y-111778504D01*
X130445604Y-111517730D01*
X130450041Y-111282689D01*
X130449473Y-111147458D01*
X130447431Y-111016948D01*
X130443547Y-110888293D01*
X130437451Y-110758627D01*
X130428775Y-110625084D01*
X130417149Y-110484798D01*
X130402204Y-110334903D01*
X130383572Y-110172533D01*
X130360882Y-109994820D01*
X130333767Y-109798901D01*
X130301856Y-109581907D01*
X130264782Y-109340974D01*
X130222174Y-109073235D01*
X130173664Y-108775824D01*
X130118883Y-108445875D01*
X130057461Y-108080521D01*
X129989030Y-107676897D01*
X129975409Y-107596842D01*
X129933901Y-107328974D01*
X129897028Y-107043154D01*
X129865176Y-106745941D01*
X129838729Y-106443896D01*
X129818071Y-106143577D01*
X129803588Y-105851544D01*
X129795664Y-105574357D01*
X129794684Y-105318574D01*
X129801033Y-105090756D01*
X129815095Y-104897461D01*
X129816389Y-104885290D01*
X129885543Y-104444094D01*
X129995372Y-104011051D01*
X130144518Y-103589958D01*
X130331625Y-103184611D01*
X130555336Y-102798804D01*
X130570204Y-102775884D01*
X130652744Y-102652704D01*
X130734489Y-102538398D01*
X130821272Y-102425745D01*
X130918924Y-102307530D01*
X131033276Y-102176532D01*
X131170162Y-102025535D01*
X131220968Y-101970416D01*
X131546932Y-101600210D01*
X131836045Y-101233037D01*
X132092632Y-100862087D01*
X132321015Y-100480552D01*
X132525517Y-100081624D01*
X132710462Y-99658493D01*
X132746410Y-99568000D01*
X132872998Y-99219538D01*
X132978671Y-98872806D01*
X133065093Y-98519784D01*
X133133931Y-98152451D01*
X133186853Y-97762786D01*
X133225523Y-97342769D01*
X133233806Y-97222053D01*
X133260172Y-96886904D01*
X133295395Y-96584178D01*
X133341774Y-96304474D01*
X133401612Y-96038394D01*
X133477208Y-95776536D01*
X133570866Y-95509502D01*
X133684885Y-95227890D01*
X133768400Y-95038333D01*
X133904177Y-94724964D01*
X134017554Y-94432785D01*
X134112449Y-94149827D01*
X134192783Y-93864122D01*
X134262473Y-93563702D01*
X134281275Y-93472000D01*
X134315888Y-93291624D01*
X134343105Y-93130800D01*
X134363746Y-92980189D01*
X134378628Y-92830451D01*
X134388570Y-92672247D01*
X134394390Y-92496236D01*
X134396905Y-92293080D01*
X134397164Y-92149083D01*
X134396838Y-92004036D01*
X134395764Y-91872736D01*
X134393326Y-91751760D01*
X134388910Y-91637686D01*
X134381901Y-91527090D01*
X134371684Y-91416552D01*
X134357644Y-91302647D01*
X134339167Y-91181954D01*
X134315636Y-91051050D01*
X134286438Y-90906513D01*
X134250957Y-90744919D01*
X134208579Y-90562846D01*
X134158688Y-90356872D01*
X134100670Y-90123574D01*
X134033910Y-89859530D01*
X133957792Y-89561317D01*
X133872362Y-89228083D01*
X133752846Y-88758846D01*
X133645163Y-88328687D01*
X133548983Y-87936136D01*
X133463980Y-87579720D01*
X133389825Y-87257969D01*
X133326189Y-86969413D01*
X133272745Y-86712579D01*
X133229165Y-86485997D01*
X133195120Y-86288196D01*
X133170282Y-86117705D01*
X133160752Y-86038042D01*
X133136921Y-85626677D01*
X133154214Y-85215436D01*
X133211540Y-84807570D01*
X133307806Y-84406330D01*
X133441920Y-84014968D01*
X133612789Y-83636734D01*
X133819320Y-83274880D01*
X134060420Y-82932657D01*
X134298529Y-82652255D01*
X134355255Y-82594597D01*
X134436154Y-82517286D01*
X134533014Y-82427930D01*
X134637618Y-82334136D01*
X134715250Y-82266287D01*
X135137056Y-81878948D01*
X135519771Y-81478326D01*
X135865264Y-81061814D01*
X136175407Y-80626809D01*
X136452073Y-80170704D01*
X136697133Y-79690894D01*
X136892765Y-79235240D01*
X136976446Y-79011368D01*
X137052996Y-78781184D01*
X137124918Y-78536075D01*
X137194709Y-78267432D01*
X137264871Y-77966643D01*
X137276888Y-77912273D01*
X137484333Y-77064512D01*
X137733081Y-76222635D01*
X138022212Y-75389468D01*
X138350807Y-74567839D01*
X138409187Y-74432583D01*
X138546654Y-74126605D01*
X138676862Y-73856978D01*
X138802779Y-73618973D01*
X138927371Y-73407861D01*
X139053604Y-73218912D01*
X139184445Y-73047399D01*
X139322861Y-72888591D01*
X139471819Y-72737760D01*
X139473295Y-72736349D01*
X139704097Y-72536106D01*
X139945003Y-72368546D01*
X140202302Y-72230497D01*
X140482282Y-72118789D01*
X140791231Y-72030252D01*
X140938103Y-71997791D01*
X141070720Y-71970389D01*
X141170643Y-71948182D01*
X141246764Y-71928441D01*
X141307975Y-71908440D01*
X141363167Y-71885453D01*
X141421232Y-71856750D01*
X141453593Y-71839685D01*
X141626942Y-71724556D01*
X141789006Y-71571100D01*
X141937102Y-71382442D01*
X142068550Y-71161706D01*
X142112724Y-71071897D01*
X142167076Y-70946620D01*
X142230595Y-70785290D01*
X142301713Y-70592805D01*
X142378864Y-70374062D01*
X142460480Y-70133959D01*
X142544993Y-69877392D01*
X142630835Y-69609259D01*
X142716439Y-69334457D01*
X142800238Y-69057883D01*
X142880663Y-68784434D01*
X142956148Y-68519009D01*
X143025125Y-68266503D01*
X143086025Y-68031815D01*
X143086762Y-68028882D01*
X143220379Y-67501962D01*
X143351274Y-66996008D01*
X143478966Y-66512647D01*
X143602978Y-66053503D01*
X143722829Y-65620200D01*
X143838041Y-65214364D01*
X143948134Y-64837619D01*
X144052629Y-64491589D01*
X144151047Y-64177901D01*
X144242910Y-63898177D01*
X144327736Y-63654043D01*
X144405049Y-63447124D01*
X144474368Y-63279045D01*
X144511157Y-63199096D01*
X144703658Y-62849545D01*
X144929772Y-62524964D01*
X145187638Y-62227223D01*
X145475392Y-61958191D01*
X145791173Y-61719739D01*
X146133119Y-61513737D01*
X146248235Y-61454744D01*
X146364064Y-61402696D01*
X146516880Y-61341777D01*
X146702577Y-61273284D01*
X146917048Y-61198513D01*
X147156185Y-61118762D01*
X147415883Y-61035327D01*
X147692033Y-60949504D01*
X147980531Y-60862591D01*
X148277267Y-60775884D01*
X148578137Y-60690680D01*
X148879033Y-60608275D01*
X149175847Y-60529967D01*
X149182666Y-60528205D01*
X149492035Y-60449511D01*
X149790783Y-60376105D01*
X150084145Y-60306923D01*
X150377359Y-60240899D01*
X150675659Y-60176965D01*
X150984284Y-60114057D01*
X151308469Y-60051107D01*
X151653451Y-59987050D01*
X152024466Y-59920819D01*
X152426750Y-59851349D01*
X152865541Y-59777574D01*
X152886833Y-59774035D01*
X153120058Y-59735159D01*
X153346796Y-59697108D01*
X153562548Y-59660653D01*
X153762816Y-59626568D01*
X153943102Y-59595622D01*
X154098908Y-59568588D01*
X154225735Y-59546236D01*
X154319086Y-59529340D01*
X154368500Y-59519894D01*
X154543194Y-59491226D01*
X154732205Y-59471666D01*
X154924131Y-59461574D01*
X155107571Y-59461310D01*
X155271124Y-59471233D01*
G36*
X181313868Y-106340419D02*
G01*
X181797754Y-106400196D01*
X182281982Y-106498277D01*
X182761071Y-106633414D01*
X183229544Y-106804361D01*
X183519064Y-106930955D01*
X183686960Y-107013230D01*
X183825005Y-107090695D01*
X183943969Y-107170448D01*
X184054625Y-107259589D01*
X184146549Y-107344505D01*
X184320195Y-107535768D01*
X184453900Y-107733182D01*
X184547548Y-107934631D01*
X184601020Y-108138001D01*
X184614200Y-108341179D01*
X184586971Y-108542052D01*
X184519215Y-108738504D01*
X184410816Y-108928422D01*
X184261656Y-109109692D01*
X184245283Y-109126465D01*
X184083543Y-109273851D01*
X183885690Y-109427410D01*
X183656968Y-109584278D01*
X183402620Y-109741591D01*
X183127891Y-109896485D01*
X182838025Y-110046096D01*
X182538267Y-110187559D01*
X182233859Y-110318011D01*
X181930046Y-110434588D01*
X181715833Y-110507929D01*
X181593840Y-110546599D01*
X181470704Y-110583725D01*
X181342822Y-110620148D01*
X181206590Y-110656710D01*
X181058408Y-110694253D01*
X180894671Y-110733618D01*
X180711778Y-110775647D01*
X180506127Y-110821181D01*
X180274114Y-110871063D01*
X180012137Y-110926134D01*
X179716594Y-110987235D01*
X179383883Y-111055209D01*
X179302833Y-111071678D01*
X178903521Y-111153303D01*
X178541294Y-111228738D01*
X178211567Y-111299251D01*
X177909752Y-111366113D01*
X177631265Y-111430593D01*
X177371519Y-111493961D01*
X177125929Y-111557488D01*
X176889909Y-111622442D01*
X176658873Y-111690095D01*
X176428235Y-111761715D01*
X176193410Y-111838573D01*
X175949811Y-111921938D01*
X175692852Y-112013080D01*
X175417949Y-112113270D01*
X175120515Y-112223776D01*
X175058916Y-112246854D01*
X174733847Y-112368327D01*
X174443608Y-112475668D01*
X174183668Y-112570329D01*
X173949496Y-112653763D01*
X173736561Y-112727420D01*
X173540333Y-112792754D01*
X173356281Y-112851216D01*
X173179873Y-112904258D01*
X173006580Y-112953333D01*
X172831870Y-112999891D01*
X172651212Y-113045386D01*
X172460076Y-113091269D01*
X172328416Y-113121910D01*
X171404854Y-113324617D01*
X170478815Y-113508004D01*
X169558270Y-113670708D01*
X168651187Y-113811368D01*
X167765534Y-113928622D01*
X167290750Y-113982610D01*
X167121948Y-114001657D01*
X166930577Y-114024918D01*
X166734565Y-114050112D01*
X166551842Y-114074958D01*
X166454666Y-114088955D01*
X165926875Y-114161746D01*
X165429658Y-114219299D01*
X164965803Y-114261327D01*
X164538096Y-114287544D01*
X164507333Y-114288875D01*
X164385228Y-114294066D01*
X164263014Y-114299393D01*
X164154744Y-114304235D01*
X164074474Y-114307972D01*
X164073416Y-114308024D01*
X163988034Y-114310651D01*
X163910741Y-114310457D01*
X163861750Y-114307774D01*
X163659822Y-114282676D01*
X163475281Y-114256836D01*
X163311930Y-114230974D01*
X163173569Y-114205810D01*
X163064001Y-114182063D01*
X162987028Y-114160453D01*
X162946453Y-114141701D01*
X162941000Y-114133429D01*
X162956633Y-114112507D01*
X162999859Y-114069943D01*
X163065169Y-114010484D01*
X163147054Y-113938874D01*
X163240003Y-113859861D01*
X163338508Y-113778190D01*
X163437059Y-113698607D01*
X163530147Y-113625859D01*
X163530790Y-113625366D01*
X163752478Y-113460159D01*
X163968265Y-113309120D01*
X164184422Y-113168713D01*
X164407222Y-113035400D01*
X164642938Y-112905642D01*
X164897843Y-112775903D01*
X165178208Y-112642643D01*
X165490306Y-112502325D01*
X165629166Y-112441815D01*
X165937317Y-112307684D01*
X166257561Y-112166471D01*
X166592447Y-112017004D01*
X166944520Y-111858111D01*
X167316330Y-111688620D01*
X167710422Y-111507358D01*
X168129344Y-111313153D01*
X168575644Y-111104833D01*
X169051868Y-110881226D01*
X169560565Y-110641160D01*
X170104280Y-110383462D01*
X170169416Y-110352526D01*
X170724960Y-110088874D01*
X171244838Y-109842724D01*
X171731426Y-109613007D01*
X172187102Y-109398655D01*
X172614241Y-109198597D01*
X173015219Y-109011766D01*
X173392415Y-108837091D01*
X173748202Y-108673504D01*
X174084959Y-108519935D01*
X174405062Y-108375316D01*
X174710886Y-108238577D01*
X175004809Y-108108649D01*
X175289206Y-107984463D01*
X175566455Y-107864950D01*
X175838931Y-107749040D01*
X176109011Y-107635665D01*
X176379072Y-107523756D01*
X176651489Y-107412242D01*
X176928640Y-107300056D01*
X177165000Y-107205254D01*
X177640653Y-107020640D01*
X178085311Y-106859675D01*
X178502503Y-106721508D01*
X178895758Y-106605288D01*
X179268603Y-106510165D01*
X179624569Y-106435287D01*
X179967182Y-106379803D01*
X180299974Y-106342864D01*
X180626470Y-106323617D01*
X180835801Y-106320192D01*
X181313868Y-106340419D01*
G37*
X181313868Y-106340419D02*
X181797754Y-106400196D01*
X182281982Y-106498277D01*
X182761071Y-106633414D01*
X183229544Y-106804361D01*
X183519064Y-106930955D01*
X183686960Y-107013230D01*
X183825005Y-107090695D01*
X183943969Y-107170448D01*
X184054625Y-107259589D01*
X184146549Y-107344505D01*
X184320195Y-107535768D01*
X184453900Y-107733182D01*
X184547548Y-107934631D01*
X184601020Y-108138001D01*
X184614200Y-108341179D01*
X184586971Y-108542052D01*
X184519215Y-108738504D01*
X184410816Y-108928422D01*
X184261656Y-109109692D01*
X184245283Y-109126465D01*
X184083543Y-109273851D01*
X183885690Y-109427410D01*
X183656968Y-109584278D01*
X183402620Y-109741591D01*
X183127891Y-109896485D01*
X182838025Y-110046096D01*
X182538267Y-110187559D01*
X182233859Y-110318011D01*
X181930046Y-110434588D01*
X181715833Y-110507929D01*
X181593840Y-110546599D01*
X181470704Y-110583725D01*
X181342822Y-110620148D01*
X181206590Y-110656710D01*
X181058408Y-110694253D01*
X180894671Y-110733618D01*
X180711778Y-110775647D01*
X180506127Y-110821181D01*
X180274114Y-110871063D01*
X180012137Y-110926134D01*
X179716594Y-110987235D01*
X179383883Y-111055209D01*
X179302833Y-111071678D01*
X178903521Y-111153303D01*
X178541294Y-111228738D01*
X178211567Y-111299251D01*
X177909752Y-111366113D01*
X177631265Y-111430593D01*
X177371519Y-111493961D01*
X177125929Y-111557488D01*
X176889909Y-111622442D01*
X176658873Y-111690095D01*
X176428235Y-111761715D01*
X176193410Y-111838573D01*
X175949811Y-111921938D01*
X175692852Y-112013080D01*
X175417949Y-112113270D01*
X175120515Y-112223776D01*
X175058916Y-112246854D01*
X174733847Y-112368327D01*
X174443608Y-112475668D01*
X174183668Y-112570329D01*
X173949496Y-112653763D01*
X173736561Y-112727420D01*
X173540333Y-112792754D01*
X173356281Y-112851216D01*
X173179873Y-112904258D01*
X173006580Y-112953333D01*
X172831870Y-112999891D01*
X172651212Y-113045386D01*
X172460076Y-113091269D01*
X172328416Y-113121910D01*
X171404854Y-113324617D01*
X170478815Y-113508004D01*
X169558270Y-113670708D01*
X168651187Y-113811368D01*
X167765534Y-113928622D01*
X167290750Y-113982610D01*
X167121948Y-114001657D01*
X166930577Y-114024918D01*
X166734565Y-114050112D01*
X166551842Y-114074958D01*
X166454666Y-114088955D01*
X165926875Y-114161746D01*
X165429658Y-114219299D01*
X164965803Y-114261327D01*
X164538096Y-114287544D01*
X164507333Y-114288875D01*
X164385228Y-114294066D01*
X164263014Y-114299393D01*
X164154744Y-114304235D01*
X164074474Y-114307972D01*
X164073416Y-114308024D01*
X163988034Y-114310651D01*
X163910741Y-114310457D01*
X163861750Y-114307774D01*
X163659822Y-114282676D01*
X163475281Y-114256836D01*
X163311930Y-114230974D01*
X163173569Y-114205810D01*
X163064001Y-114182063D01*
X162987028Y-114160453D01*
X162946453Y-114141701D01*
X162941000Y-114133429D01*
X162956633Y-114112507D01*
X162999859Y-114069943D01*
X163065169Y-114010484D01*
X163147054Y-113938874D01*
X163240003Y-113859861D01*
X163338508Y-113778190D01*
X163437059Y-113698607D01*
X163530147Y-113625859D01*
X163530790Y-113625366D01*
X163752478Y-113460159D01*
X163968265Y-113309120D01*
X164184422Y-113168713D01*
X164407222Y-113035400D01*
X164642938Y-112905642D01*
X164897843Y-112775903D01*
X165178208Y-112642643D01*
X165490306Y-112502325D01*
X165629166Y-112441815D01*
X165937317Y-112307684D01*
X166257561Y-112166471D01*
X166592447Y-112017004D01*
X166944520Y-111858111D01*
X167316330Y-111688620D01*
X167710422Y-111507358D01*
X168129344Y-111313153D01*
X168575644Y-111104833D01*
X169051868Y-110881226D01*
X169560565Y-110641160D01*
X170104280Y-110383462D01*
X170169416Y-110352526D01*
X170724960Y-110088874D01*
X171244838Y-109842724D01*
X171731426Y-109613007D01*
X172187102Y-109398655D01*
X172614241Y-109198597D01*
X173015219Y-109011766D01*
X173392415Y-108837091D01*
X173748202Y-108673504D01*
X174084959Y-108519935D01*
X174405062Y-108375316D01*
X174710886Y-108238577D01*
X175004809Y-108108649D01*
X175289206Y-107984463D01*
X175566455Y-107864950D01*
X175838931Y-107749040D01*
X176109011Y-107635665D01*
X176379072Y-107523756D01*
X176651489Y-107412242D01*
X176928640Y-107300056D01*
X177165000Y-107205254D01*
X177640653Y-107020640D01*
X178085311Y-106859675D01*
X178502503Y-106721508D01*
X178895758Y-106605288D01*
X179268603Y-106510165D01*
X179624569Y-106435287D01*
X179967182Y-106379803D01*
X180299974Y-106342864D01*
X180626470Y-106323617D01*
X180835801Y-106320192D01*
X181313868Y-106340419D01*
G36*
X158218094Y-98598521D02*
G01*
X158273750Y-98599205D01*
X158466889Y-98602279D01*
X158623933Y-98605680D01*
X158751117Y-98609804D01*
X158854680Y-98615046D01*
X158940858Y-98621803D01*
X159015888Y-98630470D01*
X159086007Y-98641442D01*
X159157453Y-98655116D01*
X159158505Y-98655331D01*
X159518813Y-98746178D01*
X159850907Y-98866441D01*
X160159049Y-99018381D01*
X160447501Y-99204258D01*
X160720524Y-99426333D01*
X160857392Y-99556446D01*
X161061433Y-99771764D01*
X161237768Y-99984636D01*
X161397555Y-100209403D01*
X161525252Y-100414666D01*
X161592199Y-100528252D01*
X161666445Y-100654341D01*
X161737017Y-100774293D01*
X161774462Y-100838000D01*
X161934434Y-101088710D01*
X162106412Y-101318409D01*
X162285658Y-101521643D01*
X162467433Y-101692962D01*
X162616640Y-101806882D01*
X162797720Y-101917525D01*
X162979828Y-102006090D01*
X163157486Y-102071120D01*
X163325212Y-102111161D01*
X163477527Y-102124756D01*
X163608951Y-102110450D01*
X163675137Y-102088031D01*
X163754393Y-102037309D01*
X163804825Y-101968245D01*
X163826862Y-101877720D01*
X163820932Y-101762615D01*
X163787464Y-101619811D01*
X163753507Y-101517206D01*
X163716283Y-101407376D01*
X163695002Y-101327296D01*
X163687776Y-101268322D01*
X163690826Y-101230612D01*
X163705190Y-101178078D01*
X163722145Y-101146518D01*
X163724260Y-101144858D01*
X163758580Y-101146121D01*
X163820060Y-101171077D01*
X163903303Y-101216362D01*
X164002914Y-101278612D01*
X164113494Y-101354464D01*
X164229648Y-101440551D01*
X164340706Y-101529137D01*
X164478889Y-101650044D01*
X164606712Y-101776705D01*
X164729758Y-101915812D01*
X164853607Y-102074058D01*
X164983841Y-102258133D01*
X165114865Y-102457250D01*
X165207955Y-102604085D01*
X165305279Y-102760356D01*
X165404203Y-102921587D01*
X165502091Y-103083303D01*
X165596312Y-103241027D01*
X165684230Y-103390283D01*
X165763212Y-103526597D01*
X165830623Y-103645491D01*
X165883831Y-103742490D01*
X165920201Y-103813119D01*
X165937099Y-103852901D01*
X165937720Y-103855534D01*
X165942999Y-103943576D01*
X165919511Y-104021679D01*
X165862933Y-104102181D01*
X165843907Y-104123277D01*
X165788790Y-104176171D01*
X165738499Y-104204265D01*
X165673649Y-104217487D01*
X165656400Y-104219300D01*
X165611956Y-104222040D01*
X165571087Y-104219057D01*
X165525798Y-104207639D01*
X165468093Y-104185075D01*
X165389979Y-104148652D01*
X165283461Y-104095659D01*
X165266201Y-104086953D01*
X165142226Y-104022270D01*
X164998093Y-103943765D01*
X164849480Y-103860159D01*
X164712061Y-103780173D01*
X164676415Y-103758823D01*
X164340522Y-103562806D01*
X164020034Y-103390708D01*
X163701144Y-103235808D01*
X163370048Y-103091383D01*
X163028571Y-102956608D01*
X162657013Y-102824489D01*
X162276166Y-102705818D01*
X161881941Y-102599806D01*
X161470250Y-102505663D01*
X161037003Y-102422602D01*
X160578113Y-102349833D01*
X160089491Y-102286567D01*
X159567048Y-102232016D01*
X159046333Y-102188345D01*
X158920525Y-102180999D01*
X158759036Y-102174864D01*
X158568319Y-102169939D01*
X158354827Y-102166226D01*
X158125013Y-102163725D01*
X157885330Y-102162437D01*
X157642231Y-102162362D01*
X157402169Y-102163501D01*
X157171596Y-102165855D01*
X156956966Y-102169423D01*
X156764732Y-102174207D01*
X156601346Y-102180208D01*
X156473262Y-102187425D01*
X156464000Y-102188110D01*
X156008427Y-102225147D01*
X155566788Y-102266402D01*
X155127093Y-102313197D01*
X154677352Y-102366855D01*
X154205577Y-102428696D01*
X153913416Y-102469362D01*
X153819406Y-102482778D01*
X153722644Y-102496764D01*
X153620624Y-102511709D01*
X153510843Y-102527999D01*
X153390795Y-102546023D01*
X153257974Y-102566168D01*
X153109877Y-102588820D01*
X152943997Y-102614369D01*
X152757831Y-102643202D01*
X152548872Y-102675705D01*
X152314617Y-102712267D01*
X152052560Y-102753275D01*
X151760195Y-102799117D01*
X151435019Y-102850180D01*
X151074526Y-102906853D01*
X150676211Y-102969521D01*
X150420916Y-103009707D01*
X149860126Y-103100808D01*
X149267547Y-103202349D01*
X148651954Y-103312649D01*
X148022120Y-103430032D01*
X147386819Y-103552820D01*
X146754825Y-103679334D01*
X146134912Y-103807897D01*
X145535853Y-103936830D01*
X145298583Y-103989348D01*
X144840372Y-104093320D01*
X144370446Y-104203149D01*
X143892386Y-104317867D01*
X143409773Y-104436507D01*
X142926186Y-104558099D01*
X142445206Y-104681675D01*
X141970414Y-104806267D01*
X141505390Y-104930905D01*
X141053715Y-105054622D01*
X140618970Y-105176450D01*
X140204733Y-105295418D01*
X139814588Y-105410560D01*
X139452112Y-105520907D01*
X139120888Y-105625489D01*
X138824496Y-105723339D01*
X138601938Y-105800740D01*
X137763289Y-106121025D01*
X136944919Y-106474621D01*
X136142234Y-106863755D01*
X135350642Y-107290661D01*
X134565549Y-107757566D01*
X134542602Y-107771869D01*
X134387041Y-107868287D01*
X134261333Y-107944126D01*
X134159895Y-108001964D01*
X134077143Y-108044380D01*
X134007493Y-108073954D01*
X133945361Y-108093263D01*
X133885165Y-108104887D01*
X133821318Y-108111404D01*
X133805083Y-108112480D01*
X133715354Y-108115036D01*
X133648424Y-108107419D01*
X133585353Y-108086532D01*
X133550910Y-108070892D01*
X133457090Y-108015673D01*
X133344841Y-107933090D01*
X133221095Y-107829676D01*
X133092786Y-107711962D01*
X132966847Y-107586481D01*
X132850211Y-107459763D01*
X132749811Y-107338341D01*
X132697752Y-107267118D01*
X132560178Y-107040201D01*
X132440331Y-106790552D01*
X132346026Y-106535441D01*
X132311579Y-106413952D01*
X132273599Y-106244744D01*
X132254774Y-106108797D01*
X132255759Y-106001295D01*
X132277211Y-105917423D01*
X132319783Y-105852364D01*
X132384131Y-105801303D01*
X132395856Y-105794466D01*
X132492008Y-105755302D01*
X132588511Y-105748307D01*
X132690024Y-105774787D01*
X132801206Y-105836045D01*
X132926713Y-105933387D01*
X132943219Y-105947784D01*
X133207781Y-106155089D01*
X133485559Y-106322309D01*
X133776307Y-106449329D01*
X134079777Y-106536037D01*
X134295629Y-106572200D01*
X134509030Y-106584757D01*
X134747646Y-106575243D01*
X135001356Y-106544896D01*
X135260035Y-106494951D01*
X135513561Y-106426646D01*
X135530166Y-106421427D01*
X135634983Y-106384573D01*
X135774174Y-106329957D01*
X135944441Y-106259129D01*
X136142485Y-106173639D01*
X136365009Y-106075036D01*
X136608714Y-105964870D01*
X136870303Y-105844692D01*
X137146478Y-105716050D01*
X137433940Y-105580495D01*
X137729391Y-105439576D01*
X138029534Y-105294844D01*
X138331070Y-105147848D01*
X138630702Y-105000138D01*
X138925130Y-104853263D01*
X139211058Y-104708775D01*
X139485187Y-104568221D01*
X139594488Y-104511527D01*
X139807769Y-104400045D01*
X140021217Y-104287517D01*
X140237718Y-104172355D01*
X140460156Y-104052970D01*
X140691415Y-103927771D01*
X140934381Y-103795171D01*
X141191938Y-103653579D01*
X141466971Y-103501405D01*
X141762364Y-103337062D01*
X142081002Y-103158958D01*
X142425771Y-102965506D01*
X142799554Y-102755115D01*
X143205236Y-102526197D01*
X143488833Y-102365902D01*
X143944134Y-102108849D01*
X144365369Y-101872056D01*
X144754963Y-101654331D01*
X145115342Y-101454477D01*
X145448933Y-101271300D01*
X145758163Y-101103606D01*
X146045457Y-100950200D01*
X146313242Y-100809887D01*
X146563944Y-100681473D01*
X146799989Y-100563762D01*
X147023804Y-100455561D01*
X147237815Y-100355675D01*
X147444448Y-100262909D01*
X147646129Y-100176068D01*
X147845286Y-100093958D01*
X148044343Y-100015384D01*
X148245728Y-99939151D01*
X148451867Y-99864065D01*
X148665186Y-99788931D01*
X148854583Y-99723927D01*
X149680401Y-99465273D01*
X150522497Y-99244520D01*
X151376675Y-99062516D01*
X152238742Y-98920108D01*
X153104502Y-98818145D01*
X153500666Y-98785213D01*
X153616948Y-98776499D01*
X153724085Y-98767887D01*
X153812079Y-98760223D01*
X153870929Y-98754350D01*
X153881666Y-98753028D01*
X153933723Y-98747657D01*
X154022034Y-98740441D01*
X154140575Y-98731759D01*
X154283327Y-98721992D01*
X154444268Y-98711520D01*
X154617375Y-98700723D01*
X154796627Y-98689981D01*
X154976003Y-98679674D01*
X155149481Y-98670183D01*
X155311040Y-98661886D01*
X155373916Y-98658848D01*
X155636408Y-98647469D01*
X155922774Y-98636887D01*
X156225887Y-98627249D01*
X156538624Y-98618702D01*
X156853858Y-98611391D01*
X157164464Y-98605464D01*
X157463316Y-98601067D01*
X157743288Y-98598346D01*
X157997256Y-98597449D01*
X158218094Y-98598521D01*
G37*
X158218094Y-98598521D02*
X158273750Y-98599205D01*
X158466889Y-98602279D01*
X158623933Y-98605680D01*
X158751117Y-98609804D01*
X158854680Y-98615046D01*
X158940858Y-98621803D01*
X159015888Y-98630470D01*
X159086007Y-98641442D01*
X159157453Y-98655116D01*
X159158505Y-98655331D01*
X159518813Y-98746178D01*
X159850907Y-98866441D01*
X160159049Y-99018381D01*
X160447501Y-99204258D01*
X160720524Y-99426333D01*
X160857392Y-99556446D01*
X161061433Y-99771764D01*
X161237768Y-99984636D01*
X161397555Y-100209403D01*
X161525252Y-100414666D01*
X161592199Y-100528252D01*
X161666445Y-100654341D01*
X161737017Y-100774293D01*
X161774462Y-100838000D01*
X161934434Y-101088710D01*
X162106412Y-101318409D01*
X162285658Y-101521643D01*
X162467433Y-101692962D01*
X162616640Y-101806882D01*
X162797720Y-101917525D01*
X162979828Y-102006090D01*
X163157486Y-102071120D01*
X163325212Y-102111161D01*
X163477527Y-102124756D01*
X163608951Y-102110450D01*
X163675137Y-102088031D01*
X163754393Y-102037309D01*
X163804825Y-101968245D01*
X163826862Y-101877720D01*
X163820932Y-101762615D01*
X163787464Y-101619811D01*
X163753507Y-101517206D01*
X163716283Y-101407376D01*
X163695002Y-101327296D01*
X163687776Y-101268322D01*
X163690826Y-101230612D01*
X163705190Y-101178078D01*
X163722145Y-101146518D01*
X163724260Y-101144858D01*
X163758580Y-101146121D01*
X163820060Y-101171077D01*
X163903303Y-101216362D01*
X164002914Y-101278612D01*
X164113494Y-101354464D01*
X164229648Y-101440551D01*
X164340706Y-101529137D01*
X164478889Y-101650044D01*
X164606712Y-101776705D01*
X164729758Y-101915812D01*
X164853607Y-102074058D01*
X164983841Y-102258133D01*
X165114865Y-102457250D01*
X165207955Y-102604085D01*
X165305279Y-102760356D01*
X165404203Y-102921587D01*
X165502091Y-103083303D01*
X165596312Y-103241027D01*
X165684230Y-103390283D01*
X165763212Y-103526597D01*
X165830623Y-103645491D01*
X165883831Y-103742490D01*
X165920201Y-103813119D01*
X165937099Y-103852901D01*
X165937720Y-103855534D01*
X165942999Y-103943576D01*
X165919511Y-104021679D01*
X165862933Y-104102181D01*
X165843907Y-104123277D01*
X165788790Y-104176171D01*
X165738499Y-104204265D01*
X165673649Y-104217487D01*
X165656400Y-104219300D01*
X165611956Y-104222040D01*
X165571087Y-104219057D01*
X165525798Y-104207639D01*
X165468093Y-104185075D01*
X165389979Y-104148652D01*
X165283461Y-104095659D01*
X165266201Y-104086953D01*
X165142226Y-104022270D01*
X164998093Y-103943765D01*
X164849480Y-103860159D01*
X164712061Y-103780173D01*
X164676415Y-103758823D01*
X164340522Y-103562806D01*
X164020034Y-103390708D01*
X163701144Y-103235808D01*
X163370048Y-103091383D01*
X163028571Y-102956608D01*
X162657013Y-102824489D01*
X162276166Y-102705818D01*
X161881941Y-102599806D01*
X161470250Y-102505663D01*
X161037003Y-102422602D01*
X160578113Y-102349833D01*
X160089491Y-102286567D01*
X159567048Y-102232016D01*
X159046333Y-102188345D01*
X158920525Y-102180999D01*
X158759036Y-102174864D01*
X158568319Y-102169939D01*
X158354827Y-102166226D01*
X158125013Y-102163725D01*
X157885330Y-102162437D01*
X157642231Y-102162362D01*
X157402169Y-102163501D01*
X157171596Y-102165855D01*
X156956966Y-102169423D01*
X156764732Y-102174207D01*
X156601346Y-102180208D01*
X156473262Y-102187425D01*
X156464000Y-102188110D01*
X156008427Y-102225147D01*
X155566788Y-102266402D01*
X155127093Y-102313197D01*
X154677352Y-102366855D01*
X154205577Y-102428696D01*
X153913416Y-102469362D01*
X153819406Y-102482778D01*
X153722644Y-102496764D01*
X153620624Y-102511709D01*
X153510843Y-102527999D01*
X153390795Y-102546023D01*
X153257974Y-102566168D01*
X153109877Y-102588820D01*
X152943997Y-102614369D01*
X152757831Y-102643202D01*
X152548872Y-102675705D01*
X152314617Y-102712267D01*
X152052560Y-102753275D01*
X151760195Y-102799117D01*
X151435019Y-102850180D01*
X151074526Y-102906853D01*
X150676211Y-102969521D01*
X150420916Y-103009707D01*
X149860126Y-103100808D01*
X149267547Y-103202349D01*
X148651954Y-103312649D01*
X148022120Y-103430032D01*
X147386819Y-103552820D01*
X146754825Y-103679334D01*
X146134912Y-103807897D01*
X145535853Y-103936830D01*
X145298583Y-103989348D01*
X144840372Y-104093320D01*
X144370446Y-104203149D01*
X143892386Y-104317867D01*
X143409773Y-104436507D01*
X142926186Y-104558099D01*
X142445206Y-104681675D01*
X141970414Y-104806267D01*
X141505390Y-104930905D01*
X141053715Y-105054622D01*
X140618970Y-105176450D01*
X140204733Y-105295418D01*
X139814588Y-105410560D01*
X139452112Y-105520907D01*
X139120888Y-105625489D01*
X138824496Y-105723339D01*
X138601938Y-105800740D01*
X137763289Y-106121025D01*
X136944919Y-106474621D01*
X136142234Y-106863755D01*
X135350642Y-107290661D01*
X134565549Y-107757566D01*
X134542602Y-107771869D01*
X134387041Y-107868287D01*
X134261333Y-107944126D01*
X134159895Y-108001964D01*
X134077143Y-108044380D01*
X134007493Y-108073954D01*
X133945361Y-108093263D01*
X133885165Y-108104887D01*
X133821318Y-108111404D01*
X133805083Y-108112480D01*
X133715354Y-108115036D01*
X133648424Y-108107419D01*
X133585353Y-108086532D01*
X133550910Y-108070892D01*
X133457090Y-108015673D01*
X133344841Y-107933090D01*
X133221095Y-107829676D01*
X133092786Y-107711962D01*
X132966847Y-107586481D01*
X132850211Y-107459763D01*
X132749811Y-107338341D01*
X132697752Y-107267118D01*
X132560178Y-107040201D01*
X132440331Y-106790552D01*
X132346026Y-106535441D01*
X132311579Y-106413952D01*
X132273599Y-106244744D01*
X132254774Y-106108797D01*
X132255759Y-106001295D01*
X132277211Y-105917423D01*
X132319783Y-105852364D01*
X132384131Y-105801303D01*
X132395856Y-105794466D01*
X132492008Y-105755302D01*
X132588511Y-105748307D01*
X132690024Y-105774787D01*
X132801206Y-105836045D01*
X132926713Y-105933387D01*
X132943219Y-105947784D01*
X133207781Y-106155089D01*
X133485559Y-106322309D01*
X133776307Y-106449329D01*
X134079777Y-106536037D01*
X134295629Y-106572200D01*
X134509030Y-106584757D01*
X134747646Y-106575243D01*
X135001356Y-106544896D01*
X135260035Y-106494951D01*
X135513561Y-106426646D01*
X135530166Y-106421427D01*
X135634983Y-106384573D01*
X135774174Y-106329957D01*
X135944441Y-106259129D01*
X136142485Y-106173639D01*
X136365009Y-106075036D01*
X136608714Y-105964870D01*
X136870303Y-105844692D01*
X137146478Y-105716050D01*
X137433940Y-105580495D01*
X137729391Y-105439576D01*
X138029534Y-105294844D01*
X138331070Y-105147848D01*
X138630702Y-105000138D01*
X138925130Y-104853263D01*
X139211058Y-104708775D01*
X139485187Y-104568221D01*
X139594488Y-104511527D01*
X139807769Y-104400045D01*
X140021217Y-104287517D01*
X140237718Y-104172355D01*
X140460156Y-104052970D01*
X140691415Y-103927771D01*
X140934381Y-103795171D01*
X141191938Y-103653579D01*
X141466971Y-103501405D01*
X141762364Y-103337062D01*
X142081002Y-103158958D01*
X142425771Y-102965506D01*
X142799554Y-102755115D01*
X143205236Y-102526197D01*
X143488833Y-102365902D01*
X143944134Y-102108849D01*
X144365369Y-101872056D01*
X144754963Y-101654331D01*
X145115342Y-101454477D01*
X145448933Y-101271300D01*
X145758163Y-101103606D01*
X146045457Y-100950200D01*
X146313242Y-100809887D01*
X146563944Y-100681473D01*
X146799989Y-100563762D01*
X147023804Y-100455561D01*
X147237815Y-100355675D01*
X147444448Y-100262909D01*
X147646129Y-100176068D01*
X147845286Y-100093958D01*
X148044343Y-100015384D01*
X148245728Y-99939151D01*
X148451867Y-99864065D01*
X148665186Y-99788931D01*
X148854583Y-99723927D01*
X149680401Y-99465273D01*
X150522497Y-99244520D01*
X151376675Y-99062516D01*
X152238742Y-98920108D01*
X153104502Y-98818145D01*
X153500666Y-98785213D01*
X153616948Y-98776499D01*
X153724085Y-98767887D01*
X153812079Y-98760223D01*
X153870929Y-98754350D01*
X153881666Y-98753028D01*
X153933723Y-98747657D01*
X154022034Y-98740441D01*
X154140575Y-98731759D01*
X154283327Y-98721992D01*
X154444268Y-98711520D01*
X154617375Y-98700723D01*
X154796627Y-98689981D01*
X154976003Y-98679674D01*
X155149481Y-98670183D01*
X155311040Y-98661886D01*
X155373916Y-98658848D01*
X155636408Y-98647469D01*
X155922774Y-98636887D01*
X156225887Y-98627249D01*
X156538624Y-98618702D01*
X156853858Y-98611391D01*
X157164464Y-98605464D01*
X157463316Y-98601067D01*
X157743288Y-98598346D01*
X157997256Y-98597449D01*
X158218094Y-98598521D01*
G36*
X147904052Y-63305344D02*
G01*
X148004028Y-63373987D01*
X148095554Y-63482959D01*
X148164777Y-63602091D01*
X148182245Y-63638942D01*
X148215342Y-63710986D01*
X148262507Y-63814730D01*
X148322180Y-63946680D01*
X148392799Y-64103342D01*
X148472802Y-64281225D01*
X148560628Y-64476834D01*
X148654716Y-64686676D01*
X148753505Y-64907259D01*
X148855433Y-65135089D01*
X148958939Y-65366673D01*
X149062462Y-65598517D01*
X149164441Y-65827129D01*
X149263313Y-66049016D01*
X149357519Y-66260683D01*
X149445497Y-66458639D01*
X149525684Y-66639390D01*
X149596521Y-66799442D01*
X149656446Y-66935303D01*
X149703897Y-67043479D01*
X149736893Y-67119500D01*
X149951773Y-67566205D01*
X150203092Y-67991726D01*
X150489639Y-68394223D01*
X150810205Y-68771856D01*
X150856578Y-68821419D01*
X150958333Y-68922771D01*
X151045959Y-68993636D01*
X151128668Y-69038845D01*
X151215673Y-69063230D01*
X151316186Y-69071620D01*
X151334077Y-69071800D01*
X151466311Y-69056015D01*
X151575282Y-69009372D01*
X151656489Y-68934009D01*
X151671656Y-68911379D01*
X151678546Y-68898641D01*
X151684635Y-68882836D01*
X151689993Y-68861329D01*
X151694688Y-68831487D01*
X151698789Y-68790675D01*
X151702363Y-68736260D01*
X151705480Y-68665607D01*
X151708209Y-68576084D01*
X151710617Y-68465055D01*
X151712773Y-68329888D01*
X151714746Y-68167947D01*
X151716604Y-67976600D01*
X151718415Y-67753212D01*
X151720249Y-67495149D01*
X151722174Y-67199777D01*
X151724057Y-66897250D01*
X151726094Y-66561763D01*
X151727928Y-66265666D01*
X151729718Y-66006018D01*
X151731618Y-65779877D01*
X151733787Y-65584301D01*
X151736381Y-65416349D01*
X151739556Y-65273078D01*
X151743471Y-65151548D01*
X151748280Y-65048816D01*
X151754142Y-64961941D01*
X151761212Y-64887982D01*
X151769649Y-64823996D01*
X151779607Y-64767042D01*
X151791245Y-64714178D01*
X151804719Y-64662463D01*
X151820186Y-64608955D01*
X151837803Y-64550712D01*
X151851537Y-64505416D01*
X151884420Y-64406012D01*
X151924913Y-64298373D01*
X151969955Y-64189023D01*
X152016487Y-64084487D01*
X152061447Y-63991287D01*
X152101774Y-63915951D01*
X152134409Y-63865000D01*
X152156290Y-63844960D01*
X152160720Y-63846331D01*
X152171514Y-63874661D01*
X152186697Y-63939187D01*
X152205355Y-64034108D01*
X152226577Y-64153620D01*
X152249451Y-64291919D01*
X152273066Y-64443203D01*
X152296508Y-64601668D01*
X152318867Y-64761511D01*
X152339230Y-64916930D01*
X152356686Y-65062120D01*
X152367399Y-65161583D01*
X152381612Y-65310472D01*
X152396516Y-65480073D01*
X152410328Y-65649341D01*
X152421114Y-65795051D01*
X152468940Y-66213562D01*
X152553959Y-66612423D01*
X152676748Y-66993225D01*
X152837882Y-67357559D01*
X153037935Y-67707014D01*
X153194618Y-67934416D01*
X153240803Y-67994321D01*
X153309004Y-68079217D01*
X153393482Y-68182137D01*
X153488496Y-68296109D01*
X153588303Y-68414166D01*
X153630521Y-68463583D01*
X153801994Y-68664428D01*
X153977219Y-68871176D01*
X154154163Y-69081328D01*
X154330793Y-69292386D01*
X154505074Y-69501851D01*
X154674974Y-69707223D01*
X154838459Y-69906004D01*
X154993496Y-70095695D01*
X155138050Y-70273796D01*
X155270089Y-70437810D01*
X155387580Y-70585236D01*
X155488488Y-70713576D01*
X155570781Y-70820331D01*
X155632424Y-70903003D01*
X155671385Y-70959091D01*
X155685629Y-70986098D01*
X155684821Y-70988142D01*
X155657012Y-70982536D01*
X155602238Y-70961271D01*
X155530932Y-70928527D01*
X155509336Y-70917827D01*
X155363029Y-70846304D01*
X155209457Y-70775045D01*
X155054577Y-70706465D01*
X154904345Y-70642980D01*
X154764718Y-70587004D01*
X154641652Y-70540953D01*
X154541104Y-70507242D01*
X154469030Y-70488286D01*
X154441865Y-70485000D01*
X154392691Y-70502948D01*
X154362624Y-70554112D01*
X154350637Y-70634466D01*
X154355702Y-70739987D01*
X154376793Y-70866648D01*
X154412884Y-71010426D01*
X154462948Y-71167297D01*
X154525958Y-71333236D01*
X154600887Y-71504218D01*
X154686709Y-71676219D01*
X154782397Y-71845214D01*
X154793562Y-71863581D01*
X154930869Y-72099176D01*
X155040688Y-72312291D01*
X155121906Y-72500607D01*
X155168840Y-72644000D01*
X155200563Y-72768455D01*
X155219618Y-72856368D01*
X155226583Y-72911404D01*
X155222036Y-72937229D01*
X155215543Y-72940333D01*
X155191933Y-72928251D01*
X155141974Y-72895308D01*
X155072871Y-72846462D01*
X154991824Y-72786668D01*
X154987472Y-72783392D01*
X154767839Y-72601325D01*
X154561046Y-72394470D01*
X154361625Y-72156883D01*
X154177842Y-71902921D01*
X153997798Y-71644053D01*
X153817284Y-71396220D01*
X153639828Y-71163819D01*
X153468956Y-70951248D01*
X153308197Y-70762904D01*
X153161077Y-70603183D01*
X153040414Y-70484943D01*
X152893714Y-70366017D01*
X152756233Y-70287777D01*
X152625835Y-70250125D01*
X152500383Y-70252964D01*
X152377740Y-70296199D01*
X152255769Y-70379733D01*
X152184828Y-70446264D01*
X152082017Y-70566061D01*
X151972201Y-70719613D01*
X151859480Y-70899824D01*
X151747953Y-71099596D01*
X151641719Y-71311834D01*
X151544878Y-71529441D01*
X151511348Y-71612179D01*
X151451635Y-71749461D01*
X151395035Y-71847968D01*
X151339033Y-71910881D01*
X151281117Y-71941384D01*
X151248073Y-71945500D01*
X151200677Y-71933892D01*
X151159262Y-71895636D01*
X151119963Y-71825585D01*
X151079917Y-71721533D01*
X150906532Y-71266007D01*
X150709189Y-70845264D01*
X150487724Y-70459074D01*
X150241975Y-70107206D01*
X149971775Y-69789430D01*
X149676962Y-69505514D01*
X149357371Y-69255229D01*
X149294163Y-69211680D01*
X149209582Y-69151214D01*
X149153024Y-69100721D01*
X149114993Y-69050561D01*
X149092911Y-69007343D01*
X149075258Y-68964746D01*
X149064278Y-68926157D01*
X149059566Y-68882111D01*
X149060715Y-68823142D01*
X149067318Y-68739784D01*
X149077157Y-68640319D01*
X149095796Y-68289758D01*
X149077662Y-67951687D01*
X149021769Y-67616804D01*
X148934825Y-67299416D01*
X148899712Y-67194151D01*
X148862498Y-67090827D01*
X148821019Y-66984624D01*
X148773109Y-66870717D01*
X148716605Y-66744285D01*
X148649342Y-66600505D01*
X148569154Y-66434554D01*
X148473878Y-66241611D01*
X148361349Y-66016852D01*
X148341037Y-65976500D01*
X148253334Y-65800738D01*
X148163980Y-65618686D01*
X148076810Y-65438371D01*
X147995662Y-65267822D01*
X147924373Y-65115068D01*
X147866778Y-64988135D01*
X147845380Y-64939333D01*
X147762095Y-64743594D01*
X147681661Y-64549429D01*
X147605849Y-64361502D01*
X147536429Y-64184478D01*
X147475174Y-64023022D01*
X147423852Y-63881799D01*
X147384235Y-63765474D01*
X147358093Y-63678711D01*
X147347267Y-63627000D01*
X147356768Y-63520291D01*
X147404518Y-63429636D01*
X147488967Y-63356656D01*
X147608564Y-63302974D01*
X147673347Y-63285566D01*
X147794275Y-63276160D01*
X147904052Y-63305344D01*
G37*
X147904052Y-63305344D02*
X148004028Y-63373987D01*
X148095554Y-63482959D01*
X148164777Y-63602091D01*
X148182245Y-63638942D01*
X148215342Y-63710986D01*
X148262507Y-63814730D01*
X148322180Y-63946680D01*
X148392799Y-64103342D01*
X148472802Y-64281225D01*
X148560628Y-64476834D01*
X148654716Y-64686676D01*
X148753505Y-64907259D01*
X148855433Y-65135089D01*
X148958939Y-65366673D01*
X149062462Y-65598517D01*
X149164441Y-65827129D01*
X149263313Y-66049016D01*
X149357519Y-66260683D01*
X149445497Y-66458639D01*
X149525684Y-66639390D01*
X149596521Y-66799442D01*
X149656446Y-66935303D01*
X149703897Y-67043479D01*
X149736893Y-67119500D01*
X149951773Y-67566205D01*
X150203092Y-67991726D01*
X150489639Y-68394223D01*
X150810205Y-68771856D01*
X150856578Y-68821419D01*
X150958333Y-68922771D01*
X151045959Y-68993636D01*
X151128668Y-69038845D01*
X151215673Y-69063230D01*
X151316186Y-69071620D01*
X151334077Y-69071800D01*
X151466311Y-69056015D01*
X151575282Y-69009372D01*
X151656489Y-68934009D01*
X151671656Y-68911379D01*
X151678546Y-68898641D01*
X151684635Y-68882836D01*
X151689993Y-68861329D01*
X151694688Y-68831487D01*
X151698789Y-68790675D01*
X151702363Y-68736260D01*
X151705480Y-68665607D01*
X151708209Y-68576084D01*
X151710617Y-68465055D01*
X151712773Y-68329888D01*
X151714746Y-68167947D01*
X151716604Y-67976600D01*
X151718415Y-67753212D01*
X151720249Y-67495149D01*
X151722174Y-67199777D01*
X151724057Y-66897250D01*
X151726094Y-66561763D01*
X151727928Y-66265666D01*
X151729718Y-66006018D01*
X151731618Y-65779877D01*
X151733787Y-65584301D01*
X151736381Y-65416349D01*
X151739556Y-65273078D01*
X151743471Y-65151548D01*
X151748280Y-65048816D01*
X151754142Y-64961941D01*
X151761212Y-64887982D01*
X151769649Y-64823996D01*
X151779607Y-64767042D01*
X151791245Y-64714178D01*
X151804719Y-64662463D01*
X151820186Y-64608955D01*
X151837803Y-64550712D01*
X151851537Y-64505416D01*
X151884420Y-64406012D01*
X151924913Y-64298373D01*
X151969955Y-64189023D01*
X152016487Y-64084487D01*
X152061447Y-63991287D01*
X152101774Y-63915951D01*
X152134409Y-63865000D01*
X152156290Y-63844960D01*
X152160720Y-63846331D01*
X152171514Y-63874661D01*
X152186697Y-63939187D01*
X152205355Y-64034108D01*
X152226577Y-64153620D01*
X152249451Y-64291919D01*
X152273066Y-64443203D01*
X152296508Y-64601668D01*
X152318867Y-64761511D01*
X152339230Y-64916930D01*
X152356686Y-65062120D01*
X152367399Y-65161583D01*
X152381612Y-65310472D01*
X152396516Y-65480073D01*
X152410328Y-65649341D01*
X152421114Y-65795051D01*
X152468940Y-66213562D01*
X152553959Y-66612423D01*
X152676748Y-66993225D01*
X152837882Y-67357559D01*
X153037935Y-67707014D01*
X153194618Y-67934416D01*
X153240803Y-67994321D01*
X153309004Y-68079217D01*
X153393482Y-68182137D01*
X153488496Y-68296109D01*
X153588303Y-68414166D01*
X153630521Y-68463583D01*
X153801994Y-68664428D01*
X153977219Y-68871176D01*
X154154163Y-69081328D01*
X154330793Y-69292386D01*
X154505074Y-69501851D01*
X154674974Y-69707223D01*
X154838459Y-69906004D01*
X154993496Y-70095695D01*
X155138050Y-70273796D01*
X155270089Y-70437810D01*
X155387580Y-70585236D01*
X155488488Y-70713576D01*
X155570781Y-70820331D01*
X155632424Y-70903003D01*
X155671385Y-70959091D01*
X155685629Y-70986098D01*
X155684821Y-70988142D01*
X155657012Y-70982536D01*
X155602238Y-70961271D01*
X155530932Y-70928527D01*
X155509336Y-70917827D01*
X155363029Y-70846304D01*
X155209457Y-70775045D01*
X155054577Y-70706465D01*
X154904345Y-70642980D01*
X154764718Y-70587004D01*
X154641652Y-70540953D01*
X154541104Y-70507242D01*
X154469030Y-70488286D01*
X154441865Y-70485000D01*
X154392691Y-70502948D01*
X154362624Y-70554112D01*
X154350637Y-70634466D01*
X154355702Y-70739987D01*
X154376793Y-70866648D01*
X154412884Y-71010426D01*
X154462948Y-71167297D01*
X154525958Y-71333236D01*
X154600887Y-71504218D01*
X154686709Y-71676219D01*
X154782397Y-71845214D01*
X154793562Y-71863581D01*
X154930869Y-72099176D01*
X155040688Y-72312291D01*
X155121906Y-72500607D01*
X155168840Y-72644000D01*
X155200563Y-72768455D01*
X155219618Y-72856368D01*
X155226583Y-72911404D01*
X155222036Y-72937229D01*
X155215543Y-72940333D01*
X155191933Y-72928251D01*
X155141974Y-72895308D01*
X155072871Y-72846462D01*
X154991824Y-72786668D01*
X154987472Y-72783392D01*
X154767839Y-72601325D01*
X154561046Y-72394470D01*
X154361625Y-72156883D01*
X154177842Y-71902921D01*
X153997798Y-71644053D01*
X153817284Y-71396220D01*
X153639828Y-71163819D01*
X153468956Y-70951248D01*
X153308197Y-70762904D01*
X153161077Y-70603183D01*
X153040414Y-70484943D01*
X152893714Y-70366017D01*
X152756233Y-70287777D01*
X152625835Y-70250125D01*
X152500383Y-70252964D01*
X152377740Y-70296199D01*
X152255769Y-70379733D01*
X152184828Y-70446264D01*
X152082017Y-70566061D01*
X151972201Y-70719613D01*
X151859480Y-70899824D01*
X151747953Y-71099596D01*
X151641719Y-71311834D01*
X151544878Y-71529441D01*
X151511348Y-71612179D01*
X151451635Y-71749461D01*
X151395035Y-71847968D01*
X151339033Y-71910881D01*
X151281117Y-71941384D01*
X151248073Y-71945500D01*
X151200677Y-71933892D01*
X151159262Y-71895636D01*
X151119963Y-71825585D01*
X151079917Y-71721533D01*
X150906532Y-71266007D01*
X150709189Y-70845264D01*
X150487724Y-70459074D01*
X150241975Y-70107206D01*
X149971775Y-69789430D01*
X149676962Y-69505514D01*
X149357371Y-69255229D01*
X149294163Y-69211680D01*
X149209582Y-69151214D01*
X149153024Y-69100721D01*
X149114993Y-69050561D01*
X149092911Y-69007343D01*
X149075258Y-68964746D01*
X149064278Y-68926157D01*
X149059566Y-68882111D01*
X149060715Y-68823142D01*
X149067318Y-68739784D01*
X149077157Y-68640319D01*
X149095796Y-68289758D01*
X149077662Y-67951687D01*
X149021769Y-67616804D01*
X148934825Y-67299416D01*
X148899712Y-67194151D01*
X148862498Y-67090827D01*
X148821019Y-66984624D01*
X148773109Y-66870717D01*
X148716605Y-66744285D01*
X148649342Y-66600505D01*
X148569154Y-66434554D01*
X148473878Y-66241611D01*
X148361349Y-66016852D01*
X148341037Y-65976500D01*
X148253334Y-65800738D01*
X148163980Y-65618686D01*
X148076810Y-65438371D01*
X147995662Y-65267822D01*
X147924373Y-65115068D01*
X147866778Y-64988135D01*
X147845380Y-64939333D01*
X147762095Y-64743594D01*
X147681661Y-64549429D01*
X147605849Y-64361502D01*
X147536429Y-64184478D01*
X147475174Y-64023022D01*
X147423852Y-63881799D01*
X147384235Y-63765474D01*
X147358093Y-63678711D01*
X147347267Y-63627000D01*
X147356768Y-63520291D01*
X147404518Y-63429636D01*
X147488967Y-63356656D01*
X147608564Y-63302974D01*
X147673347Y-63285566D01*
X147794275Y-63276160D01*
X147904052Y-63305344D01*
G04 #@! TD*
M02*
