G04 #@! TF.GenerationSoftware,KiCad,Pcbnew,(5.1.10)-1*
G04 #@! TF.CreationDate,2021-07-03T22:49:25-04:00*
G04 #@! TF.ProjectId,Sorting Hat,536f7274-696e-4672-9048-61742e6b6963,rev?*
G04 #@! TF.SameCoordinates,Original*
G04 #@! TF.FileFunction,Soldermask,Bot*
G04 #@! TF.FilePolarity,Negative*
%FSLAX46Y46*%
G04 Gerber Fmt 4.6, Leading zero omitted, Abs format (unit mm)*
G04 Created by KiCad (PCBNEW (5.1.10)-1) date 2021-07-03 22:49:25*
%MOMM*%
%LPD*%
G01*
G04 APERTURE LIST*
%ADD10C,0.010000*%
%ADD11C,18.180000*%
%ADD12C,3.100000*%
G04 APERTURE END LIST*
D10*
G04 #@! TO.C,G\u002A\u002A\u002A*
G36*
X141184733Y-80180783D02*
G01*
X141641295Y-80234792D01*
X142092764Y-80330281D01*
X142537510Y-80467103D01*
X142973902Y-80645111D01*
X143134275Y-80722060D01*
X143394215Y-80863716D01*
X143673278Y-81037650D01*
X143967382Y-81240735D01*
X144272443Y-81469845D01*
X144584376Y-81721853D01*
X144899100Y-81993632D01*
X145212529Y-82282055D01*
X145369575Y-82433583D01*
X145503545Y-82565695D01*
X145624195Y-82686669D01*
X145735452Y-82800959D01*
X145841243Y-82913021D01*
X145945494Y-83027308D01*
X146052132Y-83148276D01*
X146165085Y-83280379D01*
X146288277Y-83428072D01*
X146425638Y-83595810D01*
X146581092Y-83788048D01*
X146758567Y-84009241D01*
X146759575Y-84010500D01*
X147100646Y-84435437D01*
X147419009Y-84829415D01*
X147717191Y-85195466D01*
X147997717Y-85536621D01*
X148263110Y-85855915D01*
X148515897Y-86156378D01*
X148758603Y-86441044D01*
X148993753Y-86712943D01*
X149223872Y-86975110D01*
X149297798Y-87058500D01*
X149557087Y-87348789D01*
X149791891Y-87608221D01*
X150004437Y-87838778D01*
X150196952Y-88042445D01*
X150371661Y-88221207D01*
X150530790Y-88377047D01*
X150676566Y-88511951D01*
X150811215Y-88627903D01*
X150936964Y-88726887D01*
X151056038Y-88810888D01*
X151170663Y-88881889D01*
X151283066Y-88941876D01*
X151395473Y-88992833D01*
X151510110Y-89036744D01*
X151521583Y-89040754D01*
X151592915Y-89064300D01*
X151654792Y-89080578D01*
X151717916Y-89090905D01*
X151792991Y-89096598D01*
X151890720Y-89098976D01*
X151997833Y-89099375D01*
X152125150Y-89098531D01*
X152221670Y-89095199D01*
X152298911Y-89088017D01*
X152368394Y-89075626D01*
X152441639Y-89056664D01*
X152495250Y-89040624D01*
X152578555Y-89013510D01*
X152662261Y-88982844D01*
X152748931Y-88947105D01*
X152841128Y-88904773D01*
X152941417Y-88854327D01*
X153052362Y-88794247D01*
X153176526Y-88723013D01*
X153316474Y-88639103D01*
X153474768Y-88540998D01*
X153653974Y-88427177D01*
X153856656Y-88296119D01*
X154085376Y-88146305D01*
X154342699Y-87976214D01*
X154631189Y-87784324D01*
X154770666Y-87691255D01*
X155162943Y-87429560D01*
X155521944Y-87190683D01*
X155849365Y-86973583D01*
X156146901Y-86777224D01*
X156416248Y-86600567D01*
X156659102Y-86442572D01*
X156877159Y-86302203D01*
X157072114Y-86178419D01*
X157245663Y-86070184D01*
X157399502Y-85976458D01*
X157535327Y-85896203D01*
X157654833Y-85828380D01*
X157759716Y-85771952D01*
X157851671Y-85725879D01*
X157932396Y-85689123D01*
X158003584Y-85660646D01*
X158066933Y-85639409D01*
X158124137Y-85624374D01*
X158156436Y-85617859D01*
X158341976Y-85605315D01*
X158523320Y-85632011D01*
X158694598Y-85694883D01*
X158849942Y-85790871D01*
X158983483Y-85916913D01*
X159089351Y-86069947D01*
X159113105Y-86116935D01*
X159152815Y-86214529D01*
X159176242Y-86309765D01*
X159188620Y-86424277D01*
X159189034Y-86430743D01*
X159192181Y-86512628D01*
X159189369Y-86587207D01*
X159178685Y-86661800D01*
X159158217Y-86743726D01*
X159126050Y-86840305D01*
X159080273Y-86958857D01*
X159018972Y-87106702D01*
X159001781Y-87147256D01*
X158796324Y-87604011D01*
X158585022Y-88020656D01*
X158366546Y-88399171D01*
X158139563Y-88741539D01*
X157902744Y-89049741D01*
X157654757Y-89325757D01*
X157394273Y-89571571D01*
X157346166Y-89612586D01*
X157196091Y-89731170D01*
X157013852Y-89861772D01*
X156797261Y-90005894D01*
X156544127Y-90165040D01*
X156520698Y-90179405D01*
X156424680Y-90240661D01*
X156313166Y-90315784D01*
X156194122Y-90398997D01*
X156075509Y-90484522D01*
X155965292Y-90566582D01*
X155871434Y-90639399D01*
X155801899Y-90697197D01*
X155782683Y-90714813D01*
X155698331Y-90822556D01*
X155640754Y-90951919D01*
X155612411Y-91091647D01*
X155615762Y-91230485D01*
X155645892Y-91340648D01*
X155687649Y-91420608D01*
X155754958Y-91525365D01*
X155843622Y-91649595D01*
X155949443Y-91787979D01*
X156068222Y-91935195D01*
X156195762Y-92085923D01*
X156327865Y-92234841D01*
X156460332Y-92376629D01*
X156476244Y-92393108D01*
X156581873Y-92506512D01*
X156657208Y-92598918D01*
X156705229Y-92675499D01*
X156728915Y-92741430D01*
X156731245Y-92801885D01*
X156726400Y-92827577D01*
X156719014Y-92850340D01*
X156705051Y-92862060D01*
X156675305Y-92863557D01*
X156620567Y-92855650D01*
X156552376Y-92843063D01*
X156277286Y-92774768D01*
X155981767Y-92669659D01*
X155666106Y-92527840D01*
X155580603Y-92484882D01*
X155252270Y-92313310D01*
X154944876Y-92145624D01*
X154648660Y-91976033D01*
X154353861Y-91798747D01*
X154050715Y-91607975D01*
X153729461Y-91397925D01*
X153581743Y-91299172D01*
X153372826Y-91160555D01*
X153191420Y-91044853D01*
X153031552Y-90949081D01*
X152887245Y-90870255D01*
X152752526Y-90805390D01*
X152621419Y-90751501D01*
X152487951Y-90705604D01*
X152346146Y-90664714D01*
X152275085Y-90646417D01*
X151925704Y-90580829D01*
X151570885Y-90556201D01*
X151215118Y-90572341D01*
X150862890Y-90629057D01*
X150533392Y-90721110D01*
X150207729Y-90837807D01*
X149883756Y-90966036D01*
X149558437Y-91107500D01*
X149228737Y-91263900D01*
X148891622Y-91436939D01*
X148544055Y-91628317D01*
X148183003Y-91839736D01*
X147805429Y-92072898D01*
X147408298Y-92329505D01*
X146988577Y-92611258D01*
X146543228Y-92919860D01*
X146281712Y-93104893D01*
X146040393Y-93275072D01*
X145827513Y-93421071D01*
X145638598Y-93545336D01*
X145469173Y-93650313D01*
X145314766Y-93738447D01*
X145170901Y-93812184D01*
X145033105Y-93873969D01*
X144896904Y-93926248D01*
X144757824Y-93971466D01*
X144631833Y-94006747D01*
X144546708Y-94028480D01*
X144473787Y-94044799D01*
X144404360Y-94056594D01*
X144329715Y-94064752D01*
X144241144Y-94070163D01*
X144129935Y-94073715D01*
X143987377Y-94076296D01*
X143943916Y-94076920D01*
X143807172Y-94078113D01*
X143681552Y-94077866D01*
X143574407Y-94076300D01*
X143493088Y-94073535D01*
X143444947Y-94069694D01*
X143439067Y-94068606D01*
X143430592Y-94066426D01*
X143424273Y-94063493D01*
X143421670Y-94058693D01*
X143424340Y-94050914D01*
X143433843Y-94039043D01*
X143451737Y-94021968D01*
X143479581Y-93998576D01*
X143518934Y-93967754D01*
X143571355Y-93928389D01*
X143638403Y-93879369D01*
X143721636Y-93819581D01*
X143822614Y-93747913D01*
X143942894Y-93663251D01*
X144084037Y-93564483D01*
X144247600Y-93450497D01*
X144435143Y-93320179D01*
X144648225Y-93172417D01*
X144888403Y-93006098D01*
X145157238Y-92820110D01*
X145456287Y-92613340D01*
X145787110Y-92384675D01*
X146134666Y-92144474D01*
X146331027Y-92008565D01*
X146519079Y-91878015D01*
X146695583Y-91755099D01*
X146857295Y-91642093D01*
X147000974Y-91541273D01*
X147123380Y-91454915D01*
X147221269Y-91385294D01*
X147291401Y-91334685D01*
X147330533Y-91305365D01*
X147334258Y-91302338D01*
X147415037Y-91213935D01*
X147485773Y-91098480D01*
X147538558Y-90971200D01*
X147564106Y-90859727D01*
X147561829Y-90716338D01*
X147523440Y-90572724D01*
X147454300Y-90436929D01*
X147359772Y-90317001D01*
X147245217Y-90220984D01*
X147115996Y-90156923D01*
X147090550Y-90149117D01*
X147056213Y-90140054D01*
X146984754Y-90121544D01*
X146880076Y-90094587D01*
X146746080Y-90060183D01*
X146586671Y-90019333D01*
X146405749Y-89973036D01*
X146207217Y-89922292D01*
X145994978Y-89868103D01*
X145811208Y-89821226D01*
X145507509Y-89743284D01*
X145243354Y-89674388D01*
X145017036Y-89614062D01*
X144826852Y-89561832D01*
X144671094Y-89517222D01*
X144548058Y-89479758D01*
X144456038Y-89448963D01*
X144405256Y-89429502D01*
X144077428Y-89270188D01*
X143774652Y-89076765D01*
X143497341Y-88849549D01*
X143245904Y-88588852D01*
X143146836Y-88467812D01*
X143055466Y-88346305D01*
X142976165Y-88230066D01*
X142903883Y-88110113D01*
X142833568Y-87977466D01*
X142760167Y-87823145D01*
X142678631Y-87638170D01*
X142673763Y-87626818D01*
X142613578Y-87491094D01*
X142546815Y-87348421D01*
X142479782Y-87211797D01*
X142418790Y-87094220D01*
X142389876Y-87041982D01*
X142160131Y-86681991D01*
X141896071Y-86342698D01*
X141601340Y-86027242D01*
X141279579Y-85738765D01*
X140934429Y-85480405D01*
X140569531Y-85255304D01*
X140188528Y-85066601D01*
X140017500Y-84996212D01*
X139836826Y-84923578D01*
X139692507Y-84858593D01*
X139579907Y-84798339D01*
X139494387Y-84739893D01*
X139431313Y-84680336D01*
X139386045Y-84616747D01*
X139371911Y-84589583D01*
X139341407Y-84482637D01*
X139339566Y-84362900D01*
X139366525Y-84248860D01*
X139369350Y-84241912D01*
X139405553Y-84173928D01*
X139461442Y-84088967D01*
X139527278Y-84000080D01*
X139593326Y-83920319D01*
X139649849Y-83862734D01*
X139656237Y-83857357D01*
X139733485Y-83792582D01*
X139828387Y-83709952D01*
X139935288Y-83614698D01*
X140048534Y-83512050D01*
X140162470Y-83407236D01*
X140271444Y-83305488D01*
X140369800Y-83212034D01*
X140451885Y-83132104D01*
X140512045Y-83070929D01*
X140539407Y-83040461D01*
X140645236Y-82889619D01*
X140712300Y-82744205D01*
X140740220Y-82606108D01*
X140728616Y-82477219D01*
X140677109Y-82359425D01*
X140676418Y-82358352D01*
X140637680Y-82301840D01*
X140596036Y-82250034D01*
X140547844Y-82200624D01*
X140489463Y-82151298D01*
X140417250Y-82099745D01*
X140327565Y-82043654D01*
X140216765Y-81980714D01*
X140081210Y-81908613D01*
X139917257Y-81825040D01*
X139721265Y-81727684D01*
X139551833Y-81644611D01*
X139392995Y-81566488D01*
X139243732Y-81492075D01*
X139108975Y-81423906D01*
X138993655Y-81364516D01*
X138902702Y-81316438D01*
X138841048Y-81282205D01*
X138816269Y-81266596D01*
X138741426Y-81191698D01*
X138698779Y-81101088D01*
X138684094Y-80985388D01*
X138684000Y-80973454D01*
X138701046Y-80830720D01*
X138753599Y-80708505D01*
X138817364Y-80627234D01*
X138875913Y-80574582D01*
X138947452Y-80527921D01*
X139038841Y-80484040D01*
X139156941Y-80439726D01*
X139308614Y-80391766D01*
X139340166Y-80382453D01*
X139800795Y-80269087D01*
X140262853Y-80197784D01*
X140724709Y-80168398D01*
X141184733Y-80180783D01*
G37*
X141184733Y-80180783D02*
X141641295Y-80234792D01*
X142092764Y-80330281D01*
X142537510Y-80467103D01*
X142973902Y-80645111D01*
X143134275Y-80722060D01*
X143394215Y-80863716D01*
X143673278Y-81037650D01*
X143967382Y-81240735D01*
X144272443Y-81469845D01*
X144584376Y-81721853D01*
X144899100Y-81993632D01*
X145212529Y-82282055D01*
X145369575Y-82433583D01*
X145503545Y-82565695D01*
X145624195Y-82686669D01*
X145735452Y-82800959D01*
X145841243Y-82913021D01*
X145945494Y-83027308D01*
X146052132Y-83148276D01*
X146165085Y-83280379D01*
X146288277Y-83428072D01*
X146425638Y-83595810D01*
X146581092Y-83788048D01*
X146758567Y-84009241D01*
X146759575Y-84010500D01*
X147100646Y-84435437D01*
X147419009Y-84829415D01*
X147717191Y-85195466D01*
X147997717Y-85536621D01*
X148263110Y-85855915D01*
X148515897Y-86156378D01*
X148758603Y-86441044D01*
X148993753Y-86712943D01*
X149223872Y-86975110D01*
X149297798Y-87058500D01*
X149557087Y-87348789D01*
X149791891Y-87608221D01*
X150004437Y-87838778D01*
X150196952Y-88042445D01*
X150371661Y-88221207D01*
X150530790Y-88377047D01*
X150676566Y-88511951D01*
X150811215Y-88627903D01*
X150936964Y-88726887D01*
X151056038Y-88810888D01*
X151170663Y-88881889D01*
X151283066Y-88941876D01*
X151395473Y-88992833D01*
X151510110Y-89036744D01*
X151521583Y-89040754D01*
X151592915Y-89064300D01*
X151654792Y-89080578D01*
X151717916Y-89090905D01*
X151792991Y-89096598D01*
X151890720Y-89098976D01*
X151997833Y-89099375D01*
X152125150Y-89098531D01*
X152221670Y-89095199D01*
X152298911Y-89088017D01*
X152368394Y-89075626D01*
X152441639Y-89056664D01*
X152495250Y-89040624D01*
X152578555Y-89013510D01*
X152662261Y-88982844D01*
X152748931Y-88947105D01*
X152841128Y-88904773D01*
X152941417Y-88854327D01*
X153052362Y-88794247D01*
X153176526Y-88723013D01*
X153316474Y-88639103D01*
X153474768Y-88540998D01*
X153653974Y-88427177D01*
X153856656Y-88296119D01*
X154085376Y-88146305D01*
X154342699Y-87976214D01*
X154631189Y-87784324D01*
X154770666Y-87691255D01*
X155162943Y-87429560D01*
X155521944Y-87190683D01*
X155849365Y-86973583D01*
X156146901Y-86777224D01*
X156416248Y-86600567D01*
X156659102Y-86442572D01*
X156877159Y-86302203D01*
X157072114Y-86178419D01*
X157245663Y-86070184D01*
X157399502Y-85976458D01*
X157535327Y-85896203D01*
X157654833Y-85828380D01*
X157759716Y-85771952D01*
X157851671Y-85725879D01*
X157932396Y-85689123D01*
X158003584Y-85660646D01*
X158066933Y-85639409D01*
X158124137Y-85624374D01*
X158156436Y-85617859D01*
X158341976Y-85605315D01*
X158523320Y-85632011D01*
X158694598Y-85694883D01*
X158849942Y-85790871D01*
X158983483Y-85916913D01*
X159089351Y-86069947D01*
X159113105Y-86116935D01*
X159152815Y-86214529D01*
X159176242Y-86309765D01*
X159188620Y-86424277D01*
X159189034Y-86430743D01*
X159192181Y-86512628D01*
X159189369Y-86587207D01*
X159178685Y-86661800D01*
X159158217Y-86743726D01*
X159126050Y-86840305D01*
X159080273Y-86958857D01*
X159018972Y-87106702D01*
X159001781Y-87147256D01*
X158796324Y-87604011D01*
X158585022Y-88020656D01*
X158366546Y-88399171D01*
X158139563Y-88741539D01*
X157902744Y-89049741D01*
X157654757Y-89325757D01*
X157394273Y-89571571D01*
X157346166Y-89612586D01*
X157196091Y-89731170D01*
X157013852Y-89861772D01*
X156797261Y-90005894D01*
X156544127Y-90165040D01*
X156520698Y-90179405D01*
X156424680Y-90240661D01*
X156313166Y-90315784D01*
X156194122Y-90398997D01*
X156075509Y-90484522D01*
X155965292Y-90566582D01*
X155871434Y-90639399D01*
X155801899Y-90697197D01*
X155782683Y-90714813D01*
X155698331Y-90822556D01*
X155640754Y-90951919D01*
X155612411Y-91091647D01*
X155615762Y-91230485D01*
X155645892Y-91340648D01*
X155687649Y-91420608D01*
X155754958Y-91525365D01*
X155843622Y-91649595D01*
X155949443Y-91787979D01*
X156068222Y-91935195D01*
X156195762Y-92085923D01*
X156327865Y-92234841D01*
X156460332Y-92376629D01*
X156476244Y-92393108D01*
X156581873Y-92506512D01*
X156657208Y-92598918D01*
X156705229Y-92675499D01*
X156728915Y-92741430D01*
X156731245Y-92801885D01*
X156726400Y-92827577D01*
X156719014Y-92850340D01*
X156705051Y-92862060D01*
X156675305Y-92863557D01*
X156620567Y-92855650D01*
X156552376Y-92843063D01*
X156277286Y-92774768D01*
X155981767Y-92669659D01*
X155666106Y-92527840D01*
X155580603Y-92484882D01*
X155252270Y-92313310D01*
X154944876Y-92145624D01*
X154648660Y-91976033D01*
X154353861Y-91798747D01*
X154050715Y-91607975D01*
X153729461Y-91397925D01*
X153581743Y-91299172D01*
X153372826Y-91160555D01*
X153191420Y-91044853D01*
X153031552Y-90949081D01*
X152887245Y-90870255D01*
X152752526Y-90805390D01*
X152621419Y-90751501D01*
X152487951Y-90705604D01*
X152346146Y-90664714D01*
X152275085Y-90646417D01*
X151925704Y-90580829D01*
X151570885Y-90556201D01*
X151215118Y-90572341D01*
X150862890Y-90629057D01*
X150533392Y-90721110D01*
X150207729Y-90837807D01*
X149883756Y-90966036D01*
X149558437Y-91107500D01*
X149228737Y-91263900D01*
X148891622Y-91436939D01*
X148544055Y-91628317D01*
X148183003Y-91839736D01*
X147805429Y-92072898D01*
X147408298Y-92329505D01*
X146988577Y-92611258D01*
X146543228Y-92919860D01*
X146281712Y-93104893D01*
X146040393Y-93275072D01*
X145827513Y-93421071D01*
X145638598Y-93545336D01*
X145469173Y-93650313D01*
X145314766Y-93738447D01*
X145170901Y-93812184D01*
X145033105Y-93873969D01*
X144896904Y-93926248D01*
X144757824Y-93971466D01*
X144631833Y-94006747D01*
X144546708Y-94028480D01*
X144473787Y-94044799D01*
X144404360Y-94056594D01*
X144329715Y-94064752D01*
X144241144Y-94070163D01*
X144129935Y-94073715D01*
X143987377Y-94076296D01*
X143943916Y-94076920D01*
X143807172Y-94078113D01*
X143681552Y-94077866D01*
X143574407Y-94076300D01*
X143493088Y-94073535D01*
X143444947Y-94069694D01*
X143439067Y-94068606D01*
X143430592Y-94066426D01*
X143424273Y-94063493D01*
X143421670Y-94058693D01*
X143424340Y-94050914D01*
X143433843Y-94039043D01*
X143451737Y-94021968D01*
X143479581Y-93998576D01*
X143518934Y-93967754D01*
X143571355Y-93928389D01*
X143638403Y-93879369D01*
X143721636Y-93819581D01*
X143822614Y-93747913D01*
X143942894Y-93663251D01*
X144084037Y-93564483D01*
X144247600Y-93450497D01*
X144435143Y-93320179D01*
X144648225Y-93172417D01*
X144888403Y-93006098D01*
X145157238Y-92820110D01*
X145456287Y-92613340D01*
X145787110Y-92384675D01*
X146134666Y-92144474D01*
X146331027Y-92008565D01*
X146519079Y-91878015D01*
X146695583Y-91755099D01*
X146857295Y-91642093D01*
X147000974Y-91541273D01*
X147123380Y-91454915D01*
X147221269Y-91385294D01*
X147291401Y-91334685D01*
X147330533Y-91305365D01*
X147334258Y-91302338D01*
X147415037Y-91213935D01*
X147485773Y-91098480D01*
X147538558Y-90971200D01*
X147564106Y-90859727D01*
X147561829Y-90716338D01*
X147523440Y-90572724D01*
X147454300Y-90436929D01*
X147359772Y-90317001D01*
X147245217Y-90220984D01*
X147115996Y-90156923D01*
X147090550Y-90149117D01*
X147056213Y-90140054D01*
X146984754Y-90121544D01*
X146880076Y-90094587D01*
X146746080Y-90060183D01*
X146586671Y-90019333D01*
X146405749Y-89973036D01*
X146207217Y-89922292D01*
X145994978Y-89868103D01*
X145811208Y-89821226D01*
X145507509Y-89743284D01*
X145243354Y-89674388D01*
X145017036Y-89614062D01*
X144826852Y-89561832D01*
X144671094Y-89517222D01*
X144548058Y-89479758D01*
X144456038Y-89448963D01*
X144405256Y-89429502D01*
X144077428Y-89270188D01*
X143774652Y-89076765D01*
X143497341Y-88849549D01*
X143245904Y-88588852D01*
X143146836Y-88467812D01*
X143055466Y-88346305D01*
X142976165Y-88230066D01*
X142903883Y-88110113D01*
X142833568Y-87977466D01*
X142760167Y-87823145D01*
X142678631Y-87638170D01*
X142673763Y-87626818D01*
X142613578Y-87491094D01*
X142546815Y-87348421D01*
X142479782Y-87211797D01*
X142418790Y-87094220D01*
X142389876Y-87041982D01*
X142160131Y-86681991D01*
X141896071Y-86342698D01*
X141601340Y-86027242D01*
X141279579Y-85738765D01*
X140934429Y-85480405D01*
X140569531Y-85255304D01*
X140188528Y-85066601D01*
X140017500Y-84996212D01*
X139836826Y-84923578D01*
X139692507Y-84858593D01*
X139579907Y-84798339D01*
X139494387Y-84739893D01*
X139431313Y-84680336D01*
X139386045Y-84616747D01*
X139371911Y-84589583D01*
X139341407Y-84482637D01*
X139339566Y-84362900D01*
X139366525Y-84248860D01*
X139369350Y-84241912D01*
X139405553Y-84173928D01*
X139461442Y-84088967D01*
X139527278Y-84000080D01*
X139593326Y-83920319D01*
X139649849Y-83862734D01*
X139656237Y-83857357D01*
X139733485Y-83792582D01*
X139828387Y-83709952D01*
X139935288Y-83614698D01*
X140048534Y-83512050D01*
X140162470Y-83407236D01*
X140271444Y-83305488D01*
X140369800Y-83212034D01*
X140451885Y-83132104D01*
X140512045Y-83070929D01*
X140539407Y-83040461D01*
X140645236Y-82889619D01*
X140712300Y-82744205D01*
X140740220Y-82606108D01*
X140728616Y-82477219D01*
X140677109Y-82359425D01*
X140676418Y-82358352D01*
X140637680Y-82301840D01*
X140596036Y-82250034D01*
X140547844Y-82200624D01*
X140489463Y-82151298D01*
X140417250Y-82099745D01*
X140327565Y-82043654D01*
X140216765Y-81980714D01*
X140081210Y-81908613D01*
X139917257Y-81825040D01*
X139721265Y-81727684D01*
X139551833Y-81644611D01*
X139392995Y-81566488D01*
X139243732Y-81492075D01*
X139108975Y-81423906D01*
X138993655Y-81364516D01*
X138902702Y-81316438D01*
X138841048Y-81282205D01*
X138816269Y-81266596D01*
X138741426Y-81191698D01*
X138698779Y-81101088D01*
X138684094Y-80985388D01*
X138684000Y-80973454D01*
X138701046Y-80830720D01*
X138753599Y-80708505D01*
X138817364Y-80627234D01*
X138875913Y-80574582D01*
X138947452Y-80527921D01*
X139038841Y-80484040D01*
X139156941Y-80439726D01*
X139308614Y-80391766D01*
X139340166Y-80382453D01*
X139800795Y-80269087D01*
X140262853Y-80197784D01*
X140724709Y-80168398D01*
X141184733Y-80180783D01*
G04 #@! TD*
G04 #@! TO.C,Q1*
G36*
G01*
X143176000Y-74550000D02*
X143976000Y-74550000D01*
G75*
G02*
X144176000Y-74750000I0J-200000D01*
G01*
X144176000Y-75650000D01*
G75*
G02*
X143976000Y-75850000I-200000J0D01*
G01*
X143176000Y-75850000D01*
G75*
G02*
X142976000Y-75650000I0J200000D01*
G01*
X142976000Y-74750000D01*
G75*
G02*
X143176000Y-74550000I200000J0D01*
G01*
G37*
G36*
G01*
X145076000Y-74550000D02*
X145876000Y-74550000D01*
G75*
G02*
X146076000Y-74750000I0J-200000D01*
G01*
X146076000Y-75650000D01*
G75*
G02*
X145876000Y-75850000I-200000J0D01*
G01*
X145076000Y-75850000D01*
G75*
G02*
X144876000Y-75650000I0J200000D01*
G01*
X144876000Y-74750000D01*
G75*
G02*
X145076000Y-74550000I200000J0D01*
G01*
G37*
G36*
G01*
X144126000Y-76550000D02*
X144926000Y-76550000D01*
G75*
G02*
X145126000Y-76750000I0J-200000D01*
G01*
X145126000Y-77650000D01*
G75*
G02*
X144926000Y-77850000I-200000J0D01*
G01*
X144126000Y-77850000D01*
G75*
G02*
X143926000Y-77650000I0J200000D01*
G01*
X143926000Y-76750000D01*
G75*
G02*
X144126000Y-76550000I200000J0D01*
G01*
G37*
G04 #@! TD*
G04 #@! TO.C,SW1*
G36*
G01*
X148523999Y-67225000D02*
X148523999Y-66125000D01*
G75*
G02*
X148723999Y-65925000I200000J0D01*
G01*
X150223999Y-65925000D01*
G75*
G02*
X150423999Y-66125000I0J-200000D01*
G01*
X150423999Y-67225000D01*
G75*
G02*
X150223999Y-67425000I-200000J0D01*
G01*
X148723999Y-67425000D01*
G75*
G02*
X148523999Y-67225000I0J200000D01*
G01*
G37*
G36*
G01*
X157424001Y-67225000D02*
X157424001Y-66125000D01*
G75*
G02*
X157624001Y-65925000I200000J0D01*
G01*
X159124001Y-65925000D01*
G75*
G02*
X159324001Y-66125000I0J-200000D01*
G01*
X159324001Y-67225000D01*
G75*
G02*
X159124001Y-67425000I-200000J0D01*
G01*
X157624001Y-67425000D01*
G75*
G02*
X157424001Y-67225000I0J200000D01*
G01*
G37*
G04 #@! TD*
G04 #@! TO.C,BT1*
G36*
G01*
X137915000Y-108585001D02*
X137915000Y-103504999D01*
G75*
G02*
X138114999Y-103305000I199999J0D01*
G01*
X140905001Y-103305000D01*
G75*
G02*
X141105000Y-103504999I0J-199999D01*
G01*
X141105000Y-108585001D01*
G75*
G02*
X140905001Y-108785000I-199999J0D01*
G01*
X138114999Y-108785000D01*
G75*
G02*
X137915000Y-108585001I0J199999D01*
G01*
G37*
G36*
G01*
X159885000Y-108585001D02*
X159885000Y-103504999D01*
G75*
G02*
X160084999Y-103305000I199999J0D01*
G01*
X162875001Y-103305000D01*
G75*
G02*
X163075000Y-103504999I0J-199999D01*
G01*
X163075000Y-108585001D01*
G75*
G02*
X162875001Y-108785000I-199999J0D01*
G01*
X160084999Y-108785000D01*
G75*
G02*
X159885000Y-108585001I0J199999D01*
G01*
G37*
D11*
X150495000Y-106045000D03*
G04 #@! TD*
G04 #@! TO.C,C1*
G36*
G01*
X144274000Y-70934500D02*
X144274000Y-69559500D01*
G75*
G02*
X144586500Y-69247000I312500J0D01*
G01*
X146961500Y-69247000D01*
G75*
G02*
X147274000Y-69559500I0J-312500D01*
G01*
X147274000Y-70934500D01*
G75*
G02*
X146961500Y-71247000I-312500J0D01*
G01*
X144586500Y-71247000D01*
G75*
G02*
X144274000Y-70934500I0J312500D01*
G01*
G37*
G36*
G01*
X147874000Y-70934500D02*
X147874000Y-69559500D01*
G75*
G02*
X148186500Y-69247000I312500J0D01*
G01*
X150561500Y-69247000D01*
G75*
G02*
X150874000Y-69559500I0J-312500D01*
G01*
X150874000Y-70934500D01*
G75*
G02*
X150561500Y-71247000I-312500J0D01*
G01*
X148186500Y-71247000D01*
G75*
G02*
X147874000Y-70934500I0J312500D01*
G01*
G37*
G04 #@! TD*
G04 #@! TO.C,C2*
G36*
G01*
X150322000Y-74877500D02*
X150322000Y-76252500D01*
G75*
G02*
X150009500Y-76565000I-312500J0D01*
G01*
X147634500Y-76565000D01*
G75*
G02*
X147322000Y-76252500I0J312500D01*
G01*
X147322000Y-74877500D01*
G75*
G02*
X147634500Y-74565000I312500J0D01*
G01*
X150009500Y-74565000D01*
G75*
G02*
X150322000Y-74877500I0J-312500D01*
G01*
G37*
G36*
G01*
X153922000Y-74877500D02*
X153922000Y-76252500D01*
G75*
G02*
X153609500Y-76565000I-312500J0D01*
G01*
X151234500Y-76565000D01*
G75*
G02*
X150922000Y-76252500I0J312500D01*
G01*
X150922000Y-74877500D01*
G75*
G02*
X151234500Y-74565000I312500J0D01*
G01*
X153609500Y-74565000D01*
G75*
G02*
X153922000Y-74877500I0J-312500D01*
G01*
G37*
G04 #@! TD*
G04 #@! TO.C,D1*
G36*
G01*
X147154921Y-87459314D02*
X145998462Y-88429698D01*
G75*
G02*
X145547389Y-88390235I-205805J245268D01*
G01*
X144785910Y-87482741D01*
G75*
G02*
X144825373Y-87031668I245268J205805D01*
G01*
X145981832Y-86061284D01*
G75*
G02*
X146432905Y-86100747I205805J-245268D01*
G01*
X147194384Y-87008241D01*
G75*
G02*
X147154921Y-87459314I-245268J-205805D01*
G01*
G37*
G36*
G01*
X145242627Y-85180332D02*
X144086168Y-86150716D01*
G75*
G02*
X143635095Y-86111253I-205805J245268D01*
G01*
X142873616Y-85203759D01*
G75*
G02*
X142913079Y-84752686I245268J205805D01*
G01*
X144069538Y-83782302D01*
G75*
G02*
X144520611Y-83821765I205805J-245268D01*
G01*
X145282090Y-84729259D01*
G75*
G02*
X145242627Y-85180332I-245268J-205805D01*
G01*
G37*
G04 #@! TD*
G04 #@! TO.C,D2*
G36*
G01*
X156615480Y-89156786D02*
X155706950Y-87951126D01*
G75*
G02*
X155769967Y-87502737I255703J192686D01*
G01*
X156716071Y-86789797D01*
G75*
G02*
X157164460Y-86852814I192686J-255703D01*
G01*
X158072990Y-88058474D01*
G75*
G02*
X158009973Y-88506863I-255703J-192686D01*
G01*
X157063869Y-89219803D01*
G75*
G02*
X156615480Y-89156786I-192686J255703D01*
G01*
G37*
G36*
G01*
X154239540Y-90947186D02*
X153331010Y-89741526D01*
G75*
G02*
X153394027Y-89293137I255703J192686D01*
G01*
X154340131Y-88580197D01*
G75*
G02*
X154788520Y-88643214I192686J-255703D01*
G01*
X155697050Y-89848874D01*
G75*
G02*
X155634033Y-90297263I-255703J-192686D01*
G01*
X154687929Y-91010203D01*
G75*
G02*
X154239540Y-90947186I-192686J255703D01*
G01*
G37*
G04 #@! TD*
G04 #@! TO.C,Q2*
G36*
G01*
X151496000Y-72597000D02*
X151496000Y-71797000D01*
G75*
G02*
X151696000Y-71597000I200000J0D01*
G01*
X152596000Y-71597000D01*
G75*
G02*
X152796000Y-71797000I0J-200000D01*
G01*
X152796000Y-72597000D01*
G75*
G02*
X152596000Y-72797000I-200000J0D01*
G01*
X151696000Y-72797000D01*
G75*
G02*
X151496000Y-72597000I0J200000D01*
G01*
G37*
G36*
G01*
X151496000Y-70697000D02*
X151496000Y-69897000D01*
G75*
G02*
X151696000Y-69697000I200000J0D01*
G01*
X152596000Y-69697000D01*
G75*
G02*
X152796000Y-69897000I0J-200000D01*
G01*
X152796000Y-70697000D01*
G75*
G02*
X152596000Y-70897000I-200000J0D01*
G01*
X151696000Y-70897000D01*
G75*
G02*
X151496000Y-70697000I0J200000D01*
G01*
G37*
G36*
G01*
X153496000Y-71647000D02*
X153496000Y-70847000D01*
G75*
G02*
X153696000Y-70647000I200000J0D01*
G01*
X154596000Y-70647000D01*
G75*
G02*
X154796000Y-70847000I0J-200000D01*
G01*
X154796000Y-71647000D01*
G75*
G02*
X154596000Y-71847000I-200000J0D01*
G01*
X153696000Y-71847000D01*
G75*
G02*
X153496000Y-71647000I0J200000D01*
G01*
G37*
G04 #@! TD*
G04 #@! TO.C,R1*
G36*
G01*
X150375175Y-78626000D02*
X151884825Y-78626000D01*
G75*
G02*
X152205000Y-78946175I0J-320175D01*
G01*
X152205000Y-80130825D01*
G75*
G02*
X151884825Y-80451000I-320175J0D01*
G01*
X150375175Y-80451000D01*
G75*
G02*
X150055000Y-80130825I0J320175D01*
G01*
X150055000Y-78946175D01*
G75*
G02*
X150375175Y-78626000I320175J0D01*
G01*
G37*
G36*
G01*
X150375175Y-81601000D02*
X151884825Y-81601000D01*
G75*
G02*
X152205000Y-81921175I0J-320175D01*
G01*
X152205000Y-83105825D01*
G75*
G02*
X151884825Y-83426000I-320175J0D01*
G01*
X150375175Y-83426000D01*
G75*
G02*
X150055000Y-83105825I0J320175D01*
G01*
X150055000Y-81921175D01*
G75*
G02*
X150375175Y-81601000I320175J0D01*
G01*
G37*
G04 #@! TD*
G04 #@! TO.C,R2*
G36*
G01*
X152915175Y-81601000D02*
X154424825Y-81601000D01*
G75*
G02*
X154745000Y-81921175I0J-320175D01*
G01*
X154745000Y-83105825D01*
G75*
G02*
X154424825Y-83426000I-320175J0D01*
G01*
X152915175Y-83426000D01*
G75*
G02*
X152595000Y-83105825I0J320175D01*
G01*
X152595000Y-81921175D01*
G75*
G02*
X152915175Y-81601000I320175J0D01*
G01*
G37*
G36*
G01*
X152915175Y-78626000D02*
X154424825Y-78626000D01*
G75*
G02*
X154745000Y-78946175I0J-320175D01*
G01*
X154745000Y-80130825D01*
G75*
G02*
X154424825Y-80451000I-320175J0D01*
G01*
X152915175Y-80451000D01*
G75*
G02*
X152595000Y-80130825I0J320175D01*
G01*
X152595000Y-78946175D01*
G75*
G02*
X152915175Y-78626000I320175J0D01*
G01*
G37*
G04 #@! TD*
G04 #@! TO.C,R3*
G36*
G01*
X147835175Y-78626000D02*
X149344825Y-78626000D01*
G75*
G02*
X149665000Y-78946175I0J-320175D01*
G01*
X149665000Y-80130825D01*
G75*
G02*
X149344825Y-80451000I-320175J0D01*
G01*
X147835175Y-80451000D01*
G75*
G02*
X147515000Y-80130825I0J320175D01*
G01*
X147515000Y-78946175D01*
G75*
G02*
X147835175Y-78626000I320175J0D01*
G01*
G37*
G36*
G01*
X147835175Y-81601000D02*
X149344825Y-81601000D01*
G75*
G02*
X149665000Y-81921175I0J-320175D01*
G01*
X149665000Y-83105825D01*
G75*
G02*
X149344825Y-83426000I-320175J0D01*
G01*
X147835175Y-83426000D01*
G75*
G02*
X147515000Y-83105825I0J320175D01*
G01*
X147515000Y-81921175D01*
G75*
G02*
X147835175Y-81601000I320175J0D01*
G01*
G37*
G04 #@! TD*
G04 #@! TO.C,R4*
G36*
G01*
X155455175Y-81601000D02*
X156964825Y-81601000D01*
G75*
G02*
X157285000Y-81921175I0J-320175D01*
G01*
X157285000Y-83105825D01*
G75*
G02*
X156964825Y-83426000I-320175J0D01*
G01*
X155455175Y-83426000D01*
G75*
G02*
X155135000Y-83105825I0J320175D01*
G01*
X155135000Y-81921175D01*
G75*
G02*
X155455175Y-81601000I320175J0D01*
G01*
G37*
G36*
G01*
X155455175Y-78626000D02*
X156964825Y-78626000D01*
G75*
G02*
X157285000Y-78946175I0J-320175D01*
G01*
X157285000Y-80130825D01*
G75*
G02*
X156964825Y-80451000I-320175J0D01*
G01*
X155455175Y-80451000D01*
G75*
G02*
X155135000Y-80130825I0J320175D01*
G01*
X155135000Y-78946175D01*
G75*
G02*
X155455175Y-78626000I320175J0D01*
G01*
G37*
G04 #@! TD*
D12*
G04 #@! TO.C,H1*
X154838400Y-61569600D03*
G04 #@! TD*
M02*
