  0
SECTION
  2
BLOCKS
  0
ENDSEC
  0
SECTION
  2
ENTITIES
  0
LINE
  8
0
 10
1.2558
 20
-19.9605
 11
2.50665
 21
-19.8423
  0
LINE
  8
0
 10
2.50665
 20
-19.8423
 11
3.74762
 21
-19.6457
  0
LINE
  8
0
 10
3.74762
 20
-19.6457
 11
4.97379
 21
-19.3717
  0
LINE
  8
0
 10
4.97379
 20
-19.3717
 11
6.18033
 21
-19.0211
  0
LINE
  8
0
 10
6.18033
 20
-19.0211
 11
7.36249
 21
-18.5955
  0
LINE
  8
0
 10
7.36249
 20
-18.5955
 11
8.51558
 21
-18.0965
  0
LINE
  8
0
 10
8.51558
 20
-18.0965
 11
9.63507
 21
-17.5261
  0
LINE
  8
0
 10
9.63507
 20
-17.5261
 11
10.7165
 21
-16.8866
  0
LINE
  8
0
 10
10.7165
 20
-16.8866
 11
11.7557
 21
-16.1803
  0
LINE
  8
0
 10
11.7557
 20
-16.1803
 11
12.7485
 21
-15.4103
  0
LINE
  8
0
 10
12.7485
 20
-15.4103
 11
13.6909
 21
-14.5794
  0
LINE
  8
0
 10
13.6909
 20
-14.5794
 11
14.5794
 21
-13.6909
  0
LINE
  8
0
 10
14.5794
 20
-13.6909
 11
15.4103
 21
-12.7485
  0
LINE
  8
0
 10
15.4103
 20
-12.7485
 11
16.1803
 21
-11.7557
  0
LINE
  8
0
 10
16.1803
 20
-11.7557
 11
16.8866
 21
-10.7165
  0
LINE
  8
0
 10
16.8866
 20
-10.7165
 11
17.5261
 21
-9.63507
  0
LINE
  8
0
 10
17.5261
 20
-9.63507
 11
18.0965
 21
-8.51558
  0
LINE
  8
0
 10
18.0965
 20
-8.51558
 11
18.5955
 21
-7.36249
  0
LINE
  8
0
 10
18.5955
 20
-7.36249
 11
19.0211
 21
-6.18033
  0
LINE
  8
0
 10
19.0211
 20
-6.18033
 11
19.3717
 21
-4.97379
  0
LINE
  8
0
 10
19.3717
 20
-4.97379
 11
19.6457
 21
-3.74762
  0
LINE
  8
0
 10
19.6457
 20
-3.74762
 11
19.8423
 21
-2.50665
  0
LINE
  8
0
 10
19.8423
 20
-2.50665
 11
19.9605
 21
-1.2558
  0
LINE
  8
0
 10
19.9605
 20
-1.2558
 11
20
 21
0
  0
LINE
  8
0
 10
20
 20
0
 11
19.9605
 21
1.2558
  0
LINE
  8
0
 10
19.9605
 20
1.2558
 11
19.8423
 21
2.50665
  0
LINE
  8
0
 10
19.8423
 20
2.50665
 11
19.6457
 21
3.74762
  0
LINE
  8
0
 10
19.6457
 20
3.74762
 11
19.3717
 21
4.97379
  0
LINE
  8
0
 10
19.3717
 20
4.97379
 11
19.0211
 21
6.18033
  0
LINE
  8
0
 10
19.0211
 20
6.18033
 11
18.5955
 21
7.36249
  0
LINE
  8
0
 10
18.5955
 20
7.36249
 11
18.0965
 21
8.51558
  0
LINE
  8
0
 10
18.0965
 20
8.51558
 11
17.5261
 21
9.63507
  0
LINE
  8
0
 10
17.5261
 20
9.63507
 11
16.8866
 21
10.7165
  0
LINE
  8
0
 10
16.8866
 20
10.7165
 11
16.1803
 21
11.7557
  0
LINE
  8
0
 10
16.1803
 20
11.7557
 11
15.4103
 21
12.7485
  0
LINE
  8
0
 10
15.4103
 20
12.7485
 11
14.5794
 21
13.6909
  0
LINE
  8
0
 10
14.5794
 20
13.6909
 11
13.6909
 21
14.5794
  0
LINE
  8
0
 10
13.6909
 20
14.5794
 11
12.7485
 21
15.4103
  0
LINE
  8
0
 10
12.7485
 20
15.4103
 11
11.7557
 21
16.1803
  0
LINE
  8
0
 10
11.7557
 20
16.1803
 11
10.7165
 21
16.8866
  0
LINE
  8
0
 10
10.7165
 20
16.8866
 11
9.63507
 21
17.5261
  0
LINE
  8
0
 10
9.63507
 20
17.5261
 11
8.51558
 21
18.0965
  0
LINE
  8
0
 10
8.51558
 20
18.0965
 11
7.36249
 21
18.5955
  0
LINE
  8
0
 10
7.36249
 20
18.5955
 11
6.18033
 21
19.0211
  0
LINE
  8
0
 10
6.18033
 20
19.0211
 11
4.97379
 21
19.3717
  0
LINE
  8
0
 10
4.97379
 20
19.3717
 11
3.74762
 21
19.6457
  0
LINE
  8
0
 10
3.74762
 20
19.6457
 11
2.50665
 21
19.8423
  0
LINE
  8
0
 10
2.50665
 20
19.8423
 11
1.2558
 21
19.9605
  0
LINE
  8
0
 10
1.2558
 20
19.9605
 11
0
 21
20
  0
LINE
  8
0
 10
0
 20
20
 11
-1.2558
 21
19.9605
  0
LINE
  8
0
 10
-1.2558
 20
19.9605
 11
-2.50665
 21
19.8423
  0
LINE
  8
0
 10
-2.50665
 20
19.8423
 11
-3.74762
 21
19.6457
  0
LINE
  8
0
 10
-3.74762
 20
19.6457
 11
-4.97379
 21
19.3717
  0
LINE
  8
0
 10
-4.97379
 20
19.3717
 11
-6.18033
 21
19.0211
  0
LINE
  8
0
 10
-6.18033
 20
19.0211
 11
-7.36249
 21
18.5955
  0
LINE
  8
0
 10
-7.36249
 20
18.5955
 11
-8.51558
 21
18.0965
  0
LINE
  8
0
 10
-8.51558
 20
18.0965
 11
-9.63507
 21
17.5261
  0
LINE
  8
0
 10
-9.63507
 20
17.5261
 11
-10.7165
 21
16.8866
  0
LINE
  8
0
 10
-10.7165
 20
16.8866
 11
-11.7557
 21
16.1803
  0
LINE
  8
0
 10
-11.7557
 20
16.1803
 11
-12.7485
 21
15.4103
  0
LINE
  8
0
 10
-12.7485
 20
15.4103
 11
-13.6909
 21
14.5794
  0
LINE
  8
0
 10
-13.6909
 20
14.5794
 11
-14.5794
 21
13.6909
  0
LINE
  8
0
 10
-14.5794
 20
13.6909
 11
-15.4103
 21
12.7485
  0
LINE
  8
0
 10
-15.4103
 20
12.7485
 11
-16.1803
 21
11.7557
  0
LINE
  8
0
 10
-16.1803
 20
11.7557
 11
-16.8866
 21
10.7165
  0
LINE
  8
0
 10
-16.8866
 20
10.7165
 11
-17.5261
 21
9.63507
  0
LINE
  8
0
 10
-17.5261
 20
9.63507
 11
-18.0965
 21
8.51558
  0
LINE
  8
0
 10
-18.0965
 20
8.51558
 11
-18.5955
 21
7.36249
  0
LINE
  8
0
 10
-18.5955
 20
7.36249
 11
-19.0211
 21
6.18033
  0
LINE
  8
0
 10
-19.0211
 20
6.18033
 11
-19.3717
 21
4.97379
  0
LINE
  8
0
 10
-19.3717
 20
4.97379
 11
-19.6457
 21
3.74762
  0
LINE
  8
0
 10
-19.6457
 20
3.74762
 11
-19.8423
 21
2.50665
  0
LINE
  8
0
 10
-19.8423
 20
2.50665
 11
-19.9605
 21
1.2558
  0
LINE
  8
0
 10
-19.9605
 20
1.2558
 11
-20
 21
0
  0
LINE
  8
0
 10
-20
 20
0
 11
-19.9605
 21
-1.2558
  0
LINE
  8
0
 10
-19.9605
 20
-1.2558
 11
-19.8423
 21
-2.50665
  0
LINE
  8
0
 10
-19.8423
 20
-2.50665
 11
-19.6457
 21
-3.74762
  0
LINE
  8
0
 10
-19.6457
 20
-3.74762
 11
-19.3717
 21
-4.97379
  0
LINE
  8
0
 10
-19.3717
 20
-4.97379
 11
-19.0211
 21
-6.18033
  0
LINE
  8
0
 10
-19.0211
 20
-6.18033
 11
-18.5955
 21
-7.36249
  0
LINE
  8
0
 10
-18.5955
 20
-7.36249
 11
-18.0965
 21
-8.51558
  0
LINE
  8
0
 10
-18.0965
 20
-8.51558
 11
-17.5261
 21
-9.63507
  0
LINE
  8
0
 10
-17.5261
 20
-9.63507
 11
-16.8866
 21
-10.7165
  0
LINE
  8
0
 10
-16.8866
 20
-10.7165
 11
-16.1803
 21
-11.7557
  0
LINE
  8
0
 10
-16.1803
 20
-11.7557
 11
-15.4103
 21
-12.7485
  0
LINE
  8
0
 10
-15.4103
 20
-12.7485
 11
-14.5794
 21
-13.6909
  0
LINE
  8
0
 10
-14.5794
 20
-13.6909
 11
-13.6909
 21
-14.5794
  0
LINE
  8
0
 10
-13.6909
 20
-14.5794
 11
-12.7485
 21
-15.4103
  0
LINE
  8
0
 10
-12.7485
 20
-15.4103
 11
-11.7557
 21
-16.1803
  0
LINE
  8
0
 10
-11.7557
 20
-16.1803
 11
-10.7165
 21
-16.8866
  0
LINE
  8
0
 10
-10.7165
 20
-16.8866
 11
-9.63507
 21
-17.5261
  0
LINE
  8
0
 10
-9.63507
 20
-17.5261
 11
-8.51558
 21
-18.0965
  0
LINE
  8
0
 10
-8.51558
 20
-18.0965
 11
-7.36249
 21
-18.5955
  0
LINE
  8
0
 10
-7.36249
 20
-18.5955
 11
-6.18033
 21
-19.0211
  0
LINE
  8
0
 10
-6.18033
 20
-19.0211
 11
-4.97379
 21
-19.3717
  0
LINE
  8
0
 10
-4.97379
 20
-19.3717
 11
-3.74762
 21
-19.6457
  0
LINE
  8
0
 10
-3.74762
 20
-19.6457
 11
-2.50665
 21
-19.8423
  0
LINE
  8
0
 10
-2.50665
 20
-19.8423
 11
-1.2558
 21
-19.9605
  0
LINE
  8
0
 10
-1.2558
 20
-19.9605
 11
0
 21
-20
  0
LINE
  8
0
 10
0
 20
-20
 11
1.2558
 21
-19.9605
  0
LINE
  8
0
 10
15.8744
 20
-1.99605
 11
15.7493
 21
-1.98422
  0
LINE
  8
0
 10
15.7493
 20
-1.98422
 11
15.6252
 21
-1.96457
  0
LINE
  8
0
 10
15.6252
 20
-1.96457
 11
15.5026
 21
-1.93716
  0
LINE
  8
0
 10
15.5026
 20
-1.93716
 11
15.382
 21
-1.9021
  0
LINE
  8
0
 10
15.382
 20
-1.9021
 11
15.2637
 21
-1.85954
  0
LINE
  8
0
 10
15.2637
 20
-1.85954
 11
15.1484
 21
-1.80965
  0
LINE
  8
0
 10
15.1484
 20
-1.80965
 11
15.0365
 21
-1.75261
  0
LINE
  8
0
 10
15.0365
 20
-1.75261
 11
14.9283
 21
-1.68864
  0
LINE
  8
0
 10
14.9283
 20
-1.68864
 11
14.8244
 21
-1.61803
  0
LINE
  8
0
 10
14.8244
 20
-1.61803
 11
14.7251
 21
-1.54102
  0
LINE
  8
0
 10
14.7251
 20
-1.54102
 11
14.6309
 21
-1.45793
  0
LINE
  8
0
 10
14.6309
 20
-1.45793
 11
14.5421
 21
-1.36908
  0
LINE
  8
0
 10
14.5421
 20
-1.36908
 11
14.459
 21
-1.27484
  0
LINE
  8
0
 10
14.459
 20
-1.27484
 11
14.382
 21
-1.17557
  0
LINE
  8
0
 10
14.382
 20
-1.17557
 11
14.3113
 21
-1.07164
  0
LINE
  8
0
 10
14.3113
 20
-1.07164
 11
14.2474
 21
-0.963501
  0
LINE
  8
0
 10
14.2474
 20
-0.963501
 11
14.1903
 21
-0.851547
  0
LINE
  8
0
 10
14.1903
 20
-0.851547
 11
14.1404
 21
-0.736237
  0
LINE
  8
0
 10
14.1404
 20
-0.736237
 11
14.0979
 21
-0.618027
  0
LINE
  8
0
 10
14.0979
 20
-0.618027
 11
14.0628
 21
-0.497375
  0
LINE
  8
0
 10
14.0628
 20
-0.497375
 11
14.0354
 21
-0.374756
  0
LINE
  8
0
 10
14.0354
 20
-0.374756
 11
14.0158
 21
-0.250656
  0
LINE
  8
0
 10
14.0158
 20
-0.250656
 11
14.0039
 21
-0.12558
  0
LINE
  8
0
 10
14.0039
 20
-0.12558
 11
14
 21
0
  0
LINE
  8
0
 10
14
 20
0
 11
14.0039
 21
0.12558
  0
LINE
  8
0
 10
14.0039
 20
0.12558
 11
14.0158
 21
0.250656
  0
LINE
  8
0
 10
14.0158
 20
0.250656
 11
14.0354
 21
0.374756
  0
LINE
  8
0
 10
14.0354
 20
0.374756
 11
14.0628
 21
0.497375
  0
LINE
  8
0
 10
14.0628
 20
0.497375
 11
14.0979
 21
0.618027
  0
LINE
  8
0
 10
14.0979
 20
0.618027
 11
14.1404
 21
0.736237
  0
LINE
  8
0
 10
14.1404
 20
0.736237
 11
14.1903
 21
0.851547
  0
LINE
  8
0
 10
14.1903
 20
0.851547
 11
14.2474
 21
0.963501
  0
LINE
  8
0
 10
14.2474
 20
0.963501
 11
14.3113
 21
1.07164
  0
LINE
  8
0
 10
14.3113
 20
1.07164
 11
14.382
 21
1.17557
  0
LINE
  8
0
 10
14.382
 20
1.17557
 11
14.459
 21
1.27484
  0
LINE
  8
0
 10
14.459
 20
1.27484
 11
14.5421
 21
1.36908
  0
LINE
  8
0
 10
14.5421
 20
1.36908
 11
14.6309
 21
1.45793
  0
LINE
  8
0
 10
14.6309
 20
1.45793
 11
14.7251
 21
1.54102
  0
LINE
  8
0
 10
14.7251
 20
1.54102
 11
14.8244
 21
1.61803
  0
LINE
  8
0
 10
14.8244
 20
1.61803
 11
14.9283
 21
1.68864
  0
LINE
  8
0
 10
14.9283
 20
1.68864
 11
15.0365
 21
1.75261
  0
LINE
  8
0
 10
15.0365
 20
1.75261
 11
15.1484
 21
1.80965
  0
LINE
  8
0
 10
15.1484
 20
1.80965
 11
15.2637
 21
1.85954
  0
LINE
  8
0
 10
15.2637
 20
1.85954
 11
15.382
 21
1.9021
  0
LINE
  8
0
 10
15.382
 20
1.9021
 11
15.5026
 21
1.93716
  0
LINE
  8
0
 10
15.5026
 20
1.93716
 11
15.6252
 21
1.96457
  0
LINE
  8
0
 10
15.6252
 20
1.96457
 11
15.7493
 21
1.98422
  0
LINE
  8
0
 10
15.7493
 20
1.98422
 11
15.8744
 21
1.99605
  0
LINE
  8
0
 10
15.8744
 20
1.99605
 11
16
 21
2
  0
LINE
  8
0
 10
16
 20
2
 11
16.1256
 21
1.99605
  0
LINE
  8
0
 10
16.1256
 20
1.99605
 11
16.2507
 21
1.98422
  0
LINE
  8
0
 10
16.2507
 20
1.98422
 11
16.3748
 21
1.96457
  0
LINE
  8
0
 10
16.3748
 20
1.96457
 11
16.4974
 21
1.93716
  0
LINE
  8
0
 10
16.4974
 20
1.93716
 11
16.618
 21
1.9021
  0
LINE
  8
0
 10
16.618
 20
1.9021
 11
16.7362
 21
1.85954
  0
LINE
  8
0
 10
16.7362
 20
1.85954
 11
16.8515
 21
1.80965
  0
LINE
  8
0
 10
16.8515
 20
1.80965
 11
16.9635
 21
1.75261
  0
LINE
  8
0
 10
16.9635
 20
1.75261
 11
17.0716
 21
1.68864
  0
LINE
  8
0
 10
17.0716
 20
1.68864
 11
17.1756
 21
1.61803
  0
LINE
  8
0
 10
17.1756
 20
1.61803
 11
17.2748
 21
1.54102
  0
LINE
  8
0
 10
17.2748
 20
1.54102
 11
17.3691
 21
1.45793
  0
LINE
  8
0
 10
17.3691
 20
1.45793
 11
17.4579
 21
1.36908
  0
LINE
  8
0
 10
17.4579
 20
1.36908
 11
17.541
 21
1.27484
  0
LINE
  8
0
 10
17.541
 20
1.27484
 11
17.618
 21
1.17557
  0
LINE
  8
0
 10
17.618
 20
1.17557
 11
17.6886
 21
1.07164
  0
LINE
  8
0
 10
17.6886
 20
1.07164
 11
17.7526
 21
0.963501
  0
LINE
  8
0
 10
17.7526
 20
0.963501
 11
17.8096
 21
0.851547
  0
LINE
  8
0
 10
17.8096
 20
0.851547
 11
17.8595
 21
0.736237
  0
LINE
  8
0
 10
17.8595
 20
0.736237
 11
17.9021
 21
0.618027
  0
LINE
  8
0
 10
17.9021
 20
0.618027
 11
17.9372
 21
0.497375
  0
LINE
  8
0
 10
17.9372
 20
0.497375
 11
17.9646
 21
0.374756
  0
LINE
  8
0
 10
17.9646
 20
0.374756
 11
17.9842
 21
0.250656
  0
LINE
  8
0
 10
17.9842
 20
0.250656
 11
17.996
 21
0.12558
  0
LINE
  8
0
 10
17.996
 20
0.12558
 11
18
 21
0
  0
LINE
  8
0
 10
18
 20
0
 11
17.996
 21
-0.12558
  0
LINE
  8
0
 10
17.996
 20
-0.12558
 11
17.9842
 21
-0.250656
  0
LINE
  8
0
 10
17.9842
 20
-0.250656
 11
17.9646
 21
-0.374756
  0
LINE
  8
0
 10
17.9646
 20
-0.374756
 11
17.9372
 21
-0.497375
  0
LINE
  8
0
 10
17.9372
 20
-0.497375
 11
17.9021
 21
-0.618027
  0
LINE
  8
0
 10
17.9021
 20
-0.618027
 11
17.8595
 21
-0.736237
  0
LINE
  8
0
 10
17.8595
 20
-0.736237
 11
17.8096
 21
-0.851547
  0
LINE
  8
0
 10
17.8096
 20
-0.851547
 11
17.7526
 21
-0.963501
  0
LINE
  8
0
 10
17.7526
 20
-0.963501
 11
17.6886
 21
-1.07164
  0
LINE
  8
0
 10
17.6886
 20
-1.07164
 11
17.618
 21
-1.17557
  0
LINE
  8
0
 10
17.618
 20
-1.17557
 11
17.541
 21
-1.27484
  0
LINE
  8
0
 10
17.541
 20
-1.27484
 11
17.4579
 21
-1.36908
  0
LINE
  8
0
 10
17.4579
 20
-1.36908
 11
17.3691
 21
-1.45793
  0
LINE
  8
0
 10
17.3691
 20
-1.45793
 11
17.2748
 21
-1.54102
  0
LINE
  8
0
 10
17.2748
 20
-1.54102
 11
17.1756
 21
-1.61803
  0
LINE
  8
0
 10
17.1756
 20
-1.61803
 11
17.0716
 21
-1.68864
  0
LINE
  8
0
 10
17.0716
 20
-1.68864
 11
16.9635
 21
-1.75261
  0
LINE
  8
0
 10
16.9635
 20
-1.75261
 11
16.8515
 21
-1.80965
  0
LINE
  8
0
 10
16.8515
 20
-1.80965
 11
16.7362
 21
-1.85954
  0
LINE
  8
0
 10
16.7362
 20
-1.85954
 11
16.618
 21
-1.9021
  0
LINE
  8
0
 10
16.618
 20
-1.9021
 11
16.4974
 21
-1.93716
  0
LINE
  8
0
 10
16.4974
 20
-1.93716
 11
16.3748
 21
-1.96457
  0
LINE
  8
0
 10
16.3748
 20
-1.96457
 11
16.2507
 21
-1.98422
  0
LINE
  8
0
 10
16.2507
 20
-1.98422
 11
16.1256
 21
-1.99605
  0
LINE
  8
0
 10
16.1256
 20
-1.99605
 11
16
 21
-2
  0
LINE
  8
0
 10
16
 20
-2
 11
15.8744
 21
-1.99605
  0
ENDSEC
  0
SECTION
  2
OBJECTS
  0
DICTIONARY
  0
ENDSEC
  0
EOF
