G04 #@! TF.GenerationSoftware,KiCad,Pcbnew,(5.1.10)-1*
G04 #@! TF.CreationDate,2021-10-14T18:13:08-03:00*
G04 #@! TF.ProjectId,esp32_shield,65737033-325f-4736-9869-656c642e6b69,rev?*
G04 #@! TF.SameCoordinates,Original*
G04 #@! TF.FileFunction,Copper,L2,Bot*
G04 #@! TF.FilePolarity,Positive*
%FSLAX46Y46*%
G04 Gerber Fmt 4.6, Leading zero omitted, Abs format (unit mm)*
G04 Created by KiCad (PCBNEW (5.1.10)-1) date 2021-10-14 18:13:08*
%MOMM*%
%LPD*%
G01*
G04 APERTURE LIST*
G04 #@! TA.AperFunction,ComponentPad*
%ADD10C,1.700000*%
G04 #@! TD*
G04 #@! TA.AperFunction,ComponentPad*
%ADD11O,1.700000X1.700000*%
G04 #@! TD*
G04 #@! TA.AperFunction,ComponentPad*
%ADD12O,1.600000X1.600000*%
G04 #@! TD*
G04 #@! TA.AperFunction,ComponentPad*
%ADD13C,1.600000*%
G04 #@! TD*
G04 #@! TA.AperFunction,ComponentPad*
%ADD14C,1.560000*%
G04 #@! TD*
G04 #@! TA.AperFunction,ComponentPad*
%ADD15C,5.700000*%
G04 #@! TD*
G04 #@! TA.AperFunction,Conductor*
%ADD16C,0.254000*%
G04 #@! TD*
G04 #@! TA.AperFunction,Conductor*
%ADD17C,0.100000*%
G04 #@! TD*
G04 APERTURE END LIST*
D10*
G04 #@! TO.P,J7,1*
G04 #@! TO.N,/ESP32/LDR*
X135764621Y-114995560D03*
D11*
G04 #@! TO.P,J7,2*
G04 #@! TO.N,+5V*
X133224621Y-114995560D03*
G04 #@! TD*
G04 #@! TO.P,J3,3*
G04 #@! TO.N,/ESP32/SERVO_2*
X174994580Y-99930820D03*
G04 #@! TO.P,J3,2*
G04 #@! TO.N,+5V*
X174994580Y-97390820D03*
D10*
G04 #@! TO.P,J3,1*
G04 #@! TO.N,GND*
X174994580Y-94850820D03*
G04 #@! TD*
G04 #@! TO.P,J2,1*
G04 #@! TO.N,GND*
X174994580Y-81896820D03*
D11*
G04 #@! TO.P,J2,2*
G04 #@! TO.N,+5V*
X174994580Y-84436820D03*
G04 #@! TO.P,J2,3*
G04 #@! TO.N,/ESP32/SERVO_1*
X174994580Y-86976820D03*
G04 #@! TD*
D10*
G04 #@! TO.P,J6,1*
G04 #@! TO.N,GND*
X156716740Y-67942060D03*
D11*
G04 #@! TO.P,J6,2*
G04 #@! TO.N,/DHT11/DHT11*
X159256740Y-67942060D03*
G04 #@! TO.P,J6,3*
G04 #@! TO.N,+5V*
X161796740Y-67942060D03*
G04 #@! TD*
D10*
G04 #@! TO.P,J8,1*
G04 #@! TO.N,/ESP32/CS*
X110488740Y-67942060D03*
D11*
G04 #@! TO.P,J8,2*
G04 #@! TO.N,/ESP32/SCK*
X113028740Y-67942060D03*
G04 #@! TO.P,J8,3*
G04 #@! TO.N,/ESP32/MISO*
X115568740Y-67942060D03*
G04 #@! TO.P,J8,4*
G04 #@! TO.N,/ESP32/MOSI*
X118108740Y-67942060D03*
G04 #@! TO.P,J8,5*
G04 #@! TO.N,+5V*
X120648740Y-67942060D03*
G04 #@! TO.P,J8,6*
G04 #@! TO.N,GND*
X123188740Y-67942060D03*
G04 #@! TD*
G04 #@! TO.P,J10,3*
G04 #@! TO.N,+5V*
X167244349Y-115059060D03*
G04 #@! TO.P,J10,2*
G04 #@! TO.N,/ESP32/TEMP_2*
X169784349Y-115059060D03*
D10*
G04 #@! TO.P,J10,1*
G04 #@! TO.N,GND*
X172324349Y-115059060D03*
G04 #@! TD*
G04 #@! TO.P,J9,1*
G04 #@! TO.N,GND*
X156954657Y-115059060D03*
D11*
G04 #@! TO.P,J9,2*
G04 #@! TO.N,/ESP32/TEMP_1*
X154414657Y-115059060D03*
G04 #@! TO.P,J9,3*
G04 #@! TO.N,+5V*
X151874657Y-115059060D03*
G04 #@! TD*
D10*
G04 #@! TO.P,J1,1*
G04 #@! TO.N,+5V*
X96823540Y-102820820D03*
D11*
G04 #@! TO.P,J1,2*
G04 #@! TO.N,GND*
X94283540Y-102820820D03*
G04 #@! TO.P,J1,3*
G04 #@! TO.N,+5V*
X96823540Y-100280820D03*
G04 #@! TO.P,J1,4*
G04 #@! TO.N,GND*
X94283540Y-100280820D03*
G04 #@! TO.P,J1,5*
G04 #@! TO.N,+5V*
X96823540Y-97740820D03*
G04 #@! TO.P,J1,6*
G04 #@! TO.N,GND*
X94283540Y-97740820D03*
G04 #@! TO.P,J1,7*
G04 #@! TO.N,+5V*
X96823540Y-95200820D03*
G04 #@! TO.P,J1,8*
G04 #@! TO.N,GND*
X94283540Y-95200820D03*
G04 #@! TO.P,J1,9*
G04 #@! TO.N,+5V*
X96823540Y-92660820D03*
G04 #@! TO.P,J1,10*
G04 #@! TO.N,GND*
X94283540Y-92660820D03*
G04 #@! TO.P,J1,11*
G04 #@! TO.N,+5V*
X96823540Y-90120820D03*
G04 #@! TO.P,J1,12*
G04 #@! TO.N,GND*
X94283540Y-90120820D03*
G04 #@! TO.P,J1,13*
G04 #@! TO.N,+5V*
X96823540Y-87580820D03*
G04 #@! TO.P,J1,14*
G04 #@! TO.N,GND*
X94283540Y-87580820D03*
G04 #@! TO.P,J1,15*
G04 #@! TO.N,+5V*
X96823540Y-85040820D03*
G04 #@! TO.P,J1,16*
G04 #@! TO.N,GND*
X94283540Y-85040820D03*
G04 #@! TO.P,J1,17*
G04 #@! TO.N,+5V*
X96823540Y-82500820D03*
G04 #@! TO.P,J1,18*
G04 #@! TO.N,GND*
X94283540Y-82500820D03*
G04 #@! TO.P,J1,19*
G04 #@! TO.N,+5V*
X96823540Y-79960820D03*
G04 #@! TO.P,J1,20*
G04 #@! TO.N,GND*
X94283540Y-79960820D03*
G04 #@! TD*
G04 #@! TO.P,J5,3*
G04 #@! TO.N,GND*
X115314740Y-115059060D03*
G04 #@! TO.P,J5,2*
G04 #@! TO.N,/Corriente/SC_2*
X117854740Y-115059060D03*
D10*
G04 #@! TO.P,J5,1*
G04 #@! TO.N,+5V*
X120394740Y-115059060D03*
G04 #@! TD*
G04 #@! TO.P,J4,3*
G04 #@! TO.N,GND*
X109900585Y-115059060D03*
D11*
G04 #@! TO.P,J4,2*
G04 #@! TO.N,/Corriente/SC_1*
X107360585Y-115059060D03*
G04 #@! TO.P,J4,1*
G04 #@! TO.N,+5V*
X104820585Y-115059060D03*
G04 #@! TD*
D10*
G04 #@! TO.P,J11,1*
G04 #@! TO.N,N/C*
X134706740Y-67942060D03*
D11*
G04 #@! TO.P,J11,2*
G04 #@! TO.N,/ESP32/SCL*
X137246740Y-67942060D03*
G04 #@! TO.P,J11,3*
G04 #@! TO.N,/ESP32/SDA*
X139786740Y-67942060D03*
G04 #@! TO.P,J11,4*
G04 #@! TO.N,+5V*
X142326740Y-67942060D03*
G04 #@! TO.P,J11,5*
G04 #@! TO.N,GND*
X144866740Y-67942060D03*
G04 #@! TD*
D12*
G04 #@! TO.P,R3,2*
G04 #@! TO.N,/ESP32/TEMP_2*
X177671740Y-115059060D03*
D13*
G04 #@! TO.P,R3,1*
G04 #@! TO.N,+5V*
X177671740Y-122679060D03*
G04 #@! TD*
G04 #@! TO.P,R1,1*
G04 #@! TO.N,/ESP32/LDR*
X140905240Y-114995560D03*
D12*
G04 #@! TO.P,R1,2*
G04 #@! TO.N,GND*
X140905240Y-122615560D03*
G04 #@! TD*
D13*
G04 #@! TO.P,R2,1*
G04 #@! TO.N,+5V*
X162431740Y-122679060D03*
D12*
G04 #@! TO.P,R2,2*
G04 #@! TO.N,/ESP32/TEMP_1*
X162431740Y-115059060D03*
G04 #@! TD*
D14*
G04 #@! TO.P,U1,29*
G04 #@! TO.N,GND*
X147233580Y-78658320D03*
G04 #@! TO.P,U1,28*
G04 #@! TO.N,/DHT11/DHT11*
X144693580Y-78658320D03*
G04 #@! TO.P,U1,27*
G04 #@! TO.N,N/C*
X142153580Y-78658320D03*
G04 #@! TO.P,U1,26*
X139613580Y-78658320D03*
G04 #@! TO.P,U1,25*
X137073580Y-78658320D03*
G04 #@! TO.P,U1,24*
X134533580Y-78658320D03*
G04 #@! TO.P,U1,23*
G04 #@! TO.N,/ESP32/CS*
X131993580Y-78658320D03*
G04 #@! TO.P,U1,22*
G04 #@! TO.N,/ESP32/SCK*
X129453580Y-78658320D03*
G04 #@! TO.P,U1,21*
G04 #@! TO.N,/ESP32/MISO*
X126913580Y-78658320D03*
G04 #@! TO.P,U1,20*
G04 #@! TO.N,/ESP32/SDA*
X124373580Y-78658320D03*
G04 #@! TO.P,U1,19*
G04 #@! TO.N,N/C*
X121833580Y-78658320D03*
G04 #@! TO.P,U1,18*
X119293580Y-78658320D03*
G04 #@! TO.P,U1,17*
G04 #@! TO.N,/ESP32/SCL*
X116753580Y-78658320D03*
G04 #@! TO.P,U1,16*
G04 #@! TO.N,/ESP32/MOSI*
X114213580Y-78658320D03*
G04 #@! TO.P,U1,15*
G04 #@! TO.N,N/C*
X149773580Y-104058320D03*
G04 #@! TO.P,U1,14*
G04 #@! TO.N,GND*
X147233580Y-104058320D03*
G04 #@! TO.P,U1,13*
G04 #@! TO.N,/ESP32/SERVO_2*
X144693580Y-104058320D03*
G04 #@! TO.P,U1,12*
G04 #@! TO.N,N/C*
X142153580Y-104058320D03*
G04 #@! TO.P,U1,11*
G04 #@! TO.N,/ESP32/SERVO_1*
X139613580Y-104058320D03*
G04 #@! TO.P,U1,10*
G04 #@! TO.N,/ESP32/TEMP_2*
X137073580Y-104058320D03*
G04 #@! TO.P,U1,9*
G04 #@! TO.N,/ESP32/TEMP_1*
X134533580Y-104058320D03*
G04 #@! TO.P,U1,8*
G04 #@! TO.N,N/C*
X131993580Y-104058320D03*
G04 #@! TO.P,U1,7*
X129453580Y-104058320D03*
G04 #@! TO.P,U1,6*
X126913580Y-104058320D03*
G04 #@! TO.P,U1,5*
G04 #@! TO.N,/ESP32/LDR*
X124373580Y-104058320D03*
G04 #@! TO.P,U1,4*
G04 #@! TO.N,/Corriente/SC_2*
X121833580Y-104058320D03*
G04 #@! TO.P,U1,3*
G04 #@! TO.N,N/C*
X119293580Y-104058320D03*
G04 #@! TO.P,U1,2*
G04 #@! TO.N,/Corriente/SC_1*
X116753580Y-104058320D03*
G04 #@! TO.P,U1,1*
G04 #@! TO.N,N/C*
X114213580Y-104058320D03*
G04 #@! TO.P,U1,30*
X149773580Y-78658320D03*
G04 #@! TD*
D15*
G04 #@! TO.P,H1,1*
G04 #@! TO.N,N/C*
X93580000Y-60308000D03*
G04 #@! TD*
G04 #@! TO.P,H2,1*
G04 #@! TO.N,N/C*
X93453000Y-122665000D03*
G04 #@! TD*
G04 #@! TO.P,H3,1*
G04 #@! TO.N,N/C*
X185401000Y-60562000D03*
G04 #@! TD*
G04 #@! TO.P,H4,1*
G04 #@! TO.N,N/C*
X185318400Y-122402600D03*
G04 #@! TD*
D16*
G04 #@! TO.N,+5V*
X183750234Y-57473633D02*
X183179442Y-57855024D01*
X182694024Y-58340442D01*
X182312633Y-58911234D01*
X182049927Y-59545463D01*
X181916000Y-60218758D01*
X181916000Y-60905242D01*
X182049927Y-61578537D01*
X182312633Y-62212766D01*
X182694024Y-62783558D01*
X183179442Y-63268976D01*
X183750234Y-63650367D01*
X184384463Y-63913073D01*
X185057758Y-64047000D01*
X185744242Y-64047000D01*
X186417537Y-63913073D01*
X187051766Y-63650367D01*
X187622558Y-63268976D01*
X188107976Y-62783558D01*
X188489367Y-62212766D01*
X188752073Y-61578537D01*
X188765001Y-61513544D01*
X188765000Y-121866309D01*
X188669473Y-121386063D01*
X188406767Y-120751834D01*
X188025376Y-120181042D01*
X187539958Y-119695624D01*
X186969166Y-119314233D01*
X186334937Y-119051527D01*
X185661642Y-118917600D01*
X184975158Y-118917600D01*
X184301863Y-119051527D01*
X183667634Y-119314233D01*
X183096842Y-119695624D01*
X182611424Y-120181042D01*
X182230033Y-120751834D01*
X181967327Y-121386063D01*
X181833400Y-122059358D01*
X181833400Y-122745842D01*
X181967327Y-123419137D01*
X182230033Y-124053366D01*
X182611424Y-124624158D01*
X183096842Y-125109576D01*
X183667634Y-125490967D01*
X184301863Y-125753673D01*
X184348753Y-125763000D01*
X95080510Y-125763000D01*
X95103766Y-125753367D01*
X95674558Y-125371976D01*
X96159976Y-124886558D01*
X96541367Y-124315766D01*
X96804073Y-123681537D01*
X96938000Y-123008242D01*
X96938000Y-122474225D01*
X139470240Y-122474225D01*
X139470240Y-122756895D01*
X139525387Y-123034134D01*
X139633560Y-123295287D01*
X139790603Y-123530319D01*
X139990481Y-123730197D01*
X140225513Y-123887240D01*
X140486666Y-123995413D01*
X140763905Y-124050560D01*
X141046575Y-124050560D01*
X141323814Y-123995413D01*
X141584967Y-123887240D01*
X141819999Y-123730197D01*
X141878434Y-123671762D01*
X161618643Y-123671762D01*
X161690226Y-123915731D01*
X161945736Y-124036631D01*
X162219924Y-124105360D01*
X162502252Y-124119277D01*
X162781870Y-124077847D01*
X163048032Y-123982663D01*
X163173254Y-123915731D01*
X163244837Y-123671762D01*
X176858643Y-123671762D01*
X176930226Y-123915731D01*
X177185736Y-124036631D01*
X177459924Y-124105360D01*
X177742252Y-124119277D01*
X178021870Y-124077847D01*
X178288032Y-123982663D01*
X178413254Y-123915731D01*
X178484837Y-123671762D01*
X177671740Y-122858665D01*
X176858643Y-123671762D01*
X163244837Y-123671762D01*
X162431740Y-122858665D01*
X161618643Y-123671762D01*
X141878434Y-123671762D01*
X142019877Y-123530319D01*
X142176920Y-123295287D01*
X142285093Y-123034134D01*
X142340240Y-122756895D01*
X142340240Y-122749572D01*
X160991523Y-122749572D01*
X161032953Y-123029190D01*
X161128137Y-123295352D01*
X161195069Y-123420574D01*
X161439038Y-123492157D01*
X162252135Y-122679060D01*
X162611345Y-122679060D01*
X163424442Y-123492157D01*
X163668411Y-123420574D01*
X163789311Y-123165064D01*
X163858040Y-122890876D01*
X163865005Y-122749572D01*
X176231523Y-122749572D01*
X176272953Y-123029190D01*
X176368137Y-123295352D01*
X176435069Y-123420574D01*
X176679038Y-123492157D01*
X177492135Y-122679060D01*
X177851345Y-122679060D01*
X178664442Y-123492157D01*
X178908411Y-123420574D01*
X179029311Y-123165064D01*
X179098040Y-122890876D01*
X179111957Y-122608548D01*
X179070527Y-122328930D01*
X178975343Y-122062768D01*
X178908411Y-121937546D01*
X178664442Y-121865963D01*
X177851345Y-122679060D01*
X177492135Y-122679060D01*
X176679038Y-121865963D01*
X176435069Y-121937546D01*
X176314169Y-122193056D01*
X176245440Y-122467244D01*
X176231523Y-122749572D01*
X163865005Y-122749572D01*
X163871957Y-122608548D01*
X163830527Y-122328930D01*
X163735343Y-122062768D01*
X163668411Y-121937546D01*
X163424442Y-121865963D01*
X162611345Y-122679060D01*
X162252135Y-122679060D01*
X161439038Y-121865963D01*
X161195069Y-121937546D01*
X161074169Y-122193056D01*
X161005440Y-122467244D01*
X160991523Y-122749572D01*
X142340240Y-122749572D01*
X142340240Y-122474225D01*
X142285093Y-122196986D01*
X142176920Y-121935833D01*
X142019877Y-121700801D01*
X142005434Y-121686358D01*
X161618643Y-121686358D01*
X162431740Y-122499455D01*
X163244837Y-121686358D01*
X176858643Y-121686358D01*
X177671740Y-122499455D01*
X178484837Y-121686358D01*
X178413254Y-121442389D01*
X178157744Y-121321489D01*
X177883556Y-121252760D01*
X177601228Y-121238843D01*
X177321610Y-121280273D01*
X177055448Y-121375457D01*
X176930226Y-121442389D01*
X176858643Y-121686358D01*
X163244837Y-121686358D01*
X163173254Y-121442389D01*
X162917744Y-121321489D01*
X162643556Y-121252760D01*
X162361228Y-121238843D01*
X162081610Y-121280273D01*
X161815448Y-121375457D01*
X161690226Y-121442389D01*
X161618643Y-121686358D01*
X142005434Y-121686358D01*
X141819999Y-121500923D01*
X141584967Y-121343880D01*
X141323814Y-121235707D01*
X141046575Y-121180560D01*
X140763905Y-121180560D01*
X140486666Y-121235707D01*
X140225513Y-121343880D01*
X139990481Y-121500923D01*
X139790603Y-121700801D01*
X139633560Y-121935833D01*
X139525387Y-122196986D01*
X139470240Y-122474225D01*
X96938000Y-122474225D01*
X96938000Y-122321758D01*
X96804073Y-121648463D01*
X96541367Y-121014234D01*
X96159976Y-120443442D01*
X95674558Y-119958024D01*
X95103766Y-119576633D01*
X94469537Y-119313927D01*
X93796242Y-119180000D01*
X93109758Y-119180000D01*
X92436463Y-119313927D01*
X91802234Y-119576633D01*
X91231442Y-119958024D01*
X90746024Y-120443442D01*
X90364633Y-121014234D01*
X90235000Y-121327196D01*
X90235000Y-115415951D01*
X103379104Y-115415951D01*
X103476428Y-115690312D01*
X103625407Y-115940415D01*
X103820316Y-116156648D01*
X104053665Y-116330701D01*
X104316486Y-116455885D01*
X104463695Y-116500536D01*
X104693585Y-116379215D01*
X104693585Y-115186060D01*
X103499771Y-115186060D01*
X103379104Y-115415951D01*
X90235000Y-115415951D01*
X90235000Y-114702169D01*
X103379104Y-114702169D01*
X103499771Y-114932060D01*
X104693585Y-114932060D01*
X104693585Y-113738905D01*
X104947585Y-113738905D01*
X104947585Y-114932060D01*
X104967585Y-114932060D01*
X104967585Y-115186060D01*
X104947585Y-115186060D01*
X104947585Y-116379215D01*
X105177475Y-116500536D01*
X105324684Y-116455885D01*
X105587505Y-116330701D01*
X105820854Y-116156648D01*
X106015763Y-115940415D01*
X106085390Y-115823526D01*
X106207110Y-116005692D01*
X106413953Y-116212535D01*
X106657174Y-116375050D01*
X106927427Y-116486992D01*
X107214325Y-116544060D01*
X107506845Y-116544060D01*
X107793743Y-116486992D01*
X108063996Y-116375050D01*
X108307217Y-116212535D01*
X108514060Y-116005692D01*
X108630585Y-115831300D01*
X108747110Y-116005692D01*
X108953953Y-116212535D01*
X109197174Y-116375050D01*
X109467427Y-116486992D01*
X109754325Y-116544060D01*
X110046845Y-116544060D01*
X110333743Y-116486992D01*
X110603996Y-116375050D01*
X110847217Y-116212535D01*
X111054060Y-116005692D01*
X111216575Y-115762471D01*
X111328517Y-115492218D01*
X111385585Y-115205320D01*
X111385585Y-114912800D01*
X113829740Y-114912800D01*
X113829740Y-115205320D01*
X113886808Y-115492218D01*
X113998750Y-115762471D01*
X114161265Y-116005692D01*
X114368108Y-116212535D01*
X114611329Y-116375050D01*
X114881582Y-116486992D01*
X115168480Y-116544060D01*
X115461000Y-116544060D01*
X115747898Y-116486992D01*
X116018151Y-116375050D01*
X116261372Y-116212535D01*
X116468215Y-116005692D01*
X116584740Y-115831300D01*
X116701265Y-116005692D01*
X116908108Y-116212535D01*
X117151329Y-116375050D01*
X117421582Y-116486992D01*
X117708480Y-116544060D01*
X118001000Y-116544060D01*
X118287898Y-116486992D01*
X118558151Y-116375050D01*
X118801372Y-116212535D01*
X118926450Y-116087457D01*
X119545948Y-116087457D01*
X119623583Y-116336532D01*
X119887623Y-116462431D01*
X120171151Y-116534399D01*
X120463271Y-116549671D01*
X120752759Y-116507659D01*
X121028487Y-116409979D01*
X121165897Y-116336532D01*
X121243532Y-116087457D01*
X120394740Y-115238665D01*
X119545948Y-116087457D01*
X118926450Y-116087457D01*
X119008215Y-116005692D01*
X119124051Y-115832331D01*
X119366343Y-115907852D01*
X120215135Y-115059060D01*
X120574345Y-115059060D01*
X121423137Y-115907852D01*
X121672212Y-115830217D01*
X121798111Y-115566177D01*
X121852361Y-115352451D01*
X131783140Y-115352451D01*
X131880464Y-115626812D01*
X132029443Y-115876915D01*
X132224352Y-116093148D01*
X132457701Y-116267201D01*
X132720522Y-116392385D01*
X132867731Y-116437036D01*
X133097621Y-116315715D01*
X133097621Y-115122560D01*
X131903807Y-115122560D01*
X131783140Y-115352451D01*
X121852361Y-115352451D01*
X121870079Y-115282649D01*
X121885351Y-114990529D01*
X121843339Y-114701041D01*
X121821243Y-114638669D01*
X131783140Y-114638669D01*
X131903807Y-114868560D01*
X133097621Y-114868560D01*
X133097621Y-113675405D01*
X133351621Y-113675405D01*
X133351621Y-114868560D01*
X133371621Y-114868560D01*
X133371621Y-115122560D01*
X133351621Y-115122560D01*
X133351621Y-116315715D01*
X133581511Y-116437036D01*
X133728720Y-116392385D01*
X133991541Y-116267201D01*
X134224890Y-116093148D01*
X134419799Y-115876915D01*
X134489426Y-115760026D01*
X134611146Y-115942192D01*
X134817989Y-116149035D01*
X135061210Y-116311550D01*
X135331463Y-116423492D01*
X135618361Y-116480560D01*
X135910881Y-116480560D01*
X136197779Y-116423492D01*
X136468032Y-116311550D01*
X136711253Y-116149035D01*
X136918096Y-115942192D01*
X137080611Y-115698971D01*
X137192553Y-115428718D01*
X137249621Y-115141820D01*
X137249621Y-114854225D01*
X139470240Y-114854225D01*
X139470240Y-115136895D01*
X139525387Y-115414134D01*
X139633560Y-115675287D01*
X139790603Y-115910319D01*
X139990481Y-116110197D01*
X140225513Y-116267240D01*
X140486666Y-116375413D01*
X140763905Y-116430560D01*
X141046575Y-116430560D01*
X141323814Y-116375413D01*
X141584967Y-116267240D01*
X141819999Y-116110197D01*
X142019877Y-115910319D01*
X142176920Y-115675287D01*
X142284340Y-115415951D01*
X150433176Y-115415951D01*
X150530500Y-115690312D01*
X150679479Y-115940415D01*
X150874388Y-116156648D01*
X151107737Y-116330701D01*
X151370558Y-116455885D01*
X151517767Y-116500536D01*
X151747657Y-116379215D01*
X151747657Y-115186060D01*
X150553843Y-115186060D01*
X150433176Y-115415951D01*
X142284340Y-115415951D01*
X142285093Y-115414134D01*
X142340240Y-115136895D01*
X142340240Y-114854225D01*
X142309994Y-114702169D01*
X150433176Y-114702169D01*
X150553843Y-114932060D01*
X151747657Y-114932060D01*
X151747657Y-113738905D01*
X152001657Y-113738905D01*
X152001657Y-114932060D01*
X152021657Y-114932060D01*
X152021657Y-115186060D01*
X152001657Y-115186060D01*
X152001657Y-116379215D01*
X152231547Y-116500536D01*
X152378756Y-116455885D01*
X152641577Y-116330701D01*
X152874926Y-116156648D01*
X153069835Y-115940415D01*
X153139462Y-115823526D01*
X153261182Y-116005692D01*
X153468025Y-116212535D01*
X153711246Y-116375050D01*
X153981499Y-116486992D01*
X154268397Y-116544060D01*
X154560917Y-116544060D01*
X154847815Y-116486992D01*
X155118068Y-116375050D01*
X155361289Y-116212535D01*
X155568132Y-116005692D01*
X155684657Y-115831300D01*
X155801182Y-116005692D01*
X156008025Y-116212535D01*
X156251246Y-116375050D01*
X156521499Y-116486992D01*
X156808397Y-116544060D01*
X157100917Y-116544060D01*
X157387815Y-116486992D01*
X157658068Y-116375050D01*
X157901289Y-116212535D01*
X158108132Y-116005692D01*
X158270647Y-115762471D01*
X158382589Y-115492218D01*
X158439657Y-115205320D01*
X158439657Y-114917725D01*
X160996740Y-114917725D01*
X160996740Y-115200395D01*
X161051887Y-115477634D01*
X161160060Y-115738787D01*
X161317103Y-115973819D01*
X161516981Y-116173697D01*
X161752013Y-116330740D01*
X162013166Y-116438913D01*
X162290405Y-116494060D01*
X162573075Y-116494060D01*
X162850314Y-116438913D01*
X163111467Y-116330740D01*
X163346499Y-116173697D01*
X163546377Y-115973819D01*
X163703420Y-115738787D01*
X163811593Y-115477634D01*
X163823862Y-115415951D01*
X165802868Y-115415951D01*
X165900192Y-115690312D01*
X166049171Y-115940415D01*
X166244080Y-116156648D01*
X166477429Y-116330701D01*
X166740250Y-116455885D01*
X166887459Y-116500536D01*
X167117349Y-116379215D01*
X167117349Y-115186060D01*
X165923535Y-115186060D01*
X165802868Y-115415951D01*
X163823862Y-115415951D01*
X163866740Y-115200395D01*
X163866740Y-114917725D01*
X163823863Y-114702169D01*
X165802868Y-114702169D01*
X165923535Y-114932060D01*
X167117349Y-114932060D01*
X167117349Y-113738905D01*
X167371349Y-113738905D01*
X167371349Y-114932060D01*
X167391349Y-114932060D01*
X167391349Y-115186060D01*
X167371349Y-115186060D01*
X167371349Y-116379215D01*
X167601239Y-116500536D01*
X167748448Y-116455885D01*
X168011269Y-116330701D01*
X168244618Y-116156648D01*
X168439527Y-115940415D01*
X168509154Y-115823526D01*
X168630874Y-116005692D01*
X168837717Y-116212535D01*
X169080938Y-116375050D01*
X169351191Y-116486992D01*
X169638089Y-116544060D01*
X169930609Y-116544060D01*
X170217507Y-116486992D01*
X170487760Y-116375050D01*
X170730981Y-116212535D01*
X170937824Y-116005692D01*
X171054349Y-115831300D01*
X171170874Y-116005692D01*
X171377717Y-116212535D01*
X171620938Y-116375050D01*
X171891191Y-116486992D01*
X172178089Y-116544060D01*
X172470609Y-116544060D01*
X172757507Y-116486992D01*
X173027760Y-116375050D01*
X173270981Y-116212535D01*
X173477824Y-116005692D01*
X173640339Y-115762471D01*
X173752281Y-115492218D01*
X173809349Y-115205320D01*
X173809349Y-114917725D01*
X176236740Y-114917725D01*
X176236740Y-115200395D01*
X176291887Y-115477634D01*
X176400060Y-115738787D01*
X176557103Y-115973819D01*
X176756981Y-116173697D01*
X176992013Y-116330740D01*
X177253166Y-116438913D01*
X177530405Y-116494060D01*
X177813075Y-116494060D01*
X178090314Y-116438913D01*
X178351467Y-116330740D01*
X178586499Y-116173697D01*
X178786377Y-115973819D01*
X178943420Y-115738787D01*
X179051593Y-115477634D01*
X179106740Y-115200395D01*
X179106740Y-114917725D01*
X179051593Y-114640486D01*
X178943420Y-114379333D01*
X178786377Y-114144301D01*
X178586499Y-113944423D01*
X178351467Y-113787380D01*
X178090314Y-113679207D01*
X177813075Y-113624060D01*
X177530405Y-113624060D01*
X177253166Y-113679207D01*
X176992013Y-113787380D01*
X176756981Y-113944423D01*
X176557103Y-114144301D01*
X176400060Y-114379333D01*
X176291887Y-114640486D01*
X176236740Y-114917725D01*
X173809349Y-114917725D01*
X173809349Y-114912800D01*
X173752281Y-114625902D01*
X173640339Y-114355649D01*
X173477824Y-114112428D01*
X173270981Y-113905585D01*
X173027760Y-113743070D01*
X172757507Y-113631128D01*
X172470609Y-113574060D01*
X172178089Y-113574060D01*
X171891191Y-113631128D01*
X171620938Y-113743070D01*
X171377717Y-113905585D01*
X171170874Y-114112428D01*
X171054349Y-114286820D01*
X170937824Y-114112428D01*
X170730981Y-113905585D01*
X170487760Y-113743070D01*
X170217507Y-113631128D01*
X169930609Y-113574060D01*
X169638089Y-113574060D01*
X169351191Y-113631128D01*
X169080938Y-113743070D01*
X168837717Y-113905585D01*
X168630874Y-114112428D01*
X168509154Y-114294594D01*
X168439527Y-114177705D01*
X168244618Y-113961472D01*
X168011269Y-113787419D01*
X167748448Y-113662235D01*
X167601239Y-113617584D01*
X167371349Y-113738905D01*
X167117349Y-113738905D01*
X166887459Y-113617584D01*
X166740250Y-113662235D01*
X166477429Y-113787419D01*
X166244080Y-113961472D01*
X166049171Y-114177705D01*
X165900192Y-114427808D01*
X165802868Y-114702169D01*
X163823863Y-114702169D01*
X163811593Y-114640486D01*
X163703420Y-114379333D01*
X163546377Y-114144301D01*
X163346499Y-113944423D01*
X163111467Y-113787380D01*
X162850314Y-113679207D01*
X162573075Y-113624060D01*
X162290405Y-113624060D01*
X162013166Y-113679207D01*
X161752013Y-113787380D01*
X161516981Y-113944423D01*
X161317103Y-114144301D01*
X161160060Y-114379333D01*
X161051887Y-114640486D01*
X160996740Y-114917725D01*
X158439657Y-114917725D01*
X158439657Y-114912800D01*
X158382589Y-114625902D01*
X158270647Y-114355649D01*
X158108132Y-114112428D01*
X157901289Y-113905585D01*
X157658068Y-113743070D01*
X157387815Y-113631128D01*
X157100917Y-113574060D01*
X156808397Y-113574060D01*
X156521499Y-113631128D01*
X156251246Y-113743070D01*
X156008025Y-113905585D01*
X155801182Y-114112428D01*
X155684657Y-114286820D01*
X155568132Y-114112428D01*
X155361289Y-113905585D01*
X155118068Y-113743070D01*
X154847815Y-113631128D01*
X154560917Y-113574060D01*
X154268397Y-113574060D01*
X153981499Y-113631128D01*
X153711246Y-113743070D01*
X153468025Y-113905585D01*
X153261182Y-114112428D01*
X153139462Y-114294594D01*
X153069835Y-114177705D01*
X152874926Y-113961472D01*
X152641577Y-113787419D01*
X152378756Y-113662235D01*
X152231547Y-113617584D01*
X152001657Y-113738905D01*
X151747657Y-113738905D01*
X151517767Y-113617584D01*
X151370558Y-113662235D01*
X151107737Y-113787419D01*
X150874388Y-113961472D01*
X150679479Y-114177705D01*
X150530500Y-114427808D01*
X150433176Y-114702169D01*
X142309994Y-114702169D01*
X142285093Y-114576986D01*
X142176920Y-114315833D01*
X142019877Y-114080801D01*
X141819999Y-113880923D01*
X141584967Y-113723880D01*
X141323814Y-113615707D01*
X141046575Y-113560560D01*
X140763905Y-113560560D01*
X140486666Y-113615707D01*
X140225513Y-113723880D01*
X139990481Y-113880923D01*
X139790603Y-114080801D01*
X139633560Y-114315833D01*
X139525387Y-114576986D01*
X139470240Y-114854225D01*
X137249621Y-114854225D01*
X137249621Y-114849300D01*
X137192553Y-114562402D01*
X137080611Y-114292149D01*
X136918096Y-114048928D01*
X136711253Y-113842085D01*
X136468032Y-113679570D01*
X136197779Y-113567628D01*
X135910881Y-113510560D01*
X135618361Y-113510560D01*
X135331463Y-113567628D01*
X135061210Y-113679570D01*
X134817989Y-113842085D01*
X134611146Y-114048928D01*
X134489426Y-114231094D01*
X134419799Y-114114205D01*
X134224890Y-113897972D01*
X133991541Y-113723919D01*
X133728720Y-113598735D01*
X133581511Y-113554084D01*
X133351621Y-113675405D01*
X133097621Y-113675405D01*
X132867731Y-113554084D01*
X132720522Y-113598735D01*
X132457701Y-113723919D01*
X132224352Y-113897972D01*
X132029443Y-114114205D01*
X131880464Y-114364308D01*
X131783140Y-114638669D01*
X121821243Y-114638669D01*
X121745659Y-114425313D01*
X121672212Y-114287903D01*
X121423137Y-114210268D01*
X120574345Y-115059060D01*
X120215135Y-115059060D01*
X119366343Y-114210268D01*
X119124051Y-114285789D01*
X119008215Y-114112428D01*
X118926450Y-114030663D01*
X119545948Y-114030663D01*
X120394740Y-114879455D01*
X121243532Y-114030663D01*
X121165897Y-113781588D01*
X120901857Y-113655689D01*
X120618329Y-113583721D01*
X120326209Y-113568449D01*
X120036721Y-113610461D01*
X119760993Y-113708141D01*
X119623583Y-113781588D01*
X119545948Y-114030663D01*
X118926450Y-114030663D01*
X118801372Y-113905585D01*
X118558151Y-113743070D01*
X118287898Y-113631128D01*
X118001000Y-113574060D01*
X117708480Y-113574060D01*
X117421582Y-113631128D01*
X117151329Y-113743070D01*
X116908108Y-113905585D01*
X116701265Y-114112428D01*
X116584740Y-114286820D01*
X116468215Y-114112428D01*
X116261372Y-113905585D01*
X116018151Y-113743070D01*
X115747898Y-113631128D01*
X115461000Y-113574060D01*
X115168480Y-113574060D01*
X114881582Y-113631128D01*
X114611329Y-113743070D01*
X114368108Y-113905585D01*
X114161265Y-114112428D01*
X113998750Y-114355649D01*
X113886808Y-114625902D01*
X113829740Y-114912800D01*
X111385585Y-114912800D01*
X111328517Y-114625902D01*
X111216575Y-114355649D01*
X111054060Y-114112428D01*
X110847217Y-113905585D01*
X110603996Y-113743070D01*
X110333743Y-113631128D01*
X110046845Y-113574060D01*
X109754325Y-113574060D01*
X109467427Y-113631128D01*
X109197174Y-113743070D01*
X108953953Y-113905585D01*
X108747110Y-114112428D01*
X108630585Y-114286820D01*
X108514060Y-114112428D01*
X108307217Y-113905585D01*
X108063996Y-113743070D01*
X107793743Y-113631128D01*
X107506845Y-113574060D01*
X107214325Y-113574060D01*
X106927427Y-113631128D01*
X106657174Y-113743070D01*
X106413953Y-113905585D01*
X106207110Y-114112428D01*
X106085390Y-114294594D01*
X106015763Y-114177705D01*
X105820854Y-113961472D01*
X105587505Y-113787419D01*
X105324684Y-113662235D01*
X105177475Y-113617584D01*
X104947585Y-113738905D01*
X104693585Y-113738905D01*
X104463695Y-113617584D01*
X104316486Y-113662235D01*
X104053665Y-113787419D01*
X103820316Y-113961472D01*
X103625407Y-114177705D01*
X103476428Y-114427808D01*
X103379104Y-114702169D01*
X90235000Y-114702169D01*
X90235000Y-79814560D01*
X92798540Y-79814560D01*
X92798540Y-80107080D01*
X92855608Y-80393978D01*
X92967550Y-80664231D01*
X93130065Y-80907452D01*
X93336908Y-81114295D01*
X93511300Y-81230820D01*
X93336908Y-81347345D01*
X93130065Y-81554188D01*
X92967550Y-81797409D01*
X92855608Y-82067662D01*
X92798540Y-82354560D01*
X92798540Y-82647080D01*
X92855608Y-82933978D01*
X92967550Y-83204231D01*
X93130065Y-83447452D01*
X93336908Y-83654295D01*
X93511300Y-83770820D01*
X93336908Y-83887345D01*
X93130065Y-84094188D01*
X92967550Y-84337409D01*
X92855608Y-84607662D01*
X92798540Y-84894560D01*
X92798540Y-85187080D01*
X92855608Y-85473978D01*
X92967550Y-85744231D01*
X93130065Y-85987452D01*
X93336908Y-86194295D01*
X93511300Y-86310820D01*
X93336908Y-86427345D01*
X93130065Y-86634188D01*
X92967550Y-86877409D01*
X92855608Y-87147662D01*
X92798540Y-87434560D01*
X92798540Y-87727080D01*
X92855608Y-88013978D01*
X92967550Y-88284231D01*
X93130065Y-88527452D01*
X93336908Y-88734295D01*
X93511300Y-88850820D01*
X93336908Y-88967345D01*
X93130065Y-89174188D01*
X92967550Y-89417409D01*
X92855608Y-89687662D01*
X92798540Y-89974560D01*
X92798540Y-90267080D01*
X92855608Y-90553978D01*
X92967550Y-90824231D01*
X93130065Y-91067452D01*
X93336908Y-91274295D01*
X93511300Y-91390820D01*
X93336908Y-91507345D01*
X93130065Y-91714188D01*
X92967550Y-91957409D01*
X92855608Y-92227662D01*
X92798540Y-92514560D01*
X92798540Y-92807080D01*
X92855608Y-93093978D01*
X92967550Y-93364231D01*
X93130065Y-93607452D01*
X93336908Y-93814295D01*
X93511300Y-93930820D01*
X93336908Y-94047345D01*
X93130065Y-94254188D01*
X92967550Y-94497409D01*
X92855608Y-94767662D01*
X92798540Y-95054560D01*
X92798540Y-95347080D01*
X92855608Y-95633978D01*
X92967550Y-95904231D01*
X93130065Y-96147452D01*
X93336908Y-96354295D01*
X93511300Y-96470820D01*
X93336908Y-96587345D01*
X93130065Y-96794188D01*
X92967550Y-97037409D01*
X92855608Y-97307662D01*
X92798540Y-97594560D01*
X92798540Y-97887080D01*
X92855608Y-98173978D01*
X92967550Y-98444231D01*
X93130065Y-98687452D01*
X93336908Y-98894295D01*
X93511300Y-99010820D01*
X93336908Y-99127345D01*
X93130065Y-99334188D01*
X92967550Y-99577409D01*
X92855608Y-99847662D01*
X92798540Y-100134560D01*
X92798540Y-100427080D01*
X92855608Y-100713978D01*
X92967550Y-100984231D01*
X93130065Y-101227452D01*
X93336908Y-101434295D01*
X93511300Y-101550820D01*
X93336908Y-101667345D01*
X93130065Y-101874188D01*
X92967550Y-102117409D01*
X92855608Y-102387662D01*
X92798540Y-102674560D01*
X92798540Y-102967080D01*
X92855608Y-103253978D01*
X92967550Y-103524231D01*
X93130065Y-103767452D01*
X93336908Y-103974295D01*
X93580129Y-104136810D01*
X93850382Y-104248752D01*
X94137280Y-104305820D01*
X94429800Y-104305820D01*
X94716698Y-104248752D01*
X94986951Y-104136810D01*
X95230172Y-103974295D01*
X95355250Y-103849217D01*
X95974748Y-103849217D01*
X96052383Y-104098292D01*
X96316423Y-104224191D01*
X96599951Y-104296159D01*
X96892071Y-104311431D01*
X97181559Y-104269419D01*
X97457287Y-104171739D01*
X97594697Y-104098292D01*
X97650595Y-103918955D01*
X112798580Y-103918955D01*
X112798580Y-104197685D01*
X112852957Y-104471060D01*
X112959623Y-104728574D01*
X113114477Y-104960330D01*
X113311570Y-105157423D01*
X113543326Y-105312277D01*
X113800840Y-105418943D01*
X114074215Y-105473320D01*
X114352945Y-105473320D01*
X114626320Y-105418943D01*
X114883834Y-105312277D01*
X115115590Y-105157423D01*
X115312683Y-104960330D01*
X115467537Y-104728574D01*
X115483580Y-104689843D01*
X115499623Y-104728574D01*
X115654477Y-104960330D01*
X115851570Y-105157423D01*
X116083326Y-105312277D01*
X116340840Y-105418943D01*
X116614215Y-105473320D01*
X116892945Y-105473320D01*
X117166320Y-105418943D01*
X117423834Y-105312277D01*
X117655590Y-105157423D01*
X117852683Y-104960330D01*
X118007537Y-104728574D01*
X118023580Y-104689843D01*
X118039623Y-104728574D01*
X118194477Y-104960330D01*
X118391570Y-105157423D01*
X118623326Y-105312277D01*
X118880840Y-105418943D01*
X119154215Y-105473320D01*
X119432945Y-105473320D01*
X119706320Y-105418943D01*
X119963834Y-105312277D01*
X120195590Y-105157423D01*
X120392683Y-104960330D01*
X120547537Y-104728574D01*
X120563580Y-104689843D01*
X120579623Y-104728574D01*
X120734477Y-104960330D01*
X120931570Y-105157423D01*
X121163326Y-105312277D01*
X121420840Y-105418943D01*
X121694215Y-105473320D01*
X121972945Y-105473320D01*
X122246320Y-105418943D01*
X122503834Y-105312277D01*
X122735590Y-105157423D01*
X122932683Y-104960330D01*
X123087537Y-104728574D01*
X123103580Y-104689843D01*
X123119623Y-104728574D01*
X123274477Y-104960330D01*
X123471570Y-105157423D01*
X123703326Y-105312277D01*
X123960840Y-105418943D01*
X124234215Y-105473320D01*
X124512945Y-105473320D01*
X124786320Y-105418943D01*
X125043834Y-105312277D01*
X125275590Y-105157423D01*
X125472683Y-104960330D01*
X125627537Y-104728574D01*
X125643580Y-104689843D01*
X125659623Y-104728574D01*
X125814477Y-104960330D01*
X126011570Y-105157423D01*
X126243326Y-105312277D01*
X126500840Y-105418943D01*
X126774215Y-105473320D01*
X127052945Y-105473320D01*
X127326320Y-105418943D01*
X127583834Y-105312277D01*
X127815590Y-105157423D01*
X128012683Y-104960330D01*
X128167537Y-104728574D01*
X128183580Y-104689843D01*
X128199623Y-104728574D01*
X128354477Y-104960330D01*
X128551570Y-105157423D01*
X128783326Y-105312277D01*
X129040840Y-105418943D01*
X129314215Y-105473320D01*
X129592945Y-105473320D01*
X129866320Y-105418943D01*
X130123834Y-105312277D01*
X130355590Y-105157423D01*
X130552683Y-104960330D01*
X130707537Y-104728574D01*
X130723580Y-104689843D01*
X130739623Y-104728574D01*
X130894477Y-104960330D01*
X131091570Y-105157423D01*
X131323326Y-105312277D01*
X131580840Y-105418943D01*
X131854215Y-105473320D01*
X132132945Y-105473320D01*
X132406320Y-105418943D01*
X132663834Y-105312277D01*
X132895590Y-105157423D01*
X133092683Y-104960330D01*
X133247537Y-104728574D01*
X133263580Y-104689843D01*
X133279623Y-104728574D01*
X133434477Y-104960330D01*
X133631570Y-105157423D01*
X133863326Y-105312277D01*
X134120840Y-105418943D01*
X134394215Y-105473320D01*
X134672945Y-105473320D01*
X134946320Y-105418943D01*
X135203834Y-105312277D01*
X135435590Y-105157423D01*
X135632683Y-104960330D01*
X135787537Y-104728574D01*
X135803580Y-104689843D01*
X135819623Y-104728574D01*
X135974477Y-104960330D01*
X136171570Y-105157423D01*
X136403326Y-105312277D01*
X136660840Y-105418943D01*
X136934215Y-105473320D01*
X137212945Y-105473320D01*
X137486320Y-105418943D01*
X137743834Y-105312277D01*
X137975590Y-105157423D01*
X138172683Y-104960330D01*
X138327537Y-104728574D01*
X138343580Y-104689843D01*
X138359623Y-104728574D01*
X138514477Y-104960330D01*
X138711570Y-105157423D01*
X138943326Y-105312277D01*
X139200840Y-105418943D01*
X139474215Y-105473320D01*
X139752945Y-105473320D01*
X140026320Y-105418943D01*
X140283834Y-105312277D01*
X140515590Y-105157423D01*
X140712683Y-104960330D01*
X140867537Y-104728574D01*
X140883580Y-104689843D01*
X140899623Y-104728574D01*
X141054477Y-104960330D01*
X141251570Y-105157423D01*
X141483326Y-105312277D01*
X141740840Y-105418943D01*
X142014215Y-105473320D01*
X142292945Y-105473320D01*
X142566320Y-105418943D01*
X142823834Y-105312277D01*
X143055590Y-105157423D01*
X143252683Y-104960330D01*
X143407537Y-104728574D01*
X143423580Y-104689843D01*
X143439623Y-104728574D01*
X143594477Y-104960330D01*
X143791570Y-105157423D01*
X144023326Y-105312277D01*
X144280840Y-105418943D01*
X144554215Y-105473320D01*
X144832945Y-105473320D01*
X145106320Y-105418943D01*
X145363834Y-105312277D01*
X145595590Y-105157423D01*
X145792683Y-104960330D01*
X145947537Y-104728574D01*
X145963580Y-104689843D01*
X145979623Y-104728574D01*
X146134477Y-104960330D01*
X146331570Y-105157423D01*
X146563326Y-105312277D01*
X146820840Y-105418943D01*
X147094215Y-105473320D01*
X147372945Y-105473320D01*
X147646320Y-105418943D01*
X147903834Y-105312277D01*
X148135590Y-105157423D01*
X148332683Y-104960330D01*
X148487537Y-104728574D01*
X148503580Y-104689843D01*
X148519623Y-104728574D01*
X148674477Y-104960330D01*
X148871570Y-105157423D01*
X149103326Y-105312277D01*
X149360840Y-105418943D01*
X149634215Y-105473320D01*
X149912945Y-105473320D01*
X150186320Y-105418943D01*
X150443834Y-105312277D01*
X150675590Y-105157423D01*
X150872683Y-104960330D01*
X151027537Y-104728574D01*
X151134203Y-104471060D01*
X151188580Y-104197685D01*
X151188580Y-103918955D01*
X151134203Y-103645580D01*
X151027537Y-103388066D01*
X150872683Y-103156310D01*
X150675590Y-102959217D01*
X150443834Y-102804363D01*
X150186320Y-102697697D01*
X149912945Y-102643320D01*
X149634215Y-102643320D01*
X149360840Y-102697697D01*
X149103326Y-102804363D01*
X148871570Y-102959217D01*
X148674477Y-103156310D01*
X148519623Y-103388066D01*
X148503580Y-103426797D01*
X148487537Y-103388066D01*
X148332683Y-103156310D01*
X148135590Y-102959217D01*
X147903834Y-102804363D01*
X147646320Y-102697697D01*
X147372945Y-102643320D01*
X147094215Y-102643320D01*
X146820840Y-102697697D01*
X146563326Y-102804363D01*
X146331570Y-102959217D01*
X146134477Y-103156310D01*
X145979623Y-103388066D01*
X145963580Y-103426797D01*
X145947537Y-103388066D01*
X145792683Y-103156310D01*
X145595590Y-102959217D01*
X145363834Y-102804363D01*
X145106320Y-102697697D01*
X144832945Y-102643320D01*
X144554215Y-102643320D01*
X144280840Y-102697697D01*
X144023326Y-102804363D01*
X143791570Y-102959217D01*
X143594477Y-103156310D01*
X143439623Y-103388066D01*
X143423580Y-103426797D01*
X143407537Y-103388066D01*
X143252683Y-103156310D01*
X143055590Y-102959217D01*
X142823834Y-102804363D01*
X142566320Y-102697697D01*
X142292945Y-102643320D01*
X142014215Y-102643320D01*
X141740840Y-102697697D01*
X141483326Y-102804363D01*
X141251570Y-102959217D01*
X141054477Y-103156310D01*
X140899623Y-103388066D01*
X140883580Y-103426797D01*
X140867537Y-103388066D01*
X140712683Y-103156310D01*
X140515590Y-102959217D01*
X140283834Y-102804363D01*
X140026320Y-102697697D01*
X139752945Y-102643320D01*
X139474215Y-102643320D01*
X139200840Y-102697697D01*
X138943326Y-102804363D01*
X138711570Y-102959217D01*
X138514477Y-103156310D01*
X138359623Y-103388066D01*
X138343580Y-103426797D01*
X138327537Y-103388066D01*
X138172683Y-103156310D01*
X137975590Y-102959217D01*
X137743834Y-102804363D01*
X137486320Y-102697697D01*
X137212945Y-102643320D01*
X136934215Y-102643320D01*
X136660840Y-102697697D01*
X136403326Y-102804363D01*
X136171570Y-102959217D01*
X135974477Y-103156310D01*
X135819623Y-103388066D01*
X135803580Y-103426797D01*
X135787537Y-103388066D01*
X135632683Y-103156310D01*
X135435590Y-102959217D01*
X135203834Y-102804363D01*
X134946320Y-102697697D01*
X134672945Y-102643320D01*
X134394215Y-102643320D01*
X134120840Y-102697697D01*
X133863326Y-102804363D01*
X133631570Y-102959217D01*
X133434477Y-103156310D01*
X133279623Y-103388066D01*
X133263580Y-103426797D01*
X133247537Y-103388066D01*
X133092683Y-103156310D01*
X132895590Y-102959217D01*
X132663834Y-102804363D01*
X132406320Y-102697697D01*
X132132945Y-102643320D01*
X131854215Y-102643320D01*
X131580840Y-102697697D01*
X131323326Y-102804363D01*
X131091570Y-102959217D01*
X130894477Y-103156310D01*
X130739623Y-103388066D01*
X130723580Y-103426797D01*
X130707537Y-103388066D01*
X130552683Y-103156310D01*
X130355590Y-102959217D01*
X130123834Y-102804363D01*
X129866320Y-102697697D01*
X129592945Y-102643320D01*
X129314215Y-102643320D01*
X129040840Y-102697697D01*
X128783326Y-102804363D01*
X128551570Y-102959217D01*
X128354477Y-103156310D01*
X128199623Y-103388066D01*
X128183580Y-103426797D01*
X128167537Y-103388066D01*
X128012683Y-103156310D01*
X127815590Y-102959217D01*
X127583834Y-102804363D01*
X127326320Y-102697697D01*
X127052945Y-102643320D01*
X126774215Y-102643320D01*
X126500840Y-102697697D01*
X126243326Y-102804363D01*
X126011570Y-102959217D01*
X125814477Y-103156310D01*
X125659623Y-103388066D01*
X125643580Y-103426797D01*
X125627537Y-103388066D01*
X125472683Y-103156310D01*
X125275590Y-102959217D01*
X125043834Y-102804363D01*
X124786320Y-102697697D01*
X124512945Y-102643320D01*
X124234215Y-102643320D01*
X123960840Y-102697697D01*
X123703326Y-102804363D01*
X123471570Y-102959217D01*
X123274477Y-103156310D01*
X123119623Y-103388066D01*
X123103580Y-103426797D01*
X123087537Y-103388066D01*
X122932683Y-103156310D01*
X122735590Y-102959217D01*
X122503834Y-102804363D01*
X122246320Y-102697697D01*
X121972945Y-102643320D01*
X121694215Y-102643320D01*
X121420840Y-102697697D01*
X121163326Y-102804363D01*
X120931570Y-102959217D01*
X120734477Y-103156310D01*
X120579623Y-103388066D01*
X120563580Y-103426797D01*
X120547537Y-103388066D01*
X120392683Y-103156310D01*
X120195590Y-102959217D01*
X119963834Y-102804363D01*
X119706320Y-102697697D01*
X119432945Y-102643320D01*
X119154215Y-102643320D01*
X118880840Y-102697697D01*
X118623326Y-102804363D01*
X118391570Y-102959217D01*
X118194477Y-103156310D01*
X118039623Y-103388066D01*
X118023580Y-103426797D01*
X118007537Y-103388066D01*
X117852683Y-103156310D01*
X117655590Y-102959217D01*
X117423834Y-102804363D01*
X117166320Y-102697697D01*
X116892945Y-102643320D01*
X116614215Y-102643320D01*
X116340840Y-102697697D01*
X116083326Y-102804363D01*
X115851570Y-102959217D01*
X115654477Y-103156310D01*
X115499623Y-103388066D01*
X115483580Y-103426797D01*
X115467537Y-103388066D01*
X115312683Y-103156310D01*
X115115590Y-102959217D01*
X114883834Y-102804363D01*
X114626320Y-102697697D01*
X114352945Y-102643320D01*
X114074215Y-102643320D01*
X113800840Y-102697697D01*
X113543326Y-102804363D01*
X113311570Y-102959217D01*
X113114477Y-103156310D01*
X112959623Y-103388066D01*
X112852957Y-103645580D01*
X112798580Y-103918955D01*
X97650595Y-103918955D01*
X97672332Y-103849217D01*
X96823540Y-103000425D01*
X95974748Y-103849217D01*
X95355250Y-103849217D01*
X95437015Y-103767452D01*
X95552851Y-103594091D01*
X95795143Y-103669612D01*
X96643935Y-102820820D01*
X97003145Y-102820820D01*
X97851937Y-103669612D01*
X98101012Y-103591977D01*
X98226911Y-103327937D01*
X98298879Y-103044409D01*
X98314151Y-102752289D01*
X98272139Y-102462801D01*
X98174459Y-102187073D01*
X98101012Y-102049663D01*
X97851937Y-101972028D01*
X97003145Y-102820820D01*
X96643935Y-102820820D01*
X95795143Y-101972028D01*
X95552851Y-102047549D01*
X95437015Y-101874188D01*
X95230172Y-101667345D01*
X95055780Y-101550820D01*
X95230172Y-101434295D01*
X95437015Y-101227452D01*
X95554640Y-101051414D01*
X95725952Y-101281089D01*
X95942185Y-101475998D01*
X96053895Y-101542540D01*
X96052383Y-101543348D01*
X95974748Y-101792423D01*
X96823540Y-102641215D01*
X97672332Y-101792423D01*
X97594697Y-101543348D01*
X97593104Y-101542589D01*
X97704895Y-101475998D01*
X97921128Y-101281089D01*
X98095181Y-101047740D01*
X98220365Y-100784919D01*
X98265016Y-100637710D01*
X98143695Y-100407820D01*
X96950540Y-100407820D01*
X96950540Y-100427820D01*
X96696540Y-100427820D01*
X96696540Y-100407820D01*
X96676540Y-100407820D01*
X96676540Y-100153820D01*
X96696540Y-100153820D01*
X96696540Y-97867820D01*
X96950540Y-97867820D01*
X96950540Y-100153820D01*
X98143695Y-100153820D01*
X98265016Y-99923930D01*
X98222743Y-99784560D01*
X173509580Y-99784560D01*
X173509580Y-100077080D01*
X173566648Y-100363978D01*
X173678590Y-100634231D01*
X173841105Y-100877452D01*
X174047948Y-101084295D01*
X174291169Y-101246810D01*
X174561422Y-101358752D01*
X174848320Y-101415820D01*
X175140840Y-101415820D01*
X175427738Y-101358752D01*
X175697991Y-101246810D01*
X175941212Y-101084295D01*
X176148055Y-100877452D01*
X176310570Y-100634231D01*
X176422512Y-100363978D01*
X176479580Y-100077080D01*
X176479580Y-99784560D01*
X176422512Y-99497662D01*
X176310570Y-99227409D01*
X176148055Y-98984188D01*
X175941212Y-98777345D01*
X175759046Y-98655625D01*
X175875935Y-98585998D01*
X176092168Y-98391089D01*
X176266221Y-98157740D01*
X176391405Y-97894919D01*
X176436056Y-97747710D01*
X176314735Y-97517820D01*
X175121580Y-97517820D01*
X175121580Y-97537820D01*
X174867580Y-97537820D01*
X174867580Y-97517820D01*
X173674425Y-97517820D01*
X173553104Y-97747710D01*
X173597755Y-97894919D01*
X173722939Y-98157740D01*
X173896992Y-98391089D01*
X174113225Y-98585998D01*
X174230114Y-98655625D01*
X174047948Y-98777345D01*
X173841105Y-98984188D01*
X173678590Y-99227409D01*
X173566648Y-99497662D01*
X173509580Y-99784560D01*
X98222743Y-99784560D01*
X98220365Y-99776721D01*
X98095181Y-99513900D01*
X97921128Y-99280551D01*
X97704895Y-99085642D01*
X97579285Y-99010820D01*
X97704895Y-98935998D01*
X97921128Y-98741089D01*
X98095181Y-98507740D01*
X98220365Y-98244919D01*
X98265016Y-98097710D01*
X98143695Y-97867820D01*
X96950540Y-97867820D01*
X96696540Y-97867820D01*
X96676540Y-97867820D01*
X96676540Y-97613820D01*
X96696540Y-97613820D01*
X96696540Y-95327820D01*
X96950540Y-95327820D01*
X96950540Y-97613820D01*
X98143695Y-97613820D01*
X98265016Y-97383930D01*
X98220365Y-97236721D01*
X98095181Y-96973900D01*
X97921128Y-96740551D01*
X97704895Y-96545642D01*
X97579285Y-96470820D01*
X97704895Y-96395998D01*
X97921128Y-96201089D01*
X98095181Y-95967740D01*
X98220365Y-95704919D01*
X98265016Y-95557710D01*
X98143695Y-95327820D01*
X96950540Y-95327820D01*
X96696540Y-95327820D01*
X96676540Y-95327820D01*
X96676540Y-95073820D01*
X96696540Y-95073820D01*
X96696540Y-92787820D01*
X96950540Y-92787820D01*
X96950540Y-95073820D01*
X98143695Y-95073820D01*
X98265016Y-94843930D01*
X98222743Y-94704560D01*
X173509580Y-94704560D01*
X173509580Y-94997080D01*
X173566648Y-95283978D01*
X173678590Y-95554231D01*
X173841105Y-95797452D01*
X174047948Y-96004295D01*
X174230114Y-96126015D01*
X174113225Y-96195642D01*
X173896992Y-96390551D01*
X173722939Y-96623900D01*
X173597755Y-96886721D01*
X173553104Y-97033930D01*
X173674425Y-97263820D01*
X174867580Y-97263820D01*
X174867580Y-97243820D01*
X175121580Y-97243820D01*
X175121580Y-97263820D01*
X176314735Y-97263820D01*
X176436056Y-97033930D01*
X176391405Y-96886721D01*
X176266221Y-96623900D01*
X176092168Y-96390551D01*
X175875935Y-96195642D01*
X175759046Y-96126015D01*
X175941212Y-96004295D01*
X176148055Y-95797452D01*
X176310570Y-95554231D01*
X176422512Y-95283978D01*
X176479580Y-94997080D01*
X176479580Y-94704560D01*
X176422512Y-94417662D01*
X176310570Y-94147409D01*
X176148055Y-93904188D01*
X175941212Y-93697345D01*
X175697991Y-93534830D01*
X175427738Y-93422888D01*
X175140840Y-93365820D01*
X174848320Y-93365820D01*
X174561422Y-93422888D01*
X174291169Y-93534830D01*
X174047948Y-93697345D01*
X173841105Y-93904188D01*
X173678590Y-94147409D01*
X173566648Y-94417662D01*
X173509580Y-94704560D01*
X98222743Y-94704560D01*
X98220365Y-94696721D01*
X98095181Y-94433900D01*
X97921128Y-94200551D01*
X97704895Y-94005642D01*
X97579285Y-93930820D01*
X97704895Y-93855998D01*
X97921128Y-93661089D01*
X98095181Y-93427740D01*
X98220365Y-93164919D01*
X98265016Y-93017710D01*
X98143695Y-92787820D01*
X96950540Y-92787820D01*
X96696540Y-92787820D01*
X96676540Y-92787820D01*
X96676540Y-92533820D01*
X96696540Y-92533820D01*
X96696540Y-90247820D01*
X96950540Y-90247820D01*
X96950540Y-92533820D01*
X98143695Y-92533820D01*
X98265016Y-92303930D01*
X98220365Y-92156721D01*
X98095181Y-91893900D01*
X97921128Y-91660551D01*
X97704895Y-91465642D01*
X97579285Y-91390820D01*
X97704895Y-91315998D01*
X97921128Y-91121089D01*
X98095181Y-90887740D01*
X98220365Y-90624919D01*
X98265016Y-90477710D01*
X98143695Y-90247820D01*
X96950540Y-90247820D01*
X96696540Y-90247820D01*
X96676540Y-90247820D01*
X96676540Y-89993820D01*
X96696540Y-89993820D01*
X96696540Y-87707820D01*
X96950540Y-87707820D01*
X96950540Y-89993820D01*
X98143695Y-89993820D01*
X98265016Y-89763930D01*
X98220365Y-89616721D01*
X98095181Y-89353900D01*
X97921128Y-89120551D01*
X97704895Y-88925642D01*
X97579285Y-88850820D01*
X97704895Y-88775998D01*
X97921128Y-88581089D01*
X98095181Y-88347740D01*
X98220365Y-88084919D01*
X98265016Y-87937710D01*
X98143695Y-87707820D01*
X96950540Y-87707820D01*
X96696540Y-87707820D01*
X96676540Y-87707820D01*
X96676540Y-87453820D01*
X96696540Y-87453820D01*
X96696540Y-85167820D01*
X96950540Y-85167820D01*
X96950540Y-87453820D01*
X98143695Y-87453820D01*
X98265016Y-87223930D01*
X98220365Y-87076721D01*
X98103117Y-86830560D01*
X173509580Y-86830560D01*
X173509580Y-87123080D01*
X173566648Y-87409978D01*
X173678590Y-87680231D01*
X173841105Y-87923452D01*
X174047948Y-88130295D01*
X174291169Y-88292810D01*
X174561422Y-88404752D01*
X174848320Y-88461820D01*
X175140840Y-88461820D01*
X175427738Y-88404752D01*
X175697991Y-88292810D01*
X175941212Y-88130295D01*
X176148055Y-87923452D01*
X176310570Y-87680231D01*
X176422512Y-87409978D01*
X176479580Y-87123080D01*
X176479580Y-86830560D01*
X176422512Y-86543662D01*
X176310570Y-86273409D01*
X176148055Y-86030188D01*
X175941212Y-85823345D01*
X175759046Y-85701625D01*
X175875935Y-85631998D01*
X176092168Y-85437089D01*
X176266221Y-85203740D01*
X176391405Y-84940919D01*
X176436056Y-84793710D01*
X176314735Y-84563820D01*
X175121580Y-84563820D01*
X175121580Y-84583820D01*
X174867580Y-84583820D01*
X174867580Y-84563820D01*
X173674425Y-84563820D01*
X173553104Y-84793710D01*
X173597755Y-84940919D01*
X173722939Y-85203740D01*
X173896992Y-85437089D01*
X174113225Y-85631998D01*
X174230114Y-85701625D01*
X174047948Y-85823345D01*
X173841105Y-86030188D01*
X173678590Y-86273409D01*
X173566648Y-86543662D01*
X173509580Y-86830560D01*
X98103117Y-86830560D01*
X98095181Y-86813900D01*
X97921128Y-86580551D01*
X97704895Y-86385642D01*
X97579285Y-86310820D01*
X97704895Y-86235998D01*
X97921128Y-86041089D01*
X98095181Y-85807740D01*
X98220365Y-85544919D01*
X98265016Y-85397710D01*
X98143695Y-85167820D01*
X96950540Y-85167820D01*
X96696540Y-85167820D01*
X96676540Y-85167820D01*
X96676540Y-84913820D01*
X96696540Y-84913820D01*
X96696540Y-82627820D01*
X96950540Y-82627820D01*
X96950540Y-84913820D01*
X98143695Y-84913820D01*
X98265016Y-84683930D01*
X98220365Y-84536721D01*
X98095181Y-84273900D01*
X97921128Y-84040551D01*
X97704895Y-83845642D01*
X97579285Y-83770820D01*
X97704895Y-83695998D01*
X97921128Y-83501089D01*
X98095181Y-83267740D01*
X98220365Y-83004919D01*
X98265016Y-82857710D01*
X98143695Y-82627820D01*
X96950540Y-82627820D01*
X96696540Y-82627820D01*
X96676540Y-82627820D01*
X96676540Y-82373820D01*
X96696540Y-82373820D01*
X96696540Y-80087820D01*
X96950540Y-80087820D01*
X96950540Y-82373820D01*
X98143695Y-82373820D01*
X98265016Y-82143930D01*
X98220365Y-81996721D01*
X98103117Y-81750560D01*
X173509580Y-81750560D01*
X173509580Y-82043080D01*
X173566648Y-82329978D01*
X173678590Y-82600231D01*
X173841105Y-82843452D01*
X174047948Y-83050295D01*
X174230114Y-83172015D01*
X174113225Y-83241642D01*
X173896992Y-83436551D01*
X173722939Y-83669900D01*
X173597755Y-83932721D01*
X173553104Y-84079930D01*
X173674425Y-84309820D01*
X174867580Y-84309820D01*
X174867580Y-84289820D01*
X175121580Y-84289820D01*
X175121580Y-84309820D01*
X176314735Y-84309820D01*
X176436056Y-84079930D01*
X176391405Y-83932721D01*
X176266221Y-83669900D01*
X176092168Y-83436551D01*
X175875935Y-83241642D01*
X175759046Y-83172015D01*
X175941212Y-83050295D01*
X176148055Y-82843452D01*
X176310570Y-82600231D01*
X176422512Y-82329978D01*
X176479580Y-82043080D01*
X176479580Y-81750560D01*
X176422512Y-81463662D01*
X176310570Y-81193409D01*
X176148055Y-80950188D01*
X175941212Y-80743345D01*
X175697991Y-80580830D01*
X175427738Y-80468888D01*
X175140840Y-80411820D01*
X174848320Y-80411820D01*
X174561422Y-80468888D01*
X174291169Y-80580830D01*
X174047948Y-80743345D01*
X173841105Y-80950188D01*
X173678590Y-81193409D01*
X173566648Y-81463662D01*
X173509580Y-81750560D01*
X98103117Y-81750560D01*
X98095181Y-81733900D01*
X97921128Y-81500551D01*
X97704895Y-81305642D01*
X97579285Y-81230820D01*
X97704895Y-81155998D01*
X97921128Y-80961089D01*
X98095181Y-80727740D01*
X98220365Y-80464919D01*
X98265016Y-80317710D01*
X98143695Y-80087820D01*
X96950540Y-80087820D01*
X96696540Y-80087820D01*
X96676540Y-80087820D01*
X96676540Y-79833820D01*
X96696540Y-79833820D01*
X96696540Y-78640006D01*
X96950540Y-78640006D01*
X96950540Y-79833820D01*
X98143695Y-79833820D01*
X98265016Y-79603930D01*
X98220365Y-79456721D01*
X98095181Y-79193900D01*
X97921128Y-78960551D01*
X97704895Y-78765642D01*
X97454792Y-78616663D01*
X97180431Y-78519339D01*
X96950540Y-78640006D01*
X96696540Y-78640006D01*
X96466649Y-78519339D01*
X96192288Y-78616663D01*
X95942185Y-78765642D01*
X95725952Y-78960551D01*
X95554640Y-79190226D01*
X95437015Y-79014188D01*
X95230172Y-78807345D01*
X94986951Y-78644830D01*
X94716698Y-78532888D01*
X94646653Y-78518955D01*
X112798580Y-78518955D01*
X112798580Y-78797685D01*
X112852957Y-79071060D01*
X112959623Y-79328574D01*
X113114477Y-79560330D01*
X113311570Y-79757423D01*
X113543326Y-79912277D01*
X113800840Y-80018943D01*
X114074215Y-80073320D01*
X114352945Y-80073320D01*
X114626320Y-80018943D01*
X114883834Y-79912277D01*
X115115590Y-79757423D01*
X115312683Y-79560330D01*
X115467537Y-79328574D01*
X115483580Y-79289843D01*
X115499623Y-79328574D01*
X115654477Y-79560330D01*
X115851570Y-79757423D01*
X116083326Y-79912277D01*
X116340840Y-80018943D01*
X116614215Y-80073320D01*
X116892945Y-80073320D01*
X117166320Y-80018943D01*
X117423834Y-79912277D01*
X117655590Y-79757423D01*
X117852683Y-79560330D01*
X118007537Y-79328574D01*
X118023580Y-79289843D01*
X118039623Y-79328574D01*
X118194477Y-79560330D01*
X118391570Y-79757423D01*
X118623326Y-79912277D01*
X118880840Y-80018943D01*
X119154215Y-80073320D01*
X119432945Y-80073320D01*
X119706320Y-80018943D01*
X119963834Y-79912277D01*
X120195590Y-79757423D01*
X120392683Y-79560330D01*
X120547537Y-79328574D01*
X120563580Y-79289843D01*
X120579623Y-79328574D01*
X120734477Y-79560330D01*
X120931570Y-79757423D01*
X121163326Y-79912277D01*
X121420840Y-80018943D01*
X121694215Y-80073320D01*
X121972945Y-80073320D01*
X122246320Y-80018943D01*
X122503834Y-79912277D01*
X122735590Y-79757423D01*
X122932683Y-79560330D01*
X123087537Y-79328574D01*
X123103580Y-79289843D01*
X123119623Y-79328574D01*
X123274477Y-79560330D01*
X123471570Y-79757423D01*
X123703326Y-79912277D01*
X123960840Y-80018943D01*
X124234215Y-80073320D01*
X124512945Y-80073320D01*
X124786320Y-80018943D01*
X125043834Y-79912277D01*
X125275590Y-79757423D01*
X125472683Y-79560330D01*
X125627537Y-79328574D01*
X125643580Y-79289843D01*
X125659623Y-79328574D01*
X125814477Y-79560330D01*
X126011570Y-79757423D01*
X126243326Y-79912277D01*
X126500840Y-80018943D01*
X126774215Y-80073320D01*
X127052945Y-80073320D01*
X127326320Y-80018943D01*
X127583834Y-79912277D01*
X127815590Y-79757423D01*
X128012683Y-79560330D01*
X128167537Y-79328574D01*
X128183580Y-79289843D01*
X128199623Y-79328574D01*
X128354477Y-79560330D01*
X128551570Y-79757423D01*
X128783326Y-79912277D01*
X129040840Y-80018943D01*
X129314215Y-80073320D01*
X129592945Y-80073320D01*
X129866320Y-80018943D01*
X130123834Y-79912277D01*
X130355590Y-79757423D01*
X130552683Y-79560330D01*
X130707537Y-79328574D01*
X130723580Y-79289843D01*
X130739623Y-79328574D01*
X130894477Y-79560330D01*
X131091570Y-79757423D01*
X131323326Y-79912277D01*
X131580840Y-80018943D01*
X131854215Y-80073320D01*
X132132945Y-80073320D01*
X132406320Y-80018943D01*
X132663834Y-79912277D01*
X132895590Y-79757423D01*
X133092683Y-79560330D01*
X133247537Y-79328574D01*
X133263580Y-79289843D01*
X133279623Y-79328574D01*
X133434477Y-79560330D01*
X133631570Y-79757423D01*
X133863326Y-79912277D01*
X134120840Y-80018943D01*
X134394215Y-80073320D01*
X134672945Y-80073320D01*
X134946320Y-80018943D01*
X135203834Y-79912277D01*
X135435590Y-79757423D01*
X135632683Y-79560330D01*
X135787537Y-79328574D01*
X135803580Y-79289843D01*
X135819623Y-79328574D01*
X135974477Y-79560330D01*
X136171570Y-79757423D01*
X136403326Y-79912277D01*
X136660840Y-80018943D01*
X136934215Y-80073320D01*
X137212945Y-80073320D01*
X137486320Y-80018943D01*
X137743834Y-79912277D01*
X137975590Y-79757423D01*
X138172683Y-79560330D01*
X138327537Y-79328574D01*
X138343580Y-79289843D01*
X138359623Y-79328574D01*
X138514477Y-79560330D01*
X138711570Y-79757423D01*
X138943326Y-79912277D01*
X139200840Y-80018943D01*
X139474215Y-80073320D01*
X139752945Y-80073320D01*
X140026320Y-80018943D01*
X140283834Y-79912277D01*
X140515590Y-79757423D01*
X140712683Y-79560330D01*
X140867537Y-79328574D01*
X140883580Y-79289843D01*
X140899623Y-79328574D01*
X141054477Y-79560330D01*
X141251570Y-79757423D01*
X141483326Y-79912277D01*
X141740840Y-80018943D01*
X142014215Y-80073320D01*
X142292945Y-80073320D01*
X142566320Y-80018943D01*
X142823834Y-79912277D01*
X143055590Y-79757423D01*
X143252683Y-79560330D01*
X143407537Y-79328574D01*
X143423580Y-79289843D01*
X143439623Y-79328574D01*
X143594477Y-79560330D01*
X143791570Y-79757423D01*
X144023326Y-79912277D01*
X144280840Y-80018943D01*
X144554215Y-80073320D01*
X144832945Y-80073320D01*
X145106320Y-80018943D01*
X145363834Y-79912277D01*
X145595590Y-79757423D01*
X145792683Y-79560330D01*
X145947537Y-79328574D01*
X145963580Y-79289843D01*
X145979623Y-79328574D01*
X146134477Y-79560330D01*
X146331570Y-79757423D01*
X146563326Y-79912277D01*
X146820840Y-80018943D01*
X147094215Y-80073320D01*
X147372945Y-80073320D01*
X147646320Y-80018943D01*
X147903834Y-79912277D01*
X148135590Y-79757423D01*
X148332683Y-79560330D01*
X148487537Y-79328574D01*
X148503580Y-79289843D01*
X148519623Y-79328574D01*
X148674477Y-79560330D01*
X148871570Y-79757423D01*
X149103326Y-79912277D01*
X149360840Y-80018943D01*
X149634215Y-80073320D01*
X149912945Y-80073320D01*
X150186320Y-80018943D01*
X150443834Y-79912277D01*
X150675590Y-79757423D01*
X150872683Y-79560330D01*
X151027537Y-79328574D01*
X151134203Y-79071060D01*
X151188580Y-78797685D01*
X151188580Y-78518955D01*
X151134203Y-78245580D01*
X151027537Y-77988066D01*
X150872683Y-77756310D01*
X150675590Y-77559217D01*
X150443834Y-77404363D01*
X150186320Y-77297697D01*
X149912945Y-77243320D01*
X149634215Y-77243320D01*
X149360840Y-77297697D01*
X149103326Y-77404363D01*
X148871570Y-77559217D01*
X148674477Y-77756310D01*
X148519623Y-77988066D01*
X148503580Y-78026797D01*
X148487537Y-77988066D01*
X148332683Y-77756310D01*
X148135590Y-77559217D01*
X147903834Y-77404363D01*
X147646320Y-77297697D01*
X147372945Y-77243320D01*
X147094215Y-77243320D01*
X146820840Y-77297697D01*
X146563326Y-77404363D01*
X146331570Y-77559217D01*
X146134477Y-77756310D01*
X145979623Y-77988066D01*
X145963580Y-78026797D01*
X145947537Y-77988066D01*
X145792683Y-77756310D01*
X145595590Y-77559217D01*
X145363834Y-77404363D01*
X145106320Y-77297697D01*
X144832945Y-77243320D01*
X144554215Y-77243320D01*
X144280840Y-77297697D01*
X144023326Y-77404363D01*
X143791570Y-77559217D01*
X143594477Y-77756310D01*
X143439623Y-77988066D01*
X143423580Y-78026797D01*
X143407537Y-77988066D01*
X143252683Y-77756310D01*
X143055590Y-77559217D01*
X142823834Y-77404363D01*
X142566320Y-77297697D01*
X142292945Y-77243320D01*
X142014215Y-77243320D01*
X141740840Y-77297697D01*
X141483326Y-77404363D01*
X141251570Y-77559217D01*
X141054477Y-77756310D01*
X140899623Y-77988066D01*
X140883580Y-78026797D01*
X140867537Y-77988066D01*
X140712683Y-77756310D01*
X140515590Y-77559217D01*
X140283834Y-77404363D01*
X140026320Y-77297697D01*
X139752945Y-77243320D01*
X139474215Y-77243320D01*
X139200840Y-77297697D01*
X138943326Y-77404363D01*
X138711570Y-77559217D01*
X138514477Y-77756310D01*
X138359623Y-77988066D01*
X138343580Y-78026797D01*
X138327537Y-77988066D01*
X138172683Y-77756310D01*
X137975590Y-77559217D01*
X137743834Y-77404363D01*
X137486320Y-77297697D01*
X137212945Y-77243320D01*
X136934215Y-77243320D01*
X136660840Y-77297697D01*
X136403326Y-77404363D01*
X136171570Y-77559217D01*
X135974477Y-77756310D01*
X135819623Y-77988066D01*
X135803580Y-78026797D01*
X135787537Y-77988066D01*
X135632683Y-77756310D01*
X135435590Y-77559217D01*
X135203834Y-77404363D01*
X134946320Y-77297697D01*
X134672945Y-77243320D01*
X134394215Y-77243320D01*
X134120840Y-77297697D01*
X133863326Y-77404363D01*
X133631570Y-77559217D01*
X133434477Y-77756310D01*
X133279623Y-77988066D01*
X133263580Y-78026797D01*
X133247537Y-77988066D01*
X133092683Y-77756310D01*
X132895590Y-77559217D01*
X132663834Y-77404363D01*
X132406320Y-77297697D01*
X132132945Y-77243320D01*
X131854215Y-77243320D01*
X131580840Y-77297697D01*
X131323326Y-77404363D01*
X131091570Y-77559217D01*
X130894477Y-77756310D01*
X130739623Y-77988066D01*
X130723580Y-78026797D01*
X130707537Y-77988066D01*
X130552683Y-77756310D01*
X130355590Y-77559217D01*
X130123834Y-77404363D01*
X129866320Y-77297697D01*
X129592945Y-77243320D01*
X129314215Y-77243320D01*
X129040840Y-77297697D01*
X128783326Y-77404363D01*
X128551570Y-77559217D01*
X128354477Y-77756310D01*
X128199623Y-77988066D01*
X128183580Y-78026797D01*
X128167537Y-77988066D01*
X128012683Y-77756310D01*
X127815590Y-77559217D01*
X127583834Y-77404363D01*
X127326320Y-77297697D01*
X127052945Y-77243320D01*
X126774215Y-77243320D01*
X126500840Y-77297697D01*
X126243326Y-77404363D01*
X126011570Y-77559217D01*
X125814477Y-77756310D01*
X125659623Y-77988066D01*
X125643580Y-78026797D01*
X125627537Y-77988066D01*
X125472683Y-77756310D01*
X125275590Y-77559217D01*
X125043834Y-77404363D01*
X124786320Y-77297697D01*
X124512945Y-77243320D01*
X124234215Y-77243320D01*
X123960840Y-77297697D01*
X123703326Y-77404363D01*
X123471570Y-77559217D01*
X123274477Y-77756310D01*
X123119623Y-77988066D01*
X123103580Y-78026797D01*
X123087537Y-77988066D01*
X122932683Y-77756310D01*
X122735590Y-77559217D01*
X122503834Y-77404363D01*
X122246320Y-77297697D01*
X121972945Y-77243320D01*
X121694215Y-77243320D01*
X121420840Y-77297697D01*
X121163326Y-77404363D01*
X120931570Y-77559217D01*
X120734477Y-77756310D01*
X120579623Y-77988066D01*
X120563580Y-78026797D01*
X120547537Y-77988066D01*
X120392683Y-77756310D01*
X120195590Y-77559217D01*
X119963834Y-77404363D01*
X119706320Y-77297697D01*
X119432945Y-77243320D01*
X119154215Y-77243320D01*
X118880840Y-77297697D01*
X118623326Y-77404363D01*
X118391570Y-77559217D01*
X118194477Y-77756310D01*
X118039623Y-77988066D01*
X118023580Y-78026797D01*
X118007537Y-77988066D01*
X117852683Y-77756310D01*
X117655590Y-77559217D01*
X117423834Y-77404363D01*
X117166320Y-77297697D01*
X116892945Y-77243320D01*
X116614215Y-77243320D01*
X116340840Y-77297697D01*
X116083326Y-77404363D01*
X115851570Y-77559217D01*
X115654477Y-77756310D01*
X115499623Y-77988066D01*
X115483580Y-78026797D01*
X115467537Y-77988066D01*
X115312683Y-77756310D01*
X115115590Y-77559217D01*
X114883834Y-77404363D01*
X114626320Y-77297697D01*
X114352945Y-77243320D01*
X114074215Y-77243320D01*
X113800840Y-77297697D01*
X113543326Y-77404363D01*
X113311570Y-77559217D01*
X113114477Y-77756310D01*
X112959623Y-77988066D01*
X112852957Y-78245580D01*
X112798580Y-78518955D01*
X94646653Y-78518955D01*
X94429800Y-78475820D01*
X94137280Y-78475820D01*
X93850382Y-78532888D01*
X93580129Y-78644830D01*
X93336908Y-78807345D01*
X93130065Y-79014188D01*
X92967550Y-79257409D01*
X92855608Y-79527662D01*
X92798540Y-79814560D01*
X90235000Y-79814560D01*
X90235000Y-67795800D01*
X109003740Y-67795800D01*
X109003740Y-68088320D01*
X109060808Y-68375218D01*
X109172750Y-68645471D01*
X109335265Y-68888692D01*
X109542108Y-69095535D01*
X109785329Y-69258050D01*
X110055582Y-69369992D01*
X110342480Y-69427060D01*
X110635000Y-69427060D01*
X110921898Y-69369992D01*
X111192151Y-69258050D01*
X111435372Y-69095535D01*
X111642215Y-68888692D01*
X111758740Y-68714300D01*
X111875265Y-68888692D01*
X112082108Y-69095535D01*
X112325329Y-69258050D01*
X112595582Y-69369992D01*
X112882480Y-69427060D01*
X113175000Y-69427060D01*
X113461898Y-69369992D01*
X113732151Y-69258050D01*
X113975372Y-69095535D01*
X114182215Y-68888692D01*
X114298740Y-68714300D01*
X114415265Y-68888692D01*
X114622108Y-69095535D01*
X114865329Y-69258050D01*
X115135582Y-69369992D01*
X115422480Y-69427060D01*
X115715000Y-69427060D01*
X116001898Y-69369992D01*
X116272151Y-69258050D01*
X116515372Y-69095535D01*
X116722215Y-68888692D01*
X116838740Y-68714300D01*
X116955265Y-68888692D01*
X117162108Y-69095535D01*
X117405329Y-69258050D01*
X117675582Y-69369992D01*
X117962480Y-69427060D01*
X118255000Y-69427060D01*
X118541898Y-69369992D01*
X118812151Y-69258050D01*
X119055372Y-69095535D01*
X119262215Y-68888692D01*
X119383935Y-68706526D01*
X119453562Y-68823415D01*
X119648471Y-69039648D01*
X119881820Y-69213701D01*
X120144641Y-69338885D01*
X120291850Y-69383536D01*
X120521740Y-69262215D01*
X120521740Y-68069060D01*
X120501740Y-68069060D01*
X120501740Y-67815060D01*
X120521740Y-67815060D01*
X120521740Y-66621905D01*
X120775740Y-66621905D01*
X120775740Y-67815060D01*
X120795740Y-67815060D01*
X120795740Y-68069060D01*
X120775740Y-68069060D01*
X120775740Y-69262215D01*
X121005630Y-69383536D01*
X121152839Y-69338885D01*
X121415660Y-69213701D01*
X121649009Y-69039648D01*
X121843918Y-68823415D01*
X121913545Y-68706526D01*
X122035265Y-68888692D01*
X122242108Y-69095535D01*
X122485329Y-69258050D01*
X122755582Y-69369992D01*
X123042480Y-69427060D01*
X123335000Y-69427060D01*
X123621898Y-69369992D01*
X123892151Y-69258050D01*
X124135372Y-69095535D01*
X124342215Y-68888692D01*
X124504730Y-68645471D01*
X124616672Y-68375218D01*
X124673740Y-68088320D01*
X124673740Y-67795800D01*
X133221740Y-67795800D01*
X133221740Y-68088320D01*
X133278808Y-68375218D01*
X133390750Y-68645471D01*
X133553265Y-68888692D01*
X133760108Y-69095535D01*
X134003329Y-69258050D01*
X134273582Y-69369992D01*
X134560480Y-69427060D01*
X134853000Y-69427060D01*
X135139898Y-69369992D01*
X135410151Y-69258050D01*
X135653372Y-69095535D01*
X135860215Y-68888692D01*
X135976740Y-68714300D01*
X136093265Y-68888692D01*
X136300108Y-69095535D01*
X136543329Y-69258050D01*
X136813582Y-69369992D01*
X137100480Y-69427060D01*
X137393000Y-69427060D01*
X137679898Y-69369992D01*
X137950151Y-69258050D01*
X138193372Y-69095535D01*
X138400215Y-68888692D01*
X138516740Y-68714300D01*
X138633265Y-68888692D01*
X138840108Y-69095535D01*
X139083329Y-69258050D01*
X139353582Y-69369992D01*
X139640480Y-69427060D01*
X139933000Y-69427060D01*
X140219898Y-69369992D01*
X140490151Y-69258050D01*
X140733372Y-69095535D01*
X140940215Y-68888692D01*
X141061935Y-68706526D01*
X141131562Y-68823415D01*
X141326471Y-69039648D01*
X141559820Y-69213701D01*
X141822641Y-69338885D01*
X141969850Y-69383536D01*
X142199740Y-69262215D01*
X142199740Y-68069060D01*
X142179740Y-68069060D01*
X142179740Y-67815060D01*
X142199740Y-67815060D01*
X142199740Y-66621905D01*
X142453740Y-66621905D01*
X142453740Y-67815060D01*
X142473740Y-67815060D01*
X142473740Y-68069060D01*
X142453740Y-68069060D01*
X142453740Y-69262215D01*
X142683630Y-69383536D01*
X142830839Y-69338885D01*
X143093660Y-69213701D01*
X143327009Y-69039648D01*
X143521918Y-68823415D01*
X143591545Y-68706526D01*
X143713265Y-68888692D01*
X143920108Y-69095535D01*
X144163329Y-69258050D01*
X144433582Y-69369992D01*
X144720480Y-69427060D01*
X145013000Y-69427060D01*
X145299898Y-69369992D01*
X145570151Y-69258050D01*
X145813372Y-69095535D01*
X146020215Y-68888692D01*
X146182730Y-68645471D01*
X146294672Y-68375218D01*
X146351740Y-68088320D01*
X146351740Y-67795800D01*
X155231740Y-67795800D01*
X155231740Y-68088320D01*
X155288808Y-68375218D01*
X155400750Y-68645471D01*
X155563265Y-68888692D01*
X155770108Y-69095535D01*
X156013329Y-69258050D01*
X156283582Y-69369992D01*
X156570480Y-69427060D01*
X156863000Y-69427060D01*
X157149898Y-69369992D01*
X157420151Y-69258050D01*
X157663372Y-69095535D01*
X157870215Y-68888692D01*
X157986740Y-68714300D01*
X158103265Y-68888692D01*
X158310108Y-69095535D01*
X158553329Y-69258050D01*
X158823582Y-69369992D01*
X159110480Y-69427060D01*
X159403000Y-69427060D01*
X159689898Y-69369992D01*
X159960151Y-69258050D01*
X160203372Y-69095535D01*
X160410215Y-68888692D01*
X160531935Y-68706526D01*
X160601562Y-68823415D01*
X160796471Y-69039648D01*
X161029820Y-69213701D01*
X161292641Y-69338885D01*
X161439850Y-69383536D01*
X161669740Y-69262215D01*
X161669740Y-68069060D01*
X161923740Y-68069060D01*
X161923740Y-69262215D01*
X162153630Y-69383536D01*
X162300839Y-69338885D01*
X162563660Y-69213701D01*
X162797009Y-69039648D01*
X162991918Y-68823415D01*
X163140897Y-68573312D01*
X163238221Y-68298951D01*
X163117554Y-68069060D01*
X161923740Y-68069060D01*
X161669740Y-68069060D01*
X161649740Y-68069060D01*
X161649740Y-67815060D01*
X161669740Y-67815060D01*
X161669740Y-66621905D01*
X161923740Y-66621905D01*
X161923740Y-67815060D01*
X163117554Y-67815060D01*
X163238221Y-67585169D01*
X163140897Y-67310808D01*
X162991918Y-67060705D01*
X162797009Y-66844472D01*
X162563660Y-66670419D01*
X162300839Y-66545235D01*
X162153630Y-66500584D01*
X161923740Y-66621905D01*
X161669740Y-66621905D01*
X161439850Y-66500584D01*
X161292641Y-66545235D01*
X161029820Y-66670419D01*
X160796471Y-66844472D01*
X160601562Y-67060705D01*
X160531935Y-67177594D01*
X160410215Y-66995428D01*
X160203372Y-66788585D01*
X159960151Y-66626070D01*
X159689898Y-66514128D01*
X159403000Y-66457060D01*
X159110480Y-66457060D01*
X158823582Y-66514128D01*
X158553329Y-66626070D01*
X158310108Y-66788585D01*
X158103265Y-66995428D01*
X157986740Y-67169820D01*
X157870215Y-66995428D01*
X157663372Y-66788585D01*
X157420151Y-66626070D01*
X157149898Y-66514128D01*
X156863000Y-66457060D01*
X156570480Y-66457060D01*
X156283582Y-66514128D01*
X156013329Y-66626070D01*
X155770108Y-66788585D01*
X155563265Y-66995428D01*
X155400750Y-67238649D01*
X155288808Y-67508902D01*
X155231740Y-67795800D01*
X146351740Y-67795800D01*
X146294672Y-67508902D01*
X146182730Y-67238649D01*
X146020215Y-66995428D01*
X145813372Y-66788585D01*
X145570151Y-66626070D01*
X145299898Y-66514128D01*
X145013000Y-66457060D01*
X144720480Y-66457060D01*
X144433582Y-66514128D01*
X144163329Y-66626070D01*
X143920108Y-66788585D01*
X143713265Y-66995428D01*
X143591545Y-67177594D01*
X143521918Y-67060705D01*
X143327009Y-66844472D01*
X143093660Y-66670419D01*
X142830839Y-66545235D01*
X142683630Y-66500584D01*
X142453740Y-66621905D01*
X142199740Y-66621905D01*
X141969850Y-66500584D01*
X141822641Y-66545235D01*
X141559820Y-66670419D01*
X141326471Y-66844472D01*
X141131562Y-67060705D01*
X141061935Y-67177594D01*
X140940215Y-66995428D01*
X140733372Y-66788585D01*
X140490151Y-66626070D01*
X140219898Y-66514128D01*
X139933000Y-66457060D01*
X139640480Y-66457060D01*
X139353582Y-66514128D01*
X139083329Y-66626070D01*
X138840108Y-66788585D01*
X138633265Y-66995428D01*
X138516740Y-67169820D01*
X138400215Y-66995428D01*
X138193372Y-66788585D01*
X137950151Y-66626070D01*
X137679898Y-66514128D01*
X137393000Y-66457060D01*
X137100480Y-66457060D01*
X136813582Y-66514128D01*
X136543329Y-66626070D01*
X136300108Y-66788585D01*
X136093265Y-66995428D01*
X135976740Y-67169820D01*
X135860215Y-66995428D01*
X135653372Y-66788585D01*
X135410151Y-66626070D01*
X135139898Y-66514128D01*
X134853000Y-66457060D01*
X134560480Y-66457060D01*
X134273582Y-66514128D01*
X134003329Y-66626070D01*
X133760108Y-66788585D01*
X133553265Y-66995428D01*
X133390750Y-67238649D01*
X133278808Y-67508902D01*
X133221740Y-67795800D01*
X124673740Y-67795800D01*
X124616672Y-67508902D01*
X124504730Y-67238649D01*
X124342215Y-66995428D01*
X124135372Y-66788585D01*
X123892151Y-66626070D01*
X123621898Y-66514128D01*
X123335000Y-66457060D01*
X123042480Y-66457060D01*
X122755582Y-66514128D01*
X122485329Y-66626070D01*
X122242108Y-66788585D01*
X122035265Y-66995428D01*
X121913545Y-67177594D01*
X121843918Y-67060705D01*
X121649009Y-66844472D01*
X121415660Y-66670419D01*
X121152839Y-66545235D01*
X121005630Y-66500584D01*
X120775740Y-66621905D01*
X120521740Y-66621905D01*
X120291850Y-66500584D01*
X120144641Y-66545235D01*
X119881820Y-66670419D01*
X119648471Y-66844472D01*
X119453562Y-67060705D01*
X119383935Y-67177594D01*
X119262215Y-66995428D01*
X119055372Y-66788585D01*
X118812151Y-66626070D01*
X118541898Y-66514128D01*
X118255000Y-66457060D01*
X117962480Y-66457060D01*
X117675582Y-66514128D01*
X117405329Y-66626070D01*
X117162108Y-66788585D01*
X116955265Y-66995428D01*
X116838740Y-67169820D01*
X116722215Y-66995428D01*
X116515372Y-66788585D01*
X116272151Y-66626070D01*
X116001898Y-66514128D01*
X115715000Y-66457060D01*
X115422480Y-66457060D01*
X115135582Y-66514128D01*
X114865329Y-66626070D01*
X114622108Y-66788585D01*
X114415265Y-66995428D01*
X114298740Y-67169820D01*
X114182215Y-66995428D01*
X113975372Y-66788585D01*
X113732151Y-66626070D01*
X113461898Y-66514128D01*
X113175000Y-66457060D01*
X112882480Y-66457060D01*
X112595582Y-66514128D01*
X112325329Y-66626070D01*
X112082108Y-66788585D01*
X111875265Y-66995428D01*
X111758740Y-67169820D01*
X111642215Y-66995428D01*
X111435372Y-66788585D01*
X111192151Y-66626070D01*
X110921898Y-66514128D01*
X110635000Y-66457060D01*
X110342480Y-66457060D01*
X110055582Y-66514128D01*
X109785329Y-66626070D01*
X109542108Y-66788585D01*
X109335265Y-66995428D01*
X109172750Y-67238649D01*
X109060808Y-67508902D01*
X109003740Y-67795800D01*
X90235000Y-67795800D01*
X90235000Y-61339199D01*
X90491633Y-61958766D01*
X90873024Y-62529558D01*
X91358442Y-63014976D01*
X91929234Y-63396367D01*
X92563463Y-63659073D01*
X93236758Y-63793000D01*
X93923242Y-63793000D01*
X94596537Y-63659073D01*
X95230766Y-63396367D01*
X95801558Y-63014976D01*
X96286976Y-62529558D01*
X96668367Y-61958766D01*
X96931073Y-61324537D01*
X97065000Y-60651242D01*
X97065000Y-59964758D01*
X96931073Y-59291463D01*
X96668367Y-58657234D01*
X96286976Y-58086442D01*
X95801558Y-57601024D01*
X95250771Y-57233000D01*
X184331174Y-57233000D01*
X183750234Y-57473633D01*
G04 #@! TA.AperFunction,Conductor*
D17*
G36*
X183750234Y-57473633D02*
G01*
X183179442Y-57855024D01*
X182694024Y-58340442D01*
X182312633Y-58911234D01*
X182049927Y-59545463D01*
X181916000Y-60218758D01*
X181916000Y-60905242D01*
X182049927Y-61578537D01*
X182312633Y-62212766D01*
X182694024Y-62783558D01*
X183179442Y-63268976D01*
X183750234Y-63650367D01*
X184384463Y-63913073D01*
X185057758Y-64047000D01*
X185744242Y-64047000D01*
X186417537Y-63913073D01*
X187051766Y-63650367D01*
X187622558Y-63268976D01*
X188107976Y-62783558D01*
X188489367Y-62212766D01*
X188752073Y-61578537D01*
X188765001Y-61513544D01*
X188765000Y-121866309D01*
X188669473Y-121386063D01*
X188406767Y-120751834D01*
X188025376Y-120181042D01*
X187539958Y-119695624D01*
X186969166Y-119314233D01*
X186334937Y-119051527D01*
X185661642Y-118917600D01*
X184975158Y-118917600D01*
X184301863Y-119051527D01*
X183667634Y-119314233D01*
X183096842Y-119695624D01*
X182611424Y-120181042D01*
X182230033Y-120751834D01*
X181967327Y-121386063D01*
X181833400Y-122059358D01*
X181833400Y-122745842D01*
X181967327Y-123419137D01*
X182230033Y-124053366D01*
X182611424Y-124624158D01*
X183096842Y-125109576D01*
X183667634Y-125490967D01*
X184301863Y-125753673D01*
X184348753Y-125763000D01*
X95080510Y-125763000D01*
X95103766Y-125753367D01*
X95674558Y-125371976D01*
X96159976Y-124886558D01*
X96541367Y-124315766D01*
X96804073Y-123681537D01*
X96938000Y-123008242D01*
X96938000Y-122474225D01*
X139470240Y-122474225D01*
X139470240Y-122756895D01*
X139525387Y-123034134D01*
X139633560Y-123295287D01*
X139790603Y-123530319D01*
X139990481Y-123730197D01*
X140225513Y-123887240D01*
X140486666Y-123995413D01*
X140763905Y-124050560D01*
X141046575Y-124050560D01*
X141323814Y-123995413D01*
X141584967Y-123887240D01*
X141819999Y-123730197D01*
X141878434Y-123671762D01*
X161618643Y-123671762D01*
X161690226Y-123915731D01*
X161945736Y-124036631D01*
X162219924Y-124105360D01*
X162502252Y-124119277D01*
X162781870Y-124077847D01*
X163048032Y-123982663D01*
X163173254Y-123915731D01*
X163244837Y-123671762D01*
X176858643Y-123671762D01*
X176930226Y-123915731D01*
X177185736Y-124036631D01*
X177459924Y-124105360D01*
X177742252Y-124119277D01*
X178021870Y-124077847D01*
X178288032Y-123982663D01*
X178413254Y-123915731D01*
X178484837Y-123671762D01*
X177671740Y-122858665D01*
X176858643Y-123671762D01*
X163244837Y-123671762D01*
X162431740Y-122858665D01*
X161618643Y-123671762D01*
X141878434Y-123671762D01*
X142019877Y-123530319D01*
X142176920Y-123295287D01*
X142285093Y-123034134D01*
X142340240Y-122756895D01*
X142340240Y-122749572D01*
X160991523Y-122749572D01*
X161032953Y-123029190D01*
X161128137Y-123295352D01*
X161195069Y-123420574D01*
X161439038Y-123492157D01*
X162252135Y-122679060D01*
X162611345Y-122679060D01*
X163424442Y-123492157D01*
X163668411Y-123420574D01*
X163789311Y-123165064D01*
X163858040Y-122890876D01*
X163865005Y-122749572D01*
X176231523Y-122749572D01*
X176272953Y-123029190D01*
X176368137Y-123295352D01*
X176435069Y-123420574D01*
X176679038Y-123492157D01*
X177492135Y-122679060D01*
X177851345Y-122679060D01*
X178664442Y-123492157D01*
X178908411Y-123420574D01*
X179029311Y-123165064D01*
X179098040Y-122890876D01*
X179111957Y-122608548D01*
X179070527Y-122328930D01*
X178975343Y-122062768D01*
X178908411Y-121937546D01*
X178664442Y-121865963D01*
X177851345Y-122679060D01*
X177492135Y-122679060D01*
X176679038Y-121865963D01*
X176435069Y-121937546D01*
X176314169Y-122193056D01*
X176245440Y-122467244D01*
X176231523Y-122749572D01*
X163865005Y-122749572D01*
X163871957Y-122608548D01*
X163830527Y-122328930D01*
X163735343Y-122062768D01*
X163668411Y-121937546D01*
X163424442Y-121865963D01*
X162611345Y-122679060D01*
X162252135Y-122679060D01*
X161439038Y-121865963D01*
X161195069Y-121937546D01*
X161074169Y-122193056D01*
X161005440Y-122467244D01*
X160991523Y-122749572D01*
X142340240Y-122749572D01*
X142340240Y-122474225D01*
X142285093Y-122196986D01*
X142176920Y-121935833D01*
X142019877Y-121700801D01*
X142005434Y-121686358D01*
X161618643Y-121686358D01*
X162431740Y-122499455D01*
X163244837Y-121686358D01*
X176858643Y-121686358D01*
X177671740Y-122499455D01*
X178484837Y-121686358D01*
X178413254Y-121442389D01*
X178157744Y-121321489D01*
X177883556Y-121252760D01*
X177601228Y-121238843D01*
X177321610Y-121280273D01*
X177055448Y-121375457D01*
X176930226Y-121442389D01*
X176858643Y-121686358D01*
X163244837Y-121686358D01*
X163173254Y-121442389D01*
X162917744Y-121321489D01*
X162643556Y-121252760D01*
X162361228Y-121238843D01*
X162081610Y-121280273D01*
X161815448Y-121375457D01*
X161690226Y-121442389D01*
X161618643Y-121686358D01*
X142005434Y-121686358D01*
X141819999Y-121500923D01*
X141584967Y-121343880D01*
X141323814Y-121235707D01*
X141046575Y-121180560D01*
X140763905Y-121180560D01*
X140486666Y-121235707D01*
X140225513Y-121343880D01*
X139990481Y-121500923D01*
X139790603Y-121700801D01*
X139633560Y-121935833D01*
X139525387Y-122196986D01*
X139470240Y-122474225D01*
X96938000Y-122474225D01*
X96938000Y-122321758D01*
X96804073Y-121648463D01*
X96541367Y-121014234D01*
X96159976Y-120443442D01*
X95674558Y-119958024D01*
X95103766Y-119576633D01*
X94469537Y-119313927D01*
X93796242Y-119180000D01*
X93109758Y-119180000D01*
X92436463Y-119313927D01*
X91802234Y-119576633D01*
X91231442Y-119958024D01*
X90746024Y-120443442D01*
X90364633Y-121014234D01*
X90235000Y-121327196D01*
X90235000Y-115415951D01*
X103379104Y-115415951D01*
X103476428Y-115690312D01*
X103625407Y-115940415D01*
X103820316Y-116156648D01*
X104053665Y-116330701D01*
X104316486Y-116455885D01*
X104463695Y-116500536D01*
X104693585Y-116379215D01*
X104693585Y-115186060D01*
X103499771Y-115186060D01*
X103379104Y-115415951D01*
X90235000Y-115415951D01*
X90235000Y-114702169D01*
X103379104Y-114702169D01*
X103499771Y-114932060D01*
X104693585Y-114932060D01*
X104693585Y-113738905D01*
X104947585Y-113738905D01*
X104947585Y-114932060D01*
X104967585Y-114932060D01*
X104967585Y-115186060D01*
X104947585Y-115186060D01*
X104947585Y-116379215D01*
X105177475Y-116500536D01*
X105324684Y-116455885D01*
X105587505Y-116330701D01*
X105820854Y-116156648D01*
X106015763Y-115940415D01*
X106085390Y-115823526D01*
X106207110Y-116005692D01*
X106413953Y-116212535D01*
X106657174Y-116375050D01*
X106927427Y-116486992D01*
X107214325Y-116544060D01*
X107506845Y-116544060D01*
X107793743Y-116486992D01*
X108063996Y-116375050D01*
X108307217Y-116212535D01*
X108514060Y-116005692D01*
X108630585Y-115831300D01*
X108747110Y-116005692D01*
X108953953Y-116212535D01*
X109197174Y-116375050D01*
X109467427Y-116486992D01*
X109754325Y-116544060D01*
X110046845Y-116544060D01*
X110333743Y-116486992D01*
X110603996Y-116375050D01*
X110847217Y-116212535D01*
X111054060Y-116005692D01*
X111216575Y-115762471D01*
X111328517Y-115492218D01*
X111385585Y-115205320D01*
X111385585Y-114912800D01*
X113829740Y-114912800D01*
X113829740Y-115205320D01*
X113886808Y-115492218D01*
X113998750Y-115762471D01*
X114161265Y-116005692D01*
X114368108Y-116212535D01*
X114611329Y-116375050D01*
X114881582Y-116486992D01*
X115168480Y-116544060D01*
X115461000Y-116544060D01*
X115747898Y-116486992D01*
X116018151Y-116375050D01*
X116261372Y-116212535D01*
X116468215Y-116005692D01*
X116584740Y-115831300D01*
X116701265Y-116005692D01*
X116908108Y-116212535D01*
X117151329Y-116375050D01*
X117421582Y-116486992D01*
X117708480Y-116544060D01*
X118001000Y-116544060D01*
X118287898Y-116486992D01*
X118558151Y-116375050D01*
X118801372Y-116212535D01*
X118926450Y-116087457D01*
X119545948Y-116087457D01*
X119623583Y-116336532D01*
X119887623Y-116462431D01*
X120171151Y-116534399D01*
X120463271Y-116549671D01*
X120752759Y-116507659D01*
X121028487Y-116409979D01*
X121165897Y-116336532D01*
X121243532Y-116087457D01*
X120394740Y-115238665D01*
X119545948Y-116087457D01*
X118926450Y-116087457D01*
X119008215Y-116005692D01*
X119124051Y-115832331D01*
X119366343Y-115907852D01*
X120215135Y-115059060D01*
X120574345Y-115059060D01*
X121423137Y-115907852D01*
X121672212Y-115830217D01*
X121798111Y-115566177D01*
X121852361Y-115352451D01*
X131783140Y-115352451D01*
X131880464Y-115626812D01*
X132029443Y-115876915D01*
X132224352Y-116093148D01*
X132457701Y-116267201D01*
X132720522Y-116392385D01*
X132867731Y-116437036D01*
X133097621Y-116315715D01*
X133097621Y-115122560D01*
X131903807Y-115122560D01*
X131783140Y-115352451D01*
X121852361Y-115352451D01*
X121870079Y-115282649D01*
X121885351Y-114990529D01*
X121843339Y-114701041D01*
X121821243Y-114638669D01*
X131783140Y-114638669D01*
X131903807Y-114868560D01*
X133097621Y-114868560D01*
X133097621Y-113675405D01*
X133351621Y-113675405D01*
X133351621Y-114868560D01*
X133371621Y-114868560D01*
X133371621Y-115122560D01*
X133351621Y-115122560D01*
X133351621Y-116315715D01*
X133581511Y-116437036D01*
X133728720Y-116392385D01*
X133991541Y-116267201D01*
X134224890Y-116093148D01*
X134419799Y-115876915D01*
X134489426Y-115760026D01*
X134611146Y-115942192D01*
X134817989Y-116149035D01*
X135061210Y-116311550D01*
X135331463Y-116423492D01*
X135618361Y-116480560D01*
X135910881Y-116480560D01*
X136197779Y-116423492D01*
X136468032Y-116311550D01*
X136711253Y-116149035D01*
X136918096Y-115942192D01*
X137080611Y-115698971D01*
X137192553Y-115428718D01*
X137249621Y-115141820D01*
X137249621Y-114854225D01*
X139470240Y-114854225D01*
X139470240Y-115136895D01*
X139525387Y-115414134D01*
X139633560Y-115675287D01*
X139790603Y-115910319D01*
X139990481Y-116110197D01*
X140225513Y-116267240D01*
X140486666Y-116375413D01*
X140763905Y-116430560D01*
X141046575Y-116430560D01*
X141323814Y-116375413D01*
X141584967Y-116267240D01*
X141819999Y-116110197D01*
X142019877Y-115910319D01*
X142176920Y-115675287D01*
X142284340Y-115415951D01*
X150433176Y-115415951D01*
X150530500Y-115690312D01*
X150679479Y-115940415D01*
X150874388Y-116156648D01*
X151107737Y-116330701D01*
X151370558Y-116455885D01*
X151517767Y-116500536D01*
X151747657Y-116379215D01*
X151747657Y-115186060D01*
X150553843Y-115186060D01*
X150433176Y-115415951D01*
X142284340Y-115415951D01*
X142285093Y-115414134D01*
X142340240Y-115136895D01*
X142340240Y-114854225D01*
X142309994Y-114702169D01*
X150433176Y-114702169D01*
X150553843Y-114932060D01*
X151747657Y-114932060D01*
X151747657Y-113738905D01*
X152001657Y-113738905D01*
X152001657Y-114932060D01*
X152021657Y-114932060D01*
X152021657Y-115186060D01*
X152001657Y-115186060D01*
X152001657Y-116379215D01*
X152231547Y-116500536D01*
X152378756Y-116455885D01*
X152641577Y-116330701D01*
X152874926Y-116156648D01*
X153069835Y-115940415D01*
X153139462Y-115823526D01*
X153261182Y-116005692D01*
X153468025Y-116212535D01*
X153711246Y-116375050D01*
X153981499Y-116486992D01*
X154268397Y-116544060D01*
X154560917Y-116544060D01*
X154847815Y-116486992D01*
X155118068Y-116375050D01*
X155361289Y-116212535D01*
X155568132Y-116005692D01*
X155684657Y-115831300D01*
X155801182Y-116005692D01*
X156008025Y-116212535D01*
X156251246Y-116375050D01*
X156521499Y-116486992D01*
X156808397Y-116544060D01*
X157100917Y-116544060D01*
X157387815Y-116486992D01*
X157658068Y-116375050D01*
X157901289Y-116212535D01*
X158108132Y-116005692D01*
X158270647Y-115762471D01*
X158382589Y-115492218D01*
X158439657Y-115205320D01*
X158439657Y-114917725D01*
X160996740Y-114917725D01*
X160996740Y-115200395D01*
X161051887Y-115477634D01*
X161160060Y-115738787D01*
X161317103Y-115973819D01*
X161516981Y-116173697D01*
X161752013Y-116330740D01*
X162013166Y-116438913D01*
X162290405Y-116494060D01*
X162573075Y-116494060D01*
X162850314Y-116438913D01*
X163111467Y-116330740D01*
X163346499Y-116173697D01*
X163546377Y-115973819D01*
X163703420Y-115738787D01*
X163811593Y-115477634D01*
X163823862Y-115415951D01*
X165802868Y-115415951D01*
X165900192Y-115690312D01*
X166049171Y-115940415D01*
X166244080Y-116156648D01*
X166477429Y-116330701D01*
X166740250Y-116455885D01*
X166887459Y-116500536D01*
X167117349Y-116379215D01*
X167117349Y-115186060D01*
X165923535Y-115186060D01*
X165802868Y-115415951D01*
X163823862Y-115415951D01*
X163866740Y-115200395D01*
X163866740Y-114917725D01*
X163823863Y-114702169D01*
X165802868Y-114702169D01*
X165923535Y-114932060D01*
X167117349Y-114932060D01*
X167117349Y-113738905D01*
X167371349Y-113738905D01*
X167371349Y-114932060D01*
X167391349Y-114932060D01*
X167391349Y-115186060D01*
X167371349Y-115186060D01*
X167371349Y-116379215D01*
X167601239Y-116500536D01*
X167748448Y-116455885D01*
X168011269Y-116330701D01*
X168244618Y-116156648D01*
X168439527Y-115940415D01*
X168509154Y-115823526D01*
X168630874Y-116005692D01*
X168837717Y-116212535D01*
X169080938Y-116375050D01*
X169351191Y-116486992D01*
X169638089Y-116544060D01*
X169930609Y-116544060D01*
X170217507Y-116486992D01*
X170487760Y-116375050D01*
X170730981Y-116212535D01*
X170937824Y-116005692D01*
X171054349Y-115831300D01*
X171170874Y-116005692D01*
X171377717Y-116212535D01*
X171620938Y-116375050D01*
X171891191Y-116486992D01*
X172178089Y-116544060D01*
X172470609Y-116544060D01*
X172757507Y-116486992D01*
X173027760Y-116375050D01*
X173270981Y-116212535D01*
X173477824Y-116005692D01*
X173640339Y-115762471D01*
X173752281Y-115492218D01*
X173809349Y-115205320D01*
X173809349Y-114917725D01*
X176236740Y-114917725D01*
X176236740Y-115200395D01*
X176291887Y-115477634D01*
X176400060Y-115738787D01*
X176557103Y-115973819D01*
X176756981Y-116173697D01*
X176992013Y-116330740D01*
X177253166Y-116438913D01*
X177530405Y-116494060D01*
X177813075Y-116494060D01*
X178090314Y-116438913D01*
X178351467Y-116330740D01*
X178586499Y-116173697D01*
X178786377Y-115973819D01*
X178943420Y-115738787D01*
X179051593Y-115477634D01*
X179106740Y-115200395D01*
X179106740Y-114917725D01*
X179051593Y-114640486D01*
X178943420Y-114379333D01*
X178786377Y-114144301D01*
X178586499Y-113944423D01*
X178351467Y-113787380D01*
X178090314Y-113679207D01*
X177813075Y-113624060D01*
X177530405Y-113624060D01*
X177253166Y-113679207D01*
X176992013Y-113787380D01*
X176756981Y-113944423D01*
X176557103Y-114144301D01*
X176400060Y-114379333D01*
X176291887Y-114640486D01*
X176236740Y-114917725D01*
X173809349Y-114917725D01*
X173809349Y-114912800D01*
X173752281Y-114625902D01*
X173640339Y-114355649D01*
X173477824Y-114112428D01*
X173270981Y-113905585D01*
X173027760Y-113743070D01*
X172757507Y-113631128D01*
X172470609Y-113574060D01*
X172178089Y-113574060D01*
X171891191Y-113631128D01*
X171620938Y-113743070D01*
X171377717Y-113905585D01*
X171170874Y-114112428D01*
X171054349Y-114286820D01*
X170937824Y-114112428D01*
X170730981Y-113905585D01*
X170487760Y-113743070D01*
X170217507Y-113631128D01*
X169930609Y-113574060D01*
X169638089Y-113574060D01*
X169351191Y-113631128D01*
X169080938Y-113743070D01*
X168837717Y-113905585D01*
X168630874Y-114112428D01*
X168509154Y-114294594D01*
X168439527Y-114177705D01*
X168244618Y-113961472D01*
X168011269Y-113787419D01*
X167748448Y-113662235D01*
X167601239Y-113617584D01*
X167371349Y-113738905D01*
X167117349Y-113738905D01*
X166887459Y-113617584D01*
X166740250Y-113662235D01*
X166477429Y-113787419D01*
X166244080Y-113961472D01*
X166049171Y-114177705D01*
X165900192Y-114427808D01*
X165802868Y-114702169D01*
X163823863Y-114702169D01*
X163811593Y-114640486D01*
X163703420Y-114379333D01*
X163546377Y-114144301D01*
X163346499Y-113944423D01*
X163111467Y-113787380D01*
X162850314Y-113679207D01*
X162573075Y-113624060D01*
X162290405Y-113624060D01*
X162013166Y-113679207D01*
X161752013Y-113787380D01*
X161516981Y-113944423D01*
X161317103Y-114144301D01*
X161160060Y-114379333D01*
X161051887Y-114640486D01*
X160996740Y-114917725D01*
X158439657Y-114917725D01*
X158439657Y-114912800D01*
X158382589Y-114625902D01*
X158270647Y-114355649D01*
X158108132Y-114112428D01*
X157901289Y-113905585D01*
X157658068Y-113743070D01*
X157387815Y-113631128D01*
X157100917Y-113574060D01*
X156808397Y-113574060D01*
X156521499Y-113631128D01*
X156251246Y-113743070D01*
X156008025Y-113905585D01*
X155801182Y-114112428D01*
X155684657Y-114286820D01*
X155568132Y-114112428D01*
X155361289Y-113905585D01*
X155118068Y-113743070D01*
X154847815Y-113631128D01*
X154560917Y-113574060D01*
X154268397Y-113574060D01*
X153981499Y-113631128D01*
X153711246Y-113743070D01*
X153468025Y-113905585D01*
X153261182Y-114112428D01*
X153139462Y-114294594D01*
X153069835Y-114177705D01*
X152874926Y-113961472D01*
X152641577Y-113787419D01*
X152378756Y-113662235D01*
X152231547Y-113617584D01*
X152001657Y-113738905D01*
X151747657Y-113738905D01*
X151517767Y-113617584D01*
X151370558Y-113662235D01*
X151107737Y-113787419D01*
X150874388Y-113961472D01*
X150679479Y-114177705D01*
X150530500Y-114427808D01*
X150433176Y-114702169D01*
X142309994Y-114702169D01*
X142285093Y-114576986D01*
X142176920Y-114315833D01*
X142019877Y-114080801D01*
X141819999Y-113880923D01*
X141584967Y-113723880D01*
X141323814Y-113615707D01*
X141046575Y-113560560D01*
X140763905Y-113560560D01*
X140486666Y-113615707D01*
X140225513Y-113723880D01*
X139990481Y-113880923D01*
X139790603Y-114080801D01*
X139633560Y-114315833D01*
X139525387Y-114576986D01*
X139470240Y-114854225D01*
X137249621Y-114854225D01*
X137249621Y-114849300D01*
X137192553Y-114562402D01*
X137080611Y-114292149D01*
X136918096Y-114048928D01*
X136711253Y-113842085D01*
X136468032Y-113679570D01*
X136197779Y-113567628D01*
X135910881Y-113510560D01*
X135618361Y-113510560D01*
X135331463Y-113567628D01*
X135061210Y-113679570D01*
X134817989Y-113842085D01*
X134611146Y-114048928D01*
X134489426Y-114231094D01*
X134419799Y-114114205D01*
X134224890Y-113897972D01*
X133991541Y-113723919D01*
X133728720Y-113598735D01*
X133581511Y-113554084D01*
X133351621Y-113675405D01*
X133097621Y-113675405D01*
X132867731Y-113554084D01*
X132720522Y-113598735D01*
X132457701Y-113723919D01*
X132224352Y-113897972D01*
X132029443Y-114114205D01*
X131880464Y-114364308D01*
X131783140Y-114638669D01*
X121821243Y-114638669D01*
X121745659Y-114425313D01*
X121672212Y-114287903D01*
X121423137Y-114210268D01*
X120574345Y-115059060D01*
X120215135Y-115059060D01*
X119366343Y-114210268D01*
X119124051Y-114285789D01*
X119008215Y-114112428D01*
X118926450Y-114030663D01*
X119545948Y-114030663D01*
X120394740Y-114879455D01*
X121243532Y-114030663D01*
X121165897Y-113781588D01*
X120901857Y-113655689D01*
X120618329Y-113583721D01*
X120326209Y-113568449D01*
X120036721Y-113610461D01*
X119760993Y-113708141D01*
X119623583Y-113781588D01*
X119545948Y-114030663D01*
X118926450Y-114030663D01*
X118801372Y-113905585D01*
X118558151Y-113743070D01*
X118287898Y-113631128D01*
X118001000Y-113574060D01*
X117708480Y-113574060D01*
X117421582Y-113631128D01*
X117151329Y-113743070D01*
X116908108Y-113905585D01*
X116701265Y-114112428D01*
X116584740Y-114286820D01*
X116468215Y-114112428D01*
X116261372Y-113905585D01*
X116018151Y-113743070D01*
X115747898Y-113631128D01*
X115461000Y-113574060D01*
X115168480Y-113574060D01*
X114881582Y-113631128D01*
X114611329Y-113743070D01*
X114368108Y-113905585D01*
X114161265Y-114112428D01*
X113998750Y-114355649D01*
X113886808Y-114625902D01*
X113829740Y-114912800D01*
X111385585Y-114912800D01*
X111328517Y-114625902D01*
X111216575Y-114355649D01*
X111054060Y-114112428D01*
X110847217Y-113905585D01*
X110603996Y-113743070D01*
X110333743Y-113631128D01*
X110046845Y-113574060D01*
X109754325Y-113574060D01*
X109467427Y-113631128D01*
X109197174Y-113743070D01*
X108953953Y-113905585D01*
X108747110Y-114112428D01*
X108630585Y-114286820D01*
X108514060Y-114112428D01*
X108307217Y-113905585D01*
X108063996Y-113743070D01*
X107793743Y-113631128D01*
X107506845Y-113574060D01*
X107214325Y-113574060D01*
X106927427Y-113631128D01*
X106657174Y-113743070D01*
X106413953Y-113905585D01*
X106207110Y-114112428D01*
X106085390Y-114294594D01*
X106015763Y-114177705D01*
X105820854Y-113961472D01*
X105587505Y-113787419D01*
X105324684Y-113662235D01*
X105177475Y-113617584D01*
X104947585Y-113738905D01*
X104693585Y-113738905D01*
X104463695Y-113617584D01*
X104316486Y-113662235D01*
X104053665Y-113787419D01*
X103820316Y-113961472D01*
X103625407Y-114177705D01*
X103476428Y-114427808D01*
X103379104Y-114702169D01*
X90235000Y-114702169D01*
X90235000Y-79814560D01*
X92798540Y-79814560D01*
X92798540Y-80107080D01*
X92855608Y-80393978D01*
X92967550Y-80664231D01*
X93130065Y-80907452D01*
X93336908Y-81114295D01*
X93511300Y-81230820D01*
X93336908Y-81347345D01*
X93130065Y-81554188D01*
X92967550Y-81797409D01*
X92855608Y-82067662D01*
X92798540Y-82354560D01*
X92798540Y-82647080D01*
X92855608Y-82933978D01*
X92967550Y-83204231D01*
X93130065Y-83447452D01*
X93336908Y-83654295D01*
X93511300Y-83770820D01*
X93336908Y-83887345D01*
X93130065Y-84094188D01*
X92967550Y-84337409D01*
X92855608Y-84607662D01*
X92798540Y-84894560D01*
X92798540Y-85187080D01*
X92855608Y-85473978D01*
X92967550Y-85744231D01*
X93130065Y-85987452D01*
X93336908Y-86194295D01*
X93511300Y-86310820D01*
X93336908Y-86427345D01*
X93130065Y-86634188D01*
X92967550Y-86877409D01*
X92855608Y-87147662D01*
X92798540Y-87434560D01*
X92798540Y-87727080D01*
X92855608Y-88013978D01*
X92967550Y-88284231D01*
X93130065Y-88527452D01*
X93336908Y-88734295D01*
X93511300Y-88850820D01*
X93336908Y-88967345D01*
X93130065Y-89174188D01*
X92967550Y-89417409D01*
X92855608Y-89687662D01*
X92798540Y-89974560D01*
X92798540Y-90267080D01*
X92855608Y-90553978D01*
X92967550Y-90824231D01*
X93130065Y-91067452D01*
X93336908Y-91274295D01*
X93511300Y-91390820D01*
X93336908Y-91507345D01*
X93130065Y-91714188D01*
X92967550Y-91957409D01*
X92855608Y-92227662D01*
X92798540Y-92514560D01*
X92798540Y-92807080D01*
X92855608Y-93093978D01*
X92967550Y-93364231D01*
X93130065Y-93607452D01*
X93336908Y-93814295D01*
X93511300Y-93930820D01*
X93336908Y-94047345D01*
X93130065Y-94254188D01*
X92967550Y-94497409D01*
X92855608Y-94767662D01*
X92798540Y-95054560D01*
X92798540Y-95347080D01*
X92855608Y-95633978D01*
X92967550Y-95904231D01*
X93130065Y-96147452D01*
X93336908Y-96354295D01*
X93511300Y-96470820D01*
X93336908Y-96587345D01*
X93130065Y-96794188D01*
X92967550Y-97037409D01*
X92855608Y-97307662D01*
X92798540Y-97594560D01*
X92798540Y-97887080D01*
X92855608Y-98173978D01*
X92967550Y-98444231D01*
X93130065Y-98687452D01*
X93336908Y-98894295D01*
X93511300Y-99010820D01*
X93336908Y-99127345D01*
X93130065Y-99334188D01*
X92967550Y-99577409D01*
X92855608Y-99847662D01*
X92798540Y-100134560D01*
X92798540Y-100427080D01*
X92855608Y-100713978D01*
X92967550Y-100984231D01*
X93130065Y-101227452D01*
X93336908Y-101434295D01*
X93511300Y-101550820D01*
X93336908Y-101667345D01*
X93130065Y-101874188D01*
X92967550Y-102117409D01*
X92855608Y-102387662D01*
X92798540Y-102674560D01*
X92798540Y-102967080D01*
X92855608Y-103253978D01*
X92967550Y-103524231D01*
X93130065Y-103767452D01*
X93336908Y-103974295D01*
X93580129Y-104136810D01*
X93850382Y-104248752D01*
X94137280Y-104305820D01*
X94429800Y-104305820D01*
X94716698Y-104248752D01*
X94986951Y-104136810D01*
X95230172Y-103974295D01*
X95355250Y-103849217D01*
X95974748Y-103849217D01*
X96052383Y-104098292D01*
X96316423Y-104224191D01*
X96599951Y-104296159D01*
X96892071Y-104311431D01*
X97181559Y-104269419D01*
X97457287Y-104171739D01*
X97594697Y-104098292D01*
X97650595Y-103918955D01*
X112798580Y-103918955D01*
X112798580Y-104197685D01*
X112852957Y-104471060D01*
X112959623Y-104728574D01*
X113114477Y-104960330D01*
X113311570Y-105157423D01*
X113543326Y-105312277D01*
X113800840Y-105418943D01*
X114074215Y-105473320D01*
X114352945Y-105473320D01*
X114626320Y-105418943D01*
X114883834Y-105312277D01*
X115115590Y-105157423D01*
X115312683Y-104960330D01*
X115467537Y-104728574D01*
X115483580Y-104689843D01*
X115499623Y-104728574D01*
X115654477Y-104960330D01*
X115851570Y-105157423D01*
X116083326Y-105312277D01*
X116340840Y-105418943D01*
X116614215Y-105473320D01*
X116892945Y-105473320D01*
X117166320Y-105418943D01*
X117423834Y-105312277D01*
X117655590Y-105157423D01*
X117852683Y-104960330D01*
X118007537Y-104728574D01*
X118023580Y-104689843D01*
X118039623Y-104728574D01*
X118194477Y-104960330D01*
X118391570Y-105157423D01*
X118623326Y-105312277D01*
X118880840Y-105418943D01*
X119154215Y-105473320D01*
X119432945Y-105473320D01*
X119706320Y-105418943D01*
X119963834Y-105312277D01*
X120195590Y-105157423D01*
X120392683Y-104960330D01*
X120547537Y-104728574D01*
X120563580Y-104689843D01*
X120579623Y-104728574D01*
X120734477Y-104960330D01*
X120931570Y-105157423D01*
X121163326Y-105312277D01*
X121420840Y-105418943D01*
X121694215Y-105473320D01*
X121972945Y-105473320D01*
X122246320Y-105418943D01*
X122503834Y-105312277D01*
X122735590Y-105157423D01*
X122932683Y-104960330D01*
X123087537Y-104728574D01*
X123103580Y-104689843D01*
X123119623Y-104728574D01*
X123274477Y-104960330D01*
X123471570Y-105157423D01*
X123703326Y-105312277D01*
X123960840Y-105418943D01*
X124234215Y-105473320D01*
X124512945Y-105473320D01*
X124786320Y-105418943D01*
X125043834Y-105312277D01*
X125275590Y-105157423D01*
X125472683Y-104960330D01*
X125627537Y-104728574D01*
X125643580Y-104689843D01*
X125659623Y-104728574D01*
X125814477Y-104960330D01*
X126011570Y-105157423D01*
X126243326Y-105312277D01*
X126500840Y-105418943D01*
X126774215Y-105473320D01*
X127052945Y-105473320D01*
X127326320Y-105418943D01*
X127583834Y-105312277D01*
X127815590Y-105157423D01*
X128012683Y-104960330D01*
X128167537Y-104728574D01*
X128183580Y-104689843D01*
X128199623Y-104728574D01*
X128354477Y-104960330D01*
X128551570Y-105157423D01*
X128783326Y-105312277D01*
X129040840Y-105418943D01*
X129314215Y-105473320D01*
X129592945Y-105473320D01*
X129866320Y-105418943D01*
X130123834Y-105312277D01*
X130355590Y-105157423D01*
X130552683Y-104960330D01*
X130707537Y-104728574D01*
X130723580Y-104689843D01*
X130739623Y-104728574D01*
X130894477Y-104960330D01*
X131091570Y-105157423D01*
X131323326Y-105312277D01*
X131580840Y-105418943D01*
X131854215Y-105473320D01*
X132132945Y-105473320D01*
X132406320Y-105418943D01*
X132663834Y-105312277D01*
X132895590Y-105157423D01*
X133092683Y-104960330D01*
X133247537Y-104728574D01*
X133263580Y-104689843D01*
X133279623Y-104728574D01*
X133434477Y-104960330D01*
X133631570Y-105157423D01*
X133863326Y-105312277D01*
X134120840Y-105418943D01*
X134394215Y-105473320D01*
X134672945Y-105473320D01*
X134946320Y-105418943D01*
X135203834Y-105312277D01*
X135435590Y-105157423D01*
X135632683Y-104960330D01*
X135787537Y-104728574D01*
X135803580Y-104689843D01*
X135819623Y-104728574D01*
X135974477Y-104960330D01*
X136171570Y-105157423D01*
X136403326Y-105312277D01*
X136660840Y-105418943D01*
X136934215Y-105473320D01*
X137212945Y-105473320D01*
X137486320Y-105418943D01*
X137743834Y-105312277D01*
X137975590Y-105157423D01*
X138172683Y-104960330D01*
X138327537Y-104728574D01*
X138343580Y-104689843D01*
X138359623Y-104728574D01*
X138514477Y-104960330D01*
X138711570Y-105157423D01*
X138943326Y-105312277D01*
X139200840Y-105418943D01*
X139474215Y-105473320D01*
X139752945Y-105473320D01*
X140026320Y-105418943D01*
X140283834Y-105312277D01*
X140515590Y-105157423D01*
X140712683Y-104960330D01*
X140867537Y-104728574D01*
X140883580Y-104689843D01*
X140899623Y-104728574D01*
X141054477Y-104960330D01*
X141251570Y-105157423D01*
X141483326Y-105312277D01*
X141740840Y-105418943D01*
X142014215Y-105473320D01*
X142292945Y-105473320D01*
X142566320Y-105418943D01*
X142823834Y-105312277D01*
X143055590Y-105157423D01*
X143252683Y-104960330D01*
X143407537Y-104728574D01*
X143423580Y-104689843D01*
X143439623Y-104728574D01*
X143594477Y-104960330D01*
X143791570Y-105157423D01*
X144023326Y-105312277D01*
X144280840Y-105418943D01*
X144554215Y-105473320D01*
X144832945Y-105473320D01*
X145106320Y-105418943D01*
X145363834Y-105312277D01*
X145595590Y-105157423D01*
X145792683Y-104960330D01*
X145947537Y-104728574D01*
X145963580Y-104689843D01*
X145979623Y-104728574D01*
X146134477Y-104960330D01*
X146331570Y-105157423D01*
X146563326Y-105312277D01*
X146820840Y-105418943D01*
X147094215Y-105473320D01*
X147372945Y-105473320D01*
X147646320Y-105418943D01*
X147903834Y-105312277D01*
X148135590Y-105157423D01*
X148332683Y-104960330D01*
X148487537Y-104728574D01*
X148503580Y-104689843D01*
X148519623Y-104728574D01*
X148674477Y-104960330D01*
X148871570Y-105157423D01*
X149103326Y-105312277D01*
X149360840Y-105418943D01*
X149634215Y-105473320D01*
X149912945Y-105473320D01*
X150186320Y-105418943D01*
X150443834Y-105312277D01*
X150675590Y-105157423D01*
X150872683Y-104960330D01*
X151027537Y-104728574D01*
X151134203Y-104471060D01*
X151188580Y-104197685D01*
X151188580Y-103918955D01*
X151134203Y-103645580D01*
X151027537Y-103388066D01*
X150872683Y-103156310D01*
X150675590Y-102959217D01*
X150443834Y-102804363D01*
X150186320Y-102697697D01*
X149912945Y-102643320D01*
X149634215Y-102643320D01*
X149360840Y-102697697D01*
X149103326Y-102804363D01*
X148871570Y-102959217D01*
X148674477Y-103156310D01*
X148519623Y-103388066D01*
X148503580Y-103426797D01*
X148487537Y-103388066D01*
X148332683Y-103156310D01*
X148135590Y-102959217D01*
X147903834Y-102804363D01*
X147646320Y-102697697D01*
X147372945Y-102643320D01*
X147094215Y-102643320D01*
X146820840Y-102697697D01*
X146563326Y-102804363D01*
X146331570Y-102959217D01*
X146134477Y-103156310D01*
X145979623Y-103388066D01*
X145963580Y-103426797D01*
X145947537Y-103388066D01*
X145792683Y-103156310D01*
X145595590Y-102959217D01*
X145363834Y-102804363D01*
X145106320Y-102697697D01*
X144832945Y-102643320D01*
X144554215Y-102643320D01*
X144280840Y-102697697D01*
X144023326Y-102804363D01*
X143791570Y-102959217D01*
X143594477Y-103156310D01*
X143439623Y-103388066D01*
X143423580Y-103426797D01*
X143407537Y-103388066D01*
X143252683Y-103156310D01*
X143055590Y-102959217D01*
X142823834Y-102804363D01*
X142566320Y-102697697D01*
X142292945Y-102643320D01*
X142014215Y-102643320D01*
X141740840Y-102697697D01*
X141483326Y-102804363D01*
X141251570Y-102959217D01*
X141054477Y-103156310D01*
X140899623Y-103388066D01*
X140883580Y-103426797D01*
X140867537Y-103388066D01*
X140712683Y-103156310D01*
X140515590Y-102959217D01*
X140283834Y-102804363D01*
X140026320Y-102697697D01*
X139752945Y-102643320D01*
X139474215Y-102643320D01*
X139200840Y-102697697D01*
X138943326Y-102804363D01*
X138711570Y-102959217D01*
X138514477Y-103156310D01*
X138359623Y-103388066D01*
X138343580Y-103426797D01*
X138327537Y-103388066D01*
X138172683Y-103156310D01*
X137975590Y-102959217D01*
X137743834Y-102804363D01*
X137486320Y-102697697D01*
X137212945Y-102643320D01*
X136934215Y-102643320D01*
X136660840Y-102697697D01*
X136403326Y-102804363D01*
X136171570Y-102959217D01*
X135974477Y-103156310D01*
X135819623Y-103388066D01*
X135803580Y-103426797D01*
X135787537Y-103388066D01*
X135632683Y-103156310D01*
X135435590Y-102959217D01*
X135203834Y-102804363D01*
X134946320Y-102697697D01*
X134672945Y-102643320D01*
X134394215Y-102643320D01*
X134120840Y-102697697D01*
X133863326Y-102804363D01*
X133631570Y-102959217D01*
X133434477Y-103156310D01*
X133279623Y-103388066D01*
X133263580Y-103426797D01*
X133247537Y-103388066D01*
X133092683Y-103156310D01*
X132895590Y-102959217D01*
X132663834Y-102804363D01*
X132406320Y-102697697D01*
X132132945Y-102643320D01*
X131854215Y-102643320D01*
X131580840Y-102697697D01*
X131323326Y-102804363D01*
X131091570Y-102959217D01*
X130894477Y-103156310D01*
X130739623Y-103388066D01*
X130723580Y-103426797D01*
X130707537Y-103388066D01*
X130552683Y-103156310D01*
X130355590Y-102959217D01*
X130123834Y-102804363D01*
X129866320Y-102697697D01*
X129592945Y-102643320D01*
X129314215Y-102643320D01*
X129040840Y-102697697D01*
X128783326Y-102804363D01*
X128551570Y-102959217D01*
X128354477Y-103156310D01*
X128199623Y-103388066D01*
X128183580Y-103426797D01*
X128167537Y-103388066D01*
X128012683Y-103156310D01*
X127815590Y-102959217D01*
X127583834Y-102804363D01*
X127326320Y-102697697D01*
X127052945Y-102643320D01*
X126774215Y-102643320D01*
X126500840Y-102697697D01*
X126243326Y-102804363D01*
X126011570Y-102959217D01*
X125814477Y-103156310D01*
X125659623Y-103388066D01*
X125643580Y-103426797D01*
X125627537Y-103388066D01*
X125472683Y-103156310D01*
X125275590Y-102959217D01*
X125043834Y-102804363D01*
X124786320Y-102697697D01*
X124512945Y-102643320D01*
X124234215Y-102643320D01*
X123960840Y-102697697D01*
X123703326Y-102804363D01*
X123471570Y-102959217D01*
X123274477Y-103156310D01*
X123119623Y-103388066D01*
X123103580Y-103426797D01*
X123087537Y-103388066D01*
X122932683Y-103156310D01*
X122735590Y-102959217D01*
X122503834Y-102804363D01*
X122246320Y-102697697D01*
X121972945Y-102643320D01*
X121694215Y-102643320D01*
X121420840Y-102697697D01*
X121163326Y-102804363D01*
X120931570Y-102959217D01*
X120734477Y-103156310D01*
X120579623Y-103388066D01*
X120563580Y-103426797D01*
X120547537Y-103388066D01*
X120392683Y-103156310D01*
X120195590Y-102959217D01*
X119963834Y-102804363D01*
X119706320Y-102697697D01*
X119432945Y-102643320D01*
X119154215Y-102643320D01*
X118880840Y-102697697D01*
X118623326Y-102804363D01*
X118391570Y-102959217D01*
X118194477Y-103156310D01*
X118039623Y-103388066D01*
X118023580Y-103426797D01*
X118007537Y-103388066D01*
X117852683Y-103156310D01*
X117655590Y-102959217D01*
X117423834Y-102804363D01*
X117166320Y-102697697D01*
X116892945Y-102643320D01*
X116614215Y-102643320D01*
X116340840Y-102697697D01*
X116083326Y-102804363D01*
X115851570Y-102959217D01*
X115654477Y-103156310D01*
X115499623Y-103388066D01*
X115483580Y-103426797D01*
X115467537Y-103388066D01*
X115312683Y-103156310D01*
X115115590Y-102959217D01*
X114883834Y-102804363D01*
X114626320Y-102697697D01*
X114352945Y-102643320D01*
X114074215Y-102643320D01*
X113800840Y-102697697D01*
X113543326Y-102804363D01*
X113311570Y-102959217D01*
X113114477Y-103156310D01*
X112959623Y-103388066D01*
X112852957Y-103645580D01*
X112798580Y-103918955D01*
X97650595Y-103918955D01*
X97672332Y-103849217D01*
X96823540Y-103000425D01*
X95974748Y-103849217D01*
X95355250Y-103849217D01*
X95437015Y-103767452D01*
X95552851Y-103594091D01*
X95795143Y-103669612D01*
X96643935Y-102820820D01*
X97003145Y-102820820D01*
X97851937Y-103669612D01*
X98101012Y-103591977D01*
X98226911Y-103327937D01*
X98298879Y-103044409D01*
X98314151Y-102752289D01*
X98272139Y-102462801D01*
X98174459Y-102187073D01*
X98101012Y-102049663D01*
X97851937Y-101972028D01*
X97003145Y-102820820D01*
X96643935Y-102820820D01*
X95795143Y-101972028D01*
X95552851Y-102047549D01*
X95437015Y-101874188D01*
X95230172Y-101667345D01*
X95055780Y-101550820D01*
X95230172Y-101434295D01*
X95437015Y-101227452D01*
X95554640Y-101051414D01*
X95725952Y-101281089D01*
X95942185Y-101475998D01*
X96053895Y-101542540D01*
X96052383Y-101543348D01*
X95974748Y-101792423D01*
X96823540Y-102641215D01*
X97672332Y-101792423D01*
X97594697Y-101543348D01*
X97593104Y-101542589D01*
X97704895Y-101475998D01*
X97921128Y-101281089D01*
X98095181Y-101047740D01*
X98220365Y-100784919D01*
X98265016Y-100637710D01*
X98143695Y-100407820D01*
X96950540Y-100407820D01*
X96950540Y-100427820D01*
X96696540Y-100427820D01*
X96696540Y-100407820D01*
X96676540Y-100407820D01*
X96676540Y-100153820D01*
X96696540Y-100153820D01*
X96696540Y-97867820D01*
X96950540Y-97867820D01*
X96950540Y-100153820D01*
X98143695Y-100153820D01*
X98265016Y-99923930D01*
X98222743Y-99784560D01*
X173509580Y-99784560D01*
X173509580Y-100077080D01*
X173566648Y-100363978D01*
X173678590Y-100634231D01*
X173841105Y-100877452D01*
X174047948Y-101084295D01*
X174291169Y-101246810D01*
X174561422Y-101358752D01*
X174848320Y-101415820D01*
X175140840Y-101415820D01*
X175427738Y-101358752D01*
X175697991Y-101246810D01*
X175941212Y-101084295D01*
X176148055Y-100877452D01*
X176310570Y-100634231D01*
X176422512Y-100363978D01*
X176479580Y-100077080D01*
X176479580Y-99784560D01*
X176422512Y-99497662D01*
X176310570Y-99227409D01*
X176148055Y-98984188D01*
X175941212Y-98777345D01*
X175759046Y-98655625D01*
X175875935Y-98585998D01*
X176092168Y-98391089D01*
X176266221Y-98157740D01*
X176391405Y-97894919D01*
X176436056Y-97747710D01*
X176314735Y-97517820D01*
X175121580Y-97517820D01*
X175121580Y-97537820D01*
X174867580Y-97537820D01*
X174867580Y-97517820D01*
X173674425Y-97517820D01*
X173553104Y-97747710D01*
X173597755Y-97894919D01*
X173722939Y-98157740D01*
X173896992Y-98391089D01*
X174113225Y-98585998D01*
X174230114Y-98655625D01*
X174047948Y-98777345D01*
X173841105Y-98984188D01*
X173678590Y-99227409D01*
X173566648Y-99497662D01*
X173509580Y-99784560D01*
X98222743Y-99784560D01*
X98220365Y-99776721D01*
X98095181Y-99513900D01*
X97921128Y-99280551D01*
X97704895Y-99085642D01*
X97579285Y-99010820D01*
X97704895Y-98935998D01*
X97921128Y-98741089D01*
X98095181Y-98507740D01*
X98220365Y-98244919D01*
X98265016Y-98097710D01*
X98143695Y-97867820D01*
X96950540Y-97867820D01*
X96696540Y-97867820D01*
X96676540Y-97867820D01*
X96676540Y-97613820D01*
X96696540Y-97613820D01*
X96696540Y-95327820D01*
X96950540Y-95327820D01*
X96950540Y-97613820D01*
X98143695Y-97613820D01*
X98265016Y-97383930D01*
X98220365Y-97236721D01*
X98095181Y-96973900D01*
X97921128Y-96740551D01*
X97704895Y-96545642D01*
X97579285Y-96470820D01*
X97704895Y-96395998D01*
X97921128Y-96201089D01*
X98095181Y-95967740D01*
X98220365Y-95704919D01*
X98265016Y-95557710D01*
X98143695Y-95327820D01*
X96950540Y-95327820D01*
X96696540Y-95327820D01*
X96676540Y-95327820D01*
X96676540Y-95073820D01*
X96696540Y-95073820D01*
X96696540Y-92787820D01*
X96950540Y-92787820D01*
X96950540Y-95073820D01*
X98143695Y-95073820D01*
X98265016Y-94843930D01*
X98222743Y-94704560D01*
X173509580Y-94704560D01*
X173509580Y-94997080D01*
X173566648Y-95283978D01*
X173678590Y-95554231D01*
X173841105Y-95797452D01*
X174047948Y-96004295D01*
X174230114Y-96126015D01*
X174113225Y-96195642D01*
X173896992Y-96390551D01*
X173722939Y-96623900D01*
X173597755Y-96886721D01*
X173553104Y-97033930D01*
X173674425Y-97263820D01*
X174867580Y-97263820D01*
X174867580Y-97243820D01*
X175121580Y-97243820D01*
X175121580Y-97263820D01*
X176314735Y-97263820D01*
X176436056Y-97033930D01*
X176391405Y-96886721D01*
X176266221Y-96623900D01*
X176092168Y-96390551D01*
X175875935Y-96195642D01*
X175759046Y-96126015D01*
X175941212Y-96004295D01*
X176148055Y-95797452D01*
X176310570Y-95554231D01*
X176422512Y-95283978D01*
X176479580Y-94997080D01*
X176479580Y-94704560D01*
X176422512Y-94417662D01*
X176310570Y-94147409D01*
X176148055Y-93904188D01*
X175941212Y-93697345D01*
X175697991Y-93534830D01*
X175427738Y-93422888D01*
X175140840Y-93365820D01*
X174848320Y-93365820D01*
X174561422Y-93422888D01*
X174291169Y-93534830D01*
X174047948Y-93697345D01*
X173841105Y-93904188D01*
X173678590Y-94147409D01*
X173566648Y-94417662D01*
X173509580Y-94704560D01*
X98222743Y-94704560D01*
X98220365Y-94696721D01*
X98095181Y-94433900D01*
X97921128Y-94200551D01*
X97704895Y-94005642D01*
X97579285Y-93930820D01*
X97704895Y-93855998D01*
X97921128Y-93661089D01*
X98095181Y-93427740D01*
X98220365Y-93164919D01*
X98265016Y-93017710D01*
X98143695Y-92787820D01*
X96950540Y-92787820D01*
X96696540Y-92787820D01*
X96676540Y-92787820D01*
X96676540Y-92533820D01*
X96696540Y-92533820D01*
X96696540Y-90247820D01*
X96950540Y-90247820D01*
X96950540Y-92533820D01*
X98143695Y-92533820D01*
X98265016Y-92303930D01*
X98220365Y-92156721D01*
X98095181Y-91893900D01*
X97921128Y-91660551D01*
X97704895Y-91465642D01*
X97579285Y-91390820D01*
X97704895Y-91315998D01*
X97921128Y-91121089D01*
X98095181Y-90887740D01*
X98220365Y-90624919D01*
X98265016Y-90477710D01*
X98143695Y-90247820D01*
X96950540Y-90247820D01*
X96696540Y-90247820D01*
X96676540Y-90247820D01*
X96676540Y-89993820D01*
X96696540Y-89993820D01*
X96696540Y-87707820D01*
X96950540Y-87707820D01*
X96950540Y-89993820D01*
X98143695Y-89993820D01*
X98265016Y-89763930D01*
X98220365Y-89616721D01*
X98095181Y-89353900D01*
X97921128Y-89120551D01*
X97704895Y-88925642D01*
X97579285Y-88850820D01*
X97704895Y-88775998D01*
X97921128Y-88581089D01*
X98095181Y-88347740D01*
X98220365Y-88084919D01*
X98265016Y-87937710D01*
X98143695Y-87707820D01*
X96950540Y-87707820D01*
X96696540Y-87707820D01*
X96676540Y-87707820D01*
X96676540Y-87453820D01*
X96696540Y-87453820D01*
X96696540Y-85167820D01*
X96950540Y-85167820D01*
X96950540Y-87453820D01*
X98143695Y-87453820D01*
X98265016Y-87223930D01*
X98220365Y-87076721D01*
X98103117Y-86830560D01*
X173509580Y-86830560D01*
X173509580Y-87123080D01*
X173566648Y-87409978D01*
X173678590Y-87680231D01*
X173841105Y-87923452D01*
X174047948Y-88130295D01*
X174291169Y-88292810D01*
X174561422Y-88404752D01*
X174848320Y-88461820D01*
X175140840Y-88461820D01*
X175427738Y-88404752D01*
X175697991Y-88292810D01*
X175941212Y-88130295D01*
X176148055Y-87923452D01*
X176310570Y-87680231D01*
X176422512Y-87409978D01*
X176479580Y-87123080D01*
X176479580Y-86830560D01*
X176422512Y-86543662D01*
X176310570Y-86273409D01*
X176148055Y-86030188D01*
X175941212Y-85823345D01*
X175759046Y-85701625D01*
X175875935Y-85631998D01*
X176092168Y-85437089D01*
X176266221Y-85203740D01*
X176391405Y-84940919D01*
X176436056Y-84793710D01*
X176314735Y-84563820D01*
X175121580Y-84563820D01*
X175121580Y-84583820D01*
X174867580Y-84583820D01*
X174867580Y-84563820D01*
X173674425Y-84563820D01*
X173553104Y-84793710D01*
X173597755Y-84940919D01*
X173722939Y-85203740D01*
X173896992Y-85437089D01*
X174113225Y-85631998D01*
X174230114Y-85701625D01*
X174047948Y-85823345D01*
X173841105Y-86030188D01*
X173678590Y-86273409D01*
X173566648Y-86543662D01*
X173509580Y-86830560D01*
X98103117Y-86830560D01*
X98095181Y-86813900D01*
X97921128Y-86580551D01*
X97704895Y-86385642D01*
X97579285Y-86310820D01*
X97704895Y-86235998D01*
X97921128Y-86041089D01*
X98095181Y-85807740D01*
X98220365Y-85544919D01*
X98265016Y-85397710D01*
X98143695Y-85167820D01*
X96950540Y-85167820D01*
X96696540Y-85167820D01*
X96676540Y-85167820D01*
X96676540Y-84913820D01*
X96696540Y-84913820D01*
X96696540Y-82627820D01*
X96950540Y-82627820D01*
X96950540Y-84913820D01*
X98143695Y-84913820D01*
X98265016Y-84683930D01*
X98220365Y-84536721D01*
X98095181Y-84273900D01*
X97921128Y-84040551D01*
X97704895Y-83845642D01*
X97579285Y-83770820D01*
X97704895Y-83695998D01*
X97921128Y-83501089D01*
X98095181Y-83267740D01*
X98220365Y-83004919D01*
X98265016Y-82857710D01*
X98143695Y-82627820D01*
X96950540Y-82627820D01*
X96696540Y-82627820D01*
X96676540Y-82627820D01*
X96676540Y-82373820D01*
X96696540Y-82373820D01*
X96696540Y-80087820D01*
X96950540Y-80087820D01*
X96950540Y-82373820D01*
X98143695Y-82373820D01*
X98265016Y-82143930D01*
X98220365Y-81996721D01*
X98103117Y-81750560D01*
X173509580Y-81750560D01*
X173509580Y-82043080D01*
X173566648Y-82329978D01*
X173678590Y-82600231D01*
X173841105Y-82843452D01*
X174047948Y-83050295D01*
X174230114Y-83172015D01*
X174113225Y-83241642D01*
X173896992Y-83436551D01*
X173722939Y-83669900D01*
X173597755Y-83932721D01*
X173553104Y-84079930D01*
X173674425Y-84309820D01*
X174867580Y-84309820D01*
X174867580Y-84289820D01*
X175121580Y-84289820D01*
X175121580Y-84309820D01*
X176314735Y-84309820D01*
X176436056Y-84079930D01*
X176391405Y-83932721D01*
X176266221Y-83669900D01*
X176092168Y-83436551D01*
X175875935Y-83241642D01*
X175759046Y-83172015D01*
X175941212Y-83050295D01*
X176148055Y-82843452D01*
X176310570Y-82600231D01*
X176422512Y-82329978D01*
X176479580Y-82043080D01*
X176479580Y-81750560D01*
X176422512Y-81463662D01*
X176310570Y-81193409D01*
X176148055Y-80950188D01*
X175941212Y-80743345D01*
X175697991Y-80580830D01*
X175427738Y-80468888D01*
X175140840Y-80411820D01*
X174848320Y-80411820D01*
X174561422Y-80468888D01*
X174291169Y-80580830D01*
X174047948Y-80743345D01*
X173841105Y-80950188D01*
X173678590Y-81193409D01*
X173566648Y-81463662D01*
X173509580Y-81750560D01*
X98103117Y-81750560D01*
X98095181Y-81733900D01*
X97921128Y-81500551D01*
X97704895Y-81305642D01*
X97579285Y-81230820D01*
X97704895Y-81155998D01*
X97921128Y-80961089D01*
X98095181Y-80727740D01*
X98220365Y-80464919D01*
X98265016Y-80317710D01*
X98143695Y-80087820D01*
X96950540Y-80087820D01*
X96696540Y-80087820D01*
X96676540Y-80087820D01*
X96676540Y-79833820D01*
X96696540Y-79833820D01*
X96696540Y-78640006D01*
X96950540Y-78640006D01*
X96950540Y-79833820D01*
X98143695Y-79833820D01*
X98265016Y-79603930D01*
X98220365Y-79456721D01*
X98095181Y-79193900D01*
X97921128Y-78960551D01*
X97704895Y-78765642D01*
X97454792Y-78616663D01*
X97180431Y-78519339D01*
X96950540Y-78640006D01*
X96696540Y-78640006D01*
X96466649Y-78519339D01*
X96192288Y-78616663D01*
X95942185Y-78765642D01*
X95725952Y-78960551D01*
X95554640Y-79190226D01*
X95437015Y-79014188D01*
X95230172Y-78807345D01*
X94986951Y-78644830D01*
X94716698Y-78532888D01*
X94646653Y-78518955D01*
X112798580Y-78518955D01*
X112798580Y-78797685D01*
X112852957Y-79071060D01*
X112959623Y-79328574D01*
X113114477Y-79560330D01*
X113311570Y-79757423D01*
X113543326Y-79912277D01*
X113800840Y-80018943D01*
X114074215Y-80073320D01*
X114352945Y-80073320D01*
X114626320Y-80018943D01*
X114883834Y-79912277D01*
X115115590Y-79757423D01*
X115312683Y-79560330D01*
X115467537Y-79328574D01*
X115483580Y-79289843D01*
X115499623Y-79328574D01*
X115654477Y-79560330D01*
X115851570Y-79757423D01*
X116083326Y-79912277D01*
X116340840Y-80018943D01*
X116614215Y-80073320D01*
X116892945Y-80073320D01*
X117166320Y-80018943D01*
X117423834Y-79912277D01*
X117655590Y-79757423D01*
X117852683Y-79560330D01*
X118007537Y-79328574D01*
X118023580Y-79289843D01*
X118039623Y-79328574D01*
X118194477Y-79560330D01*
X118391570Y-79757423D01*
X118623326Y-79912277D01*
X118880840Y-80018943D01*
X119154215Y-80073320D01*
X119432945Y-80073320D01*
X119706320Y-80018943D01*
X119963834Y-79912277D01*
X120195590Y-79757423D01*
X120392683Y-79560330D01*
X120547537Y-79328574D01*
X120563580Y-79289843D01*
X120579623Y-79328574D01*
X120734477Y-79560330D01*
X120931570Y-79757423D01*
X121163326Y-79912277D01*
X121420840Y-80018943D01*
X121694215Y-80073320D01*
X121972945Y-80073320D01*
X122246320Y-80018943D01*
X122503834Y-79912277D01*
X122735590Y-79757423D01*
X122932683Y-79560330D01*
X123087537Y-79328574D01*
X123103580Y-79289843D01*
X123119623Y-79328574D01*
X123274477Y-79560330D01*
X123471570Y-79757423D01*
X123703326Y-79912277D01*
X123960840Y-80018943D01*
X124234215Y-80073320D01*
X124512945Y-80073320D01*
X124786320Y-80018943D01*
X125043834Y-79912277D01*
X125275590Y-79757423D01*
X125472683Y-79560330D01*
X125627537Y-79328574D01*
X125643580Y-79289843D01*
X125659623Y-79328574D01*
X125814477Y-79560330D01*
X126011570Y-79757423D01*
X126243326Y-79912277D01*
X126500840Y-80018943D01*
X126774215Y-80073320D01*
X127052945Y-80073320D01*
X127326320Y-80018943D01*
X127583834Y-79912277D01*
X127815590Y-79757423D01*
X128012683Y-79560330D01*
X128167537Y-79328574D01*
X128183580Y-79289843D01*
X128199623Y-79328574D01*
X128354477Y-79560330D01*
X128551570Y-79757423D01*
X128783326Y-79912277D01*
X129040840Y-80018943D01*
X129314215Y-80073320D01*
X129592945Y-80073320D01*
X129866320Y-80018943D01*
X130123834Y-79912277D01*
X130355590Y-79757423D01*
X130552683Y-79560330D01*
X130707537Y-79328574D01*
X130723580Y-79289843D01*
X130739623Y-79328574D01*
X130894477Y-79560330D01*
X131091570Y-79757423D01*
X131323326Y-79912277D01*
X131580840Y-80018943D01*
X131854215Y-80073320D01*
X132132945Y-80073320D01*
X132406320Y-80018943D01*
X132663834Y-79912277D01*
X132895590Y-79757423D01*
X133092683Y-79560330D01*
X133247537Y-79328574D01*
X133263580Y-79289843D01*
X133279623Y-79328574D01*
X133434477Y-79560330D01*
X133631570Y-79757423D01*
X133863326Y-79912277D01*
X134120840Y-80018943D01*
X134394215Y-80073320D01*
X134672945Y-80073320D01*
X134946320Y-80018943D01*
X135203834Y-79912277D01*
X135435590Y-79757423D01*
X135632683Y-79560330D01*
X135787537Y-79328574D01*
X135803580Y-79289843D01*
X135819623Y-79328574D01*
X135974477Y-79560330D01*
X136171570Y-79757423D01*
X136403326Y-79912277D01*
X136660840Y-80018943D01*
X136934215Y-80073320D01*
X137212945Y-80073320D01*
X137486320Y-80018943D01*
X137743834Y-79912277D01*
X137975590Y-79757423D01*
X138172683Y-79560330D01*
X138327537Y-79328574D01*
X138343580Y-79289843D01*
X138359623Y-79328574D01*
X138514477Y-79560330D01*
X138711570Y-79757423D01*
X138943326Y-79912277D01*
X139200840Y-80018943D01*
X139474215Y-80073320D01*
X139752945Y-80073320D01*
X140026320Y-80018943D01*
X140283834Y-79912277D01*
X140515590Y-79757423D01*
X140712683Y-79560330D01*
X140867537Y-79328574D01*
X140883580Y-79289843D01*
X140899623Y-79328574D01*
X141054477Y-79560330D01*
X141251570Y-79757423D01*
X141483326Y-79912277D01*
X141740840Y-80018943D01*
X142014215Y-80073320D01*
X142292945Y-80073320D01*
X142566320Y-80018943D01*
X142823834Y-79912277D01*
X143055590Y-79757423D01*
X143252683Y-79560330D01*
X143407537Y-79328574D01*
X143423580Y-79289843D01*
X143439623Y-79328574D01*
X143594477Y-79560330D01*
X143791570Y-79757423D01*
X144023326Y-79912277D01*
X144280840Y-80018943D01*
X144554215Y-80073320D01*
X144832945Y-80073320D01*
X145106320Y-80018943D01*
X145363834Y-79912277D01*
X145595590Y-79757423D01*
X145792683Y-79560330D01*
X145947537Y-79328574D01*
X145963580Y-79289843D01*
X145979623Y-79328574D01*
X146134477Y-79560330D01*
X146331570Y-79757423D01*
X146563326Y-79912277D01*
X146820840Y-80018943D01*
X147094215Y-80073320D01*
X147372945Y-80073320D01*
X147646320Y-80018943D01*
X147903834Y-79912277D01*
X148135590Y-79757423D01*
X148332683Y-79560330D01*
X148487537Y-79328574D01*
X148503580Y-79289843D01*
X148519623Y-79328574D01*
X148674477Y-79560330D01*
X148871570Y-79757423D01*
X149103326Y-79912277D01*
X149360840Y-80018943D01*
X149634215Y-80073320D01*
X149912945Y-80073320D01*
X150186320Y-80018943D01*
X150443834Y-79912277D01*
X150675590Y-79757423D01*
X150872683Y-79560330D01*
X151027537Y-79328574D01*
X151134203Y-79071060D01*
X151188580Y-78797685D01*
X151188580Y-78518955D01*
X151134203Y-78245580D01*
X151027537Y-77988066D01*
X150872683Y-77756310D01*
X150675590Y-77559217D01*
X150443834Y-77404363D01*
X150186320Y-77297697D01*
X149912945Y-77243320D01*
X149634215Y-77243320D01*
X149360840Y-77297697D01*
X149103326Y-77404363D01*
X148871570Y-77559217D01*
X148674477Y-77756310D01*
X148519623Y-77988066D01*
X148503580Y-78026797D01*
X148487537Y-77988066D01*
X148332683Y-77756310D01*
X148135590Y-77559217D01*
X147903834Y-77404363D01*
X147646320Y-77297697D01*
X147372945Y-77243320D01*
X147094215Y-77243320D01*
X146820840Y-77297697D01*
X146563326Y-77404363D01*
X146331570Y-77559217D01*
X146134477Y-77756310D01*
X145979623Y-77988066D01*
X145963580Y-78026797D01*
X145947537Y-77988066D01*
X145792683Y-77756310D01*
X145595590Y-77559217D01*
X145363834Y-77404363D01*
X145106320Y-77297697D01*
X144832945Y-77243320D01*
X144554215Y-77243320D01*
X144280840Y-77297697D01*
X144023326Y-77404363D01*
X143791570Y-77559217D01*
X143594477Y-77756310D01*
X143439623Y-77988066D01*
X143423580Y-78026797D01*
X143407537Y-77988066D01*
X143252683Y-77756310D01*
X143055590Y-77559217D01*
X142823834Y-77404363D01*
X142566320Y-77297697D01*
X142292945Y-77243320D01*
X142014215Y-77243320D01*
X141740840Y-77297697D01*
X141483326Y-77404363D01*
X141251570Y-77559217D01*
X141054477Y-77756310D01*
X140899623Y-77988066D01*
X140883580Y-78026797D01*
X140867537Y-77988066D01*
X140712683Y-77756310D01*
X140515590Y-77559217D01*
X140283834Y-77404363D01*
X140026320Y-77297697D01*
X139752945Y-77243320D01*
X139474215Y-77243320D01*
X139200840Y-77297697D01*
X138943326Y-77404363D01*
X138711570Y-77559217D01*
X138514477Y-77756310D01*
X138359623Y-77988066D01*
X138343580Y-78026797D01*
X138327537Y-77988066D01*
X138172683Y-77756310D01*
X137975590Y-77559217D01*
X137743834Y-77404363D01*
X137486320Y-77297697D01*
X137212945Y-77243320D01*
X136934215Y-77243320D01*
X136660840Y-77297697D01*
X136403326Y-77404363D01*
X136171570Y-77559217D01*
X135974477Y-77756310D01*
X135819623Y-77988066D01*
X135803580Y-78026797D01*
X135787537Y-77988066D01*
X135632683Y-77756310D01*
X135435590Y-77559217D01*
X135203834Y-77404363D01*
X134946320Y-77297697D01*
X134672945Y-77243320D01*
X134394215Y-77243320D01*
X134120840Y-77297697D01*
X133863326Y-77404363D01*
X133631570Y-77559217D01*
X133434477Y-77756310D01*
X133279623Y-77988066D01*
X133263580Y-78026797D01*
X133247537Y-77988066D01*
X133092683Y-77756310D01*
X132895590Y-77559217D01*
X132663834Y-77404363D01*
X132406320Y-77297697D01*
X132132945Y-77243320D01*
X131854215Y-77243320D01*
X131580840Y-77297697D01*
X131323326Y-77404363D01*
X131091570Y-77559217D01*
X130894477Y-77756310D01*
X130739623Y-77988066D01*
X130723580Y-78026797D01*
X130707537Y-77988066D01*
X130552683Y-77756310D01*
X130355590Y-77559217D01*
X130123834Y-77404363D01*
X129866320Y-77297697D01*
X129592945Y-77243320D01*
X129314215Y-77243320D01*
X129040840Y-77297697D01*
X128783326Y-77404363D01*
X128551570Y-77559217D01*
X128354477Y-77756310D01*
X128199623Y-77988066D01*
X128183580Y-78026797D01*
X128167537Y-77988066D01*
X128012683Y-77756310D01*
X127815590Y-77559217D01*
X127583834Y-77404363D01*
X127326320Y-77297697D01*
X127052945Y-77243320D01*
X126774215Y-77243320D01*
X126500840Y-77297697D01*
X126243326Y-77404363D01*
X126011570Y-77559217D01*
X125814477Y-77756310D01*
X125659623Y-77988066D01*
X125643580Y-78026797D01*
X125627537Y-77988066D01*
X125472683Y-77756310D01*
X125275590Y-77559217D01*
X125043834Y-77404363D01*
X124786320Y-77297697D01*
X124512945Y-77243320D01*
X124234215Y-77243320D01*
X123960840Y-77297697D01*
X123703326Y-77404363D01*
X123471570Y-77559217D01*
X123274477Y-77756310D01*
X123119623Y-77988066D01*
X123103580Y-78026797D01*
X123087537Y-77988066D01*
X122932683Y-77756310D01*
X122735590Y-77559217D01*
X122503834Y-77404363D01*
X122246320Y-77297697D01*
X121972945Y-77243320D01*
X121694215Y-77243320D01*
X121420840Y-77297697D01*
X121163326Y-77404363D01*
X120931570Y-77559217D01*
X120734477Y-77756310D01*
X120579623Y-77988066D01*
X120563580Y-78026797D01*
X120547537Y-77988066D01*
X120392683Y-77756310D01*
X120195590Y-77559217D01*
X119963834Y-77404363D01*
X119706320Y-77297697D01*
X119432945Y-77243320D01*
X119154215Y-77243320D01*
X118880840Y-77297697D01*
X118623326Y-77404363D01*
X118391570Y-77559217D01*
X118194477Y-77756310D01*
X118039623Y-77988066D01*
X118023580Y-78026797D01*
X118007537Y-77988066D01*
X117852683Y-77756310D01*
X117655590Y-77559217D01*
X117423834Y-77404363D01*
X117166320Y-77297697D01*
X116892945Y-77243320D01*
X116614215Y-77243320D01*
X116340840Y-77297697D01*
X116083326Y-77404363D01*
X115851570Y-77559217D01*
X115654477Y-77756310D01*
X115499623Y-77988066D01*
X115483580Y-78026797D01*
X115467537Y-77988066D01*
X115312683Y-77756310D01*
X115115590Y-77559217D01*
X114883834Y-77404363D01*
X114626320Y-77297697D01*
X114352945Y-77243320D01*
X114074215Y-77243320D01*
X113800840Y-77297697D01*
X113543326Y-77404363D01*
X113311570Y-77559217D01*
X113114477Y-77756310D01*
X112959623Y-77988066D01*
X112852957Y-78245580D01*
X112798580Y-78518955D01*
X94646653Y-78518955D01*
X94429800Y-78475820D01*
X94137280Y-78475820D01*
X93850382Y-78532888D01*
X93580129Y-78644830D01*
X93336908Y-78807345D01*
X93130065Y-79014188D01*
X92967550Y-79257409D01*
X92855608Y-79527662D01*
X92798540Y-79814560D01*
X90235000Y-79814560D01*
X90235000Y-67795800D01*
X109003740Y-67795800D01*
X109003740Y-68088320D01*
X109060808Y-68375218D01*
X109172750Y-68645471D01*
X109335265Y-68888692D01*
X109542108Y-69095535D01*
X109785329Y-69258050D01*
X110055582Y-69369992D01*
X110342480Y-69427060D01*
X110635000Y-69427060D01*
X110921898Y-69369992D01*
X111192151Y-69258050D01*
X111435372Y-69095535D01*
X111642215Y-68888692D01*
X111758740Y-68714300D01*
X111875265Y-68888692D01*
X112082108Y-69095535D01*
X112325329Y-69258050D01*
X112595582Y-69369992D01*
X112882480Y-69427060D01*
X113175000Y-69427060D01*
X113461898Y-69369992D01*
X113732151Y-69258050D01*
X113975372Y-69095535D01*
X114182215Y-68888692D01*
X114298740Y-68714300D01*
X114415265Y-68888692D01*
X114622108Y-69095535D01*
X114865329Y-69258050D01*
X115135582Y-69369992D01*
X115422480Y-69427060D01*
X115715000Y-69427060D01*
X116001898Y-69369992D01*
X116272151Y-69258050D01*
X116515372Y-69095535D01*
X116722215Y-68888692D01*
X116838740Y-68714300D01*
X116955265Y-68888692D01*
X117162108Y-69095535D01*
X117405329Y-69258050D01*
X117675582Y-69369992D01*
X117962480Y-69427060D01*
X118255000Y-69427060D01*
X118541898Y-69369992D01*
X118812151Y-69258050D01*
X119055372Y-69095535D01*
X119262215Y-68888692D01*
X119383935Y-68706526D01*
X119453562Y-68823415D01*
X119648471Y-69039648D01*
X119881820Y-69213701D01*
X120144641Y-69338885D01*
X120291850Y-69383536D01*
X120521740Y-69262215D01*
X120521740Y-68069060D01*
X120501740Y-68069060D01*
X120501740Y-67815060D01*
X120521740Y-67815060D01*
X120521740Y-66621905D01*
X120775740Y-66621905D01*
X120775740Y-67815060D01*
X120795740Y-67815060D01*
X120795740Y-68069060D01*
X120775740Y-68069060D01*
X120775740Y-69262215D01*
X121005630Y-69383536D01*
X121152839Y-69338885D01*
X121415660Y-69213701D01*
X121649009Y-69039648D01*
X121843918Y-68823415D01*
X121913545Y-68706526D01*
X122035265Y-68888692D01*
X122242108Y-69095535D01*
X122485329Y-69258050D01*
X122755582Y-69369992D01*
X123042480Y-69427060D01*
X123335000Y-69427060D01*
X123621898Y-69369992D01*
X123892151Y-69258050D01*
X124135372Y-69095535D01*
X124342215Y-68888692D01*
X124504730Y-68645471D01*
X124616672Y-68375218D01*
X124673740Y-68088320D01*
X124673740Y-67795800D01*
X133221740Y-67795800D01*
X133221740Y-68088320D01*
X133278808Y-68375218D01*
X133390750Y-68645471D01*
X133553265Y-68888692D01*
X133760108Y-69095535D01*
X134003329Y-69258050D01*
X134273582Y-69369992D01*
X134560480Y-69427060D01*
X134853000Y-69427060D01*
X135139898Y-69369992D01*
X135410151Y-69258050D01*
X135653372Y-69095535D01*
X135860215Y-68888692D01*
X135976740Y-68714300D01*
X136093265Y-68888692D01*
X136300108Y-69095535D01*
X136543329Y-69258050D01*
X136813582Y-69369992D01*
X137100480Y-69427060D01*
X137393000Y-69427060D01*
X137679898Y-69369992D01*
X137950151Y-69258050D01*
X138193372Y-69095535D01*
X138400215Y-68888692D01*
X138516740Y-68714300D01*
X138633265Y-68888692D01*
X138840108Y-69095535D01*
X139083329Y-69258050D01*
X139353582Y-69369992D01*
X139640480Y-69427060D01*
X139933000Y-69427060D01*
X140219898Y-69369992D01*
X140490151Y-69258050D01*
X140733372Y-69095535D01*
X140940215Y-68888692D01*
X141061935Y-68706526D01*
X141131562Y-68823415D01*
X141326471Y-69039648D01*
X141559820Y-69213701D01*
X141822641Y-69338885D01*
X141969850Y-69383536D01*
X142199740Y-69262215D01*
X142199740Y-68069060D01*
X142179740Y-68069060D01*
X142179740Y-67815060D01*
X142199740Y-67815060D01*
X142199740Y-66621905D01*
X142453740Y-66621905D01*
X142453740Y-67815060D01*
X142473740Y-67815060D01*
X142473740Y-68069060D01*
X142453740Y-68069060D01*
X142453740Y-69262215D01*
X142683630Y-69383536D01*
X142830839Y-69338885D01*
X143093660Y-69213701D01*
X143327009Y-69039648D01*
X143521918Y-68823415D01*
X143591545Y-68706526D01*
X143713265Y-68888692D01*
X143920108Y-69095535D01*
X144163329Y-69258050D01*
X144433582Y-69369992D01*
X144720480Y-69427060D01*
X145013000Y-69427060D01*
X145299898Y-69369992D01*
X145570151Y-69258050D01*
X145813372Y-69095535D01*
X146020215Y-68888692D01*
X146182730Y-68645471D01*
X146294672Y-68375218D01*
X146351740Y-68088320D01*
X146351740Y-67795800D01*
X155231740Y-67795800D01*
X155231740Y-68088320D01*
X155288808Y-68375218D01*
X155400750Y-68645471D01*
X155563265Y-68888692D01*
X155770108Y-69095535D01*
X156013329Y-69258050D01*
X156283582Y-69369992D01*
X156570480Y-69427060D01*
X156863000Y-69427060D01*
X157149898Y-69369992D01*
X157420151Y-69258050D01*
X157663372Y-69095535D01*
X157870215Y-68888692D01*
X157986740Y-68714300D01*
X158103265Y-68888692D01*
X158310108Y-69095535D01*
X158553329Y-69258050D01*
X158823582Y-69369992D01*
X159110480Y-69427060D01*
X159403000Y-69427060D01*
X159689898Y-69369992D01*
X159960151Y-69258050D01*
X160203372Y-69095535D01*
X160410215Y-68888692D01*
X160531935Y-68706526D01*
X160601562Y-68823415D01*
X160796471Y-69039648D01*
X161029820Y-69213701D01*
X161292641Y-69338885D01*
X161439850Y-69383536D01*
X161669740Y-69262215D01*
X161669740Y-68069060D01*
X161923740Y-68069060D01*
X161923740Y-69262215D01*
X162153630Y-69383536D01*
X162300839Y-69338885D01*
X162563660Y-69213701D01*
X162797009Y-69039648D01*
X162991918Y-68823415D01*
X163140897Y-68573312D01*
X163238221Y-68298951D01*
X163117554Y-68069060D01*
X161923740Y-68069060D01*
X161669740Y-68069060D01*
X161649740Y-68069060D01*
X161649740Y-67815060D01*
X161669740Y-67815060D01*
X161669740Y-66621905D01*
X161923740Y-66621905D01*
X161923740Y-67815060D01*
X163117554Y-67815060D01*
X163238221Y-67585169D01*
X163140897Y-67310808D01*
X162991918Y-67060705D01*
X162797009Y-66844472D01*
X162563660Y-66670419D01*
X162300839Y-66545235D01*
X162153630Y-66500584D01*
X161923740Y-66621905D01*
X161669740Y-66621905D01*
X161439850Y-66500584D01*
X161292641Y-66545235D01*
X161029820Y-66670419D01*
X160796471Y-66844472D01*
X160601562Y-67060705D01*
X160531935Y-67177594D01*
X160410215Y-66995428D01*
X160203372Y-66788585D01*
X159960151Y-66626070D01*
X159689898Y-66514128D01*
X159403000Y-66457060D01*
X159110480Y-66457060D01*
X158823582Y-66514128D01*
X158553329Y-66626070D01*
X158310108Y-66788585D01*
X158103265Y-66995428D01*
X157986740Y-67169820D01*
X157870215Y-66995428D01*
X157663372Y-66788585D01*
X157420151Y-66626070D01*
X157149898Y-66514128D01*
X156863000Y-66457060D01*
X156570480Y-66457060D01*
X156283582Y-66514128D01*
X156013329Y-66626070D01*
X155770108Y-66788585D01*
X155563265Y-66995428D01*
X155400750Y-67238649D01*
X155288808Y-67508902D01*
X155231740Y-67795800D01*
X146351740Y-67795800D01*
X146294672Y-67508902D01*
X146182730Y-67238649D01*
X146020215Y-66995428D01*
X145813372Y-66788585D01*
X145570151Y-66626070D01*
X145299898Y-66514128D01*
X145013000Y-66457060D01*
X144720480Y-66457060D01*
X144433582Y-66514128D01*
X144163329Y-66626070D01*
X143920108Y-66788585D01*
X143713265Y-66995428D01*
X143591545Y-67177594D01*
X143521918Y-67060705D01*
X143327009Y-66844472D01*
X143093660Y-66670419D01*
X142830839Y-66545235D01*
X142683630Y-66500584D01*
X142453740Y-66621905D01*
X142199740Y-66621905D01*
X141969850Y-66500584D01*
X141822641Y-66545235D01*
X141559820Y-66670419D01*
X141326471Y-66844472D01*
X141131562Y-67060705D01*
X141061935Y-67177594D01*
X140940215Y-66995428D01*
X140733372Y-66788585D01*
X140490151Y-66626070D01*
X140219898Y-66514128D01*
X139933000Y-66457060D01*
X139640480Y-66457060D01*
X139353582Y-66514128D01*
X139083329Y-66626070D01*
X138840108Y-66788585D01*
X138633265Y-66995428D01*
X138516740Y-67169820D01*
X138400215Y-66995428D01*
X138193372Y-66788585D01*
X137950151Y-66626070D01*
X137679898Y-66514128D01*
X137393000Y-66457060D01*
X137100480Y-66457060D01*
X136813582Y-66514128D01*
X136543329Y-66626070D01*
X136300108Y-66788585D01*
X136093265Y-66995428D01*
X135976740Y-67169820D01*
X135860215Y-66995428D01*
X135653372Y-66788585D01*
X135410151Y-66626070D01*
X135139898Y-66514128D01*
X134853000Y-66457060D01*
X134560480Y-66457060D01*
X134273582Y-66514128D01*
X134003329Y-66626070D01*
X133760108Y-66788585D01*
X133553265Y-66995428D01*
X133390750Y-67238649D01*
X133278808Y-67508902D01*
X133221740Y-67795800D01*
X124673740Y-67795800D01*
X124616672Y-67508902D01*
X124504730Y-67238649D01*
X124342215Y-66995428D01*
X124135372Y-66788585D01*
X123892151Y-66626070D01*
X123621898Y-66514128D01*
X123335000Y-66457060D01*
X123042480Y-66457060D01*
X122755582Y-66514128D01*
X122485329Y-66626070D01*
X122242108Y-66788585D01*
X122035265Y-66995428D01*
X121913545Y-67177594D01*
X121843918Y-67060705D01*
X121649009Y-66844472D01*
X121415660Y-66670419D01*
X121152839Y-66545235D01*
X121005630Y-66500584D01*
X120775740Y-66621905D01*
X120521740Y-66621905D01*
X120291850Y-66500584D01*
X120144641Y-66545235D01*
X119881820Y-66670419D01*
X119648471Y-66844472D01*
X119453562Y-67060705D01*
X119383935Y-67177594D01*
X119262215Y-66995428D01*
X119055372Y-66788585D01*
X118812151Y-66626070D01*
X118541898Y-66514128D01*
X118255000Y-66457060D01*
X117962480Y-66457060D01*
X117675582Y-66514128D01*
X117405329Y-66626070D01*
X117162108Y-66788585D01*
X116955265Y-66995428D01*
X116838740Y-67169820D01*
X116722215Y-66995428D01*
X116515372Y-66788585D01*
X116272151Y-66626070D01*
X116001898Y-66514128D01*
X115715000Y-66457060D01*
X115422480Y-66457060D01*
X115135582Y-66514128D01*
X114865329Y-66626070D01*
X114622108Y-66788585D01*
X114415265Y-66995428D01*
X114298740Y-67169820D01*
X114182215Y-66995428D01*
X113975372Y-66788585D01*
X113732151Y-66626070D01*
X113461898Y-66514128D01*
X113175000Y-66457060D01*
X112882480Y-66457060D01*
X112595582Y-66514128D01*
X112325329Y-66626070D01*
X112082108Y-66788585D01*
X111875265Y-66995428D01*
X111758740Y-67169820D01*
X111642215Y-66995428D01*
X111435372Y-66788585D01*
X111192151Y-66626070D01*
X110921898Y-66514128D01*
X110635000Y-66457060D01*
X110342480Y-66457060D01*
X110055582Y-66514128D01*
X109785329Y-66626070D01*
X109542108Y-66788585D01*
X109335265Y-66995428D01*
X109172750Y-67238649D01*
X109060808Y-67508902D01*
X109003740Y-67795800D01*
X90235000Y-67795800D01*
X90235000Y-61339199D01*
X90491633Y-61958766D01*
X90873024Y-62529558D01*
X91358442Y-63014976D01*
X91929234Y-63396367D01*
X92563463Y-63659073D01*
X93236758Y-63793000D01*
X93923242Y-63793000D01*
X94596537Y-63659073D01*
X95230766Y-63396367D01*
X95801558Y-63014976D01*
X96286976Y-62529558D01*
X96668367Y-61958766D01*
X96931073Y-61324537D01*
X97065000Y-60651242D01*
X97065000Y-59964758D01*
X96931073Y-59291463D01*
X96668367Y-58657234D01*
X96286976Y-58086442D01*
X95801558Y-57601024D01*
X95250771Y-57233000D01*
X184331174Y-57233000D01*
X183750234Y-57473633D01*
G37*
G04 #@! TD.AperFunction*
G04 #@! TD*
M02*
