M48
; DRILL file {KiCad (5.1.10)-1} date 10/14/21 18:13:15
; FORMAT={-:-/ absolute / inch / decimal}
; #@! TF.CreationDate,2021-10-14T18:13:15-03:00
; #@! TF.GenerationSoftware,Kicad,Pcbnew,(5.1.10)-1
; #@! TF.FileFunction,Plated,1,2,PTH
FMAT,2
INCH
T1C0.0315
T2C0.0394
T3C0.0409
T4C0.1260
%
G90
G05
T1
X5.5475Y-4.5274
X5.5475Y-4.8274
X6.395Y-4.5299
X6.395Y-4.8299
X6.995Y-4.5299
X6.995Y-4.8299
T2
X3.712Y-3.1481
X3.712Y-3.2481
X3.712Y-3.3481
X3.712Y-3.4481
X3.712Y-3.5481
X3.712Y-3.6481
X3.712Y-3.7481
X3.712Y-3.8481
X3.712Y-3.9481
X3.712Y-4.0481
X3.812Y-3.1481
X3.812Y-3.2481
X3.812Y-3.3481
X3.812Y-3.4481
X3.812Y-3.5481
X3.812Y-3.6481
X3.812Y-3.7481
X3.812Y-3.8481
X3.812Y-3.9481
X3.812Y-4.0481
X4.1268Y-4.5299
X4.2268Y-4.5299
X4.3268Y-4.5299
X4.35Y-2.6749
X4.45Y-2.6749
X4.54Y-4.5299
X4.55Y-2.6749
X4.64Y-4.5299
X4.65Y-2.6749
X4.74Y-4.5299
X4.75Y-2.6749
X4.85Y-2.6749
X5.2451Y-4.5274
X5.3034Y-2.6749
X5.3451Y-4.5274
X5.4034Y-2.6749
X5.5034Y-2.6749
X5.6034Y-2.6749
X5.7034Y-2.6749
X5.9793Y-4.5299
X6.0793Y-4.5299
X6.17Y-2.6749
X6.1793Y-4.5299
X6.27Y-2.6749
X6.37Y-2.6749
X6.5844Y-4.5299
X6.6844Y-4.5299
X6.7844Y-4.5299
X6.8896Y-3.2243
X6.8896Y-3.3243
X6.8896Y-3.4243
X6.8896Y-3.7343
X6.8896Y-3.8343
X6.8896Y-3.9343
T3
X4.4966Y-3.0968
X4.4966Y-4.0968
X4.5966Y-3.0968
X4.5966Y-4.0968
X4.6966Y-3.0968
X4.6966Y-4.0968
X4.7966Y-3.0968
X4.7966Y-4.0968
X4.8966Y-3.0968
X4.8966Y-4.0968
X4.9966Y-3.0968
X4.9966Y-4.0968
X5.0966Y-3.0968
X5.0966Y-4.0968
X5.1966Y-3.0968
X5.1966Y-4.0968
X5.2966Y-3.0968
X5.2966Y-4.0968
X5.3966Y-3.0968
X5.3966Y-4.0968
X5.4966Y-3.0968
X5.4966Y-4.0968
X5.5966Y-3.0968
X5.5966Y-4.0968
X5.6966Y-3.0968
X5.6966Y-4.0968
X5.7966Y-3.0968
X5.7966Y-4.0968
X5.8966Y-3.0968
X5.8966Y-4.0968
T4
X3.6793Y-4.8293
X3.6843Y-2.3743
X7.296Y-4.819
X7.2993Y-2.3843
T0
M30
