G04 #@! TF.GenerationSoftware,KiCad,Pcbnew,(5.1.10)-1*
G04 #@! TF.CreationDate,2021-10-14T18:13:08-03:00*
G04 #@! TF.ProjectId,esp32_shield,65737033-325f-4736-9869-656c642e6b69,rev?*
G04 #@! TF.SameCoordinates,Original*
G04 #@! TF.FileFunction,Legend,Top*
G04 #@! TF.FilePolarity,Positive*
%FSLAX46Y46*%
G04 Gerber Fmt 4.6, Leading zero omitted, Abs format (unit mm)*
G04 Created by KiCad (PCBNEW (5.1.10)-1) date 2021-10-14 18:13:08*
%MOMM*%
%LPD*%
G01*
G04 APERTURE LIST*
%ADD10C,0.150000*%
%ADD11C,0.300000*%
%ADD12C,0.120000*%
%ADD13C,0.250000*%
%ADD14C,0.127000*%
G04 APERTURE END LIST*
D10*
X149133460Y-81984523D02*
X149133460Y-81365476D01*
X149514413Y-81698809D01*
X149514413Y-81555952D01*
X149562032Y-81460714D01*
X149609651Y-81413095D01*
X149704889Y-81365476D01*
X149942984Y-81365476D01*
X150038222Y-81413095D01*
X150085841Y-81460714D01*
X150133460Y-81555952D01*
X150133460Y-81841666D01*
X150085841Y-81936904D01*
X150038222Y-81984523D01*
X149133460Y-80746428D02*
X149133460Y-80651190D01*
X149181080Y-80555952D01*
X149228699Y-80508333D01*
X149323937Y-80460714D01*
X149514413Y-80413095D01*
X149752508Y-80413095D01*
X149942984Y-80460714D01*
X150038222Y-80508333D01*
X150085841Y-80555952D01*
X150133460Y-80651190D01*
X150133460Y-80746428D01*
X150085841Y-80841666D01*
X150038222Y-80889285D01*
X149942984Y-80936904D01*
X149752508Y-80984523D01*
X149514413Y-80984523D01*
X149323937Y-80936904D01*
X149228699Y-80889285D01*
X149181080Y-80841666D01*
X149133460Y-80746428D01*
X146688699Y-81936904D02*
X146641080Y-81889285D01*
X146593460Y-81794047D01*
X146593460Y-81555952D01*
X146641080Y-81460714D01*
X146688699Y-81413095D01*
X146783937Y-81365476D01*
X146879175Y-81365476D01*
X147022032Y-81413095D01*
X147593460Y-81984523D01*
X147593460Y-81365476D01*
X147593460Y-80889285D02*
X147593460Y-80698809D01*
X147545841Y-80603571D01*
X147498222Y-80555952D01*
X147355365Y-80460714D01*
X147164889Y-80413095D01*
X146783937Y-80413095D01*
X146688699Y-80460714D01*
X146641080Y-80508333D01*
X146593460Y-80603571D01*
X146593460Y-80794047D01*
X146641080Y-80889285D01*
X146688699Y-80936904D01*
X146783937Y-80984523D01*
X147022032Y-80984523D01*
X147117270Y-80936904D01*
X147164889Y-80889285D01*
X147212508Y-80794047D01*
X147212508Y-80603571D01*
X147164889Y-80508333D01*
X147117270Y-80460714D01*
X147022032Y-80413095D01*
X144148699Y-81936904D02*
X144101080Y-81889285D01*
X144053460Y-81794047D01*
X144053460Y-81555952D01*
X144101080Y-81460714D01*
X144148699Y-81413095D01*
X144243937Y-81365476D01*
X144339175Y-81365476D01*
X144482032Y-81413095D01*
X145053460Y-81984523D01*
X145053460Y-81365476D01*
X144482032Y-80794047D02*
X144434413Y-80889285D01*
X144386794Y-80936904D01*
X144291556Y-80984523D01*
X144243937Y-80984523D01*
X144148699Y-80936904D01*
X144101080Y-80889285D01*
X144053460Y-80794047D01*
X144053460Y-80603571D01*
X144101080Y-80508333D01*
X144148699Y-80460714D01*
X144243937Y-80413095D01*
X144291556Y-80413095D01*
X144386794Y-80460714D01*
X144434413Y-80508333D01*
X144482032Y-80603571D01*
X144482032Y-80794047D01*
X144529651Y-80889285D01*
X144577270Y-80936904D01*
X144672508Y-80984523D01*
X144862984Y-80984523D01*
X144958222Y-80936904D01*
X145005841Y-80889285D01*
X145053460Y-80794047D01*
X145053460Y-80603571D01*
X145005841Y-80508333D01*
X144958222Y-80460714D01*
X144862984Y-80413095D01*
X144672508Y-80413095D01*
X144577270Y-80460714D01*
X144529651Y-80508333D01*
X144482032Y-80603571D01*
X141608699Y-81936904D02*
X141561080Y-81889285D01*
X141513460Y-81794047D01*
X141513460Y-81555952D01*
X141561080Y-81460714D01*
X141608699Y-81413095D01*
X141703937Y-81365476D01*
X141799175Y-81365476D01*
X141942032Y-81413095D01*
X142513460Y-81984523D01*
X142513460Y-81365476D01*
X141513460Y-81032142D02*
X141513460Y-80365476D01*
X142513460Y-80794047D01*
X139068699Y-81936904D02*
X139021080Y-81889285D01*
X138973460Y-81794047D01*
X138973460Y-81555952D01*
X139021080Y-81460714D01*
X139068699Y-81413095D01*
X139163937Y-81365476D01*
X139259175Y-81365476D01*
X139402032Y-81413095D01*
X139973460Y-81984523D01*
X139973460Y-81365476D01*
X138973460Y-80508333D02*
X138973460Y-80698809D01*
X139021080Y-80794047D01*
X139068699Y-80841666D01*
X139211556Y-80936904D01*
X139402032Y-80984523D01*
X139782984Y-80984523D01*
X139878222Y-80936904D01*
X139925841Y-80889285D01*
X139973460Y-80794047D01*
X139973460Y-80603571D01*
X139925841Y-80508333D01*
X139878222Y-80460714D01*
X139782984Y-80413095D01*
X139544889Y-80413095D01*
X139449651Y-80460714D01*
X139402032Y-80508333D01*
X139354413Y-80603571D01*
X139354413Y-80794047D01*
X139402032Y-80889285D01*
X139449651Y-80936904D01*
X139544889Y-80984523D01*
X128908699Y-81936904D02*
X128861080Y-81889285D01*
X128813460Y-81794047D01*
X128813460Y-81555952D01*
X128861080Y-81460714D01*
X128908699Y-81413095D01*
X129003937Y-81365476D01*
X129099175Y-81365476D01*
X129242032Y-81413095D01*
X129813460Y-81984523D01*
X129813460Y-81365476D01*
X128908699Y-80984523D02*
X128861080Y-80936904D01*
X128813460Y-80841666D01*
X128813460Y-80603571D01*
X128861080Y-80508333D01*
X128908699Y-80460714D01*
X129003937Y-80413095D01*
X129099175Y-80413095D01*
X129242032Y-80460714D01*
X129813460Y-81032142D01*
X129813460Y-80413095D01*
X133988699Y-81936904D02*
X133941080Y-81889285D01*
X133893460Y-81794047D01*
X133893460Y-81555952D01*
X133941080Y-81460714D01*
X133988699Y-81413095D01*
X134083937Y-81365476D01*
X134179175Y-81365476D01*
X134322032Y-81413095D01*
X134893460Y-81984523D01*
X134893460Y-81365476D01*
X134226794Y-80508333D02*
X134893460Y-80508333D01*
X133845841Y-80746428D02*
X134560127Y-80984523D01*
X134560127Y-80365476D01*
X131448699Y-81936904D02*
X131401080Y-81889285D01*
X131353460Y-81794047D01*
X131353460Y-81555952D01*
X131401080Y-81460714D01*
X131448699Y-81413095D01*
X131543937Y-81365476D01*
X131639175Y-81365476D01*
X131782032Y-81413095D01*
X132353460Y-81984523D01*
X132353460Y-81365476D01*
X131353460Y-81032142D02*
X131353460Y-80413095D01*
X131734413Y-80746428D01*
X131734413Y-80603571D01*
X131782032Y-80508333D01*
X131829651Y-80460714D01*
X131924889Y-80413095D01*
X132162984Y-80413095D01*
X132258222Y-80460714D01*
X132305841Y-80508333D01*
X132353460Y-80603571D01*
X132353460Y-80889285D01*
X132305841Y-80984523D01*
X132258222Y-81032142D01*
X136528699Y-81936904D02*
X136481080Y-81889285D01*
X136433460Y-81794047D01*
X136433460Y-81555952D01*
X136481080Y-81460714D01*
X136528699Y-81413095D01*
X136623937Y-81365476D01*
X136719175Y-81365476D01*
X136862032Y-81413095D01*
X137433460Y-81984523D01*
X137433460Y-81365476D01*
X136433460Y-80460714D02*
X136433460Y-80936904D01*
X136909651Y-80984523D01*
X136862032Y-80936904D01*
X136814413Y-80841666D01*
X136814413Y-80603571D01*
X136862032Y-80508333D01*
X136909651Y-80460714D01*
X137004889Y-80413095D01*
X137242984Y-80413095D01*
X137338222Y-80460714D01*
X137385841Y-80508333D01*
X137433460Y-80603571D01*
X137433460Y-80841666D01*
X137385841Y-80936904D01*
X137338222Y-80984523D01*
X126368699Y-81936904D02*
X126321080Y-81889285D01*
X126273460Y-81794047D01*
X126273460Y-81555952D01*
X126321080Y-81460714D01*
X126368699Y-81413095D01*
X126463937Y-81365476D01*
X126559175Y-81365476D01*
X126702032Y-81413095D01*
X127273460Y-81984523D01*
X127273460Y-81365476D01*
X127273460Y-80413095D02*
X127273460Y-80984523D01*
X127273460Y-80698809D02*
X126273460Y-80698809D01*
X126416318Y-80794047D01*
X126511556Y-80889285D01*
X126559175Y-80984523D01*
X123828699Y-81936904D02*
X123781080Y-81889285D01*
X123733460Y-81794047D01*
X123733460Y-81555952D01*
X123781080Y-81460714D01*
X123828699Y-81413095D01*
X123923937Y-81365476D01*
X124019175Y-81365476D01*
X124162032Y-81413095D01*
X124733460Y-81984523D01*
X124733460Y-81365476D01*
X123733460Y-80746428D02*
X123733460Y-80651190D01*
X123781080Y-80555952D01*
X123828699Y-80508333D01*
X123923937Y-80460714D01*
X124114413Y-80413095D01*
X124352508Y-80413095D01*
X124542984Y-80460714D01*
X124638222Y-80508333D01*
X124685841Y-80555952D01*
X124733460Y-80651190D01*
X124733460Y-80746428D01*
X124685841Y-80841666D01*
X124638222Y-80889285D01*
X124542984Y-80936904D01*
X124352508Y-80984523D01*
X124114413Y-80984523D01*
X123923937Y-80936904D01*
X123828699Y-80889285D01*
X123781080Y-80841666D01*
X123733460Y-80746428D01*
X122193460Y-81365476D02*
X122193460Y-81936904D01*
X122193460Y-81651190D02*
X121193460Y-81651190D01*
X121336318Y-81746428D01*
X121431556Y-81841666D01*
X121479175Y-81936904D01*
X122193460Y-80889285D02*
X122193460Y-80698809D01*
X122145841Y-80603571D01*
X122098222Y-80555952D01*
X121955365Y-80460714D01*
X121764889Y-80413095D01*
X121383937Y-80413095D01*
X121288699Y-80460714D01*
X121241080Y-80508333D01*
X121193460Y-80603571D01*
X121193460Y-80794047D01*
X121241080Y-80889285D01*
X121288699Y-80936904D01*
X121383937Y-80984523D01*
X121622032Y-80984523D01*
X121717270Y-80936904D01*
X121764889Y-80889285D01*
X121812508Y-80794047D01*
X121812508Y-80603571D01*
X121764889Y-80508333D01*
X121717270Y-80460714D01*
X121622032Y-80413095D01*
X119653460Y-81365476D02*
X119653460Y-81936904D01*
X119653460Y-81651190D02*
X118653460Y-81651190D01*
X118796318Y-81746428D01*
X118891556Y-81841666D01*
X118939175Y-81936904D01*
X119082032Y-80794047D02*
X119034413Y-80889285D01*
X118986794Y-80936904D01*
X118891556Y-80984523D01*
X118843937Y-80984523D01*
X118748699Y-80936904D01*
X118701080Y-80889285D01*
X118653460Y-80794047D01*
X118653460Y-80603571D01*
X118701080Y-80508333D01*
X118748699Y-80460714D01*
X118843937Y-80413095D01*
X118891556Y-80413095D01*
X118986794Y-80460714D01*
X119034413Y-80508333D01*
X119082032Y-80603571D01*
X119082032Y-80794047D01*
X119129651Y-80889285D01*
X119177270Y-80936904D01*
X119272508Y-80984523D01*
X119462984Y-80984523D01*
X119558222Y-80936904D01*
X119605841Y-80889285D01*
X119653460Y-80794047D01*
X119653460Y-80603571D01*
X119605841Y-80508333D01*
X119558222Y-80460714D01*
X119462984Y-80413095D01*
X119272508Y-80413095D01*
X119177270Y-80460714D01*
X119129651Y-80508333D01*
X119082032Y-80603571D01*
X117113460Y-81365476D02*
X117113460Y-81936904D01*
X117113460Y-81651190D02*
X116113460Y-81651190D01*
X116256318Y-81746428D01*
X116351556Y-81841666D01*
X116399175Y-81936904D01*
X116113460Y-81032142D02*
X116113460Y-80365476D01*
X117113460Y-80794047D01*
X114573460Y-81365476D02*
X114573460Y-81936904D01*
X114573460Y-81651190D02*
X113573460Y-81651190D01*
X113716318Y-81746428D01*
X113811556Y-81841666D01*
X113859175Y-81936904D01*
X113573460Y-80508333D02*
X113573460Y-80698809D01*
X113621080Y-80794047D01*
X113668699Y-80841666D01*
X113811556Y-80936904D01*
X114002032Y-80984523D01*
X114382984Y-80984523D01*
X114478222Y-80936904D01*
X114525841Y-80889285D01*
X114573460Y-80794047D01*
X114573460Y-80603571D01*
X114525841Y-80508333D01*
X114478222Y-80460714D01*
X114382984Y-80413095D01*
X114144889Y-80413095D01*
X114049651Y-80460714D01*
X114002032Y-80508333D01*
X113954413Y-80603571D01*
X113954413Y-80794047D01*
X114002032Y-80889285D01*
X114049651Y-80936904D01*
X114144889Y-80984523D01*
X150133460Y-101715476D02*
X150133460Y-102286904D01*
X150133460Y-102001190D02*
X149133460Y-102001190D01*
X149276318Y-102096428D01*
X149371556Y-102191666D01*
X149419175Y-102286904D01*
X149133460Y-100810714D02*
X149133460Y-101286904D01*
X149609651Y-101334523D01*
X149562032Y-101286904D01*
X149514413Y-101191666D01*
X149514413Y-100953571D01*
X149562032Y-100858333D01*
X149609651Y-100810714D01*
X149704889Y-100763095D01*
X149942984Y-100763095D01*
X150038222Y-100810714D01*
X150085841Y-100858333D01*
X150133460Y-100953571D01*
X150133460Y-101191666D01*
X150085841Y-101286904D01*
X150038222Y-101334523D01*
X147593460Y-101715476D02*
X147593460Y-102286904D01*
X147593460Y-102001190D02*
X146593460Y-102001190D01*
X146736318Y-102096428D01*
X146831556Y-102191666D01*
X146879175Y-102286904D01*
X146926794Y-100858333D02*
X147593460Y-100858333D01*
X146545841Y-101096428D02*
X147260127Y-101334523D01*
X147260127Y-100715476D01*
X145053460Y-101715476D02*
X145053460Y-102286904D01*
X145053460Y-102001190D02*
X144053460Y-102001190D01*
X144196318Y-102096428D01*
X144291556Y-102191666D01*
X144339175Y-102286904D01*
X144053460Y-101382142D02*
X144053460Y-100763095D01*
X144434413Y-101096428D01*
X144434413Y-100953571D01*
X144482032Y-100858333D01*
X144529651Y-100810714D01*
X144624889Y-100763095D01*
X144862984Y-100763095D01*
X144958222Y-100810714D01*
X145005841Y-100858333D01*
X145053460Y-100953571D01*
X145053460Y-101239285D01*
X145005841Y-101334523D01*
X144958222Y-101382142D01*
X142513460Y-101715476D02*
X142513460Y-102286904D01*
X142513460Y-102001190D02*
X141513460Y-102001190D01*
X141656318Y-102096428D01*
X141751556Y-102191666D01*
X141799175Y-102286904D01*
X141608699Y-101334523D02*
X141561080Y-101286904D01*
X141513460Y-101191666D01*
X141513460Y-100953571D01*
X141561080Y-100858333D01*
X141608699Y-100810714D01*
X141703937Y-100763095D01*
X141799175Y-100763095D01*
X141942032Y-100810714D01*
X142513460Y-101382142D01*
X142513460Y-100763095D01*
X139973460Y-101715476D02*
X139973460Y-102286904D01*
X139973460Y-102001190D02*
X138973460Y-102001190D01*
X139116318Y-102096428D01*
X139211556Y-102191666D01*
X139259175Y-102286904D01*
X139973460Y-100763095D02*
X139973460Y-101334523D01*
X139973460Y-101048809D02*
X138973460Y-101048809D01*
X139116318Y-101144047D01*
X139211556Y-101239285D01*
X139259175Y-101334523D01*
X137433460Y-101715476D02*
X137433460Y-102286904D01*
X137433460Y-102001190D02*
X136433460Y-102001190D01*
X136576318Y-102096428D01*
X136671556Y-102191666D01*
X136719175Y-102286904D01*
X136433460Y-101096428D02*
X136433460Y-101001190D01*
X136481080Y-100905952D01*
X136528699Y-100858333D01*
X136623937Y-100810714D01*
X136814413Y-100763095D01*
X137052508Y-100763095D01*
X137242984Y-100810714D01*
X137338222Y-100858333D01*
X137385841Y-100905952D01*
X137433460Y-101001190D01*
X137433460Y-101096428D01*
X137385841Y-101191666D01*
X137338222Y-101239285D01*
X137242984Y-101286904D01*
X137052508Y-101334523D01*
X136814413Y-101334523D01*
X136623937Y-101286904D01*
X136528699Y-101239285D01*
X136481080Y-101191666D01*
X136433460Y-101096428D01*
X134893460Y-102191667D02*
X134893460Y-102001191D01*
X134845841Y-101905952D01*
X134798222Y-101858333D01*
X134655365Y-101763095D01*
X134464889Y-101715476D01*
X134083937Y-101715476D01*
X133988699Y-101763095D01*
X133941080Y-101810714D01*
X133893460Y-101905952D01*
X133893460Y-102096429D01*
X133941080Y-102191667D01*
X133988699Y-102239286D01*
X134083937Y-102286905D01*
X134322032Y-102286905D01*
X134417270Y-102239286D01*
X134464889Y-102191667D01*
X134512508Y-102096429D01*
X134512508Y-101905952D01*
X134464889Y-101810714D01*
X134417270Y-101763095D01*
X134322032Y-101715476D01*
X131782032Y-102096429D02*
X131734413Y-102191667D01*
X131686794Y-102239286D01*
X131591556Y-102286905D01*
X131543937Y-102286905D01*
X131448699Y-102239286D01*
X131401080Y-102191667D01*
X131353460Y-102096429D01*
X131353460Y-101905952D01*
X131401080Y-101810714D01*
X131448699Y-101763095D01*
X131543937Y-101715476D01*
X131591556Y-101715476D01*
X131686794Y-101763095D01*
X131734413Y-101810714D01*
X131782032Y-101905952D01*
X131782032Y-102096429D01*
X131829651Y-102191667D01*
X131877270Y-102239286D01*
X131972508Y-102286905D01*
X132162984Y-102286905D01*
X132258222Y-102239286D01*
X132305841Y-102191667D01*
X132353460Y-102096429D01*
X132353460Y-101905952D01*
X132305841Y-101810714D01*
X132258222Y-101763095D01*
X132162984Y-101715476D01*
X131972508Y-101715476D01*
X131877270Y-101763095D01*
X131829651Y-101810714D01*
X131782032Y-101905952D01*
X128813460Y-102334524D02*
X128813460Y-101667857D01*
X129813460Y-102096429D01*
X126273460Y-101810714D02*
X126273460Y-102001191D01*
X126321080Y-102096429D01*
X126368699Y-102144048D01*
X126511556Y-102239286D01*
X126702032Y-102286905D01*
X127082984Y-102286905D01*
X127178222Y-102239286D01*
X127225841Y-102191667D01*
X127273460Y-102096429D01*
X127273460Y-101905952D01*
X127225841Y-101810714D01*
X127178222Y-101763095D01*
X127082984Y-101715476D01*
X126844889Y-101715476D01*
X126749651Y-101763095D01*
X126702032Y-101810714D01*
X126654413Y-101905952D01*
X126654413Y-102096429D01*
X126702032Y-102191667D01*
X126749651Y-102239286D01*
X126844889Y-102286905D01*
X123733460Y-101763095D02*
X123733460Y-102239286D01*
X124209651Y-102286905D01*
X124162032Y-102239286D01*
X124114413Y-102144048D01*
X124114413Y-101905952D01*
X124162032Y-101810714D01*
X124209651Y-101763095D01*
X124304889Y-101715476D01*
X124542984Y-101715476D01*
X124638222Y-101763095D01*
X124685841Y-101810714D01*
X124733460Y-101905952D01*
X124733460Y-102144048D01*
X124685841Y-102239286D01*
X124638222Y-102286905D01*
X121526794Y-101810714D02*
X122193460Y-101810714D01*
X121145841Y-102048810D02*
X121860127Y-102286905D01*
X121860127Y-101667857D01*
X118653460Y-102334524D02*
X118653460Y-101715476D01*
X119034413Y-102048810D01*
X119034413Y-101905952D01*
X119082032Y-101810714D01*
X119129651Y-101763095D01*
X119224889Y-101715476D01*
X119462984Y-101715476D01*
X119558222Y-101763095D01*
X119605841Y-101810714D01*
X119653460Y-101905952D01*
X119653460Y-102191667D01*
X119605841Y-102286905D01*
X119558222Y-102334524D01*
X116208699Y-102286905D02*
X116161080Y-102239286D01*
X116113460Y-102144048D01*
X116113460Y-101905952D01*
X116161080Y-101810714D01*
X116208699Y-101763095D01*
X116303937Y-101715476D01*
X116399175Y-101715476D01*
X116542032Y-101763095D01*
X117113460Y-102334524D01*
X117113460Y-101715476D01*
X114573460Y-101715476D02*
X114573460Y-102286905D01*
X114573460Y-102001191D02*
X113573460Y-102001191D01*
X113716318Y-102096429D01*
X113811556Y-102191667D01*
X113859175Y-102286905D01*
D11*
X175369580Y-105154542D02*
X175583865Y-105225971D01*
X175941008Y-105225971D01*
X176083865Y-105154542D01*
X176155294Y-105083114D01*
X176226722Y-104940257D01*
X176226722Y-104797400D01*
X176155294Y-104654542D01*
X176083865Y-104583114D01*
X175941008Y-104511685D01*
X175655294Y-104440257D01*
X175512437Y-104368828D01*
X175441008Y-104297400D01*
X175369580Y-104154542D01*
X175369580Y-104011685D01*
X175441008Y-103868828D01*
X175512437Y-103797400D01*
X175655294Y-103725971D01*
X176012437Y-103725971D01*
X176226722Y-103797400D01*
X176869580Y-104440257D02*
X177369580Y-104440257D01*
X177583865Y-105225971D02*
X176869580Y-105225971D01*
X176869580Y-103725971D01*
X177583865Y-103725971D01*
X179083865Y-105225971D02*
X178583865Y-104511685D01*
X178226722Y-105225971D02*
X178226722Y-103725971D01*
X178798151Y-103725971D01*
X178941008Y-103797400D01*
X179012437Y-103868828D01*
X179083865Y-104011685D01*
X179083865Y-104225971D01*
X179012437Y-104368828D01*
X178941008Y-104440257D01*
X178798151Y-104511685D01*
X178226722Y-104511685D01*
X179512437Y-103725971D02*
X180012437Y-105225971D01*
X180512437Y-103725971D01*
X181298151Y-103725971D02*
X181583865Y-103725971D01*
X181726722Y-103797400D01*
X181869580Y-103940257D01*
X181941008Y-104225971D01*
X181941008Y-104725971D01*
X181869580Y-105011685D01*
X181726722Y-105154542D01*
X181583865Y-105225971D01*
X181298151Y-105225971D01*
X181155294Y-105154542D01*
X181012437Y-105011685D01*
X180941008Y-104725971D01*
X180941008Y-104225971D01*
X181012437Y-103940257D01*
X181155294Y-103797400D01*
X181298151Y-103725971D01*
X182512437Y-105154542D02*
X182726722Y-105225971D01*
X183083865Y-105225971D01*
X183226722Y-105154542D01*
X183298151Y-105083114D01*
X183369580Y-104940257D01*
X183369580Y-104797400D01*
X183298151Y-104654542D01*
X183226722Y-104583114D01*
X183083865Y-104511685D01*
X182798151Y-104440257D01*
X182655294Y-104368828D01*
X182583865Y-104297400D01*
X182512437Y-104154542D01*
X182512437Y-104011685D01*
X182583865Y-103868828D01*
X182655294Y-103797400D01*
X182798151Y-103725971D01*
X183155294Y-103725971D01*
X183369580Y-103797400D01*
D12*
X172756400Y-102642400D02*
X186091400Y-102642400D01*
X172756400Y-106452400D02*
X172756400Y-77242400D01*
X186091400Y-106452400D02*
X172756400Y-106452400D01*
X186091400Y-77242400D02*
X186091400Y-106452400D01*
X172756400Y-77242400D02*
X186091400Y-77242400D01*
D13*
X165898780Y-100243081D02*
X166041638Y-100290700D01*
X166279733Y-100290700D01*
X166374971Y-100243081D01*
X166422590Y-100195462D01*
X166470209Y-100100224D01*
X166470209Y-100004986D01*
X166422590Y-99909748D01*
X166374971Y-99862129D01*
X166279733Y-99814510D01*
X166089257Y-99766891D01*
X165994019Y-99719272D01*
X165946400Y-99671653D01*
X165898780Y-99576415D01*
X165898780Y-99481177D01*
X165946400Y-99385939D01*
X165994019Y-99338320D01*
X166089257Y-99290700D01*
X166327352Y-99290700D01*
X166470209Y-99338320D01*
X166898780Y-99766891D02*
X167232114Y-99766891D01*
X167374971Y-100290700D02*
X166898780Y-100290700D01*
X166898780Y-99290700D01*
X167374971Y-99290700D01*
X168374971Y-100290700D02*
X168041638Y-99814510D01*
X167803542Y-100290700D02*
X167803542Y-99290700D01*
X168184495Y-99290700D01*
X168279733Y-99338320D01*
X168327352Y-99385939D01*
X168374971Y-99481177D01*
X168374971Y-99624034D01*
X168327352Y-99719272D01*
X168279733Y-99766891D01*
X168184495Y-99814510D01*
X167803542Y-99814510D01*
X168660685Y-99290700D02*
X168994019Y-100290700D01*
X169327352Y-99290700D01*
X169851161Y-99290700D02*
X170041638Y-99290700D01*
X170136876Y-99338320D01*
X170232114Y-99433558D01*
X170279733Y-99624034D01*
X170279733Y-99957367D01*
X170232114Y-100147843D01*
X170136876Y-100243081D01*
X170041638Y-100290700D01*
X169851161Y-100290700D01*
X169755923Y-100243081D01*
X169660685Y-100147843D01*
X169613066Y-99957367D01*
X169613066Y-99624034D01*
X169660685Y-99433558D01*
X169755923Y-99338320D01*
X169851161Y-99290700D01*
X170470209Y-100385939D02*
X171232114Y-100385939D01*
X171422590Y-99385939D02*
X171470209Y-99338320D01*
X171565447Y-99290700D01*
X171803542Y-99290700D01*
X171898780Y-99338320D01*
X171946400Y-99385939D01*
X171994019Y-99481177D01*
X171994019Y-99576415D01*
X171946400Y-99719272D01*
X171374971Y-100290700D01*
X171994019Y-100290700D01*
X165898780Y-87289081D02*
X166041638Y-87336700D01*
X166279733Y-87336700D01*
X166374971Y-87289081D01*
X166422590Y-87241462D01*
X166470209Y-87146224D01*
X166470209Y-87050986D01*
X166422590Y-86955748D01*
X166374971Y-86908129D01*
X166279733Y-86860510D01*
X166089257Y-86812891D01*
X165994019Y-86765272D01*
X165946400Y-86717653D01*
X165898780Y-86622415D01*
X165898780Y-86527177D01*
X165946400Y-86431939D01*
X165994019Y-86384320D01*
X166089257Y-86336700D01*
X166327352Y-86336700D01*
X166470209Y-86384320D01*
X166898780Y-86812891D02*
X167232114Y-86812891D01*
X167374971Y-87336700D02*
X166898780Y-87336700D01*
X166898780Y-86336700D01*
X167374971Y-86336700D01*
X168374971Y-87336700D02*
X168041638Y-86860510D01*
X167803542Y-87336700D02*
X167803542Y-86336700D01*
X168184495Y-86336700D01*
X168279733Y-86384320D01*
X168327352Y-86431939D01*
X168374971Y-86527177D01*
X168374971Y-86670034D01*
X168327352Y-86765272D01*
X168279733Y-86812891D01*
X168184495Y-86860510D01*
X167803542Y-86860510D01*
X168660685Y-86336700D02*
X168994019Y-87336700D01*
X169327352Y-86336700D01*
X169851161Y-86336700D02*
X170041638Y-86336700D01*
X170136876Y-86384320D01*
X170232114Y-86479558D01*
X170279733Y-86670034D01*
X170279733Y-87003367D01*
X170232114Y-87193843D01*
X170136876Y-87289081D01*
X170041638Y-87336700D01*
X169851161Y-87336700D01*
X169755923Y-87289081D01*
X169660685Y-87193843D01*
X169613066Y-87003367D01*
X169613066Y-86670034D01*
X169660685Y-86479558D01*
X169755923Y-86384320D01*
X169851161Y-86336700D01*
X170470209Y-87431939D02*
X171232114Y-87431939D01*
X171994019Y-87336700D02*
X171422590Y-87336700D01*
X171708304Y-87336700D02*
X171708304Y-86336700D01*
X171613066Y-86479558D01*
X171517828Y-86574796D01*
X171422590Y-86622415D01*
X169144229Y-112479843D02*
X169144229Y-111908415D01*
X170144229Y-112194129D02*
X169144229Y-112194129D01*
X169620420Y-111575081D02*
X169620420Y-111241748D01*
X170144229Y-111098891D02*
X170144229Y-111575081D01*
X169144229Y-111575081D01*
X169144229Y-111098891D01*
X170144229Y-110670319D02*
X169144229Y-110670319D01*
X169858515Y-110336986D01*
X169144229Y-110003653D01*
X170144229Y-110003653D01*
X170144229Y-109527462D02*
X169144229Y-109527462D01*
X169144229Y-109146510D01*
X169191849Y-109051272D01*
X169239468Y-109003653D01*
X169334706Y-108956034D01*
X169477563Y-108956034D01*
X169572801Y-109003653D01*
X169620420Y-109051272D01*
X169668039Y-109146510D01*
X169668039Y-109527462D01*
X170239468Y-108765557D02*
X170239468Y-108003653D01*
X169239468Y-107813177D02*
X169191849Y-107765557D01*
X169144229Y-107670319D01*
X169144229Y-107432224D01*
X169191849Y-107336986D01*
X169239468Y-107289367D01*
X169334706Y-107241748D01*
X169429944Y-107241748D01*
X169572801Y-107289367D01*
X170144229Y-107860796D01*
X170144229Y-107241748D01*
X153749537Y-112479843D02*
X153749537Y-111908415D01*
X154749537Y-112194129D02*
X153749537Y-112194129D01*
X154225728Y-111575081D02*
X154225728Y-111241748D01*
X154749537Y-111098891D02*
X154749537Y-111575081D01*
X153749537Y-111575081D01*
X153749537Y-111098891D01*
X154749537Y-110670319D02*
X153749537Y-110670319D01*
X154463823Y-110336986D01*
X153749537Y-110003653D01*
X154749537Y-110003653D01*
X154749537Y-109527462D02*
X153749537Y-109527462D01*
X153749537Y-109146510D01*
X153797157Y-109051272D01*
X153844776Y-109003653D01*
X153940014Y-108956034D01*
X154082871Y-108956034D01*
X154178109Y-109003653D01*
X154225728Y-109051272D01*
X154273347Y-109146510D01*
X154273347Y-109527462D01*
X154844776Y-108765557D02*
X154844776Y-108003653D01*
X154749537Y-107241748D02*
X154749537Y-107813177D01*
X154749537Y-107527462D02*
X153749537Y-107527462D01*
X153892395Y-107622700D01*
X153987633Y-107717938D01*
X154035252Y-107813177D01*
X136124501Y-111797296D02*
X136124501Y-112273486D01*
X135124501Y-112273486D01*
X136124501Y-111463962D02*
X135124501Y-111463962D01*
X135124501Y-111225867D01*
X135172121Y-111083010D01*
X135267359Y-110987772D01*
X135362597Y-110940153D01*
X135553073Y-110892534D01*
X135695930Y-110892534D01*
X135886406Y-110940153D01*
X135981644Y-110987772D01*
X136076882Y-111083010D01*
X136124501Y-111225867D01*
X136124501Y-111463962D01*
X136124501Y-109892534D02*
X135648311Y-110225867D01*
X136124501Y-110463962D02*
X135124501Y-110463962D01*
X135124501Y-110083010D01*
X135172121Y-109987772D01*
X135219740Y-109940153D01*
X135314978Y-109892534D01*
X135457835Y-109892534D01*
X135553073Y-109940153D01*
X135600692Y-109987772D01*
X135648311Y-110083010D01*
X135648311Y-110463962D01*
X118167001Y-112384606D02*
X118214620Y-112241749D01*
X118214620Y-112003653D01*
X118167001Y-111908415D01*
X118119382Y-111860796D01*
X118024144Y-111813177D01*
X117928906Y-111813177D01*
X117833668Y-111860796D01*
X117786049Y-111908415D01*
X117738430Y-112003653D01*
X117690811Y-112194129D01*
X117643192Y-112289368D01*
X117595573Y-112336987D01*
X117500335Y-112384606D01*
X117405097Y-112384606D01*
X117309859Y-112336987D01*
X117262240Y-112289368D01*
X117214620Y-112194129D01*
X117214620Y-111956034D01*
X117262240Y-111813177D01*
X118119382Y-110813177D02*
X118167001Y-110860796D01*
X118214620Y-111003653D01*
X118214620Y-111098891D01*
X118167001Y-111241749D01*
X118071763Y-111336987D01*
X117976525Y-111384606D01*
X117786049Y-111432225D01*
X117643192Y-111432225D01*
X117452716Y-111384606D01*
X117357478Y-111336987D01*
X117262240Y-111241749D01*
X117214620Y-111098891D01*
X117214620Y-111003653D01*
X117262240Y-110860796D01*
X117309859Y-110813177D01*
X118309859Y-110622701D02*
X118309859Y-109860796D01*
X117309859Y-109670320D02*
X117262240Y-109622701D01*
X117214620Y-109527463D01*
X117214620Y-109289368D01*
X117262240Y-109194129D01*
X117309859Y-109146510D01*
X117405097Y-109098891D01*
X117500335Y-109098891D01*
X117643192Y-109146510D01*
X118214620Y-109717939D01*
X118214620Y-109098891D01*
X107672846Y-112384606D02*
X107720465Y-112241749D01*
X107720465Y-112003653D01*
X107672846Y-111908415D01*
X107625227Y-111860796D01*
X107529989Y-111813177D01*
X107434751Y-111813177D01*
X107339513Y-111860796D01*
X107291894Y-111908415D01*
X107244275Y-112003653D01*
X107196656Y-112194129D01*
X107149037Y-112289368D01*
X107101418Y-112336987D01*
X107006180Y-112384606D01*
X106910942Y-112384606D01*
X106815704Y-112336987D01*
X106768085Y-112289368D01*
X106720465Y-112194129D01*
X106720465Y-111956034D01*
X106768085Y-111813177D01*
X107625227Y-110813177D02*
X107672846Y-110860796D01*
X107720465Y-111003653D01*
X107720465Y-111098891D01*
X107672846Y-111241749D01*
X107577608Y-111336987D01*
X107482370Y-111384606D01*
X107291894Y-111432225D01*
X107149037Y-111432225D01*
X106958561Y-111384606D01*
X106863323Y-111336987D01*
X106768085Y-111241749D01*
X106720465Y-111098891D01*
X106720465Y-111003653D01*
X106768085Y-110860796D01*
X106815704Y-110813177D01*
X107815704Y-110622701D02*
X107815704Y-109860796D01*
X107720465Y-109098891D02*
X107720465Y-109670320D01*
X107720465Y-109384606D02*
X106720465Y-109384606D01*
X106863323Y-109479844D01*
X106958561Y-109575082D01*
X107006180Y-109670320D01*
D12*
X149604740Y-113128660D02*
X149604740Y-125828660D01*
X146556740Y-125828660D02*
X146556740Y-113128660D01*
X179576740Y-125828660D02*
X146556740Y-125828660D01*
X179576740Y-113128660D02*
X179576740Y-125828660D01*
X146556740Y-113128660D02*
X179576740Y-113128660D01*
X130999240Y-113065160D02*
X130999240Y-125765160D01*
X127951240Y-125765160D02*
X127951240Y-113065160D01*
X142937240Y-125765160D02*
X127951240Y-125765160D01*
X142937240Y-113065160D02*
X142937240Y-125765160D01*
X127951240Y-113065160D02*
X142937240Y-113065160D01*
X102487740Y-113128660D02*
X102487740Y-125828660D01*
X99439740Y-125828660D02*
X99439740Y-113128660D01*
X124331740Y-125828660D02*
X99439740Y-125828660D01*
X124331740Y-113128660D02*
X124331740Y-125828660D01*
X99439740Y-113128660D02*
X124331740Y-113128660D01*
X154176740Y-57248660D02*
X154176740Y-69948660D01*
X151128740Y-69948660D02*
X151128740Y-57248660D01*
X165860740Y-69948660D02*
X151128740Y-69948660D01*
X165860740Y-57248660D02*
X165860740Y-69948660D01*
X151128740Y-57248660D02*
X165860740Y-57248660D01*
X132332740Y-57248660D02*
X132332740Y-69948660D01*
X129284740Y-69948660D02*
X129284740Y-57248660D01*
X148842740Y-69948660D02*
X129284740Y-69948660D01*
X148842740Y-57248660D02*
X148842740Y-69948660D01*
X129284740Y-57248660D02*
X148842740Y-57248660D01*
X108202740Y-57248660D02*
X108202740Y-69948660D01*
X105154740Y-69948660D02*
X105154740Y-57248660D01*
X126998740Y-69948660D02*
X105154740Y-69948660D01*
X126998740Y-57248660D02*
X126998740Y-69948660D01*
X105154740Y-57248660D02*
X126998740Y-57248660D01*
D13*
X96183420Y-108016755D02*
X97183420Y-107683422D01*
X96183420Y-107350088D01*
X97088182Y-106445326D02*
X97135801Y-106492945D01*
X97183420Y-106635802D01*
X97183420Y-106731041D01*
X97135801Y-106873898D01*
X97040563Y-106969136D01*
X96945325Y-107016755D01*
X96754849Y-107064374D01*
X96611992Y-107064374D01*
X96421516Y-107016755D01*
X96326278Y-106969136D01*
X96231040Y-106873898D01*
X96183420Y-106731041D01*
X96183420Y-106635802D01*
X96231040Y-106492945D01*
X96278659Y-106445326D01*
X97088182Y-105445326D02*
X97135801Y-105492945D01*
X97183420Y-105635802D01*
X97183420Y-105731041D01*
X97135801Y-105873898D01*
X97040563Y-105969136D01*
X96945325Y-106016755D01*
X96754849Y-106064374D01*
X96611992Y-106064374D01*
X96421516Y-106016755D01*
X96326278Y-105969136D01*
X96231040Y-105873898D01*
X96183420Y-105731041D01*
X96183420Y-105635802D01*
X96231040Y-105492945D01*
X96278659Y-105445326D01*
X93691040Y-107540564D02*
X93643420Y-107635802D01*
X93643420Y-107778660D01*
X93691040Y-107921517D01*
X93786278Y-108016755D01*
X93881516Y-108064374D01*
X94071992Y-108111993D01*
X94214849Y-108111993D01*
X94405325Y-108064374D01*
X94500563Y-108016755D01*
X94595801Y-107921517D01*
X94643420Y-107778660D01*
X94643420Y-107683421D01*
X94595801Y-107540564D01*
X94548182Y-107492945D01*
X94214849Y-107492945D01*
X94214849Y-107683421D01*
X94643420Y-107064374D02*
X93643420Y-107064374D01*
X94643420Y-106492945D01*
X93643420Y-106492945D01*
X94643420Y-106016755D02*
X93643420Y-106016755D01*
X93643420Y-105778660D01*
X93691040Y-105635802D01*
X93786278Y-105540564D01*
X93881516Y-105492945D01*
X94071992Y-105445326D01*
X94214849Y-105445326D01*
X94405325Y-105492945D01*
X94500563Y-105540564D01*
X94595801Y-105635802D01*
X94643420Y-105778660D01*
X94643420Y-106016755D01*
X159616620Y-74718659D02*
X158616620Y-74718659D01*
X158616620Y-74480564D01*
X158664240Y-74337707D01*
X158759478Y-74242469D01*
X158854716Y-74194850D01*
X159045192Y-74147231D01*
X159188049Y-74147231D01*
X159378525Y-74194850D01*
X159473763Y-74242469D01*
X159569001Y-74337707D01*
X159616620Y-74480564D01*
X159616620Y-74718659D01*
X159616620Y-73718659D02*
X158616620Y-73718659D01*
X159092811Y-73718659D02*
X159092811Y-73147231D01*
X159616620Y-73147231D02*
X158616620Y-73147231D01*
X158616620Y-72813897D02*
X158616620Y-72242469D01*
X159616620Y-72528183D02*
X158616620Y-72528183D01*
X159616620Y-71385326D02*
X159616620Y-71956754D01*
X159616620Y-71671040D02*
X158616620Y-71671040D01*
X158759478Y-71766278D01*
X158854716Y-71861516D01*
X158902335Y-71956754D01*
X159616620Y-70432945D02*
X159616620Y-71004373D01*
X159616620Y-70718659D02*
X158616620Y-70718659D01*
X158759478Y-70813897D01*
X158854716Y-70909135D01*
X158902335Y-71004373D01*
X140099001Y-72861516D02*
X140146620Y-72718659D01*
X140146620Y-72480564D01*
X140099001Y-72385326D01*
X140051382Y-72337707D01*
X139956144Y-72290088D01*
X139860906Y-72290088D01*
X139765668Y-72337707D01*
X139718049Y-72385326D01*
X139670430Y-72480564D01*
X139622811Y-72671040D01*
X139575192Y-72766278D01*
X139527573Y-72813897D01*
X139432335Y-72861516D01*
X139337097Y-72861516D01*
X139241859Y-72813897D01*
X139194240Y-72766278D01*
X139146620Y-72671040D01*
X139146620Y-72432945D01*
X139194240Y-72290088D01*
X140146620Y-71861516D02*
X139146620Y-71861516D01*
X139146620Y-71623421D01*
X139194240Y-71480564D01*
X139289478Y-71385326D01*
X139384716Y-71337707D01*
X139575192Y-71290088D01*
X139718049Y-71290088D01*
X139908525Y-71337707D01*
X140003763Y-71385326D01*
X140099001Y-71480564D01*
X140146620Y-71623421D01*
X140146620Y-71861516D01*
X139860906Y-70909135D02*
X139860906Y-70432945D01*
X140146620Y-71004373D02*
X139146620Y-70671040D01*
X140146620Y-70337707D01*
X137559001Y-72813898D02*
X137606620Y-72671041D01*
X137606620Y-72432945D01*
X137559001Y-72337707D01*
X137511382Y-72290088D01*
X137416144Y-72242469D01*
X137320906Y-72242469D01*
X137225668Y-72290088D01*
X137178049Y-72337707D01*
X137130430Y-72432945D01*
X137082811Y-72623422D01*
X137035192Y-72718660D01*
X136987573Y-72766279D01*
X136892335Y-72813898D01*
X136797097Y-72813898D01*
X136701859Y-72766279D01*
X136654240Y-72718660D01*
X136606620Y-72623422D01*
X136606620Y-72385326D01*
X136654240Y-72242469D01*
X137511382Y-71242469D02*
X137559001Y-71290088D01*
X137606620Y-71432945D01*
X137606620Y-71528183D01*
X137559001Y-71671041D01*
X137463763Y-71766279D01*
X137368525Y-71813898D01*
X137178049Y-71861517D01*
X137035192Y-71861517D01*
X136844716Y-71813898D01*
X136749478Y-71766279D01*
X136654240Y-71671041D01*
X136606620Y-71528183D01*
X136606620Y-71432945D01*
X136654240Y-71290088D01*
X136701859Y-71242469D01*
X137606620Y-70337707D02*
X137606620Y-70813898D01*
X136606620Y-70813898D01*
X118468620Y-73623421D02*
X117468620Y-73623421D01*
X118182906Y-73290088D01*
X117468620Y-72956754D01*
X118468620Y-72956754D01*
X117468620Y-72290088D02*
X117468620Y-72099612D01*
X117516240Y-72004373D01*
X117611478Y-71909135D01*
X117801954Y-71861516D01*
X118135287Y-71861516D01*
X118325763Y-71909135D01*
X118421001Y-72004373D01*
X118468620Y-72099612D01*
X118468620Y-72290088D01*
X118421001Y-72385326D01*
X118325763Y-72480564D01*
X118135287Y-72528183D01*
X117801954Y-72528183D01*
X117611478Y-72480564D01*
X117516240Y-72385326D01*
X117468620Y-72290088D01*
X118421001Y-71480564D02*
X118468620Y-71337707D01*
X118468620Y-71099612D01*
X118421001Y-71004373D01*
X118373382Y-70956754D01*
X118278144Y-70909135D01*
X118182906Y-70909135D01*
X118087668Y-70956754D01*
X118040049Y-71004373D01*
X117992430Y-71099612D01*
X117944811Y-71290088D01*
X117897192Y-71385326D01*
X117849573Y-71432945D01*
X117754335Y-71480564D01*
X117659097Y-71480564D01*
X117563859Y-71432945D01*
X117516240Y-71385326D01*
X117468620Y-71290088D01*
X117468620Y-71051993D01*
X117516240Y-70909135D01*
X118468620Y-70480564D02*
X117468620Y-70480564D01*
X115928620Y-73623421D02*
X114928620Y-73623421D01*
X115642906Y-73290088D01*
X114928620Y-72956754D01*
X115928620Y-72956754D01*
X115928620Y-72480564D02*
X114928620Y-72480564D01*
X115881001Y-72051993D02*
X115928620Y-71909135D01*
X115928620Y-71671040D01*
X115881001Y-71575802D01*
X115833382Y-71528183D01*
X115738144Y-71480564D01*
X115642906Y-71480564D01*
X115547668Y-71528183D01*
X115500049Y-71575802D01*
X115452430Y-71671040D01*
X115404811Y-71861516D01*
X115357192Y-71956754D01*
X115309573Y-72004373D01*
X115214335Y-72051993D01*
X115119097Y-72051993D01*
X115023859Y-72004373D01*
X114976240Y-71956754D01*
X114928620Y-71861516D01*
X114928620Y-71623421D01*
X114976240Y-71480564D01*
X114928620Y-70861516D02*
X114928620Y-70671040D01*
X114976240Y-70575802D01*
X115071478Y-70480564D01*
X115261954Y-70432945D01*
X115595287Y-70432945D01*
X115785763Y-70480564D01*
X115881001Y-70575802D01*
X115928620Y-70671040D01*
X115928620Y-70861516D01*
X115881001Y-70956754D01*
X115785763Y-71051993D01*
X115595287Y-71099612D01*
X115261954Y-71099612D01*
X115071478Y-71051993D01*
X114976240Y-70956754D01*
X114928620Y-70861516D01*
X113341001Y-73004374D02*
X113388620Y-72861517D01*
X113388620Y-72623421D01*
X113341001Y-72528183D01*
X113293382Y-72480564D01*
X113198144Y-72432945D01*
X113102906Y-72432945D01*
X113007668Y-72480564D01*
X112960049Y-72528183D01*
X112912430Y-72623421D01*
X112864811Y-72813898D01*
X112817192Y-72909136D01*
X112769573Y-72956755D01*
X112674335Y-73004374D01*
X112579097Y-73004374D01*
X112483859Y-72956755D01*
X112436240Y-72909136D01*
X112388620Y-72813898D01*
X112388620Y-72575802D01*
X112436240Y-72432945D01*
X113293382Y-71432945D02*
X113341001Y-71480564D01*
X113388620Y-71623421D01*
X113388620Y-71718660D01*
X113341001Y-71861517D01*
X113245763Y-71956755D01*
X113150525Y-72004374D01*
X112960049Y-72051993D01*
X112817192Y-72051993D01*
X112626716Y-72004374D01*
X112531478Y-71956755D01*
X112436240Y-71861517D01*
X112388620Y-71718660D01*
X112388620Y-71623421D01*
X112436240Y-71480564D01*
X112483859Y-71432945D01*
X113388620Y-71004374D02*
X112388620Y-71004374D01*
X113388620Y-70432945D02*
X112817192Y-70861517D01*
X112388620Y-70432945D02*
X112960049Y-71004374D01*
X110753382Y-71385326D02*
X110801001Y-71432945D01*
X110848620Y-71575802D01*
X110848620Y-71671040D01*
X110801001Y-71813898D01*
X110705763Y-71909136D01*
X110610525Y-71956755D01*
X110420049Y-72004374D01*
X110277192Y-72004374D01*
X110086716Y-71956755D01*
X109991478Y-71909136D01*
X109896240Y-71813898D01*
X109848620Y-71671040D01*
X109848620Y-71575802D01*
X109896240Y-71432945D01*
X109943859Y-71385326D01*
X110801001Y-71004374D02*
X110848620Y-70861517D01*
X110848620Y-70623421D01*
X110801001Y-70528183D01*
X110753382Y-70480564D01*
X110658144Y-70432945D01*
X110562906Y-70432945D01*
X110467668Y-70480564D01*
X110420049Y-70528183D01*
X110372430Y-70623421D01*
X110324811Y-70813898D01*
X110277192Y-70909136D01*
X110229573Y-70956755D01*
X110134335Y-71004374D01*
X110039097Y-71004374D01*
X109943859Y-70956755D01*
X109896240Y-70909136D01*
X109848620Y-70813898D01*
X109848620Y-70575802D01*
X109896240Y-70432945D01*
D11*
X153585311Y-66745632D02*
X152085311Y-66745632D01*
X152085311Y-66388489D01*
X152156740Y-66174203D01*
X152299597Y-66031346D01*
X152442454Y-65959918D01*
X152728168Y-65888489D01*
X152942454Y-65888489D01*
X153228168Y-65959918D01*
X153371025Y-66031346D01*
X153513882Y-66174203D01*
X153585311Y-66388489D01*
X153585311Y-66745632D01*
X153585311Y-65245632D02*
X152085311Y-65245632D01*
X152799597Y-65245632D02*
X152799597Y-64388489D01*
X153585311Y-64388489D02*
X152085311Y-64388489D01*
X152085311Y-63888489D02*
X152085311Y-63031346D01*
X153585311Y-63459918D02*
X152085311Y-63459918D01*
X153585311Y-61745632D02*
X153585311Y-62602775D01*
X153585311Y-62174203D02*
X152085311Y-62174203D01*
X152299597Y-62317061D01*
X152442454Y-62459918D01*
X152513882Y-62602775D01*
X153585311Y-60317061D02*
X153585311Y-61174203D01*
X153585311Y-60745632D02*
X152085311Y-60745632D01*
X152299597Y-60888489D01*
X152442454Y-61031346D01*
X152513882Y-61174203D01*
X131741311Y-64424203D02*
X131027025Y-64924203D01*
X131741311Y-65281346D02*
X130241311Y-65281346D01*
X130241311Y-64709918D01*
X130312740Y-64567061D01*
X130384168Y-64495632D01*
X130527025Y-64424203D01*
X130741311Y-64424203D01*
X130884168Y-64495632D01*
X130955597Y-64567061D01*
X131027025Y-64709918D01*
X131027025Y-65281346D01*
X130241311Y-63995632D02*
X130241311Y-63138489D01*
X131741311Y-63567061D02*
X130241311Y-63567061D01*
X131598454Y-61781346D02*
X131669882Y-61852775D01*
X131741311Y-62067061D01*
X131741311Y-62209918D01*
X131669882Y-62424203D01*
X131527025Y-62567061D01*
X131384168Y-62638489D01*
X131098454Y-62709918D01*
X130884168Y-62709918D01*
X130598454Y-62638489D01*
X130455597Y-62567061D01*
X130312740Y-62424203D01*
X130241311Y-62209918D01*
X130241311Y-62067061D01*
X130312740Y-61852775D01*
X130384168Y-61781346D01*
X107611311Y-68174203D02*
X106111311Y-68174203D01*
X107182740Y-67674203D01*
X106111311Y-67174203D01*
X107611311Y-67174203D01*
X107611311Y-66459918D02*
X106111311Y-66459918D01*
X107468454Y-64888489D02*
X107539882Y-64959918D01*
X107611311Y-65174203D01*
X107611311Y-65317061D01*
X107539882Y-65531346D01*
X107397025Y-65674203D01*
X107254168Y-65745632D01*
X106968454Y-65817061D01*
X106754168Y-65817061D01*
X106468454Y-65745632D01*
X106325597Y-65674203D01*
X106182740Y-65531346D01*
X106111311Y-65317061D01*
X106111311Y-65174203D01*
X106182740Y-64959918D01*
X106254168Y-64888489D01*
X107611311Y-63388489D02*
X106897025Y-63888489D01*
X107611311Y-64245632D02*
X106111311Y-64245632D01*
X106111311Y-63674203D01*
X106182740Y-63531346D01*
X106254168Y-63459918D01*
X106397025Y-63388489D01*
X106611311Y-63388489D01*
X106754168Y-63459918D01*
X106825597Y-63531346D01*
X106897025Y-63674203D01*
X106897025Y-64245632D01*
X106111311Y-62459918D02*
X106111311Y-62174203D01*
X106182740Y-62031346D01*
X106325597Y-61888489D01*
X106611311Y-61817061D01*
X107111311Y-61817061D01*
X107397025Y-61888489D01*
X107539882Y-62031346D01*
X107611311Y-62174203D01*
X107611311Y-62459918D01*
X107539882Y-62602775D01*
X107397025Y-62745632D01*
X107111311Y-62817061D01*
X106611311Y-62817061D01*
X106325597Y-62745632D01*
X106182740Y-62602775D01*
X106111311Y-62459918D01*
X107539882Y-61245632D02*
X107611311Y-61031346D01*
X107611311Y-60674203D01*
X107539882Y-60531346D01*
X107468454Y-60459918D01*
X107325597Y-60388489D01*
X107182740Y-60388489D01*
X107039882Y-60459918D01*
X106968454Y-60531346D01*
X106897025Y-60674203D01*
X106825597Y-60959918D01*
X106754168Y-61102775D01*
X106682740Y-61174203D01*
X106539882Y-61245632D01*
X106397025Y-61245632D01*
X106254168Y-61174203D01*
X106182740Y-61102775D01*
X106111311Y-60959918D01*
X106111311Y-60602775D01*
X106182740Y-60388489D01*
X107611311Y-59745632D02*
X106111311Y-59745632D01*
X106111311Y-59388489D01*
X106182740Y-59174203D01*
X106325597Y-59031346D01*
X106468454Y-58959918D01*
X106754168Y-58888489D01*
X106968454Y-58888489D01*
X107254168Y-58959918D01*
X107397025Y-59031346D01*
X107539882Y-59174203D01*
X107611311Y-59388489D01*
X107611311Y-59745632D01*
X147513311Y-122505489D02*
X147513311Y-121648346D01*
X149013311Y-122076918D02*
X147513311Y-122076918D01*
X148227597Y-121148346D02*
X148227597Y-120648346D01*
X149013311Y-120434061D02*
X149013311Y-121148346D01*
X147513311Y-121148346D01*
X147513311Y-120434061D01*
X149013311Y-119791203D02*
X147513311Y-119791203D01*
X148584740Y-119291203D01*
X147513311Y-118791203D01*
X149013311Y-118791203D01*
X149013311Y-118076918D02*
X147513311Y-118076918D01*
X147513311Y-117505489D01*
X147584740Y-117362632D01*
X147656168Y-117291203D01*
X147799025Y-117219775D01*
X148013311Y-117219775D01*
X148156168Y-117291203D01*
X148227597Y-117362632D01*
X148299025Y-117505489D01*
X148299025Y-118076918D01*
X148870454Y-116576918D02*
X148941882Y-116505489D01*
X149013311Y-116576918D01*
X148941882Y-116648346D01*
X148870454Y-116576918D01*
X149013311Y-116576918D01*
X130407811Y-120406274D02*
X130407811Y-121120560D01*
X128907811Y-121120560D01*
X130407811Y-119906274D02*
X128907811Y-119906274D01*
X128907811Y-119549131D01*
X128979240Y-119334845D01*
X129122097Y-119191988D01*
X129264954Y-119120560D01*
X129550668Y-119049131D01*
X129764954Y-119049131D01*
X130050668Y-119120560D01*
X130193525Y-119191988D01*
X130336382Y-119334845D01*
X130407811Y-119549131D01*
X130407811Y-119906274D01*
X130407811Y-117549131D02*
X129693525Y-118049131D01*
X130407811Y-118406274D02*
X128907811Y-118406274D01*
X128907811Y-117834845D01*
X128979240Y-117691988D01*
X129050668Y-117620560D01*
X129193525Y-117549131D01*
X129407811Y-117549131D01*
X129550668Y-117620560D01*
X129622097Y-117691988D01*
X129693525Y-117834845D01*
X129693525Y-118406274D01*
X101753454Y-124371517D02*
X101824882Y-124442945D01*
X101896311Y-124657231D01*
X101896311Y-124800088D01*
X101824882Y-125014374D01*
X101682025Y-125157231D01*
X101539168Y-125228660D01*
X101253454Y-125300088D01*
X101039168Y-125300088D01*
X100753454Y-125228660D01*
X100610597Y-125157231D01*
X100467740Y-125014374D01*
X100396311Y-124800088D01*
X100396311Y-124657231D01*
X100467740Y-124442945D01*
X100539168Y-124371517D01*
X100396311Y-123442945D02*
X100396311Y-123157231D01*
X100467740Y-123014374D01*
X100610597Y-122871517D01*
X100896311Y-122800088D01*
X101396311Y-122800088D01*
X101682025Y-122871517D01*
X101824882Y-123014374D01*
X101896311Y-123157231D01*
X101896311Y-123442945D01*
X101824882Y-123585802D01*
X101682025Y-123728660D01*
X101396311Y-123800088D01*
X100896311Y-123800088D01*
X100610597Y-123728660D01*
X100467740Y-123585802D01*
X100396311Y-123442945D01*
X101896311Y-121300088D02*
X101182025Y-121800088D01*
X101896311Y-122157231D02*
X100396311Y-122157231D01*
X100396311Y-121585802D01*
X100467740Y-121442945D01*
X100539168Y-121371517D01*
X100682025Y-121300088D01*
X100896311Y-121300088D01*
X101039168Y-121371517D01*
X101110597Y-121442945D01*
X101182025Y-121585802D01*
X101182025Y-122157231D01*
X101896311Y-119800088D02*
X101182025Y-120300088D01*
X101896311Y-120657231D02*
X100396311Y-120657231D01*
X100396311Y-120085802D01*
X100467740Y-119942945D01*
X100539168Y-119871517D01*
X100682025Y-119800088D01*
X100896311Y-119800088D01*
X101039168Y-119871517D01*
X101110597Y-119942945D01*
X101182025Y-120085802D01*
X101182025Y-120657231D01*
X101896311Y-119157231D02*
X100396311Y-119157231D01*
X101110597Y-118442945D02*
X101110597Y-117942945D01*
X101896311Y-117728660D02*
X101896311Y-118442945D01*
X100396311Y-118442945D01*
X100396311Y-117728660D01*
X101896311Y-117085802D02*
X100396311Y-117085802D01*
X101896311Y-116228660D01*
X100396311Y-116228660D01*
X100396311Y-115728660D02*
X100396311Y-114871517D01*
X101896311Y-115300088D02*
X100396311Y-115300088D01*
X101110597Y-114371517D02*
X101110597Y-113871517D01*
X101896311Y-113657231D02*
X101896311Y-114371517D01*
X100396311Y-114371517D01*
X100396311Y-113657231D01*
X106180437Y-94572605D02*
X106180437Y-94072605D01*
X106966151Y-93858320D02*
X106966151Y-94572605D01*
X105466151Y-94572605D01*
X105466151Y-93858320D01*
X106894722Y-93286891D02*
X106966151Y-93072605D01*
X106966151Y-92715462D01*
X106894722Y-92572605D01*
X106823294Y-92501177D01*
X106680437Y-92429748D01*
X106537580Y-92429748D01*
X106394722Y-92501177D01*
X106323294Y-92572605D01*
X106251865Y-92715462D01*
X106180437Y-93001177D01*
X106109008Y-93144034D01*
X106037580Y-93215462D01*
X105894722Y-93286891D01*
X105751865Y-93286891D01*
X105609008Y-93215462D01*
X105537580Y-93144034D01*
X105466151Y-93001177D01*
X105466151Y-92644034D01*
X105537580Y-92429748D01*
X106966151Y-91786891D02*
X105466151Y-91786891D01*
X105466151Y-91215462D01*
X105537580Y-91072605D01*
X105609008Y-91001177D01*
X105751865Y-90929748D01*
X105966151Y-90929748D01*
X106109008Y-91001177D01*
X106180437Y-91072605D01*
X106251865Y-91215462D01*
X106251865Y-91786891D01*
X105466151Y-90429748D02*
X105466151Y-89501177D01*
X106037580Y-90001177D01*
X106037580Y-89786891D01*
X106109008Y-89644034D01*
X106180437Y-89572605D01*
X106323294Y-89501177D01*
X106680437Y-89501177D01*
X106823294Y-89572605D01*
X106894722Y-89644034D01*
X106966151Y-89786891D01*
X106966151Y-90215462D01*
X106894722Y-90358320D01*
X106823294Y-90429748D01*
X105609008Y-88929748D02*
X105537580Y-88858320D01*
X105466151Y-88715462D01*
X105466151Y-88358320D01*
X105537580Y-88215462D01*
X105609008Y-88144034D01*
X105751865Y-88072605D01*
X105894722Y-88072605D01*
X106109008Y-88144034D01*
X106966151Y-89001177D01*
X106966151Y-88072605D01*
D12*
G04 #@! TO.C,J7*
X132844621Y-116038489D02*
X132844621Y-116435560D01*
X133604621Y-116038489D02*
X133604621Y-116435560D01*
X132844621Y-125095560D02*
X132844621Y-119095560D01*
X133604621Y-125095560D02*
X132844621Y-125095560D01*
X133604621Y-119095560D02*
X133604621Y-125095560D01*
X134494621Y-116435560D02*
X134494621Y-119095560D01*
X135384621Y-116105560D02*
X135384621Y-116435560D01*
X136144621Y-116105560D02*
X136144621Y-116435560D01*
X135384621Y-125095560D02*
X135384621Y-119095560D01*
X136144621Y-125095560D02*
X135384621Y-125095560D01*
X136144621Y-119095560D02*
X136144621Y-125095560D01*
X137094621Y-119095560D02*
X137094621Y-116435560D01*
X131894621Y-119095560D02*
X137094621Y-119095560D01*
X131894621Y-116435560D02*
X131894621Y-119095560D01*
X137094621Y-116435560D02*
X131894621Y-116435560D01*
G04 #@! TO.C,J3*
X176434580Y-93520820D02*
X176434580Y-101260820D01*
X176434580Y-101260820D02*
X179094580Y-101260820D01*
X179094580Y-101260820D02*
X179094580Y-93520820D01*
X179094580Y-93520820D02*
X176434580Y-93520820D01*
X179094580Y-94470820D02*
X185094580Y-94470820D01*
X185094580Y-94470820D02*
X185094580Y-95230820D01*
X185094580Y-95230820D02*
X179094580Y-95230820D01*
X176104580Y-94470820D02*
X176434580Y-94470820D01*
X176104580Y-95230820D02*
X176434580Y-95230820D01*
X176434580Y-96120820D02*
X179094580Y-96120820D01*
X179094580Y-97010820D02*
X185094580Y-97010820D01*
X185094580Y-97010820D02*
X185094580Y-97770820D01*
X185094580Y-97770820D02*
X179094580Y-97770820D01*
X176037509Y-97010820D02*
X176434580Y-97010820D01*
X176037509Y-97770820D02*
X176434580Y-97770820D01*
X176434580Y-98660820D02*
X179094580Y-98660820D01*
X179094580Y-99550820D02*
X185094580Y-99550820D01*
X185094580Y-99550820D02*
X185094580Y-100310820D01*
X185094580Y-100310820D02*
X179094580Y-100310820D01*
X176037509Y-99550820D02*
X176434580Y-99550820D01*
X176037509Y-100310820D02*
X176434580Y-100310820D01*
G04 #@! TO.C,J2*
X176037509Y-87356820D02*
X176434580Y-87356820D01*
X176037509Y-86596820D02*
X176434580Y-86596820D01*
X185094580Y-87356820D02*
X179094580Y-87356820D01*
X185094580Y-86596820D02*
X185094580Y-87356820D01*
X179094580Y-86596820D02*
X185094580Y-86596820D01*
X176434580Y-85706820D02*
X179094580Y-85706820D01*
X176037509Y-84816820D02*
X176434580Y-84816820D01*
X176037509Y-84056820D02*
X176434580Y-84056820D01*
X185094580Y-84816820D02*
X179094580Y-84816820D01*
X185094580Y-84056820D02*
X185094580Y-84816820D01*
X179094580Y-84056820D02*
X185094580Y-84056820D01*
X176434580Y-83166820D02*
X179094580Y-83166820D01*
X176104580Y-82276820D02*
X176434580Y-82276820D01*
X176104580Y-81516820D02*
X176434580Y-81516820D01*
X185094580Y-82276820D02*
X179094580Y-82276820D01*
X185094580Y-81516820D02*
X185094580Y-82276820D01*
X179094580Y-81516820D02*
X185094580Y-81516820D01*
X179094580Y-80566820D02*
X176434580Y-80566820D01*
X179094580Y-88306820D02*
X179094580Y-80566820D01*
X176434580Y-88306820D02*
X179094580Y-88306820D01*
X176434580Y-80566820D02*
X176434580Y-88306820D01*
G04 #@! TO.C,J6*
X162176740Y-66899131D02*
X162176740Y-66502060D01*
X161416740Y-66899131D02*
X161416740Y-66502060D01*
X162176740Y-57842060D02*
X162176740Y-63842060D01*
X161416740Y-57842060D02*
X162176740Y-57842060D01*
X161416740Y-63842060D02*
X161416740Y-57842060D01*
X160526740Y-66502060D02*
X160526740Y-63842060D01*
X159636740Y-66899131D02*
X159636740Y-66502060D01*
X158876740Y-66899131D02*
X158876740Y-66502060D01*
X159636740Y-57842060D02*
X159636740Y-63842060D01*
X158876740Y-57842060D02*
X159636740Y-57842060D01*
X158876740Y-63842060D02*
X158876740Y-57842060D01*
X157986740Y-66502060D02*
X157986740Y-63842060D01*
X157096740Y-66832060D02*
X157096740Y-66502060D01*
X156336740Y-66832060D02*
X156336740Y-66502060D01*
X157096740Y-57842060D02*
X157096740Y-63842060D01*
X156336740Y-57842060D02*
X157096740Y-57842060D01*
X156336740Y-63842060D02*
X156336740Y-57842060D01*
X155386740Y-63842060D02*
X155386740Y-66502060D01*
X163126740Y-63842060D02*
X155386740Y-63842060D01*
X163126740Y-66502060D02*
X163126740Y-63842060D01*
X155386740Y-66502060D02*
X163126740Y-66502060D01*
G04 #@! TO.C,J8*
X123568740Y-66899131D02*
X123568740Y-66502060D01*
X122808740Y-66899131D02*
X122808740Y-66502060D01*
X123568740Y-57842060D02*
X123568740Y-63842060D01*
X122808740Y-57842060D02*
X123568740Y-57842060D01*
X122808740Y-63842060D02*
X122808740Y-57842060D01*
X121918740Y-66502060D02*
X121918740Y-63842060D01*
X121028740Y-66899131D02*
X121028740Y-66502060D01*
X120268740Y-66899131D02*
X120268740Y-66502060D01*
X121028740Y-57842060D02*
X121028740Y-63842060D01*
X120268740Y-57842060D02*
X121028740Y-57842060D01*
X120268740Y-63842060D02*
X120268740Y-57842060D01*
X119378740Y-66502060D02*
X119378740Y-63842060D01*
X118488740Y-66899131D02*
X118488740Y-66502060D01*
X117728740Y-66899131D02*
X117728740Y-66502060D01*
X118488740Y-57842060D02*
X118488740Y-63842060D01*
X117728740Y-57842060D02*
X118488740Y-57842060D01*
X117728740Y-63842060D02*
X117728740Y-57842060D01*
X116838740Y-66502060D02*
X116838740Y-63842060D01*
X115948740Y-66899131D02*
X115948740Y-66502060D01*
X115188740Y-66899131D02*
X115188740Y-66502060D01*
X115948740Y-57842060D02*
X115948740Y-63842060D01*
X115188740Y-57842060D02*
X115948740Y-57842060D01*
X115188740Y-63842060D02*
X115188740Y-57842060D01*
X114298740Y-66502060D02*
X114298740Y-63842060D01*
X113408740Y-66899131D02*
X113408740Y-66502060D01*
X112648740Y-66899131D02*
X112648740Y-66502060D01*
X113408740Y-57842060D02*
X113408740Y-63842060D01*
X112648740Y-57842060D02*
X113408740Y-57842060D01*
X112648740Y-63842060D02*
X112648740Y-57842060D01*
X111758740Y-66502060D02*
X111758740Y-63842060D01*
X110868740Y-66832060D02*
X110868740Y-66502060D01*
X110108740Y-66832060D02*
X110108740Y-66502060D01*
X110868740Y-57842060D02*
X110868740Y-63842060D01*
X110108740Y-57842060D02*
X110868740Y-57842060D01*
X110108740Y-63842060D02*
X110108740Y-57842060D01*
X109158740Y-63842060D02*
X109158740Y-66502060D01*
X124518740Y-63842060D02*
X109158740Y-63842060D01*
X124518740Y-66502060D02*
X124518740Y-63842060D01*
X109158740Y-66502060D02*
X124518740Y-66502060D01*
G04 #@! TO.C,J10*
X173654349Y-116499060D02*
X165914349Y-116499060D01*
X165914349Y-116499060D02*
X165914349Y-119159060D01*
X165914349Y-119159060D02*
X173654349Y-119159060D01*
X173654349Y-119159060D02*
X173654349Y-116499060D01*
X172704349Y-119159060D02*
X172704349Y-125159060D01*
X172704349Y-125159060D02*
X171944349Y-125159060D01*
X171944349Y-125159060D02*
X171944349Y-119159060D01*
X172704349Y-116169060D02*
X172704349Y-116499060D01*
X171944349Y-116169060D02*
X171944349Y-116499060D01*
X171054349Y-116499060D02*
X171054349Y-119159060D01*
X170164349Y-119159060D02*
X170164349Y-125159060D01*
X170164349Y-125159060D02*
X169404349Y-125159060D01*
X169404349Y-125159060D02*
X169404349Y-119159060D01*
X170164349Y-116101989D02*
X170164349Y-116499060D01*
X169404349Y-116101989D02*
X169404349Y-116499060D01*
X168514349Y-116499060D02*
X168514349Y-119159060D01*
X167624349Y-119159060D02*
X167624349Y-125159060D01*
X167624349Y-125159060D02*
X166864349Y-125159060D01*
X166864349Y-125159060D02*
X166864349Y-119159060D01*
X167624349Y-116101989D02*
X167624349Y-116499060D01*
X166864349Y-116101989D02*
X166864349Y-116499060D01*
G04 #@! TO.C,J9*
X151494657Y-116101989D02*
X151494657Y-116499060D01*
X152254657Y-116101989D02*
X152254657Y-116499060D01*
X151494657Y-125159060D02*
X151494657Y-119159060D01*
X152254657Y-125159060D02*
X151494657Y-125159060D01*
X152254657Y-119159060D02*
X152254657Y-125159060D01*
X153144657Y-116499060D02*
X153144657Y-119159060D01*
X154034657Y-116101989D02*
X154034657Y-116499060D01*
X154794657Y-116101989D02*
X154794657Y-116499060D01*
X154034657Y-125159060D02*
X154034657Y-119159060D01*
X154794657Y-125159060D02*
X154034657Y-125159060D01*
X154794657Y-119159060D02*
X154794657Y-125159060D01*
X155684657Y-116499060D02*
X155684657Y-119159060D01*
X156574657Y-116169060D02*
X156574657Y-116499060D01*
X157334657Y-116169060D02*
X157334657Y-116499060D01*
X156574657Y-125159060D02*
X156574657Y-119159060D01*
X157334657Y-125159060D02*
X156574657Y-125159060D01*
X157334657Y-119159060D02*
X157334657Y-125159060D01*
X158284657Y-119159060D02*
X158284657Y-116499060D01*
X150544657Y-119159060D02*
X158284657Y-119159060D01*
X150544657Y-116499060D02*
X150544657Y-119159060D01*
X158284657Y-116499060D02*
X150544657Y-116499060D01*
G04 #@! TO.C,J1*
X98153540Y-78630820D02*
X92953540Y-78630820D01*
X98157040Y-104154320D02*
X98153540Y-78630820D01*
X92953540Y-104150820D02*
X92953540Y-78630820D01*
X98157040Y-104154320D02*
X92953540Y-104150820D01*
G04 #@! TO.C,J5*
X114934740Y-116101989D02*
X114934740Y-116499060D01*
X115694740Y-116101989D02*
X115694740Y-116499060D01*
X114934740Y-125159060D02*
X114934740Y-119159060D01*
X115694740Y-125159060D02*
X114934740Y-125159060D01*
X115694740Y-119159060D02*
X115694740Y-125159060D01*
X116584740Y-116499060D02*
X116584740Y-119159060D01*
X117474740Y-116101989D02*
X117474740Y-116499060D01*
X118234740Y-116101989D02*
X118234740Y-116499060D01*
X117474740Y-125159060D02*
X117474740Y-119159060D01*
X118234740Y-125159060D02*
X117474740Y-125159060D01*
X118234740Y-119159060D02*
X118234740Y-125159060D01*
X119124740Y-116499060D02*
X119124740Y-119159060D01*
X120014740Y-116169060D02*
X120014740Y-116499060D01*
X120774740Y-116169060D02*
X120774740Y-116499060D01*
X120014740Y-125159060D02*
X120014740Y-119159060D01*
X120774740Y-125159060D02*
X120014740Y-125159060D01*
X120774740Y-119159060D02*
X120774740Y-125159060D01*
X121724740Y-119159060D02*
X121724740Y-116499060D01*
X113984740Y-119159060D02*
X121724740Y-119159060D01*
X113984740Y-116499060D02*
X113984740Y-119159060D01*
X121724740Y-116499060D02*
X113984740Y-116499060D01*
G04 #@! TO.C,J4*
X111230585Y-116499060D02*
X103490585Y-116499060D01*
X103490585Y-116499060D02*
X103490585Y-119159060D01*
X103490585Y-119159060D02*
X111230585Y-119159060D01*
X111230585Y-119159060D02*
X111230585Y-116499060D01*
X110280585Y-119159060D02*
X110280585Y-125159060D01*
X110280585Y-125159060D02*
X109520585Y-125159060D01*
X109520585Y-125159060D02*
X109520585Y-119159060D01*
X110280585Y-116169060D02*
X110280585Y-116499060D01*
X109520585Y-116169060D02*
X109520585Y-116499060D01*
X108630585Y-116499060D02*
X108630585Y-119159060D01*
X107740585Y-119159060D02*
X107740585Y-125159060D01*
X107740585Y-125159060D02*
X106980585Y-125159060D01*
X106980585Y-125159060D02*
X106980585Y-119159060D01*
X107740585Y-116101989D02*
X107740585Y-116499060D01*
X106980585Y-116101989D02*
X106980585Y-116499060D01*
X106090585Y-116499060D02*
X106090585Y-119159060D01*
X105200585Y-119159060D02*
X105200585Y-125159060D01*
X105200585Y-125159060D02*
X104440585Y-125159060D01*
X104440585Y-125159060D02*
X104440585Y-119159060D01*
X105200585Y-116101989D02*
X105200585Y-116499060D01*
X104440585Y-116101989D02*
X104440585Y-116499060D01*
G04 #@! TO.C,J11*
X133376740Y-66502060D02*
X146196740Y-66502060D01*
X146196740Y-66502060D02*
X146196740Y-63842060D01*
X146196740Y-63842060D02*
X133376740Y-63842060D01*
X133376740Y-63842060D02*
X133376740Y-66502060D01*
X134326740Y-63842060D02*
X134326740Y-57842060D01*
X134326740Y-57842060D02*
X135086740Y-57842060D01*
X135086740Y-57842060D02*
X135086740Y-63842060D01*
X134326740Y-66832060D02*
X134326740Y-66502060D01*
X135086740Y-66832060D02*
X135086740Y-66502060D01*
X135976740Y-66502060D02*
X135976740Y-63842060D01*
X136866740Y-63842060D02*
X136866740Y-57842060D01*
X136866740Y-57842060D02*
X137626740Y-57842060D01*
X137626740Y-57842060D02*
X137626740Y-63842060D01*
X136866740Y-66899131D02*
X136866740Y-66502060D01*
X137626740Y-66899131D02*
X137626740Y-66502060D01*
X138516740Y-66502060D02*
X138516740Y-63842060D01*
X139406740Y-63842060D02*
X139406740Y-57842060D01*
X139406740Y-57842060D02*
X140166740Y-57842060D01*
X140166740Y-57842060D02*
X140166740Y-63842060D01*
X139406740Y-66899131D02*
X139406740Y-66502060D01*
X140166740Y-66899131D02*
X140166740Y-66502060D01*
X141056740Y-66502060D02*
X141056740Y-63842060D01*
X141946740Y-63842060D02*
X141946740Y-57842060D01*
X141946740Y-57842060D02*
X142706740Y-57842060D01*
X142706740Y-57842060D02*
X142706740Y-63842060D01*
X141946740Y-66899131D02*
X141946740Y-66502060D01*
X142706740Y-66899131D02*
X142706740Y-66502060D01*
X143596740Y-66502060D02*
X143596740Y-63842060D01*
X144486740Y-63842060D02*
X144486740Y-57842060D01*
X144486740Y-57842060D02*
X145246740Y-57842060D01*
X145246740Y-57842060D02*
X145246740Y-63842060D01*
X144486740Y-66899131D02*
X144486740Y-66502060D01*
X145246740Y-66899131D02*
X145246740Y-66502060D01*
G04 #@! TO.C,R3*
X179041740Y-115599060D02*
X178711740Y-115599060D01*
X179041740Y-122139060D02*
X179041740Y-115599060D01*
X178711740Y-122139060D02*
X179041740Y-122139060D01*
X176301740Y-115599060D02*
X176631740Y-115599060D01*
X176301740Y-122139060D02*
X176301740Y-115599060D01*
X176631740Y-122139060D02*
X176301740Y-122139060D01*
G04 #@! TO.C,R1*
X141945240Y-115535560D02*
X142275240Y-115535560D01*
X142275240Y-115535560D02*
X142275240Y-122075560D01*
X142275240Y-122075560D02*
X141945240Y-122075560D01*
X139865240Y-115535560D02*
X139535240Y-115535560D01*
X139535240Y-115535560D02*
X139535240Y-122075560D01*
X139535240Y-122075560D02*
X139865240Y-122075560D01*
G04 #@! TO.C,R2*
X161391740Y-122139060D02*
X161061740Y-122139060D01*
X161061740Y-122139060D02*
X161061740Y-115599060D01*
X161061740Y-115599060D02*
X161391740Y-115599060D01*
X163471740Y-122139060D02*
X163801740Y-122139060D01*
X163801740Y-122139060D02*
X163801740Y-115599060D01*
X163801740Y-115599060D02*
X163471740Y-115599060D01*
D14*
G04 #@! TO.C,U1*
X157873580Y-77458320D02*
X109223580Y-77433320D01*
X109223580Y-105333320D02*
X157873580Y-105358320D01*
X109223580Y-105333320D02*
X109223580Y-77433320D01*
X157873580Y-77458320D02*
X157873580Y-105358320D01*
G04 #@! TO.C,J7*
D10*
X138011001Y-118097493D02*
X138725287Y-118097493D01*
X138868144Y-118145112D01*
X138963382Y-118240350D01*
X139011001Y-118383207D01*
X139011001Y-118478445D01*
X138011001Y-117716540D02*
X138011001Y-117049874D01*
X139011001Y-117478445D01*
G04 #@! TO.C,J3*
X177215560Y-92136153D02*
X177929846Y-92136153D01*
X178072703Y-92183772D01*
X178167941Y-92279010D01*
X178215560Y-92421867D01*
X178215560Y-92517105D01*
X177215560Y-91755200D02*
X177215560Y-91136153D01*
X177596513Y-91469486D01*
X177596513Y-91326629D01*
X177644132Y-91231391D01*
X177691751Y-91183772D01*
X177786989Y-91136153D01*
X178025084Y-91136153D01*
X178120322Y-91183772D01*
X178167941Y-91231391D01*
X178215560Y-91326629D01*
X178215560Y-91612343D01*
X178167941Y-91707581D01*
X178120322Y-91755200D01*
G04 #@! TO.C,J2*
X177240960Y-79182153D02*
X177955246Y-79182153D01*
X178098103Y-79229772D01*
X178193341Y-79325010D01*
X178240960Y-79467867D01*
X178240960Y-79563105D01*
X177336199Y-78753581D02*
X177288580Y-78705962D01*
X177240960Y-78610724D01*
X177240960Y-78372629D01*
X177288580Y-78277391D01*
X177336199Y-78229772D01*
X177431437Y-78182153D01*
X177526675Y-78182153D01*
X177669532Y-78229772D01*
X178240960Y-78801200D01*
X178240960Y-78182153D01*
G04 #@! TO.C,J6*
X164297120Y-65490535D02*
X165011406Y-65490535D01*
X165154263Y-65538154D01*
X165249501Y-65633392D01*
X165297120Y-65776249D01*
X165297120Y-65871487D01*
X164297120Y-64585773D02*
X164297120Y-64776249D01*
X164344740Y-64871487D01*
X164392359Y-64919106D01*
X164535216Y-65014344D01*
X164725692Y-65061963D01*
X165106644Y-65061963D01*
X165201882Y-65014344D01*
X165249501Y-64966725D01*
X165297120Y-64871487D01*
X165297120Y-64681011D01*
X165249501Y-64585773D01*
X165201882Y-64538154D01*
X165106644Y-64490535D01*
X164868549Y-64490535D01*
X164773311Y-64538154D01*
X164725692Y-64585773D01*
X164678073Y-64681011D01*
X164678073Y-64871487D01*
X164725692Y-64966725D01*
X164773311Y-65014344D01*
X164868549Y-65061963D01*
G04 #@! TO.C,J8*
X125435120Y-65490535D02*
X126149406Y-65490535D01*
X126292263Y-65538154D01*
X126387501Y-65633392D01*
X126435120Y-65776249D01*
X126435120Y-65871487D01*
X125863692Y-64871487D02*
X125816073Y-64966725D01*
X125768454Y-65014344D01*
X125673216Y-65061963D01*
X125625597Y-65061963D01*
X125530359Y-65014344D01*
X125482740Y-64966725D01*
X125435120Y-64871487D01*
X125435120Y-64681011D01*
X125482740Y-64585773D01*
X125530359Y-64538154D01*
X125625597Y-64490535D01*
X125673216Y-64490535D01*
X125768454Y-64538154D01*
X125816073Y-64585773D01*
X125863692Y-64681011D01*
X125863692Y-64871487D01*
X125911311Y-64966725D01*
X125958930Y-65014344D01*
X126054168Y-65061963D01*
X126244644Y-65061963D01*
X126339882Y-65014344D01*
X126387501Y-64966725D01*
X126435120Y-64871487D01*
X126435120Y-64681011D01*
X126387501Y-64585773D01*
X126339882Y-64538154D01*
X126244644Y-64490535D01*
X126054168Y-64490535D01*
X125958930Y-64538154D01*
X125911311Y-64585773D01*
X125863692Y-64681011D01*
G04 #@! TO.C,J10*
X174570729Y-118637184D02*
X175285015Y-118637184D01*
X175427872Y-118684803D01*
X175523110Y-118780041D01*
X175570729Y-118922899D01*
X175570729Y-119018137D01*
X175570729Y-117637184D02*
X175570729Y-118208613D01*
X175570729Y-117922899D02*
X174570729Y-117922899D01*
X174713587Y-118018137D01*
X174808825Y-118113375D01*
X174856444Y-118208613D01*
X174570729Y-117018137D02*
X174570729Y-116922899D01*
X174618349Y-116827661D01*
X174665968Y-116780041D01*
X174761206Y-116732422D01*
X174951682Y-116684803D01*
X175189777Y-116684803D01*
X175380253Y-116732422D01*
X175475491Y-116780041D01*
X175523110Y-116827661D01*
X175570729Y-116922899D01*
X175570729Y-117018137D01*
X175523110Y-117113375D01*
X175475491Y-117160994D01*
X175380253Y-117208613D01*
X175189777Y-117256232D01*
X174951682Y-117256232D01*
X174761206Y-117208613D01*
X174665968Y-117160994D01*
X174618349Y-117113375D01*
X174570729Y-117018137D01*
G04 #@! TO.C,J9*
X159201037Y-118160993D02*
X159915323Y-118160993D01*
X160058180Y-118208612D01*
X160153418Y-118303850D01*
X160201037Y-118446707D01*
X160201037Y-118541945D01*
X160201037Y-117637183D02*
X160201037Y-117446707D01*
X160153418Y-117351469D01*
X160105799Y-117303850D01*
X159962942Y-117208612D01*
X159772466Y-117160993D01*
X159391514Y-117160993D01*
X159296276Y-117208612D01*
X159248657Y-117256231D01*
X159201037Y-117351469D01*
X159201037Y-117541945D01*
X159248657Y-117637183D01*
X159296276Y-117684802D01*
X159391514Y-117732421D01*
X159629609Y-117732421D01*
X159724847Y-117684802D01*
X159772466Y-117637183D01*
X159820085Y-117541945D01*
X159820085Y-117351469D01*
X159772466Y-117256231D01*
X159724847Y-117208612D01*
X159629609Y-117160993D01*
G04 #@! TO.C,J1*
X99273120Y-103934453D02*
X99987406Y-103934453D01*
X100130263Y-103982072D01*
X100225501Y-104077310D01*
X100273120Y-104220167D01*
X100273120Y-104315405D01*
X100273120Y-102934453D02*
X100273120Y-103505881D01*
X100273120Y-103220167D02*
X99273120Y-103220167D01*
X99415978Y-103315405D01*
X99511216Y-103410643D01*
X99558835Y-103505881D01*
G04 #@! TO.C,J5*
X122768120Y-118160993D02*
X123482406Y-118160993D01*
X123625263Y-118208612D01*
X123720501Y-118303850D01*
X123768120Y-118446707D01*
X123768120Y-118541945D01*
X122768120Y-117208612D02*
X122768120Y-117684802D01*
X123244311Y-117732421D01*
X123196692Y-117684802D01*
X123149073Y-117589564D01*
X123149073Y-117351469D01*
X123196692Y-117256231D01*
X123244311Y-117208612D01*
X123339549Y-117160993D01*
X123577644Y-117160993D01*
X123672882Y-117208612D01*
X123720501Y-117256231D01*
X123768120Y-117351469D01*
X123768120Y-117589564D01*
X123720501Y-117684802D01*
X123672882Y-117732421D01*
G04 #@! TO.C,J4*
X112100120Y-118160993D02*
X112814406Y-118160993D01*
X112957263Y-118208612D01*
X113052501Y-118303850D01*
X113100120Y-118446707D01*
X113100120Y-118541945D01*
X112433454Y-117256231D02*
X113100120Y-117256231D01*
X112052501Y-117494326D02*
X112766787Y-117732421D01*
X112766787Y-117113374D01*
G04 #@! TO.C,J11*
X147279120Y-65966726D02*
X147993406Y-65966726D01*
X148136263Y-66014345D01*
X148231501Y-66109583D01*
X148279120Y-66252441D01*
X148279120Y-66347679D01*
X148279120Y-64966726D02*
X148279120Y-65538155D01*
X148279120Y-65252441D02*
X147279120Y-65252441D01*
X147421978Y-65347679D01*
X147517216Y-65442917D01*
X147564835Y-65538155D01*
X148279120Y-64014345D02*
X148279120Y-64585774D01*
X148279120Y-64300060D02*
X147279120Y-64300060D01*
X147421978Y-64395298D01*
X147517216Y-64490536D01*
X147564835Y-64585774D01*
G04 #@! TO.C,R3*
X178056620Y-124979326D02*
X177580430Y-125312660D01*
X178056620Y-125550755D02*
X177056620Y-125550755D01*
X177056620Y-125169802D01*
X177104240Y-125074564D01*
X177151859Y-125026945D01*
X177247097Y-124979326D01*
X177389954Y-124979326D01*
X177485192Y-125026945D01*
X177532811Y-125074564D01*
X177580430Y-125169802D01*
X177580430Y-125550755D01*
X177056620Y-124645993D02*
X177056620Y-124026945D01*
X177437573Y-124360279D01*
X177437573Y-124217421D01*
X177485192Y-124122183D01*
X177532811Y-124074564D01*
X177628049Y-124026945D01*
X177866144Y-124026945D01*
X177961382Y-124074564D01*
X178009001Y-124122183D01*
X178056620Y-124217421D01*
X178056620Y-124503136D01*
X178009001Y-124598374D01*
X177961382Y-124645993D01*
G04 #@! TO.C,R1*
X141290120Y-124915826D02*
X140813930Y-125249160D01*
X141290120Y-125487255D02*
X140290120Y-125487255D01*
X140290120Y-125106302D01*
X140337740Y-125011064D01*
X140385359Y-124963445D01*
X140480597Y-124915826D01*
X140623454Y-124915826D01*
X140718692Y-124963445D01*
X140766311Y-125011064D01*
X140813930Y-125106302D01*
X140813930Y-125487255D01*
X141290120Y-123963445D02*
X141290120Y-124534874D01*
X141290120Y-124249160D02*
X140290120Y-124249160D01*
X140432978Y-124344398D01*
X140528216Y-124439636D01*
X140575835Y-124534874D01*
G04 #@! TO.C,R2*
X162816620Y-124979326D02*
X162340430Y-125312660D01*
X162816620Y-125550755D02*
X161816620Y-125550755D01*
X161816620Y-125169802D01*
X161864240Y-125074564D01*
X161911859Y-125026945D01*
X162007097Y-124979326D01*
X162149954Y-124979326D01*
X162245192Y-125026945D01*
X162292811Y-125074564D01*
X162340430Y-125169802D01*
X162340430Y-125550755D01*
X161911859Y-124598374D02*
X161864240Y-124550755D01*
X161816620Y-124455517D01*
X161816620Y-124217421D01*
X161864240Y-124122183D01*
X161911859Y-124074564D01*
X162007097Y-124026945D01*
X162102335Y-124026945D01*
X162245192Y-124074564D01*
X162816620Y-124645993D01*
X162816620Y-124026945D01*
G04 #@! TO.C,U1*
X107350960Y-104220224D02*
X108160484Y-104220224D01*
X108255722Y-104172605D01*
X108303341Y-104124986D01*
X108350960Y-104029748D01*
X108350960Y-103839272D01*
X108303341Y-103744034D01*
X108255722Y-103696415D01*
X108160484Y-103648796D01*
X107350960Y-103648796D01*
X108350960Y-102648796D02*
X108350960Y-103220224D01*
X108350960Y-102934510D02*
X107350960Y-102934510D01*
X107493818Y-103029748D01*
X107589056Y-103124986D01*
X107636675Y-103220224D01*
G04 #@! TD*
M02*
