G04 #@! TF.GenerationSoftware,KiCad,Pcbnew,(5.1.10)-1*
G04 #@! TF.CreationDate,2021-10-14T18:13:08-03:00*
G04 #@! TF.ProjectId,esp32_shield,65737033-325f-4736-9869-656c642e6b69,rev?*
G04 #@! TF.SameCoordinates,Original*
G04 #@! TF.FileFunction,Soldermask,Top*
G04 #@! TF.FilePolarity,Negative*
%FSLAX46Y46*%
G04 Gerber Fmt 4.6, Leading zero omitted, Abs format (unit mm)*
G04 Created by KiCad (PCBNEW (5.1.10)-1) date 2021-10-14 18:13:08*
%MOMM*%
%LPD*%
G01*
G04 APERTURE LIST*
%ADD10C,1.700000*%
%ADD11O,1.700000X1.700000*%
%ADD12O,1.600000X1.600000*%
%ADD13C,1.600000*%
%ADD14C,1.560000*%
%ADD15C,5.700000*%
G04 APERTURE END LIST*
D10*
G04 #@! TO.C,J7*
X135764621Y-114995560D03*
D11*
X133224621Y-114995560D03*
G04 #@! TD*
G04 #@! TO.C,J3*
X174994580Y-99930820D03*
X174994580Y-97390820D03*
D10*
X174994580Y-94850820D03*
G04 #@! TD*
G04 #@! TO.C,J2*
X174994580Y-81896820D03*
D11*
X174994580Y-84436820D03*
X174994580Y-86976820D03*
G04 #@! TD*
D10*
G04 #@! TO.C,J6*
X156716740Y-67942060D03*
D11*
X159256740Y-67942060D03*
X161796740Y-67942060D03*
G04 #@! TD*
D10*
G04 #@! TO.C,J8*
X110488740Y-67942060D03*
D11*
X113028740Y-67942060D03*
X115568740Y-67942060D03*
X118108740Y-67942060D03*
X120648740Y-67942060D03*
X123188740Y-67942060D03*
G04 #@! TD*
G04 #@! TO.C,J10*
X167244349Y-115059060D03*
X169784349Y-115059060D03*
D10*
X172324349Y-115059060D03*
G04 #@! TD*
G04 #@! TO.C,J9*
X156954657Y-115059060D03*
D11*
X154414657Y-115059060D03*
X151874657Y-115059060D03*
G04 #@! TD*
D10*
G04 #@! TO.C,J1*
X96823540Y-102820820D03*
D11*
X94283540Y-102820820D03*
X96823540Y-100280820D03*
X94283540Y-100280820D03*
X96823540Y-97740820D03*
X94283540Y-97740820D03*
X96823540Y-95200820D03*
X94283540Y-95200820D03*
X96823540Y-92660820D03*
X94283540Y-92660820D03*
X96823540Y-90120820D03*
X94283540Y-90120820D03*
X96823540Y-87580820D03*
X94283540Y-87580820D03*
X96823540Y-85040820D03*
X94283540Y-85040820D03*
X96823540Y-82500820D03*
X94283540Y-82500820D03*
X96823540Y-79960820D03*
X94283540Y-79960820D03*
G04 #@! TD*
G04 #@! TO.C,J5*
X115314740Y-115059060D03*
X117854740Y-115059060D03*
D10*
X120394740Y-115059060D03*
G04 #@! TD*
G04 #@! TO.C,J4*
X109900585Y-115059060D03*
D11*
X107360585Y-115059060D03*
X104820585Y-115059060D03*
G04 #@! TD*
D10*
G04 #@! TO.C,J11*
X134706740Y-67942060D03*
D11*
X137246740Y-67942060D03*
X139786740Y-67942060D03*
X142326740Y-67942060D03*
X144866740Y-67942060D03*
G04 #@! TD*
D12*
G04 #@! TO.C,R3*
X177671740Y-115059060D03*
D13*
X177671740Y-122679060D03*
G04 #@! TD*
G04 #@! TO.C,R1*
X140905240Y-114995560D03*
D12*
X140905240Y-122615560D03*
G04 #@! TD*
D13*
G04 #@! TO.C,R2*
X162431740Y-122679060D03*
D12*
X162431740Y-115059060D03*
G04 #@! TD*
D14*
G04 #@! TO.C,U1*
X147233580Y-78658320D03*
X144693580Y-78658320D03*
X142153580Y-78658320D03*
X139613580Y-78658320D03*
X137073580Y-78658320D03*
X134533580Y-78658320D03*
X131993580Y-78658320D03*
X129453580Y-78658320D03*
X126913580Y-78658320D03*
X124373580Y-78658320D03*
X121833580Y-78658320D03*
X119293580Y-78658320D03*
X116753580Y-78658320D03*
X114213580Y-78658320D03*
X149773580Y-104058320D03*
X147233580Y-104058320D03*
X144693580Y-104058320D03*
X142153580Y-104058320D03*
X139613580Y-104058320D03*
X137073580Y-104058320D03*
X134533580Y-104058320D03*
X131993580Y-104058320D03*
X129453580Y-104058320D03*
X126913580Y-104058320D03*
X124373580Y-104058320D03*
X121833580Y-104058320D03*
X119293580Y-104058320D03*
X116753580Y-104058320D03*
X114213580Y-104058320D03*
X149773580Y-78658320D03*
G04 #@! TD*
D15*
G04 #@! TO.C,H1*
X93580000Y-60308000D03*
G04 #@! TD*
G04 #@! TO.C,H2*
X93453000Y-122665000D03*
G04 #@! TD*
G04 #@! TO.C,H3*
X185401000Y-60562000D03*
G04 #@! TD*
G04 #@! TO.C,H4*
X185318400Y-122402600D03*
G04 #@! TD*
M02*
