<?xml version="1.0" encoding="UTF-8" standalone="no"?>
<svg
   xmlns:dc="http://purl.org/dc/elements/1.1/"
   xmlns:cc="http://creativecommons.org/ns#"
   xmlns:rdf="http://www.w3.org/1999/02/22-rdf-syntax-ns#"
   xmlns:svg="http://www.w3.org/2000/svg"
   xmlns="http://www.w3.org/2000/svg"
   xmlns:sodipodi="http://sodipodi.sourceforge.net/DTD/sodipodi-0.dtd"
   xmlns:inkscape="http://www.inkscape.org/namespaces/inkscape"
   version="1.1"
   id="svg33"
   width="65.0mm"
   height="55.0mm"
   viewBox="0 0 65.0 55.0"
   sodipodi:docname="Corazon.svg"
   inkscape:version="1.0.1 (3bc2e813f5, 2020-09-07)">
  <metadata
     id="metadata39">
    <rdf:RDF>
      <cc:Work
         rdf:about="">
        <dc:format>image/svg+xml</dc:format>
        <dc:type
           rdf:resource="http://purl.org/dc/dcmitype/StillImage" />
        <dc:title />
      </cc:Work>
    </rdf:RDF>
  </metadata>
  <defs
     id="defs37" />
  <sodipodi:namedview
     pagecolor="#ffffff"
     bordercolor="#666666"
     borderopacity="1"
     objecttolerance="10"
     gridtolerance="10"
     guidetolerance="10"
     inkscape:pageopacity="0"
     inkscape:pageshadow="2"
     inkscape:window-width="1920"
     inkscape:window-height="1001"
     id="namedview35"
     showgrid="false"
     inkscape:document-units="mm"
     units="mm"
     inkscape:zoom="2.7283648"
     inkscape:cx="34.510202"
     inkscape:cy="122.01544"
     inkscape:window-x="-9"
     inkscape:window-y="-9"
     inkscape:window-maximized="1"
     inkscape:current-layer="g902"
     inkscape:document-rotation="0" />
  <g
     inkscape:label="[fixed] BG"
     inkscape:groupmode="layer"
     sodipodi:insensitive="true"
     id="g896"
     style="display:none">
    <rect
       x="0"
       y="0"
       width="50"
       height="50"
       style="display:inline;fill:#ffffff;fill-opacity:1;stroke:none"
       id="rect894" />
  </g>
  <g
     inkscape:label="Edge.Cuts"
     inkscape:groupmode="layer"
     id="g898">
    <path
       style="display:inline;fill:none;stroke:#000000;stroke-width:1.21971;stroke-miterlimit:4;stroke-dasharray:none;stroke-opacity:1"
       d="m 31.711125,53.762275 -0.8072,-0.3708 -0.8083,-0.3944 -0.8089,-0.4176 -0.8087,-0.4401 -0.8081,-0.4619 -0.8065,-0.4834 -0.8043,-0.5039 -0.8016,-0.5241 -1.5919,-1.1062 -1.5725,-1.1794 -1.5477,-1.2477 -1.5176,-1.3113 -1.4821,-1.3701 -1.441,-1.4239 -1.3948,-1.4732 -1.343,-1.5172 -1.2859,-1.5569 -1.2234,-1.5914 -0.58663,-0.8073 -0.5689496,-0.814 -0.55062,-0.8204 -0.53164,-0.826 -0.43849,-0.7285 -0.47469,-0.8451 -0.49198,-0.9239 -0.4904,-0.9647 -0.46989,-0.9671 -0.43049,-0.9321 -0.37219,-0.8584 -0.29502,-0.7471 -0.3697,-1.0822 -0.33911,-1.1478 -0.30274,-1.1847 -0.26063,-1.1929 -0.21274,-1.1722 -0.15909,-1.1229 -0.09967,-1.0446 -0.03452,-0.9376 0.02735,-0.9245 0.0812,-0.9193 0.13383,-0.9119 0.18525,-0.9018 0.23542,-0.8893 0.28436,-0.8741 0.3321,-0.8565 0.37859,-0.8365 0.42386,-0.8136699 0.46789,-0.78855 0.51072,-0.76084 0.55228,-0.73056 0.59266,-0.69776 0.63178,-0.6625 0.66968,-0.62466 0.70636,-0.58432 0.6838396,-0.50587 0.70292,-0.46934 0.7202,-0.43231 0.7359,-0.3948 0.7496,-0.35681 0.7618,-0.31829 0.772,-0.27931 0.7807,-0.23983 0.7876,-0.19987 0.7925,-0.15941 0.7958,-0.118446 0.7975,-0.077019 0.7972,-0.035068 0.7954,0.007347 0.7915,0.050255 0.7862,0.093679 1.0083,0.171982 0.9589,0.21207 0.9162,0.25478 0.8805,0.30005 0.8516,0.3479 0.8298,0.39836 0.8148,0.45142 0.807,0.50705 0.4708,0.33331 0.5103,0.39606 0.5279,0.43908 0.524,0.46239 0.4981,0.46598 0.4508,0.44985 0.3815,0.41399 0.2908,0.35845 0.1683,0.20783 0.1674,0.16992 0.1472,0.11449 0.1073,0.04155 0.1127,-0.04775 0.1611,-0.12854 0.1883,-0.18974 0.1938,-0.23139 0.3159,-0.38006 0.388,-0.41873 0.4432,-0.44199 0.4813,-0.44985 0.5027,-0.4423 0.5068,-0.41936 0.4941,-0.38101 0.4643,-0.32728 0.5649,-0.36021 0.5737,-0.33508 0.5821,-0.31001 0.5896,-0.28495 0.5966,-0.25994 0.6028,-0.23492 0.6086,-0.20994 0.6136,-0.18499 0.6181,-0.16008 0.6218,-0.13517 0.6249,-0.11031 0.6275,-0.08545 0.6291,-0.060646 0.6306,-0.035842 0.6311,-0.011078 0.6309,0.01365 0.6302,0.038366 0.6289,0.063068 0.627,0.087722 0.6243,0.11234 0.6209,0.13696 0.6172,0.16154 0.6126,0.18609 0.6073,0.21063 0.6016,0.23513 0.5951,0.25958 0.5881,0.28406 0.5801,0.30847 0.572,0.33287 0.5627,0.35724 0.5533,0.38157 0.5429,0.40591 0.7097,0.5854 0.6674,0.61997 0.627,0.65679 0.5884,0.69595 0.5515,0.73742 0.5167,0.78122 0.4836,0.82714 0.4522,0.8755699 0.2676,0.5796 0.2433,0.5864 0.2192,0.5928 0.1949,0.5991 0.1705,0.6051 0.1461,0.6109 0.1219,0.6164 0.0974,0.6218 0.073,0.6268 0.0486,0.6316 0.0238,0.6361 -5e-4,0.6405 -0.0251,0.6448 -0.0497,0.6484 -0.0744,0.6522 -0.0991,0.6554 -0.1727,0.9496 -0.1936,0.9296 -0.2152,0.912 -0.2377,0.8967 -0.2617,0.8842 -0.2862,0.8739 -0.3122,0.8661 -0.3389,0.8608 -0.3664,0.8581 -0.3954,0.8578 -0.4251,0.8598 -0.456,0.8646 -0.4878,0.8715 -0.5205,0.8811 -0.5545,0.893 -0.5892,0.9075 -0.7674,1.1292 -0.7695,1.0724 -0.7876,1.0355 -0.822,1.0176 -0.8727,1.0193 -0.9394,1.0405 -1.0222,1.081 -1.1214,1.1408 -0.9012,0.8866 -0.9009,0.8553 -0.9007,0.824 -0.9013,0.7931 -0.9026,0.7629 -0.9037,0.7325 -0.9058,0.703 -0.9082,0.6736 -0.9111,0.6444 -0.9143,0.6157 -0.9184,0.5873 -0.9225,0.5594 -0.9273,0.5315 -0.9327,0.5042 -0.9383,0.4772 -0.9444,0.4506 -0.6101,0.2753 -0.4933,0.2007 -0.4084,0.1282 -0.3561,0.0581 -0.3357,-0.0098 -0.3476,-0.0754 -0.3915,-0.1387 -0.4677,-0.1999 v 0"
       id="path63" />
  </g>
  <g
     inkscape:label="B.Cu"
     inkscape:groupmode="layer"
     id="g900"
     style="display:inline">
    <path
       style="fill:#a98ed5;stroke-width:0.121532"
       d="M 31.705466,52.034408 C 23.635265,48.534212 15.291555,40.999889 10.067824,32.913707 9.0316758,31.309786 7.444082,28.195781 6.8182494,26.539802 5.8597086,24.003459 4.8151688,20.12645 4.8151688,17.99312 c 0,-4.518647 2.0077979,-9.5573794 5.6324162,-12.3059366 3.371537,-2.5566433 7.684075,-3.6738846 11.602122,-3.1101476 2.590846,0.3727765 5.041835,2.1140064 7.056472,3.4209943 1.110781,0.7206151 2.833151,2.245924 3.42888,3.036573 0.203081,0.2695279 0.452317,0.4892857 0.553859,0.4883462 0.101557,-9.696e-4 0.378473,-0.246885 0.615405,-0.5465506 0.685926,-0.8675539 3.30961,-3.182687 4.419976,-3.9030335 5.607245,-3.6376862 12.321054,-3.476288 17.700966,0.6033106 1.830368,1.3879757 3.344527,3.5086418 4.438517,5.7058002 1.399663,2.811061 1.078539,6.522001 0.521108,9.728243 -0.814818,4.686653 -2.416767,8.492895 -5.454706,12.960435 -1.930872,2.839497 -3.720896,4.937222 -6.664122,7.809672 -4.511948,4.403444 -9.106223,7.801596 -13.849225,9.935337 -1.699401,0.764508 -1.819108,0.778723 -3.111371,0.218245 z"
       id="path954"
       sodipodi:nodetypes="sssssssscsssssssss" />
  </g>
  <g
     inkscape:label="F.Cu"
     inkscape:groupmode="layer"
     id="g902"
     style="display:inline">
    <path
       style="fill:#a98ed5;stroke-width:0.121532"
       d="M 31.705466,52.034408 C 23.635265,48.534212 15.291555,40.999889 10.067824,32.913707 9.0316758,31.309786 7.444082,28.195781 6.8182494,26.539802 5.8597086,24.003459 4.8151688,20.12645 4.8151688,17.99312 c 0,-4.518647 2.0077979,-9.5573794 5.6324162,-12.3059366 3.371537,-2.5566433 7.684075,-3.6738846 11.602122,-3.1101476 2.590846,0.3727765 5.041835,2.1140064 7.056472,3.4209943 1.110781,0.7206151 2.833151,2.245924 3.42888,3.036573 0.203081,0.2695279 0.452317,0.4892857 0.553859,0.4883462 0.101557,-9.696e-4 0.378473,-0.246885 0.615405,-0.5465506 0.685926,-0.8675539 3.30961,-3.182687 4.419976,-3.9030335 5.607245,-3.6376862 12.321054,-3.476288 17.700966,0.6033106 1.830368,1.3879757 3.344527,3.5086418 4.438517,5.7058002 1.399663,2.811061 1.078539,6.522001 0.521108,9.728243 -0.814818,4.686653 -2.416767,8.492895 -5.454706,12.960435 -1.930872,2.839497 -3.720896,4.937222 -6.664122,7.809672 -4.511948,4.403444 -9.106223,7.801596 -13.849225,9.935337 -1.699401,0.764508 -1.819108,0.778723 -3.111371,0.218245 z"
       id="path911"
       sodipodi:nodetypes="sssssssscsssssssss" />
  </g>
  <g
     inkscape:label="F.SilkS"
     inkscape:groupmode="layer"
     id="g981"
     style="display:inline">
    <path
       style="fill:#28a6e4;fill-opacity:1;stroke:none;stroke-width:0.250218px;stroke-linecap:butt;stroke-linejoin:miter;stroke-opacity:1"
       d="m 22.543116,6.0243538 c 0,0 -7.672142,-3.0929457 -11.150046,3.460179 -4.1509571,7.8213062 1.187438,0.4014142 2.161309,-0.7040466 1.11259,-1.2629235 2.723259,-2.0217147 4.750985,-2.2503089 3.570339,-0.4024996 4.01377,-0.3757457 4.237752,-0.5058235 z"
       id="path987"
       sodipodi:nodetypes="ccssc" />
  </g>
</svg>
