<svg id="Sorting_Hat" data-name="Sorting Hat" xmlns="http://www.w3.org/2000/svg" viewBox="0 0 227.77 191.12"><defs><style>.cls-1{fill:none;stroke:#c2c200;stroke-linejoin:round;}.cls-2{fill:#008400;}.cls-3{fill:#840000;}.cls-4{fill:#848400;}.cls-5{fill:#840084;}.cls-6{fill:teal;}</style></defs><path id="Edge.Cuts" class="cls-1" d="M52.1,190.62c-.78,0-1.55,0-2.33,0s-1.55,0-2.37,0a110.22,110.22,0,0,1-26.86-3.08c-4.9-1.23-11.2-3.25-16.38-8C0,175.69-.6,171.79,2.38,166.92c3.21-5.22,8.21-7.82,12.21-9.49a38.36,38.36,0,0,1,15.16-2.91,52.82,52.82,0,0,1,5.52.31c2.78.29,5.47.84,8.11,1.35,2.26.45,4.41.88,6.57,1.16a35.18,35.18,0,0,0,4.52.37,15.61,15.61,0,0,0,2.65-.2c3.13-.51,4.74-2.39,4.83-5.54a34.84,34.84,0,0,0-.7-6.66c-.12-.77-.26-1.53-.37-2.31l-.18-1.2a34,34,0,0,1-.59-8.15,16.56,16.56,0,0,1,4.74-10.44,18.07,18.07,0,0,0,5.06-12,18.07,18.07,0,0,1,1.78-7.07c1.76-3.51,2-7.27.92-11.79l-.74-2.88c-.69-2.65-1.41-5.41-1.92-8.21a15.18,15.18,0,0,1,5.4-14.87A18.65,18.65,0,0,0,81.6,55.49a54.37,54.37,0,0,1,3.86-11.42c2-4.49,5.06-7,9.25-7.62.14,0,.57-.08,1.15-1.55a82.32,82.32,0,0,0,2.65-8.78l.16-.66c.92-3.57,1.86-7.25,3.11-10.84a13.61,13.61,0,0,1,8.62-8.79A104.49,104.49,0,0,1,127.64,1.6l1.88-.3c1.1-.19,2.21-.35,3.29-.58A12.35,12.35,0,0,1,135,.5a8.11,8.11,0,0,1,6.25,2.74c2.67,3,6.29,4.1,9.82,4.84A81.85,81.85,0,0,1,170,14a25.28,25.28,0,0,1,8.5,5.95c1.55,1.84,2.14,3.65,1.71,5.39s-1.78,3.09-4,4c-4.46,1.8-9.11,2.07-13.12,2.17l-2.55.06c-4.09.1-8.15.2-12.22.35.06.24.13.49.19.71a22,22,0,0,1,.57,2.7,7.68,7.68,0,0,1-3.35,7.54,30.37,30.37,0,0,1-3.07,1.84l-1.32.73a4.88,4.88,0,0,0-.76.53,4,4,0,0,0,.27.61c2.69,5.07,4.94,10.38,7.08,15.51.62,1.43,1.21,2.86,1.82,4.29A22.07,22.07,0,0,0,154,73a8.69,8.69,0,0,1,1.9,9.8,9.91,9.91,0,0,0-.26,7,110.91,110.91,0,0,0,13.56,29.7c2.37,3.74,4.58,7,6.78,9.93a15.43,15.43,0,0,1,2.6,6.05,8.09,8.09,0,0,0,.63,2.08,1,1,0,0,0,.23.33,1,1,0,0,1,.26-.06,39.56,39.56,0,0,0,6.76-2.52l.45-.2a61.48,61.48,0,0,1,25.13-5.19c.78,0,1.57,0,2.35,0a13.34,13.34,0,0,1,10.11,5.52,12.68,12.68,0,0,1,2.37,10.8,13.22,13.22,0,0,1-5.29,7.13c-3.49,2.66-7.64,3.82-11,4.76Q195,162.57,179.28,167a33.62,33.62,0,0,1-9.17,1.06c-.94,0-1.88,0-2.84,0-.55,0-1.1,0-1.63,0a101.83,101.83,0,0,0-22.56,2.8c-10,2.26-20,5.59-29.64,8.78l-2.35.78a207.23,207.23,0,0,1-41.26,9.13A158.44,158.44,0,0,1,52.1,190.62Z"/><path id="B.Cu" class="cls-2" d="M214.3,132.75a58.9,58.9,0,0,0-26.25,4.91,43.63,43.63,0,0,1-7.75,2.9,3,3,0,0,1-3.61-1.68,11.18,11.18,0,0,1-.9-2.82,12.43,12.43,0,0,0-2.08-5c-2.46-3.27-4.72-6.66-6.91-10.11a114.18,114.18,0,0,1-13.89-30.46,12.85,12.85,0,0,1,.39-8.83A5.85,5.85,0,0,0,152,75a24.7,24.7,0,0,1-4.92-7.49c-2.82-6.58-5.42-13.24-8.81-19.57-1.22-2.27-.71-3.58,1.56-4.91,1.38-.81,2.86-1.49,4.16-2.43a4.86,4.86,0,0,0,2.19-4.9c-.16-1.33-.61-2.57-.86-3.86-.39-2,0-2.64,2-2.7,5.19-.18,10.4-.3,15.59-.43,4.13-.1,8.23-.38,12.13-2,2.72-1.08,3.13-2.69,1.23-4.92a22.11,22.11,0,0,0-7.58-5.23,78,78,0,0,0-18.2-5.74c-4.33-.92-8.31-2.31-11.36-5.74a5.76,5.76,0,0,0-5.8-1.61c-1.74.34-3.51.59-5.25.89a101.85,101.85,0,0,0-16.77,4.11,10.78,10.78,0,0,0-6.88,7c-1.29,3.7-2.23,7.5-3.21,11.27a84.26,84.26,0,0,1-2.76,9.09c-.61,1.62-1.55,3.07-3.35,3.33-3.66.56-5.68,2.84-7.11,6a53.78,53.78,0,0,0-3.68,10.85,21.52,21.52,0,0,1-7.19,12.48,12.28,12.28,0,0,0-4.43,12.19c.68,3.68,1.72,7.3,2.62,10.93a19.24,19.24,0,0,1-1.13,13.73,15,15,0,0,0-1.47,6,20.81,20.81,0,0,1-5.84,13.81,13.78,13.78,0,0,0-4,8.71,38.75,38.75,0,0,0,.75,8.72c.47,3.12,1.19,6.23,1.11,9.44a8.05,8.05,0,0,1-7.2,8.25,27.15,27.15,0,0,1-8-.14c-4.91-.64-9.71-2-14.63-2.5A38.66,38.66,0,0,0,15.68,160c-4.35,1.84-8.32,4.19-10.89,8.38-2.29,3.74-1.94,6.13,1.27,9.05,4.33,4,9.6,5.94,15.17,7.35a109.08,109.08,0,0,0,28.6,3,141.23,141.23,0,0,0,19.63-1.11,202,202,0,0,0,40.7-9c10.64-3.53,21.28-7.15,32.25-9.64a102.28,102.28,0,0,1,24.88-2.86c3.76.06,7.5.12,11.18-.92q15.67-4.44,31.35-8.84c3.54-1,7.07-2,10.05-4.29,1.94-1.47,3.64-3.15,4.27-5.6C225.67,139.64,220.59,133,214.3,132.75ZM146.93,81.53c-1.49,3.78-3.31,7.29-7,9.42a20.38,20.38,0,0,0-2.35,1.61,1.73,1.73,0,0,0-.41,2.6,18.71,18.71,0,0,0,2.21,2.65c.31.31.71.57.57,1.19a9.25,9.25,0,0,1-3.23-1.11,50.5,50.5,0,0,1-6.45-3.9,8.93,8.93,0,0,0-8.46-1c-4.66,1.65-8.64,4.43-12.58,7.27-2.7,1.92-4.44,2.43-7.42,2.13l9.93-6.89c.31-.2.61-.43.92-.63a2.12,2.12,0,0,0,1.12-2.17A2.07,2.07,0,0,0,112,91.07l-5.75-1.47a8.89,8.89,0,0,1-6.41-5.46,13.51,13.51,0,0,0-8.19-7.92c-1.74-.63-1.92-1.66-.61-2.94.67-.66,1.43-1.25,2.12-1.9,1.59-1.51,1.45-2.64-.47-3.64-1-.53-2.06-1-3.08-1.53-.62-.31-1.39-.51-1.29-1.43s.8-1.23,1.53-1.43a14.72,14.72,0,0,1,12.36,1.51A35.85,35.85,0,0,1,110.91,73c3.43,4.29,6.87,8.56,10.69,12.52q.33.38.69.72c2.49,2.35,4.64,2.68,7.6.88,2.49-1.51,4.88-3.21,7.33-4.82,1.6-1,3.17-2.09,4.78-3.11a11.73,11.73,0,0,1,1.66-.84,2.53,2.53,0,0,1,3.27,3.15Z"/><path id="F.Cu" class="cls-3" d="M214.3,132.75a58.9,58.9,0,0,0-26.25,4.91,43.63,43.63,0,0,1-7.75,2.9,3,3,0,0,1-3.61-1.68,11.18,11.18,0,0,1-.9-2.82,12.43,12.43,0,0,0-2.08-5c-2.46-3.27-4.72-6.66-6.91-10.11a114.18,114.18,0,0,1-13.89-30.46,12.85,12.85,0,0,1,.39-8.83A5.85,5.85,0,0,0,152,75a24.7,24.7,0,0,1-4.92-7.49c-2.82-6.58-5.42-13.24-8.81-19.57-1.22-2.27-.71-3.58,1.56-4.91,1.38-.81,2.86-1.49,4.16-2.43a4.86,4.86,0,0,0,2.19-4.9c-.16-1.33-.61-2.57-.86-3.86-.39-2,0-2.64,2-2.7,5.19-.18,10.4-.3,15.59-.43,4.13-.1,8.23-.38,12.13-2,2.72-1.08,3.13-2.69,1.23-4.92a22.11,22.11,0,0,0-7.58-5.23,78,78,0,0,0-18.2-5.74c-4.33-.92-8.31-2.31-11.36-5.74a5.76,5.76,0,0,0-5.8-1.61c-1.74.34-3.51.59-5.25.89a101.85,101.85,0,0,0-16.77,4.11,10.78,10.78,0,0,0-6.88,7c-1.29,3.7-2.23,7.5-3.21,11.27a84.26,84.26,0,0,1-2.76,9.09c-.61,1.62-1.55,3.07-3.35,3.33-3.66.56-5.68,2.84-7.11,6a53.78,53.78,0,0,0-3.68,10.85,21.52,21.52,0,0,1-7.19,12.48,12.28,12.28,0,0,0-4.43,12.19c.68,3.68,1.72,7.3,2.62,10.93a19.24,19.24,0,0,1-1.13,13.73,15,15,0,0,0-1.47,6,20.81,20.81,0,0,1-5.84,13.81,13.78,13.78,0,0,0-4,8.71,38.75,38.75,0,0,0,.75,8.72c.47,3.12,1.19,6.23,1.11,9.44a8.05,8.05,0,0,1-7.2,8.25,27.15,27.15,0,0,1-8-.14c-4.91-.64-9.71-2-14.63-2.5A38.66,38.66,0,0,0,15.68,160c-4.35,1.84-8.32,4.19-10.89,8.38-2.29,3.74-1.94,6.13,1.27,9.05,4.33,4,9.6,5.94,15.17,7.35a109.08,109.08,0,0,0,28.6,3,141.23,141.23,0,0,0,19.63-1.11,202,202,0,0,0,40.7-9c10.64-3.53,21.28-7.15,32.25-9.64a102.28,102.28,0,0,1,24.88-2.86c3.76.06,7.5.12,11.18-.92q15.67-4.44,31.35-8.84c3.54-1,7.07-2,10.05-4.29,1.94-1.47,3.64-3.15,4.27-5.6C225.67,139.64,220.59,133,214.3,132.75ZM146.93,81.53c-1.49,3.78-3.31,7.29-7,9.42a20.38,20.38,0,0,0-2.35,1.61,1.73,1.73,0,0,0-.41,2.6,18.71,18.71,0,0,0,2.21,2.65c.31.31.71.57.57,1.19a9.25,9.25,0,0,1-3.23-1.11,50.5,50.5,0,0,1-6.45-3.9,8.93,8.93,0,0,0-8.46-1c-4.66,1.65-8.64,4.43-12.58,7.27-2.7,1.92-4.44,2.43-7.42,2.13l9.93-6.89c.31-.2.61-.43.92-.63a2.12,2.12,0,0,0,1.12-2.17A2.07,2.07,0,0,0,112,91.07l-5.75-1.47a8.89,8.89,0,0,1-6.41-5.46,13.51,13.51,0,0,0-8.19-7.92c-1.74-.63-1.92-1.66-.61-2.94.67-.66,1.43-1.25,2.12-1.9,1.59-1.51,1.45-2.64-.47-3.64-1-.53-2.06-1-3.08-1.53-.62-.31-1.39-.51-1.29-1.43s.8-1.23,1.53-1.43a14.72,14.72,0,0,1,12.36,1.51A35.85,35.85,0,0,1,110.91,73c3.43,4.29,6.87,8.56,10.69,12.52q.33.38.69.72c2.49,2.35,4.64,2.68,7.6.88,2.49-1.51,4.88-3.21,7.33-4.82,1.6-1,3.17-2.09,4.78-3.11a11.73,11.73,0,0,1,1.66-.84,2.53,2.53,0,0,1,3.27,3.15Z"/><path id="B.Mask" class="cls-4" d="M101.8,102.39l9.93-6.89c.31-.2.61-.43.92-.63a2.12,2.12,0,0,0,1.12-2.17A2.07,2.07,0,0,0,112,91.07l-5.74-1.47a8.88,8.88,0,0,1-6.42-5.46,13.51,13.51,0,0,0-8.19-7.92c-1.74-.63-1.92-1.66-.61-2.94.67-.66,1.43-1.25,2.12-1.9,1.59-1.51,1.45-2.64-.47-3.64-1-.53-2.06-1-3.08-1.53-.62-.31-1.39-.51-1.29-1.43s.8-1.23,1.53-1.43a14.72,14.72,0,0,1,12.36,1.51A35.85,35.85,0,0,1,110.91,73c3.43,4.29,6.87,8.56,10.69,12.52q.33.38.69.72c2.49,2.35,4.64,2.68,7.6.88,2.49-1.51,4.88-3.21,7.33-4.82,1.6-1,3.17-2.09,4.78-3.11a11.73,11.73,0,0,1,1.66-.84,2.53,2.53,0,0,1,3.27,3.15c-1.49,3.78-3.31,7.29-7,9.42a20.38,20.38,0,0,0-2.35,1.61,1.73,1.73,0,0,0-.41,2.6,18.71,18.71,0,0,0,2.21,2.65c.31.31.71.57.57,1.19a9.25,9.25,0,0,1-3.23-1.11,50.5,50.5,0,0,1-6.45-3.9,8.93,8.93,0,0,0-8.46-1c-4.66,1.65-8.64,4.43-12.58,7.27C106.52,102.18,104.78,102.69,101.8,102.39Z"/><path id="F.Mask" class="cls-5" d="M101.8,102.39l9.93-6.89c.31-.2.61-.43.92-.63a2.12,2.12,0,0,0,1.12-2.17A2.07,2.07,0,0,0,112,91.07l-5.74-1.47a8.88,8.88,0,0,1-6.42-5.46,13.51,13.51,0,0,0-8.19-7.92c-1.74-.63-1.92-1.66-.61-2.94.67-.66,1.43-1.25,2.12-1.9,1.59-1.51,1.45-2.64-.47-3.64-1-.53-2.06-1-3.08-1.53-.62-.31-1.39-.51-1.29-1.43s.8-1.23,1.53-1.43a14.72,14.72,0,0,1,12.36,1.51A35.85,35.85,0,0,1,110.91,73c3.43,4.29,6.87,8.56,10.69,12.52q.33.38.69.72c2.49,2.35,4.64,2.68,7.6.88,2.49-1.51,4.88-3.21,7.33-4.82,1.6-1,3.17-2.09,4.78-3.11a11.73,11.73,0,0,1,1.66-.84,2.53,2.53,0,0,1,3.27,3.15c-1.49,3.78-3.31,7.29-7,9.42a20.38,20.38,0,0,0-2.35,1.61,1.73,1.73,0,0,0-.41,2.6,18.71,18.71,0,0,0,2.21,2.65c.31.31.71.57.57,1.19a9.25,9.25,0,0,1-3.23-1.11,50.5,50.5,0,0,1-6.45-3.9,8.93,8.93,0,0,0-8.46-1c-4.66,1.65-8.64,4.43-12.58,7.27C106.52,102.18,104.78,102.69,101.8,102.39Z"/><g id="F.SlikS"><path id="F.SlikS-2" data-name="F.SlikS" class="cls-6" d="M160.06,122.66a9.35,9.35,0,0,1,3.6,3.29c.87,1.29,1.63,2.66,2.47,4,.24.41.41.82,0,1.25a.87.87,0,0,1-1.23.1c-.57-.32-1.2-.55-1.76-.92-5.53-3.55-11.76-4.55-18.16-4.8-6.84-.28-13.56.94-20.28,2A242.27,242.27,0,0,0,92,134.75,59.1,59.1,0,0,0,76,141.92c-1.59,1.07-2.23,1-3.58-.34A7.32,7.32,0,0,1,70,137.47c-.09-.49-.29-1.12.32-1.45s1,0,1.45.39a6.92,6.92,0,0,0,4.33,1.9,9.85,9.85,0,0,0,4-.76,186.33,186.33,0,0,0,17.52-8.82c4.8-2.64,9.5-5.48,14.4-7.91a53.55,53.55,0,0,1,19-4.88c4.48-.41,9-.49,13.49-.55s7.45,2,9.51,5.74c1,1.8,2.11,3.45,4.17,4.17a3.5,3.5,0,0,0,1.06.26c1,0,1.39-.61,1-1.55C160.12,123.56,159.79,123.19,160.06,122.66Z"/><path id="F.SlikS-3" data-name="F.SlikS" class="cls-6" d="M157.79,159.92a23.71,23.71,0,0,1,6.5-4.31c11.32-4.82,22.16-10.66,33.58-15.26,3.68-1.49,7.4-2.86,11.44-2.82a18.62,18.62,0,0,1,7.74,1.92,5.25,5.25,0,0,1,1.7,1.23c1.67,1.8,1.47,4-.68,5.51a23.49,23.49,0,0,1-7.76,3.68c-4.39,1.12-8.88,1.7-13.23,3-3.68,1.09-7.13,2.76-10.85,3.74a124.36,124.36,0,0,1-17.53,3,54.74,54.74,0,0,1-8,.78A15.37,15.37,0,0,1,157.79,159.92Z"/><path id="F.SlikS-4" data-name="F.SlikS" class="cls-6" d="M126.91,15.84a40.26,40.26,0,0,1,.75,6.11,11.38,11.38,0,0,0,2.68,6.25c2.29,2.66,4.53,5.34,6.72,8.13-.92-.43-1.84-.89-2.78-1.26-1.1-.43-1.29-.27-1.06.94a11.28,11.28,0,0,0,1.39,3.14,6.34,6.34,0,0,1,1.08,2.74A9.14,9.14,0,0,1,132.77,39a27.28,27.28,0,0,0-3.13-4c-1.26-1.23-2.1-1.15-3.12.26a12.23,12.23,0,0,0-1.58,3.07c-.1.3-.3.67-.63.69s-.39-.47-.49-.73c-1.06-2.88-2.51-5.46-5.21-7.17a1.07,1.07,0,0,1-.55-1.15c.45-2.63-.45-5-1.65-7.19a58.51,58.51,0,0,1-2.93-6.52c-.26-.67-.73-1.47.27-1.9s1.47.27,1.8,1c1.43,3.18,2.84,6.39,4.27,9.58a16.5,16.5,0,0,0,3.39,5.25,1.65,1.65,0,0,0,1.86.59c.73-.31.59-1,.61-1.61,0-3,0-5.95,0-8.91A8.4,8.4,0,0,1,126.91,15.84Z"/><g id="F.SlikS-5" data-name="F.SlikS"><path class="cls-6" d="M135,4.29a4.31,4.31,0,0,1,3.39,1.45c3.4,3.83,7.93,5.21,11.91,6.06a77.25,77.25,0,0,1,18,5.66,21.34,21.34,0,0,1,7.25,5c.7.82,1,1.53.91,2s-.74.94-1.75,1.34c-3.89,1.58-8.13,1.8-11.78,1.89h-.12c-5.08.12-10.33.24-15.48.42a3.4,3.4,0,0,0-2.64,1,3.52,3.52,0,0,0-.35,2.91c.11.56.25,1.11.39,1.64a17.62,17.62,0,0,1,.46,2.15,3.88,3.88,0,0,1-1.78,4,23.48,23.48,0,0,1-2.6,1.55c-.5.27-1,.54-1.49.83-2.78,1.63-3.38,3.56-1.93,6.24,2.63,4.91,4.83,10.14,6.95,15.19q.9,2.16,1.82,4.3a25.64,25.64,0,0,0,5.12,7.8,4.89,4.89,0,0,1,1.13,5.65,13.86,13.86,0,0,0-.43,9.48,114.37,114.37,0,0,0,14,30.73c2.52,4,4.73,7.22,6.95,10.18a11.35,11.35,0,0,1,1.91,4.59l.05.23a11.14,11.14,0,0,0,.94,2.84,3.94,3.94,0,0,0,3.58,2.3,5.18,5.18,0,0,0,1.14-.13,40.78,40.78,0,0,0,7.37-2.71l.55-.25A57.68,57.68,0,0,1,212,133.71c.74,0,1.51,0,2.26,0a9.59,9.59,0,0,1,7.18,4,8.94,8.94,0,0,1,1.73,7.57,9.57,9.57,0,0,1-3.9,5.05c-2.88,2.19-6.36,3.17-9.72,4.12l-31.36,8.85a30.33,30.33,0,0,1-8.24.91q-1.32,0-2.64,0l-1.74,0a105.09,105.09,0,0,0-23.38,2.91c-10.34,2.34-20.52,5.73-30.36,9l-2,.66a202.11,202.11,0,0,1-40.49,9,147.63,147.63,0,0,1-17.18,1.12l-2.35,0-2.41,0a105.2,105.2,0,0,1-25.93-3c-4.76-1.2-10.23-3-14.75-7.12-2.85-2.59-3.11-4.48-1.09-7.79,2.61-4.25,6.74-6.42,10.42-8a34.83,34.83,0,0,1,13.71-2.62,47,47,0,0,1,5.08.28c2.59.28,5.21.79,7.74,1.29,2.24.44,4.55.9,6.87,1.2a40.16,40.16,0,0,0,5,.39,20,20,0,0,0,3.28-.25,9.07,9.07,0,0,0,8-9.22A38,38,0,0,0,65,144.6c-.12-.72-.24-1.44-.35-2.17l-.18-1.2a31.94,31.94,0,0,1-.57-7.3,12.75,12.75,0,0,1,3.69-8.08,22,22,0,0,0,6.12-14.46,13.89,13.89,0,0,1,1.37-5.56c2.16-4.34,2.55-9.06,1.2-14.42-.25-1-.52-2-.78-3-.66-2.55-1.35-5.2-1.83-7.82a11.34,11.34,0,0,1,4.1-11.25,22.54,22.54,0,0,0,7.52-13,53.14,53.14,0,0,1,3.61-10.65c1.5-3.3,3.46-5,6.35-5.41s3.8-3.08,4.13-4a82.57,82.57,0,0,0,2.8-9.19l.32-1.25c.85-3.3,1.73-6.7,2.86-10a9.75,9.75,0,0,1,6.27-6.44,101.38,101.38,0,0,1,16.61-4.06q1-.18,2-.33c1.07-.18,2.18-.36,3.27-.57A6.93,6.93,0,0,1,135,4.29m0-1a8,8,0,0,0-1.66.18c-1.74.34-3.51.59-5.25.89a101.85,101.85,0,0,0-16.77,4.11,10.78,10.78,0,0,0-6.88,7c-1.29,3.7-2.23,7.5-3.21,11.27a84.26,84.26,0,0,1-2.76,9.09c-.61,1.62-1.55,3.07-3.35,3.33-3.66.56-5.68,2.84-7.11,6a53.78,53.78,0,0,0-3.68,10.85,21.52,21.52,0,0,1-7.19,12.48,12.28,12.28,0,0,0-4.43,12.19c.68,3.68,1.72,7.3,2.62,10.93a19.24,19.24,0,0,1-1.13,13.73,15,15,0,0,0-1.47,6,20.81,20.81,0,0,1-5.84,13.81,13.78,13.78,0,0,0-4,8.71,38.75,38.75,0,0,0,.75,8.72c.47,3.12,1.19,6.23,1.11,9.44a8.05,8.05,0,0,1-7.2,8.25,19.08,19.08,0,0,1-3.11.24,38.2,38.2,0,0,1-4.89-.38c-4.91-.64-9.71-2-14.63-2.5a50.43,50.43,0,0,0-5.19-.28A36,36,0,0,0,15.68,160c-4.35,1.84-8.32,4.19-10.89,8.38-2.29,3.74-1.94,6.13,1.27,9.05,4.33,4,9.6,5.94,15.17,7.35a106.37,106.37,0,0,0,26.18,3l2.42,0,2.34,0a146.3,146.3,0,0,0,17.29-1.13,202,202,0,0,0,40.7-9c10.64-3.53,21.28-7.15,32.25-9.64a104.58,104.58,0,0,1,23.16-2.88l1.72,0c.89,0,1.77,0,2.66,0a30.75,30.75,0,0,0,8.52-.95q15.67-4.44,31.35-8.84c3.54-1,7.07-2,10.05-4.29,1.94-1.47,3.64-3.15,4.27-5.6,1.53-5.9-3.55-12.58-9.84-12.79-.77,0-1.54,0-2.3,0a58.16,58.16,0,0,0-23.95,4.95,43.63,43.63,0,0,1-7.75,2.9,4.22,4.22,0,0,1-.91.1,3,3,0,0,1-2.7-1.78,11.18,11.18,0,0,1-.9-2.82,12.43,12.43,0,0,0-2.08-5c-2.46-3.27-4.72-6.66-6.91-10.11a114.18,114.18,0,0,1-13.89-30.46,12.84,12.84,0,0,1,.39-8.83A5.85,5.85,0,0,0,152,75a24.7,24.7,0,0,1-4.92-7.49c-2.82-6.58-5.42-13.24-8.81-19.57-1.22-2.27-.71-3.58,1.56-4.91,1.38-.81,2.86-1.49,4.16-2.43a4.86,4.86,0,0,0,2.19-4.9c-.16-1.33-.61-2.57-.86-3.86-.39-2,0-2.64,2-2.7,5.19-.18,10.4-.3,15.59-.43,4.13-.1,8.23-.38,12.13-2,2.72-1.08,3.13-2.69,1.23-4.92a22.11,22.11,0,0,0-7.58-5.23,78,78,0,0,0-18.2-5.74c-4.33-.92-8.31-2.31-11.36-5.74A5.31,5.31,0,0,0,135,3.29Z"/></g></g></svg>