G04 #@! TF.GenerationSoftware,KiCad,Pcbnew,(5.1.10)-1*
G04 #@! TF.CreationDate,2021-07-03T22:49:25-04:00*
G04 #@! TF.ProjectId,Sorting Hat,536f7274-696e-4672-9048-61742e6b6963,rev?*
G04 #@! TF.SameCoordinates,Original*
G04 #@! TF.FileFunction,Legend,Bot*
G04 #@! TF.FilePolarity,Positive*
%FSLAX46Y46*%
G04 Gerber Fmt 4.6, Leading zero omitted, Abs format (unit mm)*
G04 Created by KiCad (PCBNEW (5.1.10)-1) date 2021-07-03 22:49:25*
%MOMM*%
%LPD*%
G01*
G04 APERTURE LIST*
%ADD10C,0.120000*%
%ADD11C,0.152400*%
%ADD12C,0.150000*%
G04 APERTURE END LIST*
D10*
G04 #@! TO.C,Q1*
X146106000Y-76960000D02*
X145176000Y-76960000D01*
X142946000Y-76960000D02*
X143876000Y-76960000D01*
X142946000Y-76960000D02*
X142946000Y-74800000D01*
X146106000Y-76960000D02*
X146106000Y-75500000D01*
D11*
G04 #@! TO.C,SW1*
X150697001Y-68542000D02*
X150697001Y-64808000D01*
X157150999Y-68542000D02*
X150697001Y-68542000D01*
X157150999Y-64808000D02*
X157150999Y-68542000D01*
X150697001Y-64808000D02*
X157150999Y-64808000D01*
D10*
G04 #@! TO.C,C1*
X149834000Y-67987000D02*
X149834000Y-69187000D01*
X149834000Y-72507000D02*
X149834000Y-71307000D01*
X146378437Y-72507000D02*
X149834000Y-72507000D01*
X146378437Y-67987000D02*
X149834000Y-67987000D01*
X145314000Y-69051437D02*
X145314000Y-69187000D01*
X145314000Y-71442563D02*
X145314000Y-71307000D01*
X145314000Y-71442563D02*
X146378437Y-72507000D01*
X145314000Y-69051437D02*
X146378437Y-67987000D01*
X144574000Y-71807000D02*
X145074000Y-71807000D01*
X144824000Y-72057000D02*
X144824000Y-71557000D01*
G04 #@! TO.C,C2*
X153372000Y-73755000D02*
X153372000Y-74255000D01*
X153622000Y-74005000D02*
X153122000Y-74005000D01*
X152882000Y-76760563D02*
X151817563Y-77825000D01*
X152882000Y-74369437D02*
X151817563Y-73305000D01*
X152882000Y-74369437D02*
X152882000Y-74505000D01*
X152882000Y-76760563D02*
X152882000Y-76625000D01*
X151817563Y-77825000D02*
X148362000Y-77825000D01*
X151817563Y-73305000D02*
X148362000Y-73305000D01*
X148362000Y-73305000D02*
X148362000Y-74505000D01*
X148362000Y-77825000D02*
X148362000Y-76625000D01*
G04 #@! TO.C,D1*
X144875000Y-84150765D02*
X147484718Y-87260905D01*
X147484718Y-87260905D02*
X145745797Y-88720033D01*
X145745797Y-88720033D02*
X143136079Y-85609893D01*
G04 #@! TO.C,D2*
X153054297Y-89474014D02*
X156296757Y-87030645D01*
X154420417Y-91286916D02*
X153054297Y-89474014D01*
X157662877Y-88843547D02*
X154420417Y-91286916D01*
G04 #@! TO.C,Q2*
X153906000Y-69667000D02*
X153906000Y-70597000D01*
X153906000Y-72827000D02*
X153906000Y-71897000D01*
X153906000Y-72827000D02*
X151746000Y-72827000D01*
X153906000Y-69667000D02*
X152446000Y-69667000D01*
G04 #@! TO.C,R1*
X150220000Y-80423936D02*
X150220000Y-81628064D01*
X152040000Y-80423936D02*
X152040000Y-81628064D01*
G04 #@! TO.C,R2*
X154580000Y-80423936D02*
X154580000Y-81628064D01*
X152760000Y-80423936D02*
X152760000Y-81628064D01*
G04 #@! TO.C,R3*
X147680000Y-80423936D02*
X147680000Y-81628064D01*
X149500000Y-80423936D02*
X149500000Y-81628064D01*
G04 #@! TO.C,R4*
X157120000Y-80423936D02*
X157120000Y-81628064D01*
X155300000Y-80423936D02*
X155300000Y-81628064D01*
G04 #@! TO.C,Q1*
D12*
X141761238Y-76493619D02*
X141856476Y-76446000D01*
X141951714Y-76350761D01*
X142094571Y-76207904D01*
X142189809Y-76160285D01*
X142285047Y-76160285D01*
X142237428Y-76398380D02*
X142332666Y-76350761D01*
X142427904Y-76255523D01*
X142475523Y-76065047D01*
X142475523Y-75731714D01*
X142427904Y-75541238D01*
X142332666Y-75446000D01*
X142237428Y-75398380D01*
X142046952Y-75398380D01*
X141951714Y-75446000D01*
X141856476Y-75541238D01*
X141808857Y-75731714D01*
X141808857Y-76065047D01*
X141856476Y-76255523D01*
X141951714Y-76350761D01*
X142046952Y-76398380D01*
X142237428Y-76398380D01*
X140856476Y-76398380D02*
X141427904Y-76398380D01*
X141142190Y-76398380D02*
X141142190Y-75398380D01*
X141237428Y-75541238D01*
X141332666Y-75636476D01*
X141427904Y-75684095D01*
G04 #@! TO.C,SW1*
X161528047Y-66127380D02*
X161337571Y-66127380D01*
X161242333Y-66175000D01*
X161147095Y-66270238D01*
X161099476Y-66460714D01*
X161099476Y-66794047D01*
X161147095Y-66984523D01*
X161242333Y-67079761D01*
X161337571Y-67127380D01*
X161528047Y-67127380D01*
X161623285Y-67079761D01*
X161718523Y-66984523D01*
X161766142Y-66794047D01*
X161766142Y-66460714D01*
X161718523Y-66270238D01*
X161623285Y-66175000D01*
X161528047Y-66127380D01*
X160670904Y-67127380D02*
X160670904Y-66127380D01*
X160099476Y-67127380D01*
X160099476Y-66127380D01*
X147891380Y-66127380D02*
X147700904Y-66127380D01*
X147605666Y-66175000D01*
X147510428Y-66270238D01*
X147462809Y-66460714D01*
X147462809Y-66794047D01*
X147510428Y-66984523D01*
X147605666Y-67079761D01*
X147700904Y-67127380D01*
X147891380Y-67127380D01*
X147986619Y-67079761D01*
X148081857Y-66984523D01*
X148129476Y-66794047D01*
X148129476Y-66460714D01*
X148081857Y-66270238D01*
X147986619Y-66175000D01*
X147891380Y-66127380D01*
X146700904Y-66603571D02*
X147034238Y-66603571D01*
X147034238Y-67127380D02*
X147034238Y-66127380D01*
X146558047Y-66127380D01*
X145843761Y-66603571D02*
X146177095Y-66603571D01*
X146177095Y-67127380D02*
X146177095Y-66127380D01*
X145700904Y-66127380D01*
G04 #@! TO.C,BT1*
X151265714Y-95868571D02*
X151122857Y-95916190D01*
X151075238Y-95963809D01*
X151027619Y-96059047D01*
X151027619Y-96201904D01*
X151075238Y-96297142D01*
X151122857Y-96344761D01*
X151218095Y-96392380D01*
X151599047Y-96392380D01*
X151599047Y-95392380D01*
X151265714Y-95392380D01*
X151170476Y-95440000D01*
X151122857Y-95487619D01*
X151075238Y-95582857D01*
X151075238Y-95678095D01*
X151122857Y-95773333D01*
X151170476Y-95820952D01*
X151265714Y-95868571D01*
X151599047Y-95868571D01*
X150741904Y-95392380D02*
X150170476Y-95392380D01*
X150456190Y-96392380D02*
X150456190Y-95392380D01*
X149313333Y-96392380D02*
X149884761Y-96392380D01*
X149599047Y-96392380D02*
X149599047Y-95392380D01*
X149694285Y-95535238D01*
X149789523Y-95630476D01*
X149884761Y-95678095D01*
G04 #@! TO.C,C1*
X143126666Y-72067142D02*
X143174285Y-72114761D01*
X143317142Y-72162380D01*
X143412380Y-72162380D01*
X143555238Y-72114761D01*
X143650476Y-72019523D01*
X143698095Y-71924285D01*
X143745714Y-71733809D01*
X143745714Y-71590952D01*
X143698095Y-71400476D01*
X143650476Y-71305238D01*
X143555238Y-71210000D01*
X143412380Y-71162380D01*
X143317142Y-71162380D01*
X143174285Y-71210000D01*
X143126666Y-71257619D01*
X142174285Y-72162380D02*
X142745714Y-72162380D01*
X142460000Y-72162380D02*
X142460000Y-71162380D01*
X142555238Y-71305238D01*
X142650476Y-71400476D01*
X142745714Y-71448095D01*
G04 #@! TO.C,C2*
X155456666Y-77217142D02*
X155504285Y-77264761D01*
X155647142Y-77312380D01*
X155742380Y-77312380D01*
X155885238Y-77264761D01*
X155980476Y-77169523D01*
X156028095Y-77074285D01*
X156075714Y-76883809D01*
X156075714Y-76740952D01*
X156028095Y-76550476D01*
X155980476Y-76455238D01*
X155885238Y-76360000D01*
X155742380Y-76312380D01*
X155647142Y-76312380D01*
X155504285Y-76360000D01*
X155456666Y-76407619D01*
X155075714Y-76407619D02*
X155028095Y-76360000D01*
X154932857Y-76312380D01*
X154694761Y-76312380D01*
X154599523Y-76360000D01*
X154551904Y-76407619D01*
X154504285Y-76502857D01*
X154504285Y-76598095D01*
X154551904Y-76740952D01*
X155123333Y-77312380D01*
X154504285Y-77312380D01*
G04 #@! TO.C,D1*
X142237894Y-89676199D02*
X143003939Y-89033412D01*
X142850894Y-88851020D01*
X142722589Y-88772194D01*
X142588414Y-88760455D01*
X142484849Y-88785195D01*
X142308327Y-88871152D01*
X142198892Y-88962979D01*
X142083587Y-89121893D01*
X142041240Y-89219589D01*
X142029501Y-89353764D01*
X142084849Y-89493808D01*
X142237894Y-89676199D01*
X141258408Y-88508893D02*
X141625715Y-88946633D01*
X141442062Y-88727763D02*
X142208106Y-88084976D01*
X142159889Y-88249759D01*
X142148150Y-88383933D01*
X142172890Y-88487499D01*
G04 #@! TO.C,D2*
X158341718Y-90595090D02*
X157739903Y-89796455D01*
X157549752Y-89939744D01*
X157464319Y-90063748D01*
X157445574Y-90197124D01*
X157464860Y-90301842D01*
X157541461Y-90482621D01*
X157627434Y-90596712D01*
X157780096Y-90720175D01*
X157875442Y-90767578D01*
X158008818Y-90786323D01*
X158151567Y-90738379D01*
X158341718Y-90595090D01*
X157036614Y-90445672D02*
X156969926Y-90436300D01*
X156865207Y-90455585D01*
X156675056Y-90598875D01*
X156627653Y-90694221D01*
X156618281Y-90760909D01*
X156637566Y-90865627D01*
X156694882Y-90941688D01*
X156818886Y-91027121D01*
X157619143Y-91139589D01*
X157124750Y-91512142D01*
G04 #@! TO.C,Q2*
X156051238Y-71921619D02*
X156146476Y-71874000D01*
X156241714Y-71778761D01*
X156384571Y-71635904D01*
X156479809Y-71588285D01*
X156575047Y-71588285D01*
X156527428Y-71826380D02*
X156622666Y-71778761D01*
X156717904Y-71683523D01*
X156765523Y-71493047D01*
X156765523Y-71159714D01*
X156717904Y-70969238D01*
X156622666Y-70874000D01*
X156527428Y-70826380D01*
X156336952Y-70826380D01*
X156241714Y-70874000D01*
X156146476Y-70969238D01*
X156098857Y-71159714D01*
X156098857Y-71493047D01*
X156146476Y-71683523D01*
X156241714Y-71778761D01*
X156336952Y-71826380D01*
X156527428Y-71826380D01*
X155717904Y-70921619D02*
X155670285Y-70874000D01*
X155575047Y-70826380D01*
X155336952Y-70826380D01*
X155241714Y-70874000D01*
X155194095Y-70921619D01*
X155146476Y-71016857D01*
X155146476Y-71112095D01*
X155194095Y-71254952D01*
X155765523Y-71826380D01*
X155146476Y-71826380D01*
G04 #@! TO.C,R1*
X151296666Y-84760380D02*
X151630000Y-84284190D01*
X151868095Y-84760380D02*
X151868095Y-83760380D01*
X151487142Y-83760380D01*
X151391904Y-83808000D01*
X151344285Y-83855619D01*
X151296666Y-83950857D01*
X151296666Y-84093714D01*
X151344285Y-84188952D01*
X151391904Y-84236571D01*
X151487142Y-84284190D01*
X151868095Y-84284190D01*
X150344285Y-84760380D02*
X150915714Y-84760380D01*
X150630000Y-84760380D02*
X150630000Y-83760380D01*
X150725238Y-83903238D01*
X150820476Y-83998476D01*
X150915714Y-84046095D01*
G04 #@! TO.C,R2*
X153836666Y-84760380D02*
X154170000Y-84284190D01*
X154408095Y-84760380D02*
X154408095Y-83760380D01*
X154027142Y-83760380D01*
X153931904Y-83808000D01*
X153884285Y-83855619D01*
X153836666Y-83950857D01*
X153836666Y-84093714D01*
X153884285Y-84188952D01*
X153931904Y-84236571D01*
X154027142Y-84284190D01*
X154408095Y-84284190D01*
X153455714Y-83855619D02*
X153408095Y-83808000D01*
X153312857Y-83760380D01*
X153074761Y-83760380D01*
X152979523Y-83808000D01*
X152931904Y-83855619D01*
X152884285Y-83950857D01*
X152884285Y-84046095D01*
X152931904Y-84188952D01*
X153503333Y-84760380D01*
X152884285Y-84760380D01*
G04 #@! TO.C,R3*
X148756666Y-84760380D02*
X149090000Y-84284190D01*
X149328095Y-84760380D02*
X149328095Y-83760380D01*
X148947142Y-83760380D01*
X148851904Y-83808000D01*
X148804285Y-83855619D01*
X148756666Y-83950857D01*
X148756666Y-84093714D01*
X148804285Y-84188952D01*
X148851904Y-84236571D01*
X148947142Y-84284190D01*
X149328095Y-84284190D01*
X148423333Y-83760380D02*
X147804285Y-83760380D01*
X148137619Y-84141333D01*
X147994761Y-84141333D01*
X147899523Y-84188952D01*
X147851904Y-84236571D01*
X147804285Y-84331809D01*
X147804285Y-84569904D01*
X147851904Y-84665142D01*
X147899523Y-84712761D01*
X147994761Y-84760380D01*
X148280476Y-84760380D01*
X148375714Y-84712761D01*
X148423333Y-84665142D01*
G04 #@! TO.C,R4*
X156376666Y-84760380D02*
X156710000Y-84284190D01*
X156948095Y-84760380D02*
X156948095Y-83760380D01*
X156567142Y-83760380D01*
X156471904Y-83808000D01*
X156424285Y-83855619D01*
X156376666Y-83950857D01*
X156376666Y-84093714D01*
X156424285Y-84188952D01*
X156471904Y-84236571D01*
X156567142Y-84284190D01*
X156948095Y-84284190D01*
X155519523Y-84093714D02*
X155519523Y-84760380D01*
X155757619Y-83712761D02*
X155995714Y-84427047D01*
X155376666Y-84427047D01*
G04 #@! TO.C,H1*
X152425304Y-62021980D02*
X152425304Y-61021980D01*
X152425304Y-61498171D02*
X151853876Y-61498171D01*
X151853876Y-62021980D02*
X151853876Y-61021980D01*
X150853876Y-62021980D02*
X151425304Y-62021980D01*
X151139590Y-62021980D02*
X151139590Y-61021980D01*
X151234828Y-61164838D01*
X151330066Y-61260076D01*
X151425304Y-61307695D01*
G04 #@! TD*
M02*
