G04 #@! TF.GenerationSoftware,KiCad,Pcbnew,(5.1.10)-1*
G04 #@! TF.CreationDate,2021-07-03T22:49:25-04:00*
G04 #@! TF.ProjectId,Sorting Hat,536f7274-696e-4672-9048-61742e6b6963,rev?*
G04 #@! TF.SameCoordinates,Original*
G04 #@! TF.FileFunction,Profile,NP*
%FSLAX46Y46*%
G04 Gerber Fmt 4.6, Leading zero omitted, Abs format (unit mm)*
G04 Created by KiCad (PCBNEW (5.1.10)-1) date 2021-07-03 22:49:25*
%MOMM*%
%LPD*%
G01*
G04 APERTURE LIST*
G04 #@! TA.AperFunction,Profile*
%ADD10C,0.100000*%
G04 #@! TD*
G04 APERTURE END LIST*
D10*
X126046300Y-124852400D02*
X125233000Y-124852400D01*
X125233000Y-124852400D02*
X124405800Y-124852400D01*
X124405800Y-124852400D02*
X123222300Y-124844600D01*
X123222300Y-124844600D02*
X122040500Y-124800500D01*
X122040500Y-124800500D02*
X120861100Y-124720000D01*
X120861100Y-124720000D02*
X119685100Y-124603500D01*
X119685100Y-124603500D02*
X118513200Y-124450800D01*
X118513200Y-124450800D02*
X117346200Y-124262200D01*
X117346200Y-124262200D02*
X116185050Y-124037700D01*
X116185050Y-124037700D02*
X115030530Y-123777400D01*
X115030530Y-123777400D02*
X114367970Y-123602100D01*
X114367970Y-123602100D02*
X113669920Y-123393100D01*
X113669920Y-123393100D02*
X112946660Y-123142400D01*
X112946660Y-123142400D02*
X112208520Y-122841900D01*
X112208520Y-122841900D02*
X111465800Y-122483900D01*
X111465800Y-122483900D02*
X111095940Y-122280900D01*
X111095940Y-122280900D02*
X110728800Y-122060400D01*
X110728800Y-122060400D02*
X110365670Y-121821600D01*
X110365670Y-121821600D02*
X110007840Y-121563400D01*
X110007840Y-121563400D02*
X109656590Y-121284900D01*
X109656590Y-121284900D02*
X109313220Y-120985000D01*
X109313220Y-120985000D02*
X109055530Y-120732800D01*
X109055530Y-120732800D02*
X108826970Y-120479700D01*
X108826970Y-120479700D02*
X108627560Y-120225200D01*
X108627560Y-120225200D02*
X108457300Y-119968900D01*
X108457300Y-119968900D02*
X108316204Y-119710300D01*
X108316204Y-119710300D02*
X108204284Y-119449000D01*
X108204284Y-119449000D02*
X108121548Y-119184400D01*
X108121548Y-119184400D02*
X108068007Y-118916100D01*
X108068007Y-118916100D02*
X108043672Y-118643600D01*
X108043672Y-118643600D02*
X108048551Y-118366500D01*
X108048551Y-118366500D02*
X108082656Y-118084300D01*
X108082656Y-118084300D02*
X108145996Y-117796500D01*
X108145996Y-117796500D02*
X108238583Y-117502700D01*
X108238583Y-117502700D02*
X108360430Y-117202300D01*
X108360430Y-117202300D02*
X108511530Y-116895000D01*
X108511530Y-116895000D02*
X108691920Y-116580100D01*
X108691920Y-116580100D02*
X108909080Y-116249100D01*
X108909080Y-116249100D02*
X109139460Y-115938600D01*
X109139460Y-115938600D02*
X109381640Y-115647800D01*
X109381640Y-115647800D02*
X109634170Y-115375900D01*
X109634170Y-115375900D02*
X109895640Y-115121900D01*
X109895640Y-115121900D02*
X110164630Y-114885100D01*
X110164630Y-114885100D02*
X110439690Y-114664500D01*
X110439690Y-114664500D02*
X110719420Y-114459300D01*
X110719420Y-114459300D02*
X111287140Y-114091500D01*
X111287140Y-114091500D02*
X111856370Y-113775000D01*
X111856370Y-113775000D02*
X112415700Y-113502700D01*
X112415700Y-113502700D02*
X112953730Y-113267700D01*
X112953730Y-113267700D02*
X113588090Y-113024000D01*
X113588090Y-113024000D02*
X114232760Y-112813100D01*
X114232760Y-112813100D02*
X114886430Y-112635300D01*
X114886430Y-112635300D02*
X115547850Y-112490900D01*
X115547850Y-112490900D02*
X116215710Y-112380200D01*
X116215710Y-112380200D02*
X116888750Y-112303300D01*
X116888750Y-112303300D02*
X117565700Y-112260500D01*
X117565700Y-112260500D02*
X118245200Y-112252000D01*
X118245200Y-112252000D02*
X119210000Y-112280900D01*
X119210000Y-112280900D02*
X120171900Y-112360200D01*
X120171900Y-112360200D02*
X120894000Y-112451500D01*
X120894000Y-112451500D02*
X121605600Y-112567000D01*
X121605600Y-112567000D02*
X123002700Y-112831400D01*
X123002700Y-112831400D02*
X124162300Y-113056100D01*
X124162300Y-113056100D02*
X124730400Y-113153900D01*
X124730400Y-113153900D02*
X125295900Y-113236300D01*
X125295900Y-113236300D02*
X126082600Y-113326300D01*
X126082600Y-113326300D02*
X126873500Y-113365400D01*
X126873500Y-113365400D02*
X127337500Y-113350300D01*
X127337500Y-113350300D02*
X127798500Y-113295600D01*
X127798500Y-113295600D02*
X128183300Y-113206500D01*
X128183300Y-113206500D02*
X128518400Y-113073000D01*
X128518400Y-113073000D02*
X128667300Y-112989700D01*
X128667300Y-112989700D02*
X128803700Y-112895500D01*
X128803700Y-112895500D02*
X128927800Y-112790300D01*
X128927800Y-112790300D02*
X129039300Y-112674300D01*
X129039300Y-112674300D02*
X129138500Y-112547600D01*
X129138500Y-112547600D02*
X129225200Y-112410000D01*
X129225200Y-112410000D02*
X129299500Y-112261800D01*
X129299500Y-112261800D02*
X129361300Y-112102900D01*
X129361300Y-112102900D02*
X129447700Y-111753400D01*
X129447700Y-111753400D02*
X129484400Y-111361900D01*
X129484400Y-111361900D02*
X129465300Y-110776900D01*
X129465300Y-110776900D02*
X129418200Y-110193800D01*
X129418200Y-110193800D02*
X129343100Y-109613600D01*
X129343100Y-109613600D02*
X129240000Y-109037300D01*
X129240000Y-109037300D02*
X129110900Y-108231000D01*
X129110900Y-108231000D02*
X129048100Y-107812200D01*
X129048100Y-107812200D02*
X128932300Y-107106600D01*
X128932300Y-107106600D02*
X128859300Y-106396000D01*
X128859300Y-106396000D02*
X128829200Y-105682400D01*
X128829200Y-105682400D02*
X128842100Y-104967500D01*
X128842100Y-104967500D02*
X128902200Y-104456900D01*
X128902200Y-104456900D02*
X129006700Y-103956600D01*
X129006700Y-103956600D02*
X129154400Y-103469300D01*
X129154400Y-103469300D02*
X129343900Y-102997700D01*
X129343900Y-102997700D02*
X129574200Y-102544700D01*
X129574200Y-102544700D02*
X129843800Y-102112800D01*
X129843800Y-102112800D02*
X130151700Y-101704800D01*
X130151700Y-101704800D02*
X130496600Y-101323500D01*
X130496600Y-101323500D02*
X130883100Y-100883900D01*
X130883100Y-100883900D02*
X131225200Y-100413500D01*
X131225200Y-100413500D02*
X131521300Y-99915700D01*
X131521300Y-99915700D02*
X131770100Y-99393900D01*
X131770100Y-99393900D02*
X131970100Y-98851500D01*
X131970100Y-98851500D02*
X132119800Y-98291900D01*
X132119800Y-98291900D02*
X132217800Y-97718600D01*
X132217800Y-97718600D02*
X132262700Y-97135000D01*
X132262700Y-97135000D02*
X132284900Y-96814800D01*
X132284900Y-96814800D02*
X132323100Y-96496700D01*
X132323100Y-96496700D02*
X132377500Y-96181400D01*
X132377500Y-96181400D02*
X132447600Y-95869500D01*
X132447600Y-95869500D02*
X132533500Y-95561500D01*
X132533500Y-95561500D02*
X132635000Y-95258000D01*
X132635000Y-95258000D02*
X132751900Y-94959800D01*
X132751900Y-94959800D02*
X132884000Y-94667300D01*
X132884000Y-94667300D02*
X133089700Y-94203400D01*
X133089700Y-94203400D02*
X133246400Y-93729300D01*
X133246400Y-93729300D02*
X133355000Y-93242800D01*
X133355000Y-93242800D02*
X133416300Y-92741800D01*
X133416300Y-92741800D02*
X133431200Y-92224400D01*
X133431200Y-92224400D02*
X133400400Y-91688300D01*
X133400400Y-91688300D02*
X133324800Y-91131600D01*
X133324800Y-91131600D02*
X133205200Y-90552000D01*
X133205200Y-90552000D02*
X132946900Y-89546800D01*
X132946900Y-89546800D02*
X132588200Y-88133600D01*
X132588200Y-88133600D02*
X132422600Y-87411200D01*
X132422600Y-87411200D02*
X132276700Y-86681200D01*
X132276700Y-86681200D02*
X132215900Y-86315700D01*
X132215900Y-86315700D02*
X132180900Y-85950100D01*
X132180900Y-85950100D02*
X132171300Y-85585600D01*
X132171300Y-85585600D02*
X132186800Y-85223400D01*
X132186800Y-85223400D02*
X132226700Y-84864600D01*
X132226700Y-84864600D02*
X132290800Y-84510500D01*
X132290800Y-84510500D02*
X132378600Y-84162200D01*
X132378600Y-84162200D02*
X132489500Y-83821100D01*
X132489500Y-83821100D02*
X132623300Y-83488200D01*
X132623300Y-83488200D02*
X132779500Y-83164800D01*
X132779500Y-83164800D02*
X132957500Y-82852100D01*
X132957500Y-82852100D02*
X133157100Y-82551300D01*
X133157100Y-82551300D02*
X133377700Y-82263600D01*
X133377700Y-82263600D02*
X133619000Y-81990100D01*
X133619000Y-81990100D02*
X133880400Y-81732200D01*
X133880400Y-81732200D02*
X134161500Y-81490900D01*
X134161500Y-81490900D02*
X134573200Y-81107500D01*
X134573200Y-81107500D02*
X134948300Y-80692400D01*
X134948300Y-80692400D02*
X135285200Y-80248300D01*
X135285200Y-80248300D02*
X135582300Y-79777900D01*
X135582300Y-79777900D02*
X135838200Y-79283800D01*
X135838200Y-79283800D02*
X136051400Y-78768700D01*
X136051400Y-78768700D02*
X136220100Y-78235300D01*
X136220100Y-78235300D02*
X136343000Y-77686300D01*
X136343000Y-77686300D02*
X136596400Y-76662900D01*
X136596400Y-76662900D02*
X136905900Y-75655900D01*
X136905900Y-75655900D02*
X137270800Y-74667600D01*
X137270800Y-74667600D02*
X137690400Y-73700300D01*
X137690400Y-73700300D02*
X137825600Y-73414500D01*
X137825600Y-73414500D02*
X137969500Y-73144900D01*
X137969500Y-73144900D02*
X138122200Y-72891400D01*
X138122200Y-72891400D02*
X138283700Y-72654000D01*
X138283700Y-72654000D02*
X138453900Y-72432600D01*
X138453900Y-72432600D02*
X138633100Y-72227100D01*
X138633100Y-72227100D02*
X138821100Y-72037600D01*
X138821100Y-72037600D02*
X139018000Y-71863900D01*
X139018000Y-71863900D02*
X139223900Y-71706100D01*
X139223900Y-71706100D02*
X139438800Y-71564000D01*
X139438800Y-71564000D02*
X139662700Y-71437700D01*
X139662700Y-71437700D02*
X139895700Y-71327100D01*
X139895700Y-71327100D02*
X140137800Y-71232100D01*
X140137800Y-71232100D02*
X140389000Y-71152700D01*
X140389000Y-71152700D02*
X140649400Y-71088900D01*
X140649400Y-71088900D02*
X140919000Y-71040600D01*
X140919000Y-71040600D02*
X140973900Y-71028200D01*
X140973900Y-71028200D02*
X141062100Y-70962500D01*
X141062100Y-70962500D02*
X141179100Y-70800600D01*
X141179100Y-70800600D02*
X141320400Y-70499600D01*
X141320400Y-70499600D02*
X141583600Y-69743300D01*
X141583600Y-69743300D02*
X141825600Y-68980200D01*
X141825600Y-68980200D02*
X142046200Y-68210600D01*
X142046200Y-68210600D02*
X142245400Y-67435000D01*
X142245400Y-67435000D02*
X142301200Y-67204600D01*
X142301200Y-67204600D02*
X142800800Y-65315400D01*
X142800800Y-65315400D02*
X143078200Y-64365600D01*
X143078200Y-64365600D02*
X143386700Y-63421000D01*
X143386700Y-63421000D02*
X143480000Y-63153900D01*
X143480000Y-63153900D02*
X143588300Y-62894500D01*
X143588300Y-62894500D02*
X143711000Y-62643300D01*
X143711000Y-62643300D02*
X143847700Y-62400700D01*
X143847700Y-62400700D02*
X143997900Y-62167300D01*
X143997900Y-62167300D02*
X144161100Y-61943600D01*
X144161100Y-61943600D02*
X144336700Y-61730100D01*
X144336700Y-61730100D02*
X144524400Y-61527300D01*
X144524400Y-61527300D02*
X144723400Y-61335770D01*
X144723400Y-61335770D02*
X144933400Y-61155990D01*
X144933400Y-61155990D02*
X145153900Y-60988480D01*
X145153900Y-60988480D02*
X145384300Y-60833750D01*
X145384300Y-60833750D02*
X145624200Y-60692320D01*
X145624200Y-60692320D02*
X145873000Y-60564690D01*
X145873000Y-60564690D02*
X146130300Y-60451380D01*
X146130300Y-60451380D02*
X146395500Y-60352910D01*
X146395500Y-60352910D02*
X147133000Y-60112560D01*
X147133000Y-60112560D02*
X147875300Y-59888030D01*
X147875300Y-59888030D02*
X148621900Y-59679380D01*
X148621900Y-59679380D02*
X149372800Y-59486670D01*
X149372800Y-59486670D02*
X150127600Y-59309960D01*
X150127600Y-59309960D02*
X150886000Y-59149310D01*
X150886000Y-59149310D02*
X151647900Y-59004790D01*
X151647900Y-59004790D02*
X152413000Y-58876460D01*
X152413000Y-58876460D02*
X153069200Y-58771750D01*
X153069200Y-58771750D02*
X153645900Y-58675760D01*
X153645900Y-58675760D02*
X154217500Y-58569300D01*
X154217500Y-58569300D02*
X154598000Y-58513840D01*
X154598000Y-58513840D02*
X154981900Y-58492510D01*
X154981900Y-58492510D02*
X155292000Y-58502970D01*
X155292000Y-58502970D02*
X155596400Y-58546780D01*
X155596400Y-58546780D02*
X155892700Y-58622840D01*
X155892700Y-58622840D02*
X156178200Y-58730080D01*
X156178200Y-58730080D02*
X156450500Y-58867390D01*
X156450500Y-58867390D02*
X156707100Y-59033690D01*
X156707100Y-59033690D02*
X156945600Y-59227890D01*
X156945600Y-59227890D02*
X157163400Y-59448890D01*
X157163400Y-59448890D02*
X157342000Y-59637580D01*
X157342000Y-59637580D02*
X157527700Y-59811520D01*
X157527700Y-59811520D02*
X157918900Y-60118290D01*
X157918900Y-60118290D02*
X158332600Y-60375470D01*
X158332600Y-60375470D02*
X158764700Y-60589380D01*
X158764700Y-60589380D02*
X159210800Y-60766320D01*
X159210800Y-60766320D02*
X159666700Y-60912570D01*
X159666700Y-60912570D02*
X160128200Y-61034450D01*
X160128200Y-61034450D02*
X160591000Y-61138250D01*
X160591000Y-61138250D02*
X161442400Y-61308030D01*
X161442400Y-61308030D02*
X162287700Y-61503500D01*
X162287700Y-61503500D02*
X163126200Y-61724400D01*
X163126200Y-61724400D02*
X163957500Y-61970500D01*
X163957500Y-61970500D02*
X164780900Y-62241800D01*
X164780900Y-62241800D02*
X165595900Y-62538100D01*
X165595900Y-62538100D02*
X166402000Y-62859000D01*
X166402000Y-62859000D02*
X167198400Y-63204600D01*
X167198400Y-63204600D02*
X167613700Y-63395000D01*
X167613700Y-63395000D02*
X168017900Y-63606300D01*
X168017900Y-63606300D02*
X168410000Y-63837800D01*
X168410000Y-63837800D02*
X168789500Y-64089100D01*
X168789500Y-64089100D02*
X169155500Y-64359700D01*
X169155500Y-64359700D02*
X169507300Y-64648900D01*
X169507300Y-64648900D02*
X169844100Y-64956300D01*
X169844100Y-64956300D02*
X170165200Y-65281400D01*
X170165200Y-65281400D02*
X170352400Y-65521700D01*
X170352400Y-65521700D02*
X170507900Y-65760900D01*
X170507900Y-65760900D02*
X170631400Y-65998800D01*
X170631400Y-65998800D02*
X170722800Y-66235100D01*
X170722800Y-66235100D02*
X170781900Y-66469900D01*
X170781900Y-66469900D02*
X170808200Y-66702900D01*
X170808200Y-66702900D02*
X170801700Y-66933900D01*
X170801700Y-66933900D02*
X170762100Y-67162700D01*
X170762100Y-67162700D02*
X170690800Y-67384100D01*
X170690800Y-67384100D02*
X170589600Y-67592400D01*
X170589600Y-67592400D02*
X170458700Y-67787600D01*
X170458700Y-67787600D02*
X170298300Y-67969400D01*
X170298300Y-67969400D02*
X170108600Y-68137700D01*
X170108600Y-68137700D02*
X169889900Y-68292100D01*
X169889900Y-68292100D02*
X169642200Y-68432600D01*
X169642200Y-68432600D02*
X169365900Y-68558900D01*
X169365900Y-68558900D02*
X168779600Y-68770400D01*
X168779600Y-68770400D02*
X168190500Y-68937400D01*
X168190500Y-68937400D02*
X167601900Y-69065400D01*
X167601900Y-69065400D02*
X167017300Y-69160100D01*
X167017300Y-69160100D02*
X166440100Y-69227000D01*
X166440100Y-69227000D02*
X165873600Y-69271600D01*
X165873600Y-69271600D02*
X164786500Y-69316300D01*
X164786500Y-69316300D02*
X163896400Y-69337300D01*
X163896400Y-69337300D02*
X161761200Y-69391800D01*
X161761200Y-69391800D02*
X159631100Y-69459400D01*
X159631100Y-69459400D02*
X159697500Y-69707200D01*
X159697500Y-69707200D02*
X159811700Y-70175300D01*
X159811700Y-70175300D02*
X159896400Y-70649700D01*
X159896400Y-70649700D02*
X159926200Y-71034800D01*
X159926200Y-71034800D02*
X159901000Y-71414400D01*
X159901000Y-71414400D02*
X159823200Y-71783200D01*
X159823200Y-71783200D02*
X159695200Y-72135900D01*
X159695200Y-72135900D02*
X159519300Y-72467300D01*
X159519300Y-72467300D02*
X159297700Y-72772200D01*
X159297700Y-72772200D02*
X159032900Y-73045300D01*
X159032900Y-73045300D02*
X158727100Y-73281400D01*
X158727100Y-73281400D02*
X158200800Y-73618400D01*
X158200800Y-73618400D02*
X157655600Y-73923700D01*
X157655600Y-73923700D02*
X157194800Y-74178500D01*
X157194800Y-74178500D02*
X157057800Y-74264700D01*
X157057800Y-74264700D02*
X156929600Y-74363500D01*
X156929600Y-74363500D02*
X157023800Y-74576400D01*
X157023800Y-74576400D02*
X157368900Y-75243600D01*
X157368900Y-75243600D02*
X157701000Y-75917000D01*
X157701000Y-75917000D02*
X158331400Y-77275300D01*
X158331400Y-77275300D02*
X158925800Y-78637600D01*
X158925800Y-78637600D02*
X159495000Y-79990000D01*
X159495000Y-79990000D02*
X160130300Y-81487400D01*
X160130300Y-81487400D02*
X160269300Y-81803900D01*
X160269300Y-81803900D02*
X160422200Y-82113300D01*
X160422200Y-82113300D02*
X160588600Y-82415300D01*
X160588600Y-82415300D02*
X160768200Y-82709400D01*
X160768200Y-82709400D02*
X160960800Y-82995100D01*
X160960800Y-82995100D02*
X161166100Y-83272100D01*
X161166100Y-83272100D02*
X161383900Y-83539900D01*
X161383900Y-83539900D02*
X161613700Y-83798100D01*
X161613700Y-83798100D02*
X161778400Y-83969800D01*
X161778400Y-83969800D02*
X161927500Y-84151800D01*
X161927500Y-84151800D02*
X162060900Y-84343100D01*
X162060900Y-84343100D02*
X162178400Y-84542700D01*
X162178400Y-84542700D02*
X162279800Y-84749500D01*
X162279800Y-84749500D02*
X162364900Y-84962600D01*
X162364900Y-84962600D02*
X162433500Y-85181000D01*
X162433500Y-85181000D02*
X162485500Y-85403700D01*
X162485500Y-85403700D02*
X162520500Y-85629600D01*
X162520500Y-85629600D02*
X162538500Y-85857800D01*
X162538500Y-85857800D02*
X162539200Y-86087200D01*
X162539200Y-86087200D02*
X162522400Y-86317000D01*
X162522400Y-86317000D02*
X162488000Y-86546000D01*
X162488000Y-86546000D02*
X162435700Y-86773300D01*
X162435700Y-86773300D02*
X162365400Y-86997800D01*
X162365400Y-86997800D02*
X162276900Y-87218700D01*
X162276900Y-87218700D02*
X162168200Y-87513800D01*
X162168200Y-87513800D02*
X162087200Y-87815700D01*
X162087200Y-87815700D02*
X162033900Y-88122400D01*
X162033900Y-88122400D02*
X162008400Y-88432100D01*
X162008400Y-88432100D02*
X162010900Y-88742800D01*
X162010900Y-88742800D02*
X162041200Y-89052600D01*
X162041200Y-89052600D02*
X162099600Y-89359600D01*
X162099600Y-89359600D02*
X162186100Y-89662000D01*
X162186100Y-89662000D02*
X162607800Y-91029800D01*
X162607800Y-91029800D02*
X163079300Y-92379600D01*
X163079300Y-92379600D02*
X163599900Y-93710300D01*
X163599900Y-93710300D02*
X164169100Y-95020400D01*
X164169100Y-95020400D02*
X164786200Y-96308600D01*
X164786200Y-96308600D02*
X165450700Y-97573600D01*
X165450700Y-97573600D02*
X166161900Y-98814000D01*
X166161900Y-98814000D02*
X166919200Y-100028500D01*
X166919200Y-100028500D02*
X167529900Y-100977000D01*
X167529900Y-100977000D02*
X168124700Y-101867600D01*
X168124700Y-101867600D02*
X168708300Y-102705100D01*
X168708300Y-102705100D02*
X169285700Y-103494500D01*
X169285700Y-103494500D02*
X169448100Y-103735000D01*
X169448100Y-103735000D02*
X169597000Y-103983400D01*
X169597000Y-103983400D02*
X169732200Y-104239100D01*
X169732200Y-104239100D02*
X169853400Y-104501400D01*
X169853400Y-104501400D02*
X169960300Y-104769900D01*
X169960300Y-104769900D02*
X170052800Y-105043900D01*
X170052800Y-105043900D02*
X170130500Y-105322900D01*
X170130500Y-105322900D02*
X170193200Y-105606200D01*
X170193200Y-105606200D02*
X170278600Y-105976700D01*
X170278600Y-105976700D02*
X170413100Y-106332200D01*
X170413100Y-106332200D02*
X170493300Y-106447400D01*
X170493300Y-106447400D02*
X170584100Y-106426500D01*
X170584100Y-106426500D02*
X171188600Y-106247200D01*
X171188600Y-106247200D02*
X171784000Y-106040600D01*
X171784000Y-106040600D02*
X172369300Y-105807000D01*
X172369300Y-105807000D02*
X172943600Y-105546900D01*
X172943600Y-105546900D02*
X173100700Y-105477100D01*
X173100700Y-105477100D02*
X174147300Y-105049900D01*
X174147300Y-105049900D02*
X175212700Y-104679100D01*
X175212700Y-104679100D02*
X176294700Y-104365100D01*
X176294700Y-104365100D02*
X177390800Y-104108600D01*
X177390800Y-104108600D02*
X178499000Y-103909900D01*
X178499000Y-103909900D02*
X179616700Y-103769500D01*
X179616700Y-103769500D02*
X180741900Y-103687900D01*
X180741900Y-103687900D02*
X181872100Y-103665600D01*
X181872100Y-103665600D02*
X182692400Y-103665600D01*
X182692400Y-103665600D02*
X183214200Y-103723000D01*
X183214200Y-103723000D02*
X183721500Y-103837600D01*
X183721500Y-103837600D02*
X184210000Y-104006800D01*
X184210000Y-104006800D02*
X184675500Y-104228400D01*
X184675500Y-104228400D02*
X185113500Y-104500100D01*
X185113500Y-104500100D02*
X185520000Y-104819500D01*
X185520000Y-104819500D02*
X185890700Y-105184400D01*
X185890700Y-105184400D02*
X186221200Y-105592300D01*
X186221200Y-105592300D02*
X186510300Y-106005700D01*
X186510300Y-106005700D02*
X186748300Y-106444900D01*
X186748300Y-106444900D02*
X186934300Y-106905300D01*
X186934300Y-106905300D02*
X187067300Y-107382200D01*
X187067300Y-107382200D02*
X187146300Y-107871000D01*
X187146300Y-107871000D02*
X187170100Y-108366900D01*
X187170100Y-108366900D02*
X187137800Y-108865500D01*
X187137800Y-108865500D02*
X187048400Y-109361900D01*
X187048400Y-109361900D02*
X186916300Y-109736800D01*
X186916300Y-109736800D02*
X186753400Y-110096800D01*
X186753400Y-110096800D02*
X186561000Y-110440500D01*
X186561000Y-110440500D02*
X186340400Y-110765900D01*
X186340400Y-110765900D02*
X186092900Y-111071400D01*
X186092900Y-111071400D02*
X185819800Y-111355100D01*
X185819800Y-111355100D02*
X185522400Y-111615500D01*
X185522400Y-111615500D02*
X185202000Y-111850600D01*
X185202000Y-111850600D02*
X184735400Y-112175100D01*
X184735400Y-112175100D02*
X184253100Y-112455800D01*
X184253100Y-112455800D02*
X183761100Y-112697800D01*
X183761100Y-112697800D02*
X183265200Y-112906500D01*
X183265200Y-112906500D02*
X182771500Y-113087000D01*
X182771500Y-113087000D02*
X182285900Y-113244600D01*
X182285900Y-113244600D02*
X181362500Y-113512000D01*
X181362500Y-113512000D02*
X170437500Y-116608000D01*
X170437500Y-116608000D02*
X169648300Y-116783200D01*
X169648300Y-116783200D02*
X168849900Y-116903400D01*
X168849900Y-116903400D02*
X168045100Y-116968500D01*
X168045100Y-116968500D02*
X167236800Y-116978000D01*
X167236800Y-116978000D02*
X166245500Y-116978000D01*
X166245500Y-116978000D02*
X165676600Y-116978000D01*
X165676600Y-116978000D02*
X164682300Y-117003500D01*
X164682300Y-117003500D02*
X163689800Y-117056800D01*
X163689800Y-117056800D02*
X162699500Y-117137700D01*
X162699500Y-117137700D02*
X161712000Y-117246300D01*
X161712000Y-117246300D02*
X160728000Y-117382400D01*
X160728000Y-117382400D02*
X159747900Y-117546000D01*
X159747900Y-117546000D02*
X158772500Y-117737000D01*
X158772500Y-117737000D02*
X157802200Y-117955300D01*
X157802200Y-117955300D02*
X156493500Y-118267800D01*
X156493500Y-118267800D02*
X155186300Y-118610400D01*
X155186300Y-118610400D02*
X153882100Y-118978100D01*
X153882100Y-118978100D02*
X152582200Y-119365900D01*
X152582200Y-119365900D02*
X150001700Y-120182300D01*
X150001700Y-120182300D02*
X147456600Y-121019900D01*
X147456600Y-121019900D02*
X146636300Y-121292200D01*
X146636300Y-121292200D02*
X144874800Y-121850900D01*
X144874800Y-121850900D02*
X143100500Y-122364100D01*
X143100500Y-122364100D02*
X141314300Y-122831800D01*
X141314300Y-122831800D02*
X139517000Y-123253600D01*
X139517000Y-123253600D02*
X137709500Y-123629500D01*
X137709500Y-123629500D02*
X135892700Y-123959100D01*
X135892700Y-123959100D02*
X134067600Y-124242300D01*
X134067600Y-124242300D02*
X132234800Y-124479000D01*
X132234800Y-124479000D02*
X130692100Y-124637400D01*
X130692100Y-124637400D02*
X129145800Y-124752500D01*
X129145800Y-124752500D02*
X127596900Y-124824200D01*
X127596900Y-124824200D02*
X126046300Y-124852400D01*
X126046300Y-124852400D02*
X126046300Y-124852400D01*
X126046300Y-124852400D02*
X126046300Y-124852400D01*
M02*
