G04 #@! TF.GenerationSoftware,KiCad,Pcbnew,(5.1.10)-1*
G04 #@! TF.CreationDate,2021-07-03T22:49:25-04:00*
G04 #@! TF.ProjectId,Sorting Hat,536f7274-696e-4672-9048-61742e6b6963,rev?*
G04 #@! TF.SameCoordinates,Original*
G04 #@! TF.FileFunction,Soldermask,Top*
G04 #@! TF.FilePolarity,Negative*
%FSLAX46Y46*%
G04 Gerber Fmt 4.6, Leading zero omitted, Abs format (unit mm)*
G04 Created by KiCad (PCBNEW (5.1.10)-1) date 2021-07-03 22:49:25*
%MOMM*%
%LPD*%
G01*
G04 APERTURE LIST*
%ADD10C,0.010000*%
%ADD11C,3.100000*%
G04 APERTURE END LIST*
D10*
G04 #@! TO.C,G\u002A\u002A\u002A*
G36*
X141266763Y-80190410D02*
G01*
X141694277Y-80242974D01*
X142111431Y-80332006D01*
X142525281Y-80459007D01*
X142937521Y-80623109D01*
X143187287Y-80745568D01*
X143456470Y-80899944D01*
X143741020Y-81082922D01*
X144036887Y-81291186D01*
X144340022Y-81521420D01*
X144646373Y-81770309D01*
X144951891Y-82034535D01*
X145252525Y-82310784D01*
X145544225Y-82595740D01*
X145822942Y-82886087D01*
X146084625Y-83178509D01*
X146144333Y-83248500D01*
X146188728Y-83301918D01*
X146256155Y-83384216D01*
X146343221Y-83491200D01*
X146446531Y-83618678D01*
X146562694Y-83762456D01*
X146688316Y-83918340D01*
X146820002Y-84082139D01*
X146940815Y-84232750D01*
X147282531Y-84657809D01*
X147602044Y-85052200D01*
X147902263Y-85419334D01*
X148186098Y-85762624D01*
X148456458Y-86085483D01*
X148716251Y-86391321D01*
X148968388Y-86683552D01*
X149215776Y-86965588D01*
X149461325Y-87240841D01*
X149707944Y-87512724D01*
X149958543Y-87784648D01*
X150080688Y-87915750D01*
X150252073Y-88097341D01*
X150400855Y-88250792D01*
X150531671Y-88380369D01*
X150649159Y-88490337D01*
X150757954Y-88584960D01*
X150862695Y-88668505D01*
X150968018Y-88745236D01*
X151024166Y-88783600D01*
X151214969Y-88902082D01*
X151390939Y-88989949D01*
X151562089Y-89050858D01*
X151738433Y-89088469D01*
X151904024Y-89105094D01*
X152112964Y-89106319D01*
X152309265Y-89082816D01*
X152511513Y-89032034D01*
X152567362Y-89014049D01*
X152648263Y-88985154D01*
X152732743Y-88950996D01*
X152823244Y-88910103D01*
X152922207Y-88861003D01*
X153032074Y-88802225D01*
X153155289Y-88732297D01*
X153294292Y-88649746D01*
X153451527Y-88553100D01*
X153629435Y-88440889D01*
X153830460Y-88311639D01*
X154057042Y-88163879D01*
X154311624Y-87996138D01*
X154596648Y-87806942D01*
X154844750Y-87641473D01*
X155232202Y-87382919D01*
X155586418Y-87147190D01*
X155909121Y-86933235D01*
X156202031Y-86740002D01*
X156466869Y-86566437D01*
X156705356Y-86411489D01*
X156919215Y-86274106D01*
X157110166Y-86153236D01*
X157279930Y-86047827D01*
X157430229Y-85956826D01*
X157562784Y-85879181D01*
X157679316Y-85813841D01*
X157781547Y-85759753D01*
X157871198Y-85715865D01*
X157949990Y-85681125D01*
X158019644Y-85654481D01*
X158081881Y-85634880D01*
X158138424Y-85621271D01*
X158154938Y-85618127D01*
X158341169Y-85604828D01*
X158520267Y-85629819D01*
X158687616Y-85689495D01*
X158838600Y-85780253D01*
X158968605Y-85898490D01*
X159073015Y-86040603D01*
X159147214Y-86202988D01*
X159186589Y-86382041D01*
X159190310Y-86426503D01*
X159191707Y-86525307D01*
X159185883Y-86621571D01*
X159174639Y-86692707D01*
X159149636Y-86774403D01*
X159108285Y-86887438D01*
X159053314Y-87025357D01*
X158987453Y-87181708D01*
X158913429Y-87350038D01*
X158833974Y-87523893D01*
X158751814Y-87696820D01*
X158737976Y-87725250D01*
X158542121Y-88103501D01*
X158341640Y-88444578D01*
X158133013Y-88753624D01*
X157912718Y-89035782D01*
X157677232Y-89296198D01*
X157628847Y-89345280D01*
X157483921Y-89485692D01*
X157343040Y-89611642D01*
X157197890Y-89729528D01*
X157040159Y-89845747D01*
X156861531Y-89966696D01*
X156653695Y-90098775D01*
X156633333Y-90111389D01*
X156504279Y-90193270D01*
X156368279Y-90283190D01*
X156231462Y-90376753D01*
X156099961Y-90469564D01*
X155979905Y-90557226D01*
X155877425Y-90635343D01*
X155798653Y-90699518D01*
X155750658Y-90744329D01*
X155681557Y-90847124D01*
X155635008Y-90973569D01*
X155613389Y-91110120D01*
X155619079Y-91243237D01*
X155645923Y-91340648D01*
X155687354Y-91419979D01*
X155754237Y-91524079D01*
X155842320Y-91647556D01*
X155947354Y-91785016D01*
X156065085Y-91931065D01*
X156191263Y-92080312D01*
X156321636Y-92227362D01*
X156451952Y-92366822D01*
X156467829Y-92383250D01*
X156546627Y-92467707D01*
X156616818Y-92548951D01*
X156671678Y-92618773D01*
X156704484Y-92668965D01*
X156708043Y-92676484D01*
X156727549Y-92745163D01*
X156730034Y-92807686D01*
X156717042Y-92853646D01*
X156690119Y-92872638D01*
X156679093Y-92871398D01*
X156642587Y-92862620D01*
X156577231Y-92847931D01*
X156495597Y-92830143D01*
X156474583Y-92825641D01*
X156254247Y-92768469D01*
X156023657Y-92688093D01*
X155776257Y-92581980D01*
X155532666Y-92461788D01*
X155210350Y-92291530D01*
X154911926Y-92127596D01*
X154627041Y-91963826D01*
X154345341Y-91794064D01*
X154056473Y-91612149D01*
X153750084Y-91411923D01*
X153606500Y-91316064D01*
X153376965Y-91164818D01*
X153174853Y-91038144D01*
X152995182Y-90933370D01*
X152832971Y-90847824D01*
X152683240Y-90778835D01*
X152541007Y-90723732D01*
X152442333Y-90691720D01*
X152084707Y-90605707D01*
X151727785Y-90562020D01*
X151371487Y-90560655D01*
X151015731Y-90601610D01*
X150761386Y-90656910D01*
X150547780Y-90719571D01*
X150304981Y-90803433D01*
X150038937Y-90906087D01*
X149755594Y-91025126D01*
X149460899Y-91158140D01*
X149160798Y-91302722D01*
X149134724Y-91315722D01*
X148866829Y-91453113D01*
X148599686Y-91597403D01*
X148329360Y-91751062D01*
X148051917Y-91916559D01*
X147763424Y-92096364D01*
X147459948Y-92292947D01*
X147137555Y-92508778D01*
X146792310Y-92746327D01*
X146420282Y-93008063D01*
X146278307Y-93109206D01*
X146080660Y-93249655D01*
X145911756Y-93367761D01*
X145766581Y-93466734D01*
X145640125Y-93549781D01*
X145527375Y-93620109D01*
X145423320Y-93680927D01*
X145322947Y-93735442D01*
X145221244Y-93786863D01*
X145213916Y-93790443D01*
X144982361Y-93894395D01*
X144761814Y-93973094D01*
X144541467Y-94028878D01*
X144310513Y-94064087D01*
X144058145Y-94081060D01*
X143860811Y-94083329D01*
X143736723Y-94081724D01*
X143623400Y-94078879D01*
X143529354Y-94075111D01*
X143463095Y-94070741D01*
X143437612Y-94067454D01*
X143429867Y-94063868D01*
X143428695Y-94056722D01*
X143435946Y-94044678D01*
X143453467Y-94026396D01*
X143483109Y-94000534D01*
X143526721Y-93965753D01*
X143586152Y-93920714D01*
X143663252Y-93864077D01*
X143759869Y-93794501D01*
X143877854Y-93710646D01*
X144019054Y-93611174D01*
X144185320Y-93494743D01*
X144378501Y-93360014D01*
X144600446Y-93205647D01*
X144853004Y-93030302D01*
X145138025Y-92832640D01*
X145226195Y-92771522D01*
X145479863Y-92595724D01*
X145725677Y-92425421D01*
X145961164Y-92262324D01*
X146183852Y-92108143D01*
X146391266Y-91964589D01*
X146580935Y-91833372D01*
X146750385Y-91716203D01*
X146897143Y-91614793D01*
X147018735Y-91530851D01*
X147112689Y-91466090D01*
X147176532Y-91422218D01*
X147206033Y-91402121D01*
X147325032Y-91312232D01*
X147413020Y-91219895D01*
X147480312Y-91113497D01*
X147501428Y-91069583D01*
X147552346Y-90908841D01*
X147562712Y-90748556D01*
X147534028Y-90594052D01*
X147467794Y-90450653D01*
X147365513Y-90323682D01*
X147268716Y-90244267D01*
X147224094Y-90215934D01*
X147174805Y-90190710D01*
X147114221Y-90166321D01*
X147035717Y-90140490D01*
X146932666Y-90110944D01*
X146798443Y-90075407D01*
X146713620Y-90053675D01*
X146363543Y-89964601D01*
X146051884Y-89885185D01*
X145776023Y-89814679D01*
X145533343Y-89752333D01*
X145321226Y-89697400D01*
X145137055Y-89649129D01*
X144978211Y-89606774D01*
X144842077Y-89569585D01*
X144726036Y-89536813D01*
X144627469Y-89507710D01*
X144543758Y-89481527D01*
X144472286Y-89457515D01*
X144410436Y-89434926D01*
X144355589Y-89413012D01*
X144305127Y-89391022D01*
X144256433Y-89368210D01*
X144206890Y-89343825D01*
X144174311Y-89327445D01*
X143926820Y-89183639D01*
X143681125Y-89004334D01*
X143445731Y-88795827D01*
X143413104Y-88763689D01*
X143200545Y-88534254D01*
X143022280Y-88302148D01*
X142871087Y-88056429D01*
X142739742Y-87786157D01*
X142692576Y-87672333D01*
X142509672Y-87265617D01*
X142293714Y-86884343D01*
X142043055Y-86526047D01*
X141756048Y-86188265D01*
X141580916Y-86009178D01*
X141255434Y-85718010D01*
X140914086Y-85464587D01*
X140551999Y-85245774D01*
X140164301Y-85058433D01*
X139997723Y-84990348D01*
X139826291Y-84920922D01*
X139690503Y-84859252D01*
X139585042Y-84802411D01*
X139504587Y-84747470D01*
X139443822Y-84691505D01*
X139433501Y-84679858D01*
X139363000Y-84573349D01*
X139331474Y-84462128D01*
X139339030Y-84343392D01*
X139385778Y-84214337D01*
X139456276Y-84094633D01*
X139490572Y-84046838D01*
X139530822Y-83997097D01*
X139580518Y-83942013D01*
X139643154Y-83878190D01*
X139722220Y-83802233D01*
X139821211Y-83710745D01*
X139943617Y-83600330D01*
X140092932Y-83467593D01*
X140181835Y-83389091D01*
X140349257Y-83236044D01*
X140482909Y-83100889D01*
X140585406Y-82979881D01*
X140659364Y-82869271D01*
X140707398Y-82765313D01*
X140732122Y-82664261D01*
X140736959Y-82593724D01*
X140720114Y-82463356D01*
X140667203Y-82344244D01*
X140575406Y-82230525D01*
X140550849Y-82206711D01*
X140504502Y-82165830D01*
X140451998Y-82125104D01*
X140389458Y-82082365D01*
X140313003Y-82035440D01*
X140218753Y-81982160D01*
X140102830Y-81920355D01*
X139961354Y-81847854D01*
X139790447Y-81762488D01*
X139586229Y-81662087D01*
X139516490Y-81628028D01*
X139325633Y-81534544D01*
X139169287Y-81456856D01*
X139043669Y-81392720D01*
X138944994Y-81339891D01*
X138869477Y-81296122D01*
X138813335Y-81259168D01*
X138772782Y-81226786D01*
X138744035Y-81196729D01*
X138723308Y-81166752D01*
X138715727Y-81152956D01*
X138692124Y-81074400D01*
X138685094Y-80973673D01*
X138694213Y-80867381D01*
X138719062Y-80772126D01*
X138725802Y-80756036D01*
X138770513Y-80676335D01*
X138829543Y-80608428D01*
X138908292Y-80549041D01*
X139012158Y-80494899D01*
X139146540Y-80442725D01*
X139316838Y-80389245D01*
X139342580Y-80381830D01*
X139632039Y-80305015D01*
X139898754Y-80247723D01*
X140156469Y-80208011D01*
X140418927Y-80183938D01*
X140699874Y-80173561D01*
X140821833Y-80172812D01*
X141266763Y-80190410D01*
G37*
X141266763Y-80190410D02*
X141694277Y-80242974D01*
X142111431Y-80332006D01*
X142525281Y-80459007D01*
X142937521Y-80623109D01*
X143187287Y-80745568D01*
X143456470Y-80899944D01*
X143741020Y-81082922D01*
X144036887Y-81291186D01*
X144340022Y-81521420D01*
X144646373Y-81770309D01*
X144951891Y-82034535D01*
X145252525Y-82310784D01*
X145544225Y-82595740D01*
X145822942Y-82886087D01*
X146084625Y-83178509D01*
X146144333Y-83248500D01*
X146188728Y-83301918D01*
X146256155Y-83384216D01*
X146343221Y-83491200D01*
X146446531Y-83618678D01*
X146562694Y-83762456D01*
X146688316Y-83918340D01*
X146820002Y-84082139D01*
X146940815Y-84232750D01*
X147282531Y-84657809D01*
X147602044Y-85052200D01*
X147902263Y-85419334D01*
X148186098Y-85762624D01*
X148456458Y-86085483D01*
X148716251Y-86391321D01*
X148968388Y-86683552D01*
X149215776Y-86965588D01*
X149461325Y-87240841D01*
X149707944Y-87512724D01*
X149958543Y-87784648D01*
X150080688Y-87915750D01*
X150252073Y-88097341D01*
X150400855Y-88250792D01*
X150531671Y-88380369D01*
X150649159Y-88490337D01*
X150757954Y-88584960D01*
X150862695Y-88668505D01*
X150968018Y-88745236D01*
X151024166Y-88783600D01*
X151214969Y-88902082D01*
X151390939Y-88989949D01*
X151562089Y-89050858D01*
X151738433Y-89088469D01*
X151904024Y-89105094D01*
X152112964Y-89106319D01*
X152309265Y-89082816D01*
X152511513Y-89032034D01*
X152567362Y-89014049D01*
X152648263Y-88985154D01*
X152732743Y-88950996D01*
X152823244Y-88910103D01*
X152922207Y-88861003D01*
X153032074Y-88802225D01*
X153155289Y-88732297D01*
X153294292Y-88649746D01*
X153451527Y-88553100D01*
X153629435Y-88440889D01*
X153830460Y-88311639D01*
X154057042Y-88163879D01*
X154311624Y-87996138D01*
X154596648Y-87806942D01*
X154844750Y-87641473D01*
X155232202Y-87382919D01*
X155586418Y-87147190D01*
X155909121Y-86933235D01*
X156202031Y-86740002D01*
X156466869Y-86566437D01*
X156705356Y-86411489D01*
X156919215Y-86274106D01*
X157110166Y-86153236D01*
X157279930Y-86047827D01*
X157430229Y-85956826D01*
X157562784Y-85879181D01*
X157679316Y-85813841D01*
X157781547Y-85759753D01*
X157871198Y-85715865D01*
X157949990Y-85681125D01*
X158019644Y-85654481D01*
X158081881Y-85634880D01*
X158138424Y-85621271D01*
X158154938Y-85618127D01*
X158341169Y-85604828D01*
X158520267Y-85629819D01*
X158687616Y-85689495D01*
X158838600Y-85780253D01*
X158968605Y-85898490D01*
X159073015Y-86040603D01*
X159147214Y-86202988D01*
X159186589Y-86382041D01*
X159190310Y-86426503D01*
X159191707Y-86525307D01*
X159185883Y-86621571D01*
X159174639Y-86692707D01*
X159149636Y-86774403D01*
X159108285Y-86887438D01*
X159053314Y-87025357D01*
X158987453Y-87181708D01*
X158913429Y-87350038D01*
X158833974Y-87523893D01*
X158751814Y-87696820D01*
X158737976Y-87725250D01*
X158542121Y-88103501D01*
X158341640Y-88444578D01*
X158133013Y-88753624D01*
X157912718Y-89035782D01*
X157677232Y-89296198D01*
X157628847Y-89345280D01*
X157483921Y-89485692D01*
X157343040Y-89611642D01*
X157197890Y-89729528D01*
X157040159Y-89845747D01*
X156861531Y-89966696D01*
X156653695Y-90098775D01*
X156633333Y-90111389D01*
X156504279Y-90193270D01*
X156368279Y-90283190D01*
X156231462Y-90376753D01*
X156099961Y-90469564D01*
X155979905Y-90557226D01*
X155877425Y-90635343D01*
X155798653Y-90699518D01*
X155750658Y-90744329D01*
X155681557Y-90847124D01*
X155635008Y-90973569D01*
X155613389Y-91110120D01*
X155619079Y-91243237D01*
X155645923Y-91340648D01*
X155687354Y-91419979D01*
X155754237Y-91524079D01*
X155842320Y-91647556D01*
X155947354Y-91785016D01*
X156065085Y-91931065D01*
X156191263Y-92080312D01*
X156321636Y-92227362D01*
X156451952Y-92366822D01*
X156467829Y-92383250D01*
X156546627Y-92467707D01*
X156616818Y-92548951D01*
X156671678Y-92618773D01*
X156704484Y-92668965D01*
X156708043Y-92676484D01*
X156727549Y-92745163D01*
X156730034Y-92807686D01*
X156717042Y-92853646D01*
X156690119Y-92872638D01*
X156679093Y-92871398D01*
X156642587Y-92862620D01*
X156577231Y-92847931D01*
X156495597Y-92830143D01*
X156474583Y-92825641D01*
X156254247Y-92768469D01*
X156023657Y-92688093D01*
X155776257Y-92581980D01*
X155532666Y-92461788D01*
X155210350Y-92291530D01*
X154911926Y-92127596D01*
X154627041Y-91963826D01*
X154345341Y-91794064D01*
X154056473Y-91612149D01*
X153750084Y-91411923D01*
X153606500Y-91316064D01*
X153376965Y-91164818D01*
X153174853Y-91038144D01*
X152995182Y-90933370D01*
X152832971Y-90847824D01*
X152683240Y-90778835D01*
X152541007Y-90723732D01*
X152442333Y-90691720D01*
X152084707Y-90605707D01*
X151727785Y-90562020D01*
X151371487Y-90560655D01*
X151015731Y-90601610D01*
X150761386Y-90656910D01*
X150547780Y-90719571D01*
X150304981Y-90803433D01*
X150038937Y-90906087D01*
X149755594Y-91025126D01*
X149460899Y-91158140D01*
X149160798Y-91302722D01*
X149134724Y-91315722D01*
X148866829Y-91453113D01*
X148599686Y-91597403D01*
X148329360Y-91751062D01*
X148051917Y-91916559D01*
X147763424Y-92096364D01*
X147459948Y-92292947D01*
X147137555Y-92508778D01*
X146792310Y-92746327D01*
X146420282Y-93008063D01*
X146278307Y-93109206D01*
X146080660Y-93249655D01*
X145911756Y-93367761D01*
X145766581Y-93466734D01*
X145640125Y-93549781D01*
X145527375Y-93620109D01*
X145423320Y-93680927D01*
X145322947Y-93735442D01*
X145221244Y-93786863D01*
X145213916Y-93790443D01*
X144982361Y-93894395D01*
X144761814Y-93973094D01*
X144541467Y-94028878D01*
X144310513Y-94064087D01*
X144058145Y-94081060D01*
X143860811Y-94083329D01*
X143736723Y-94081724D01*
X143623400Y-94078879D01*
X143529354Y-94075111D01*
X143463095Y-94070741D01*
X143437612Y-94067454D01*
X143429867Y-94063868D01*
X143428695Y-94056722D01*
X143435946Y-94044678D01*
X143453467Y-94026396D01*
X143483109Y-94000534D01*
X143526721Y-93965753D01*
X143586152Y-93920714D01*
X143663252Y-93864077D01*
X143759869Y-93794501D01*
X143877854Y-93710646D01*
X144019054Y-93611174D01*
X144185320Y-93494743D01*
X144378501Y-93360014D01*
X144600446Y-93205647D01*
X144853004Y-93030302D01*
X145138025Y-92832640D01*
X145226195Y-92771522D01*
X145479863Y-92595724D01*
X145725677Y-92425421D01*
X145961164Y-92262324D01*
X146183852Y-92108143D01*
X146391266Y-91964589D01*
X146580935Y-91833372D01*
X146750385Y-91716203D01*
X146897143Y-91614793D01*
X147018735Y-91530851D01*
X147112689Y-91466090D01*
X147176532Y-91422218D01*
X147206033Y-91402121D01*
X147325032Y-91312232D01*
X147413020Y-91219895D01*
X147480312Y-91113497D01*
X147501428Y-91069583D01*
X147552346Y-90908841D01*
X147562712Y-90748556D01*
X147534028Y-90594052D01*
X147467794Y-90450653D01*
X147365513Y-90323682D01*
X147268716Y-90244267D01*
X147224094Y-90215934D01*
X147174805Y-90190710D01*
X147114221Y-90166321D01*
X147035717Y-90140490D01*
X146932666Y-90110944D01*
X146798443Y-90075407D01*
X146713620Y-90053675D01*
X146363543Y-89964601D01*
X146051884Y-89885185D01*
X145776023Y-89814679D01*
X145533343Y-89752333D01*
X145321226Y-89697400D01*
X145137055Y-89649129D01*
X144978211Y-89606774D01*
X144842077Y-89569585D01*
X144726036Y-89536813D01*
X144627469Y-89507710D01*
X144543758Y-89481527D01*
X144472286Y-89457515D01*
X144410436Y-89434926D01*
X144355589Y-89413012D01*
X144305127Y-89391022D01*
X144256433Y-89368210D01*
X144206890Y-89343825D01*
X144174311Y-89327445D01*
X143926820Y-89183639D01*
X143681125Y-89004334D01*
X143445731Y-88795827D01*
X143413104Y-88763689D01*
X143200545Y-88534254D01*
X143022280Y-88302148D01*
X142871087Y-88056429D01*
X142739742Y-87786157D01*
X142692576Y-87672333D01*
X142509672Y-87265617D01*
X142293714Y-86884343D01*
X142043055Y-86526047D01*
X141756048Y-86188265D01*
X141580916Y-86009178D01*
X141255434Y-85718010D01*
X140914086Y-85464587D01*
X140551999Y-85245774D01*
X140164301Y-85058433D01*
X139997723Y-84990348D01*
X139826291Y-84920922D01*
X139690503Y-84859252D01*
X139585042Y-84802411D01*
X139504587Y-84747470D01*
X139443822Y-84691505D01*
X139433501Y-84679858D01*
X139363000Y-84573349D01*
X139331474Y-84462128D01*
X139339030Y-84343392D01*
X139385778Y-84214337D01*
X139456276Y-84094633D01*
X139490572Y-84046838D01*
X139530822Y-83997097D01*
X139580518Y-83942013D01*
X139643154Y-83878190D01*
X139722220Y-83802233D01*
X139821211Y-83710745D01*
X139943617Y-83600330D01*
X140092932Y-83467593D01*
X140181835Y-83389091D01*
X140349257Y-83236044D01*
X140482909Y-83100889D01*
X140585406Y-82979881D01*
X140659364Y-82869271D01*
X140707398Y-82765313D01*
X140732122Y-82664261D01*
X140736959Y-82593724D01*
X140720114Y-82463356D01*
X140667203Y-82344244D01*
X140575406Y-82230525D01*
X140550849Y-82206711D01*
X140504502Y-82165830D01*
X140451998Y-82125104D01*
X140389458Y-82082365D01*
X140313003Y-82035440D01*
X140218753Y-81982160D01*
X140102830Y-81920355D01*
X139961354Y-81847854D01*
X139790447Y-81762488D01*
X139586229Y-81662087D01*
X139516490Y-81628028D01*
X139325633Y-81534544D01*
X139169287Y-81456856D01*
X139043669Y-81392720D01*
X138944994Y-81339891D01*
X138869477Y-81296122D01*
X138813335Y-81259168D01*
X138772782Y-81226786D01*
X138744035Y-81196729D01*
X138723308Y-81166752D01*
X138715727Y-81152956D01*
X138692124Y-81074400D01*
X138685094Y-80973673D01*
X138694213Y-80867381D01*
X138719062Y-80772126D01*
X138725802Y-80756036D01*
X138770513Y-80676335D01*
X138829543Y-80608428D01*
X138908292Y-80549041D01*
X139012158Y-80494899D01*
X139146540Y-80442725D01*
X139316838Y-80389245D01*
X139342580Y-80381830D01*
X139632039Y-80305015D01*
X139898754Y-80247723D01*
X140156469Y-80208011D01*
X140418927Y-80183938D01*
X140699874Y-80173561D01*
X140821833Y-80172812D01*
X141266763Y-80190410D01*
G04 #@! TD*
D11*
G04 #@! TO.C,H1*
X154838400Y-61569600D03*
G04 #@! TD*
M02*
